<svg width="32" height="32" viewBox="0 0 32 32" fill="none" xmlns="http://www.w3.org/2000/svg">
<circle cx="16" cy="16" r="16" fill="#DCDCDC"/>
<path d="M19.2829 13.011C18.6279 12.9966 18.0047 12.7262 17.5466 12.2579C17.0885 11.7896 16.832 11.1606 16.832 10.5055C16.832 9.85042 17.0885 9.22137 17.5466 8.75307C18.0047 8.28477 18.6279 8.01445 19.2829 8C19.612 7.99976 19.9379 8.06446 20.242 8.19038C20.546 8.31631 20.8223 8.50099 21.0549 8.73385C21.2874 8.96671 21.4718 9.24317 21.5973 9.54739C21.7229 9.85161 21.7872 10.1776 21.7865 10.5067C21.787 10.8357 21.7226 11.1615 21.597 11.4655C21.4713 11.7695 21.2869 12.0458 21.0543 12.2784C20.8218 12.511 20.5456 12.6955 20.2416 12.8212C19.9376 12.9469 19.6118 13.0114 19.2829 13.011ZM19.2829 16.7373C19.2829 16.7373 19.8908 16.8159 20.2628 16.3007C20.5993 15.8299 20.6243 14.2702 20.6268 13.9879H17.9365C17.9274 15.1104 18.0579 15.9287 18.3262 16.3409C18.5969 16.7617 19.2829 16.7379 19.2829 16.7379V16.7373Z" fill="#01897B"/>
<path d="M8.36582 18.9464C8.27375 19.0976 8.13046 19.405 8.13046 19.5989C8.13046 20.1842 8.60302 20.6544 9.18656 20.6544H12.6604C13.0549 20.6544 13.5732 20.4952 13.7945 20.1635C14.5415 19.0544 15.3311 17.8854 15.564 17.536V24.1044H24.3129V17.3684C24.3129 15.6068 22.9367 14.0208 21.3086 14.0208C21.3129 14.8476 21.2019 16.2208 20.7177 16.822C20.2123 17.436 19.6171 17.3824 19.6171 17.3824V19.9452C19.8047 20.0217 19.9597 20.1611 20.0556 20.3395C20.1516 20.5179 20.1824 20.7241 20.1429 20.9227C20.1034 21.1214 19.9959 21.3 19.839 21.4281C19.6821 21.5561 19.4855 21.6256 19.283 21.6245C19.1683 21.6246 19.0547 21.602 18.9487 21.5581C18.8427 21.5142 18.7464 21.4498 18.6654 21.3687C18.5843 21.2875 18.5201 21.1911 18.4763 21.0851C18.4326 20.979 18.4102 20.8654 18.4104 20.7507C18.4104 20.3879 18.6311 20.0769 18.947 19.9452V17.3708C18.947 17.3708 18.4275 17.4135 17.9366 16.9214C17.2811 16.2385 17.2567 14.3031 17.258 13.9866H17.0988C16.5698 13.9862 16.0488 14.1166 15.5823 14.3662C15.1158 14.6158 14.7183 14.9768 14.425 15.4171L12.3451 18.5556L9.18961 18.5543L4.73348 14.0976C4.69375 14.0576 4.64649 14.0258 4.59442 14.0041C4.54236 13.9825 4.48652 13.9713 4.43012 13.9713C4.37373 13.9713 4.31789 13.9825 4.26582 14.0041C4.21376 14.0258 4.1665 14.0576 4.12677 14.0976C4.0867 14.1374 4.05488 14.1847 4.03312 14.2368C4.01137 14.2889 4.00011 14.3448 4 14.4013C3.99989 14.4578 4.01092 14.5137 4.03246 14.5659C4.05401 14.6181 4.08564 14.6656 4.12555 14.7055L8.36643 18.947L8.36582 18.9464Z" fill="#F7921E"/>
</svg>
