<svg width="29" height="29" viewBox="0 0 29 29" fill="none" xmlns="http://www.w3.org/2000/svg">
<circle cx="14.5" cy="14.5" r="14.5" fill="#01897B"/>
<path d="M8.15625 10.875V9.425H9.56597V8.7C9.56597 8.31544 9.7145 7.94662 9.97887 7.6747C10.2432 7.40277 10.6018 7.25 10.9757 7.25H15.2049V12.325L16.967 11.2375L18.7292 12.325V7.25H19.434C20.1741 7.25 20.8438 7.93875 20.8438 8.7V20.3C20.8438 21.0613 20.1741 21.75 19.434 21.75H10.9757C10.2356 21.75 9.56597 21.0613 9.56597 20.3V19.575H8.15625V18.125H9.56597V15.225H8.15625V13.775H9.56597V10.875H8.15625ZM10.9757 13.775H9.56597V15.225H10.9757V13.775ZM10.9757 10.875V9.425H9.56597V10.875H10.9757ZM10.9757 19.575V18.125H9.56597V19.575H10.9757Z" fill="#FF9A6C"/>
</svg>
