<svg width="13" height="15" viewBox="0 0 13 15" fill="none" xmlns="http://www.w3.org/2000/svg">
<path d="M0.15625 3.875V2.425H1.56597V1.7C1.56597 1.31544 1.7145 0.946623 1.97887 0.674695C2.24324 0.402767 2.60181 0.25 2.97569 0.25H7.20486V5.325L8.96701 4.2375L10.7292 5.325V0.25H11.434C12.1741 0.25 12.8438 0.93875 12.8438 1.7V13.3C12.8438 14.0613 12.1741 14.75 11.434 14.75H2.97569C2.23559 14.75 1.56597 14.0613 1.56597 13.3V12.575H0.15625V11.125H1.56597V8.225H0.15625V6.775H1.56597V3.875H0.15625ZM2.97569 6.775H1.56597V8.225H2.97569V6.775ZM2.97569 3.875V2.425H1.56597V3.875H2.97569ZM2.97569 12.575V11.125H1.56597V12.575H2.97569Z" fill="#FF9A6C"/>
</svg>
