<svg width="32" height="32" viewBox="0 0 32 32" fill="none" xmlns="http://www.w3.org/2000/svg">
<circle cx="16" cy="16" r="16" fill="#DCDCDC"/>
<path d="M9.77821 12.6455C10.5561 11.2982 12.2835 10.8353 13.6308 11.6132L16.7824 13.4328L17.6467 11.9358L14.4951 10.1162C12.3205 8.86072 9.53671 9.60664 8.28122 11.7812C7.02572 13.9558 7.77165 16.7396 9.94623 17.9951L13.0978 19.8147L13.9621 18.3177L10.8105 16.4981C9.46322 15.7203 9.00035 13.9928 9.77821 12.6455ZM12.5537 15.2985L18.8568 18.9376L19.7666 17.3618L13.4635 13.7227L12.5537 15.2985ZM22.374 14.6651L19.2225 12.8456L18.3582 14.3425L21.5098 16.1621C22.857 16.94 23.3199 18.6674 22.5421 20.0147C21.7642 21.362 20.0367 21.8249 18.6894 21.047L15.5379 19.2275L14.6736 20.7245L17.8251 22.544C19.9997 23.7995 22.7836 23.0536 24.0391 20.879C25.2945 18.7044 24.5486 15.9206 22.374 14.6651Z" fill="#01897B"/>
</svg>
