<svg width="32" height="32" viewBox="0 0 32 32" fill="none" xmlns="http://www.w3.org/2000/svg">
<circle cx="16" cy="16" r="16" fill="#01897B"/>
<path d="M22.6795 18.6765C22.5706 18.5995 22.4969 18.483 22.4745 18.3524C22.4521 18.2218 22.4827 18.0878 22.5598 17.9795L23.4366 16.756C23.5143 16.6482 23.632 16.5752 23.7639 16.553C23.8958 16.5308 24.0313 16.5612 24.1406 16.6375C24.3674 16.7965 24.4209 17.1105 24.2603 17.3345L23.3836 18.558C23.3058 18.6658 23.1881 18.7387 23.0562 18.7609C22.9243 18.7831 22.7889 18.7528 22.6795 18.6765Z" fill="#66757F"/>
<path d="M16.4141 6.99597C19.9494 6.99597 25 7.99597 25 12.996C25 16.496 20.9596 21.496 17.9292 21.496C14.8989 21.496 16.4141 6.99597 16.4141 6.99597Z" fill="#99AAB5"/>
<path d="M21.9698 14.496C21.4647 17.496 19.647 18.5445 18.9394 20.996C17.9293 24.496 15.4041 24.996 13.3838 24.996C9.84845 24.996 11.4363 21.712 9.84845 16.996C8.33328 12.496 8.47672 9.04647 13.3838 7.99597C18.0556 6.99597 22.795 9.59297 21.9698 14.496Z" fill="#FFDC5D"/>
<path d="M19.4181 10.1015C18.0832 9.01247 15.9271 8.59247 13.7917 9.00547C12.5816 9.23897 11.667 9.82747 11.074 10.754C9.80281 12.7405 10.5064 15.563 10.5372 15.682C10.5725 15.8078 10.6563 15.915 10.7704 15.9805C10.8846 16.046 11.0201 16.0647 11.148 16.0325C11.2759 16.0004 11.386 15.92 11.4548 15.8085C11.5235 15.697 11.5455 15.5633 11.516 15.436C11.4638 15.2118 11.4234 14.9852 11.3947 14.757C11.4245 14.755 11.4538 14.7605 11.4841 14.753C13.0241 14.3775 14.0746 14.7275 14.3635 15.714C14.6327 16.6345 14.1382 17.9705 13.1301 18.3045C12.621 18.4365 11.9286 18.803 11.6533 19.404C11.5266 19.681 11.4336 20.127 11.7119 20.6785C11.7415 20.7372 11.7825 20.7897 11.8326 20.8327C11.8826 20.8758 11.9408 20.9086 12.0037 20.9294C12.0666 20.9502 12.1331 20.9584 12.1992 20.9537C12.2654 20.949 12.3299 20.9314 12.3892 20.902C12.4485 20.8726 12.5014 20.8319 12.5449 20.7823C12.5884 20.7327 12.6215 20.6751 12.6425 20.6128C12.6635 20.5505 12.6718 20.4847 12.6671 20.4192C12.6624 20.3537 12.6447 20.2897 12.615 20.231C12.5059 20.015 12.5387 19.8915 12.5725 19.817C12.6927 19.555 13.12 19.3405 13.417 19.2625C15.0483 18.7245 15.7362 16.8135 15.3332 15.436C14.9872 14.253 13.7508 13.203 11.3271 13.7645C11.323 12.9725 11.4473 12.0395 11.9276 11.2895C12.372 10.595 13.0453 10.169 13.9852 9.98747C15.8332 9.63097 17.668 9.97097 18.7756 10.874C19.5544 11.5085 19.9494 12.391 19.9494 13.496C19.9494 15.236 19.4403 15.874 18.7357 16.757C18.5029 17.0485 18.262 17.35 18.014 17.7185C17.9397 17.8288 17.9126 17.9639 17.9389 18.0939C17.9651 18.224 18.0425 18.3384 18.1539 18.412C18.2653 18.4856 18.4018 18.5123 18.5331 18.4864C18.6645 18.4604 18.7801 18.3838 18.8544 18.2735C19.0797 17.9385 19.308 17.6535 19.5277 17.3775C20.264 16.4545 20.9595 15.5835 20.9595 13.496C20.9595 12.0975 20.4261 10.9235 19.4181 10.1015Z" fill="#EF9645"/>
<path d="M12.8787 18.496C14.2733 18.496 15.4039 17.3767 15.4039 15.996C15.4039 14.6153 14.2733 13.496 12.8787 13.496C11.484 13.496 10.3534 14.6153 10.3534 15.996C10.3534 17.3767 11.484 18.496 12.8787 18.496Z" fill="#66757F"/>
<path d="M12.8787 17.496C13.7155 17.496 14.3938 16.8244 14.3938 15.996C14.3938 15.1675 13.7155 14.496 12.8787 14.496C12.0419 14.496 11.3635 15.1675 11.3635 15.996C11.3635 16.8244 12.0419 17.496 12.8787 17.496Z" fill="#99AAB5"/>
<path d="M12.8794 16.496C12.843 16.496 12.8062 16.492 12.7693 16.484C10.6582 16.0195 9.4031 14.232 9.64654 12.0355C9.91624 9.60847 12.1484 6.99597 16.4141 6.99597C16.548 6.99597 16.6767 7.04865 16.7714 7.14242C16.8661 7.23619 16.9193 7.36336 16.9193 7.49597C16.9193 7.62858 16.8661 7.75576 16.7714 7.84953C16.6767 7.94329 16.5482 7.99597 16.4143 7.99597C12.7511 7.99597 10.8799 10.0795 10.6511 12.1445C10.5087 13.4275 11.0354 15.0785 12.9885 15.508C13.1098 15.5348 13.2169 15.6049 13.2892 15.705C13.3615 15.805 13.3941 15.928 13.3806 16.0503C13.3671 16.1726 13.3085 16.2857 13.216 16.3679C13.1235 16.4502 13.0037 16.4958 12.8794 16.496Z" fill="#CCD6DD"/>
</svg>
