<svg width="32" height="32" viewBox="0 0 32 32" fill="none" xmlns="http://www.w3.org/2000/svg">
<circle cx="16" cy="16" r="16" fill="#DCDCDC"/>
<path d="M22.2325 13.5611L11.7936 24H9.42854L12.5602 17.7367H8.89844L14.1179 7.29779H19.9816L16.8499 13.5611H22.2325ZM19.7043 14.605H15.1618L18.2934 8.34168H14.7622L10.5866 16.6928H14.2484L11.1167 22.9561H11.3532L19.7043 14.605ZM21.947 21.268C22.1971 21.4039 22.4228 21.5697 22.6239 21.7654C22.8251 21.9612 22.9964 22.1759 23.1377 22.4097C23.2791 22.6435 23.3878 22.8963 23.464 23.1682C23.5401 23.44 23.5781 23.7173 23.5781 24H22.5342C22.5342 23.7119 22.4799 23.4427 22.3711 23.1926C22.2624 22.9425 22.1129 22.7196 21.9226 22.5239C21.7323 22.3282 21.5121 22.1786 21.262 22.0753C21.0119 21.972 20.7401 21.9177 20.4465 21.9122C20.1583 21.9122 19.8892 21.9666 19.6391 22.0753C19.389 22.1841 19.1661 22.3336 18.9703 22.5239C18.7746 22.7142 18.6251 22.9344 18.5218 23.1845C18.4185 23.4346 18.3641 23.7064 18.3587 24H17.3148C17.3148 23.7173 17.3528 23.4427 17.429 23.1763C17.5051 22.9099 17.6138 22.6571 17.7552 22.4179C17.8965 22.1786 18.0678 21.9612 18.269 21.7654C18.4701 21.5697 18.6958 21.4039 18.9459 21.268C18.761 21.0777 18.6169 20.8575 18.5136 20.6074C18.4103 20.3573 18.3587 20.0963 18.3587 19.8245C18.3587 19.5363 18.413 19.2672 18.5218 19.0171C18.6305 18.767 18.78 18.5441 18.9703 18.3483C19.1606 18.1526 19.3808 18.0031 19.6309 17.8998C19.881 17.7965 20.1529 17.7421 20.4465 17.7367C20.7346 17.7367 21.0037 17.791 21.2538 17.8998C21.5039 18.0085 21.7269 18.158 21.9226 18.3483C22.1183 18.5386 22.2678 18.7588 22.3711 19.0089C22.4744 19.259 22.5288 19.5309 22.5342 19.8245C22.5342 20.0963 22.4826 20.3573 22.3793 20.6074C22.276 20.8575 22.1319 21.0777 21.947 21.268ZM20.4465 20.8683C20.5933 20.8683 20.7292 20.8412 20.8542 20.7868C20.9793 20.7324 21.088 20.659 21.1804 20.5666C21.2729 20.4742 21.349 20.3627 21.4088 20.2322C21.4686 20.1017 21.4958 19.9658 21.4903 19.8245C21.4903 19.6777 21.4632 19.5417 21.4088 19.4167C21.3544 19.2916 21.281 19.1829 21.1886 19.0905C21.0962 18.998 20.9847 18.9219 20.8542 18.8621C20.7237 18.8023 20.5878 18.7751 20.4465 18.7806C20.2997 18.7806 20.1637 18.8078 20.0387 18.8621C19.9136 18.9165 19.8049 18.9899 19.7125 19.0823C19.62 19.1747 19.5439 19.2862 19.4841 19.4167C19.4243 19.5472 19.3971 19.6831 19.4026 19.8245C19.4026 19.9713 19.4298 20.1072 19.4841 20.2322C19.5385 20.3573 19.6119 20.466 19.7043 20.5584C19.7967 20.6509 19.9082 20.727 20.0387 20.7868C20.1692 20.8466 20.3051 20.8738 20.4465 20.8683Z" fill="#53368E"/>
</svg>
