<svg width="32" height="32" viewBox="0 0 32 32" fill="none" xmlns="http://www.w3.org/2000/svg">
<circle cx="16" cy="16" r="16" fill="#01897B"/>
<path d="M5.8881 25.0986C5.8881 25.0986 4.74472 21.6855 5.7898 20.2666C6.83488 18.8476 7.66382 18.2214 7.14013 17.0769C6.61643 15.9324 6.84983 14.0622 8.2335 13.5002C9.61717 12.9382 8.97506 10.8236 10.5076 9.60924C12.0402 8.39484 13.2893 8.94436 14.024 7.4464C14.669 6.13029 16.0078 4.89032 17.3472 6.16495C17.641 6.44454 17.8381 6.8088 17.9405 7.20318C18.0474 7.61575 18.4216 8.32949 19.6851 9.04324C21.6293 10.1417 20.8584 10.8498 21.6391 12.1181C22.4197 13.3871 24.9232 12.7484 25.8625 15.1823C26.8024 17.6167 24.7755 18.4339 24.9399 19.8887C25.1043 21.3434 26.0781 22.1373 25.4848 25.0582" stroke="#E5C2A5" stroke-width="1.07273" stroke-miterlimit="10"/>
<path d="M5.33575 25.1355C5.33575 25.1355 3.99807 21.3593 5.12593 19.9256C6.25379 18.4913 7.14768 17.8588 6.5826 16.7024C6.01752 15.5459 6.26931 13.6559 7.7622 13.0882C9.25567 12.5205 8.56239 10.3832 10.2157 9.15632C11.8689 7.92943 12.9755 8.04649 13.7683 6.53319C14.4644 5.20401 16.1499 4.38854 17.5956 5.67681C17.9124 5.95924 18.1251 6.32747 18.2354 6.72583C18.351 7.14237 18.7545 7.86408 20.1181 8.58521C22.2157 9.69504 21.3839 10.4105 22.2266 11.6925C23.0694 12.9745 25.3981 12.5347 26.4397 14.6822C27.6009 17.0769 25.797 18.0395 25.9747 19.5096C26.1523 20.9797 26.5978 22.147 25.958 25.0986" stroke="#E5C2A5" stroke-width="1.07273" stroke-miterlimit="10"/>
<path d="M17.1647 6.92643C17.4516 7.20602 17.6441 7.57028 17.7442 7.96466C17.8488 8.37722 18.2144 9.09097 19.4486 9.80471C21.3473 10.9032 20.5943 11.6112 21.3571 12.8796C22.1199 14.1486 24.2923 13.1751 25.2098 15.609C26.1272 18.0429 24.0123 19.1414 24.1727 20.5967C24.3331 22.0515 25.5961 22.1373 25.0166 25.0582H5.87575C5.87575 25.0582 4.85481 22.447 5.87575 21.0275C6.89669 19.6085 7.70608 18.9817 7.19446 17.8378C6.68284 16.6933 6.91049 14.8231 8.26254 14.2611C9.61459 13.6991 8.98685 11.5845 10.4838 10.3701C11.9807 9.15575 13.2005 9.70527 13.9185 8.20731C14.5485 6.89176 15.8558 5.6518 17.1647 6.92643Z" fill="#F7E4D2"/>
<path d="M17.0889 7.61063C17.3631 7.87772 17.5476 8.22664 17.6431 8.6034C17.7431 8.99778 18.0926 9.68084 19.2733 10.3639C21.0893 11.4146 20.3696 12.092 21.0991 13.3053C21.8286 14.5185 23.9066 13.5877 24.7844 15.9159C25.6617 18.2441 23.6388 19.2948 23.7922 20.6865C23.9457 22.0782 25.1535 22.16 24.5993 24.9537H6.29144C6.29144 24.9537 5.31477 22.4561 6.29144 21.0985C7.26812 19.7409 8.04187 19.142 7.55267 18.0475C7.06347 16.953 7.28134 15.1635 8.57418 14.6265C9.86702 14.0889 9.26688 12.0664 10.6983 10.9049C12.1296 9.74335 13.2972 10.2684 13.9835 8.83582C14.5866 7.5771 15.8369 6.39112 17.0889 7.61063Z" stroke="white" stroke-width="1.07273" stroke-miterlimit="10"/>
<path d="M10.0247 14.5083C10.1374 14.4435 10.2857 14.4901 10.3098 14.4543C10.334 14.4179 10.1886 14.306 10.1414 14.1878C10.0943 14.0702 10.1472 13.765 10.3392 13.9088C10.5312 14.0525 10.5398 14.2975 10.5398 14.2975C10.5398 14.2975 10.5427 14.3111 10.5455 14.3333C10.6105 14.1815 10.5754 13.973 10.5754 13.9701C10.5737 13.9588 10.5812 13.948 10.5927 13.9457C10.6047 13.944 10.6151 13.9514 10.6168 13.9627C10.6185 13.9718 10.6461 14.1389 10.6047 14.2901C10.7059 14.1753 10.8525 14.1054 10.8606 14.1014C10.8709 14.0963 10.8836 14.1008 10.8887 14.1116C10.8939 14.1219 10.8893 14.1344 10.8784 14.1395C10.8761 14.1406 10.6668 14.2401 10.5852 14.3895C10.6105 14.3713 10.6283 14.3622 10.6283 14.3622C10.6283 14.3622 10.8215 14.2088 11.0566 14.2588C11.2917 14.3088 11.0928 14.5475 10.9721 14.5895C10.8514 14.6316 10.6703 14.5958 10.6582 14.6373C10.6461 14.6793 10.7789 14.7595 10.8031 14.8862C10.8272 15.0129 10.6766 15.1447 10.5921 15.1504C10.5156 15.1555 10.3995 14.9015 10.4012 14.7117C10.2529 14.8271 10.004 14.897 9.96034 14.839C9.90975 14.772 9.91205 14.5731 10.0247 14.5083Z" fill="#DBA291"/>
<path d="M22.5186 16.4751C22.5399 16.3711 22.6497 16.3063 22.6399 16.2716C22.6307 16.237 22.4813 16.2648 22.3824 16.229C22.2835 16.1932 22.1225 15.9954 22.3163 15.9568C22.51 15.9182 22.6669 16.046 22.6669 16.046C22.6669 16.046 22.6773 16.0517 22.6922 16.0619C22.6336 15.9398 22.4847 15.8471 22.483 15.8466C22.4749 15.8414 22.4721 15.8312 22.4772 15.8227C22.4824 15.8142 22.4928 15.8119 22.5014 15.817C22.5077 15.821 22.6273 15.8949 22.6986 16.0023C22.6819 15.8784 22.7187 15.7505 22.7204 15.7437C22.7233 15.7346 22.7325 15.7295 22.7417 15.7318C22.7509 15.7346 22.756 15.7437 22.7537 15.7528C22.7532 15.7545 22.7014 15.9363 22.7497 16.0676C22.752 16.0426 22.756 16.0267 22.756 16.0267C22.756 16.0267 22.7658 15.8255 22.925 15.7096C23.0843 15.5937 23.1245 15.8449 23.0849 15.9409C23.0452 16.0369 22.9245 16.1279 22.944 16.158C22.9636 16.1881 23.0854 16.1512 23.178 16.2051C23.27 16.2597 23.27 16.4228 23.2274 16.4779C23.1889 16.5273 22.9682 16.4597 22.8503 16.3552C22.8417 16.508 22.7497 16.6978 22.6894 16.6927C22.6198 16.6887 22.4974 16.5791 22.5186 16.4751Z" fill="#DBA291"/>
<path d="M16.0553 9.17166C16.0766 9.06767 16.1864 9.00288 16.1766 8.96822C16.1674 8.93356 16.018 8.9614 15.9191 8.9256C15.8202 8.8898 15.6593 8.69204 15.853 8.6534C16.0467 8.61476 16.2036 8.74262 16.2036 8.74262C16.2036 8.74262 16.214 8.7483 16.2289 8.75853C16.1703 8.63635 16.0214 8.54372 16.0197 8.54315C16.0116 8.53804 16.0088 8.52781 16.0139 8.51929C16.0191 8.51076 16.0295 8.50849 16.0375 8.5136C16.0438 8.51758 16.1634 8.59146 16.2347 8.69886C16.218 8.57498 16.2548 8.44712 16.2565 8.4403C16.2594 8.43121 16.2686 8.42609 16.2778 8.42836C16.287 8.43121 16.2922 8.4403 16.2899 8.44939C16.2893 8.45109 16.2376 8.63294 16.2858 8.76421C16.2881 8.73921 16.2922 8.7233 16.2922 8.7233C16.2922 8.7233 16.3019 8.52213 16.4612 8.4062C16.6204 8.29027 16.6606 8.54145 16.621 8.63749C16.5813 8.73352 16.4606 8.82445 16.4801 8.85457C16.4997 8.88468 16.6216 8.84775 16.7141 8.90173C16.8061 8.95629 16.8061 9.11938 16.7635 9.1745C16.725 9.22394 16.5043 9.15632 16.3864 9.05176C16.3778 9.20462 16.2853 9.39442 16.2255 9.38931C16.1565 9.3859 16.0341 9.27622 16.0553 9.17166Z" fill="#DBA291"/>
<path d="M18.9893 11.9937C19.0094 12.021 19.0485 12.0266 19.0755 12.0062C19.1031 11.9863 19.1088 11.9477 19.0881 11.9204C19.068 11.8931 19.0289 11.8874 19.0019 11.9079C18.9743 11.9283 18.9686 11.9664 18.9893 11.9937Z" fill="white"/>
<path d="M18.8291 11.7329C18.8492 11.7601 18.8883 11.7658 18.9153 11.7454C18.9429 11.7255 18.9487 11.6868 18.928 11.6595C18.9079 11.6323 18.8688 11.6266 18.8418 11.647C18.8147 11.6675 18.809 11.7061 18.8291 11.7329Z" fill="white"/>
<path d="M18.6445 12.1437C18.6647 12.171 18.7038 12.1767 18.7308 12.1562C18.7584 12.1363 18.7641 12.0977 18.7434 12.0704C18.7233 12.0431 18.6842 12.0374 18.6572 12.0579C18.6296 12.0784 18.6239 12.117 18.6445 12.1437Z" fill="white"/>
<path d="M10.6699 12.7097C10.6901 12.737 10.7291 12.7427 10.7562 12.7222C10.7838 12.7023 10.7895 12.6637 10.7688 12.6364C10.7487 12.6091 10.7096 12.6035 10.6826 12.6239C10.6556 12.6444 10.6498 12.683 10.6699 12.7097Z" fill="white"/>
<path d="M10.5108 12.4495C10.5309 12.4767 10.57 12.4824 10.597 12.462C10.6246 12.4421 10.6303 12.4034 10.6096 12.3761C10.5895 12.3489 10.5504 12.3432 10.5234 12.3636C10.4964 12.3841 10.4906 12.4222 10.5108 12.4495Z" fill="white"/>
<path d="M10.3252 12.8603C10.3453 12.8876 10.3844 12.8933 10.4114 12.8728C10.439 12.8529 10.4448 12.8143 10.4241 12.787C10.404 12.7597 10.3649 12.754 10.3379 12.7745C10.3103 12.795 10.3045 12.833 10.3252 12.8603Z" fill="white"/>
<path d="M13.6045 10.2304C13.6246 10.2576 13.6637 10.2633 13.6907 10.2429C13.7183 10.223 13.7241 10.1843 13.7034 10.157C13.6833 10.1298 13.6442 10.1241 13.6172 10.1445C13.5901 10.1644 13.5844 10.2031 13.6045 10.2304Z" fill="white"/>
<path d="M13.4453 9.96952C13.4654 9.99679 13.5045 10.0025 13.5316 9.98202C13.5591 9.96213 13.5649 9.92349 13.5442 9.89621C13.5241 9.86893 13.485 9.86325 13.458 9.88371C13.4304 9.90417 13.4246 9.94224 13.4453 9.96952Z" fill="white"/>
<path d="M13.2598 10.3804C13.2799 10.4077 13.319 10.4133 13.346 10.3929C13.3736 10.373 13.3794 10.3343 13.3587 10.3071C13.3385 10.2798 13.2994 10.2741 13.2724 10.2946C13.2454 10.315 13.2397 10.3537 13.2598 10.3804Z" fill="white"/>
<path d="M12.8048 13.7889C12.8312 13.7673 12.8347 13.7286 12.8128 13.7031C12.791 13.6769 12.7519 13.6735 12.726 13.6951C12.6996 13.7167 12.6961 13.7553 12.718 13.7809C12.7398 13.807 12.7789 13.8105 12.8048 13.7889Z" fill="white"/>
<path d="M12.5499 13.9599C12.5763 13.9383 12.5798 13.8997 12.5579 13.8741C12.5361 13.848 12.497 13.8446 12.4711 13.8662C12.4447 13.8877 12.4412 13.9264 12.4631 13.952C12.4849 13.9781 12.524 13.9815 12.5499 13.9599Z" fill="white"/>
<path d="M12.9747 14.1219C13.0011 14.1003 13.0046 14.0616 12.9827 14.0361C12.9609 14.0099 12.9218 14.0065 12.8959 14.0281C12.8695 14.0497 12.866 14.0883 12.8879 14.1139C12.9091 14.1395 12.9482 14.1435 12.9747 14.1219Z" fill="white"/>
<path d="M21.7048 15.0732C21.7048 15.1163 21.7399 15.151 21.7836 15.151C21.8267 15.151 21.8623 15.1163 21.8623 15.0732C21.8623 15.03 21.8272 14.9953 21.7836 14.9953C21.7399 14.9953 21.7048 15.03 21.7048 15.0732Z" fill="white"/>
<path d="M11.1737 11.0657C11.1737 11.1191 11.2174 11.1623 11.2714 11.1623C11.3255 11.1623 11.3691 11.1191 11.3691 11.0657C11.3691 11.0123 11.3255 10.9691 11.2714 10.9691C11.2174 10.9691 11.1737 11.0123 11.1737 11.0657Z" fill="white"/>
<path d="M17.9178 14.0747C17.9178 14.1281 17.9615 14.1713 18.0156 14.1713C18.0696 14.1713 18.1133 14.1281 18.1133 14.0747C18.1133 14.0213 18.0696 13.9781 18.0156 13.9781C17.9615 13.9781 17.9178 14.0213 17.9178 14.0747Z" fill="white"/>
<path d="M16.0523 7.77031C16.0523 7.8027 16.0787 7.82941 16.1121 7.82941C16.1449 7.82941 16.1719 7.80327 16.1719 7.77031C16.1719 7.73792 16.1454 7.71121 16.1121 7.71121C16.0793 7.71121 16.0523 7.73735 16.0523 7.77031Z" fill="white"/>
<path d="M11.4978 16.4199C11.4978 16.4682 11.5374 16.5075 11.5863 16.5075C11.6351 16.5075 11.6748 16.4682 11.6748 16.4199C11.6748 16.3716 11.6351 16.3324 11.5863 16.3324C11.5374 16.3324 11.4978 16.3716 11.4978 16.4199Z" fill="white"/>
<path d="M17.3034 9.7604C17.3034 9.8087 17.3431 9.84791 17.3919 9.84791C17.4408 9.84791 17.4805 9.8087 17.4805 9.7604C17.4805 9.71209 17.4408 9.67288 17.3919 9.67288C17.3431 9.67288 17.3034 9.71209 17.3034 9.7604Z" fill="white"/>
<path d="M27.0614 24.4235H3.43091C3.25673 24.4235 3.20901 24.6604 3.36997 24.7258C4.95024 25.3679 9.14207 26.8216 15.0165 26.9881C20.4793 27.1426 25.0431 25.7373 27.1585 24.944C27.4408 24.8377 27.3637 24.4235 27.0614 24.4235Z" fill="#F7E4D2"/>
<path d="M19.1852 19.5307C19.2375 18.6078 20.2159 18.4225 20.3136 18.193C20.4114 17.9634 20.5695 17.4934 21.2737 17.2724C21.9778 17.0507 22.4165 17.4605 22.8108 17.2093C23.2057 16.9587 23.557 16.7512 24.0272 17.0666C24.4974 17.382 24.8308 17.2661 25.5103 17.19C26.1892 17.1138 26.729 17.7616 26.729 17.7616C26.9946 18.0026 26.7382 18.3077 26.1122 18.4572C25.2281 18.6686 25.4804 19.2363 25.009 19.4664C24.5377 19.6966 23.9772 19.4687 23.6225 19.7472C23.2672 20.0256 23.2943 20.5308 22.8545 20.649C22.4147 20.7672 21.8962 20.4791 21.6444 20.6496C21.3926 20.8206 21.2558 21.3264 20.9558 21.5014C20.6557 21.6764 19.8061 21.7196 19.8061 21.7196L19.6008 21.6708C19.6003 21.6696 19.1329 20.453 19.1852 19.5307Z" fill="#B9BC7E"/>
<path d="M19.7391 21.3798C19.7391 21.3798 19.961 19.496 21.2711 18.6385C22.5818 17.7804 24.7306 17.7599 25.3819 17.7247C26.0332 17.6889 26.0332 17.6889 26.0332 17.6889C26.0332 17.6889 23.4033 17.5235 22.0995 18.048C20.3088 18.7675 19.7989 19.9432 19.7391 21.3798Z" fill="#FFFBF4"/>
<path d="M20.7008 19.3966C20.7008 19.3966 21.7965 18.4288 21.9615 17.6236C22.1265 16.8183 21.6424 16.5171 21.9684 16.1097C22.2943 15.7017 22.1489 14.9703 21.7976 14.7845C21.4464 14.5986 21.3027 14.1935 21.2688 13.6332C21.2343 13.0728 20.8026 12.8643 20.6686 13.02C20.3002 13.4479 20.4835 13.8855 19.9196 14.1577C19.3557 14.4299 19.1562 14.9936 19.2976 15.4556C19.439 15.917 18.8176 16.0648 18.406 16.7694C17.9944 17.4741 18.2928 18.0634 18.4669 18.5055C18.6411 18.9476 18.1577 19.4801 18.3336 19.9898C18.5095 20.4996 19.7218 21.3383 19.7218 21.3383C19.7218 21.3383 20.3082 21.123 20.7008 19.3966Z" fill="#CFC293"/>
<path d="M20.7119 13.8002C20.7119 13.8002 20.3503 15.1794 19.9146 16.9575C19.4789 18.7357 19.4053 20.9286 19.4053 20.9286C19.4053 20.9286 19.1529 19.3369 19.48 17.8435C19.8071 16.3501 20.6843 14.0298 20.7119 13.8002Z" fill="#FFFBF4"/>
<path d="M20.5536 20.1166C20.7031 19.3591 19.9495 19.0101 19.9179 18.8044C19.8862 18.5987 19.8564 18.1861 19.3321 17.8639C18.8078 17.5417 18.3681 17.7838 18.1002 17.5008C17.8329 17.2178 17.5914 16.9786 17.1448 17.1383C16.6981 17.2979 16.4527 17.1365 15.9186 16.9371C15.3846 16.7376 14.8132 17.1525 14.8132 17.1525C14.5482 17.2934 14.6919 17.5929 15.1679 17.8406C15.8399 18.1913 15.5174 18.5998 15.8514 18.8817C16.1853 19.1636 16.686 19.0931 16.916 19.3903C17.1459 19.6881 17.0189 20.0916 17.3506 20.2768C17.6817 20.4621 18.1617 20.3336 18.3301 20.5229C18.4985 20.7121 18.5043 21.1497 18.7107 21.3525C18.9176 21.5548 19.5965 21.7628 19.5965 21.7628L19.773 21.7645C19.773 21.7645 20.4042 20.8741 20.5536 20.1166Z" fill="#B9BC7E"/>
<path d="M19.7214 21.5009C19.7214 21.5009 19.9335 19.9307 19.0505 18.9698C18.1676 18.0088 16.4321 17.5559 15.9118 17.3951C15.3916 17.2343 15.3916 17.2343 15.3916 17.2343C15.3916 17.2343 17.5554 17.6343 18.5021 18.3237C19.803 19.2704 19.9715 20.3262 19.7214 21.5009Z" fill="#FFFBF4"/>
<path d="M20.2393 21.4986C20.2393 21.4986 21.6827 21.1076 22.4409 21.4503C23.1992 21.7929 23.3389 22.264 23.3389 22.264C23.3389 22.264 23.0141 22.3766 22.3967 22.2907C21.7793 22.2055 21.6867 21.8435 21.2562 22.0157C20.8256 22.1879 20.6842 22.3533 20.322 22.2504C19.9599 22.1475 19.7736 21.764 19.7736 21.764L20.2393 21.4986Z" fill="#9A9B82"/>
<path d="M19.5287 21.5497C19.5287 21.5497 19.1407 21.1076 18.5773 21.1366C18.014 21.1661 17.9151 21.3599 17.6397 21.3724C17.3638 21.3849 17.2115 21.2985 16.8349 21.4258C16.4624 21.5514 16.2417 21.7242 16.2417 21.7242C16.2417 21.7242 16.6245 22.272 17.2207 22.1299C17.8168 21.9879 18.2675 21.8964 18.4629 22.0941C18.6578 22.2913 19.8828 21.9316 19.8828 21.9316L19.5287 21.5497Z" fill="#9A9B82"/>
<path d="M11.1714 19.7932C11.1714 19.7932 10.3597 20.3081 8.69095 20.5956C7.02158 20.8831 6.31739 20.4137 6.22541 20.1944C6.13343 19.975 6.40936 19.854 7.49641 19.6568C8.58345 19.4602 8.87433 19.2175 8.33857 19.1573C7.8028 19.0965 7.05205 19.5659 6.40936 19.5659C5.76668 19.5659 5.32232 19.2278 5.3068 18.9959C5.29127 18.7641 7.236 18.7033 7.48146 18.3703C7.72635 18.0372 6.22081 18.3856 5.57238 18.4759C4.92394 18.5663 4.66354 18.0674 4.70952 17.9009C4.75551 17.7344 6.33291 17.6804 6.48582 17.4502C6.63873 17.2201 5.82761 17.3019 5.12284 17.4502C4.41865 17.5985 4.06626 17.0837 4.15824 16.9626C4.25022 16.8416 5.55168 16.7507 5.68965 16.5239C5.82761 16.2966 4.98545 16.3574 4.55661 16.4484C4.12777 16.5393 3.66847 16.1307 3.82138 15.9943C3.97429 15.8579 4.93947 15.8125 4.96993 15.6158C5.0004 15.4192 3.68456 15.5249 3.79149 15.2374C3.89841 14.9498 4.26574 14.6805 4.83197 14.6714C5.3982 14.6623 5.91901 15.2527 6.22541 15.0709C6.53181 14.889 5.47523 14.4503 5.75058 14.2838C6.02594 14.1173 6.63873 14.2082 6.85315 14.4958C7.06757 14.7833 7.08309 15.2681 7.31246 15.2527C7.5424 15.2374 7.14402 14.5566 7.34292 14.4049C7.54182 14.2537 8.06264 14.5714 8.16956 14.8743C8.27648 15.1771 8.15404 15.7823 8.36846 15.813C8.58288 15.8432 8.31672 14.8441 8.50355 14.7532C8.69038 14.6623 9.28707 15.2527 9.30259 15.6158C9.31812 15.979 9.11864 16.5512 9.44056 16.6438C9.7619 16.7359 9.70097 15.6011 9.94585 15.4948C10.1907 15.3891 10.6811 16.083 10.6041 16.6518C10.5276 17.2206 10.3592 17.6855 10.5885 17.6878C10.8185 17.69 10.9869 16.9632 11.1703 16.8422C11.3542 16.7211 11.5198 17.024 11.5669 17.7957C11.6152 18.5669 11.2473 19.6034 11.1714 19.7932Z" fill="#D1C795"/>
<path d="M11.4333 21.0366C11.4333 21.0366 10.5733 18.8556 9.57252 17.6468C8.5717 16.4381 6.64077 15.7096 5.71066 15.6573C5.71066 15.6573 7.91177 16.0619 9.32706 17.7918C10.7423 19.5216 11.2758 21.8873 11.2758 21.8873L11.6621 21.8123L11.4333 21.0366Z" fill="#FFFBF4"/>
<path d="M27.0184 24.2399C27.0184 24.2399 26.8954 23.7876 26.2929 23.5779C25.6899 23.3682 25.6008 23.9314 25.2208 23.9092C24.8414 23.887 24.665 24.6156 24.665 24.6156H27.1523L27.0184 24.2399Z" fill="#9A9B82"/>
<path d="M25.5607 24.5894C25.5957 24.4178 25.6492 24.2246 25.7159 24.0177C25.6066 23.808 25.2974 23.1426 25.3048 22.3368C25.314 21.3588 25.9993 20.3336 25.9993 20.3336C25.9993 20.3336 26.1792 22.0066 25.8809 23.5455C26.0872 22.9948 26.3522 22.3976 26.5971 21.8753C26.4931 21.6594 26.3051 21.1946 26.3068 20.6433C26.3085 19.8813 26.838 19.0783 26.838 19.0783C26.838 19.0783 26.98 20.32 26.7782 21.4963C26.9587 21.1224 27.1151 20.8155 27.2093 20.6325C27.226 20.3745 27.2904 19.9222 27.5278 19.4784C27.8882 18.8044 28.7338 18.3367 28.7338 18.3367C28.7338 18.3367 28.201 19.6909 27.3668 20.6683C27.2915 20.815 27.1645 21.0644 27.0127 21.3747C27.1289 21.2065 27.2766 21.0281 27.4628 20.8655C28.0411 20.3609 29 20.22 29 20.22C29 20.22 27.9101 21.4156 26.7063 22.0146C26.581 22.2828 26.4523 22.5681 26.3292 22.8556C26.4683 22.6687 26.6391 22.4754 26.8449 22.2981C27.591 21.6566 28.8224 21.4838 28.8224 21.4838C28.8224 21.4838 27.4893 22.9278 25.9901 23.704C25.8659 24.0427 25.767 24.3587 25.7141 24.6195L25.5607 24.5894Z" fill="#B9BC7E"/>
<path d="M5.88795 24.1274H5.13087C5.13087 24.1274 4.78826 23.5034 3.95875 23.0755C3.12923 22.6476 3.03898 22.1316 3.00334 21.8907C2.96713 21.6497 3.32813 21.7742 3.86907 22.0953C4.41001 22.4163 4.55429 23.1755 4.78883 23.1613C5.02337 23.1471 4.87908 22.2737 4.37436 21.9884C3.86964 21.7032 3.473 21.0082 3.34653 20.5626C3.22006 20.1171 4.2479 20.4376 4.7348 20.9724C5.2217 21.5071 5.14927 22.813 5.51027 22.9801C5.8707 23.1471 5.24009 22.0509 5.97015 21.6037C6.26275 21.4241 6.33979 21.9373 6.24953 22.5868C6.15871 23.2364 5.70802 23.5392 5.88795 24.1274Z" fill="#9A9B82"/>
<path d="M7.16309 24.515C7.16309 24.515 5.83345 24.6582 4.80619 24.6582C3.7795 24.6582 3.38458 24.5672 3.38458 24.5672C3.38458 24.5672 3.6082 24.1507 4.2664 23.9944C4.92461 23.8382 4.99072 24.2286 5.27987 23.9944C5.56959 23.7603 6.09616 23.591 6.55719 23.7211C7.01822 23.8512 7.16309 24.515 7.16309 24.515Z" fill="#D7CA8C"/>
<path d="M15.6293 25.7117C11.2382 25.7117 7.67851 25.4235 7.67851 25.0679C7.67851 24.7123 11.2382 24.424 15.6293 24.424C20.0204 24.424 23.5801 24.7123 23.5801 25.0679C23.5801 25.4235 20.0204 25.7117 15.6293 25.7117Z" fill="#E2C9B5"/>
<path d="M8.23149 21.5139L8.83566 22.1436C8.83566 22.1436 8.83566 22.1441 8.83623 22.1453L8.95005 22.2629C8.95063 22.2635 8.9512 22.2635 8.9512 22.2635L8.9581 22.2709C8.95868 22.2703 8.95983 22.2697 8.9604 22.2691C10.2642 21.4719 11.5219 20.2842 11.8387 19.9779C12.0014 19.833 12.1543 19.6597 12.2727 19.4528C12.5509 18.9658 12.9269 18.056 13.189 17.39L13.2235 17.5349L13.6955 19.5119C13.4937 19.8182 13.2172 20.2876 12.9803 20.8661C12.8602 21.1599 12.7504 21.4827 12.6659 21.8253L15.3786 23.4028L15.3781 23.4426L15.4148 23.4233L15.4511 23.4438L15.4516 23.404L18.2241 21.9305C18.1345 21.4963 18.004 21.094 17.8626 20.7388C17.8603 20.7331 17.858 20.7269 17.8557 20.7212C17.6625 20.2421 17.4487 19.8495 17.2854 19.579L17.8424 17.59L17.9178 17.3224L17.958 17.178C18.223 17.8287 18.7116 18.9885 19.0525 19.5585C19.175 19.7631 19.3302 19.9336 19.4969 20.0751C19.8188 20.3751 21.1019 21.5406 22.4206 22.314L22.5413 22.1839L23.1328 21.5435L20.1263 18.7493L19.1106 15.8778C18.5254 14.6367 18.0868 14.6197 18.0868 14.6197V14.6202C18.0057 14.5526 17.9137 14.4964 17.8103 14.456C17.7769 14.4429 17.743 14.4299 17.7079 14.4157L17.7074 14.4151C17.509 14.3344 17.2871 14.2315 17.0647 14.1025C16.8025 13.9497 16.5404 13.7593 16.3156 13.524C16.2829 13.303 16.2708 12.9887 16.2662 12.7847C16.2639 12.6631 16.2639 12.5801 16.2639 12.5801L15.6247 12.6449L14.9883 12.5557C14.9883 12.5557 14.9826 12.7199 14.9676 12.9257C14.9532 13.1109 14.9325 13.3303 14.9009 13.4973C14.7969 13.5985 14.6854 13.6905 14.5698 13.7729C14.1691 14.0645 13.7225 14.2514 13.3712 14.3719C13.2804 14.4032 13.1976 14.4469 13.1223 14.4992C13.0309 14.5219 12.6343 14.6788 12.1439 15.7738L11.1834 18.6635L8.23149 21.5139Z" fill="#5E4453"/>
<path d="M14.5699 13.7735C14.6728 13.8877 14.9878 14.1327 15.88 14.3355C17.0866 14.6094 17.708 14.4162 17.708 14.4162L17.7074 14.4157C17.5091 14.335 17.2872 14.2321 17.0647 14.1031C16.8026 13.9502 16.5405 13.7599 16.3157 13.5246C16.2829 13.3036 16.2709 12.9893 16.2663 12.7853L14.9677 12.9262C14.9533 13.1115 14.9326 13.3308 14.901 13.4979C14.797 13.5985 14.6849 13.6911 14.5699 13.7735Z" fill="#3F2935"/>
<path d="M13.8909 18.0384C14.3145 18.2236 15.0544 17.8645 15.6827 18.0651C16.311 18.2657 16.6226 18.8408 16.7444 19.5761C16.8663 20.3109 16.5553 21.3798 16.5553 21.3798C16.5553 21.3798 17.1169 21.5338 17.8573 20.7223C17.6642 20.2433 17.4503 19.8506 17.2871 19.5801L17.9194 17.3235L17.9597 17.1792C17.9597 17.1792 18.1103 16.4074 17.732 15.8193C17.732 15.8193 17.8499 16.4484 17.6285 17.0229C17.4078 17.5974 16.8864 17.5974 16.3426 17.5843C15.7988 17.5713 15.8063 17.3866 15.1917 17.5178C14.1662 17.7361 13.7655 17.6383 13.5264 17.3053C13.3677 17.0848 13.4678 17.8531 13.8909 18.0384Z" fill="#3F2935"/>
<path d="M16.8077 11.8976C16.8077 11.8976 16.9531 11.6039 17.1451 11.6158C17.3365 11.6272 17.4009 12.0318 17.1307 12.3466C16.8606 12.6614 16.6157 12.5267 16.6157 12.5267L16.8077 11.8976Z" fill="#EA8D78"/>
<path d="M14.404 11.8522C14.404 11.8522 14.2701 11.5533 14.0781 11.5573C13.8861 11.5618 13.8062 11.963 14.0637 12.2881C14.3212 12.6131 14.5713 12.4875 14.5713 12.4875L14.404 11.8522Z" fill="#EA8D78"/>
<path d="M14.3184 11.2458C14.2954 12.4193 15.0031 13.4678 15.5664 13.4786C16.2499 13.4916 16.911 12.3898 16.9323 11.2953C16.9478 10.4861 16.4569 9.82005 15.6383 9.80471C14.8191 9.78937 14.3345 10.4366 14.3184 11.2458Z" fill="#FFA488"/>
<path d="M16.6387 11.3544C16.6387 11.3544 16.4467 11.3004 16.2386 11.2851C15.9776 11.2663 15.8816 11.293 15.8816 11.293C15.8816 11.293 15.9316 11.1487 16.1512 11.1527C16.3708 11.1566 16.6387 11.3544 16.6387 11.3544Z" fill="#2F2A00"/>
<path d="M15.8947 11.6709C15.8947 11.6709 16.0487 11.4663 16.2465 11.4641C16.4442 11.4618 16.6201 11.6846 16.6201 11.6846C16.6201 11.6846 16.5661 11.7431 16.285 11.755C15.997 11.7681 15.8947 11.6709 15.8947 11.6709Z" fill="#EA8D78"/>
<path d="M16.2518 11.7391C16.438 11.7408 16.5898 11.6948 16.6157 11.6863L16.6186 11.6851C16.6186 11.6851 16.6191 11.6851 16.6191 11.6857L16.6203 11.6851L16.6197 11.6857C16.6525 11.7067 16.7197 11.7124 16.7197 11.7124C16.6502 11.734 16.5956 11.7266 16.5708 11.7215C16.5168 11.7579 16.422 11.805 16.2512 11.8033C16.0063 11.8005 15.8954 11.6721 15.8954 11.6721C15.8954 11.6721 16.0471 11.7374 16.2518 11.7391Z" fill="#2F2A00"/>
<path d="M14.6221 11.3158C14.6221 11.3158 14.8164 11.2692 15.0245 11.2618C15.2854 11.2527 15.3809 11.2834 15.3809 11.2834C15.3809 11.2834 15.3366 11.1373 15.117 11.1328C14.8974 11.1288 14.6221 11.3158 14.6221 11.3158Z" fill="#2F2A00"/>
<path d="M15.3525 11.6607C15.3525 11.6607 15.2065 11.4504 15.0088 11.4408C14.811 11.4311 14.6271 11.647 14.6271 11.647C14.6271 11.647 14.6788 11.7078 14.9593 11.7306C15.2468 11.7539 15.3525 11.6607 15.3525 11.6607Z" fill="#EA8D78"/>
<path d="M14.5265 11.6703C14.5265 11.6703 14.5937 11.6675 14.6277 11.6476L14.6271 11.647C14.6271 11.647 14.6276 11.647 14.6282 11.6476C14.6282 11.6476 14.6288 11.6476 14.6288 11.647L14.6317 11.6488C14.657 11.6578 14.807 11.7101 14.9933 11.7152C15.1979 11.7209 15.3525 11.6607 15.3525 11.6607C15.3525 11.6607 15.237 11.7851 14.9915 11.7783C14.8208 11.7738 14.7277 11.7226 14.6754 11.6846C14.6501 11.6891 14.5949 11.6942 14.5265 11.6703Z" fill="#2F2A00"/>
<path d="M15.793 12.3744C15.793 12.3744 15.6878 12.4375 15.6015 12.4421C15.5153 12.4466 15.413 12.3676 15.413 12.3676C15.413 12.3676 15.4929 12.3591 15.5889 12.3574C15.6855 12.3545 15.793 12.3744 15.793 12.3744Z" fill="#EA8D78"/>
<path d="M15.5561 12.7381C15.3434 12.7256 15.2089 12.6591 15.2089 12.6591C15.2089 12.6591 15.4359 12.6353 15.4946 12.6461C15.5308 12.6529 15.5561 12.687 15.5699 12.712C15.5848 12.6876 15.6113 12.6546 15.6475 12.6489C15.7061 12.6398 15.9326 12.6728 15.9326 12.6728C15.9326 12.6728 15.7952 12.7336 15.5825 12.7381L15.5831 12.7393C15.5785 12.7393 15.5745 12.7387 15.5699 12.7387C15.5653 12.7387 15.5613 12.7387 15.5567 12.7387C15.5555 12.7393 15.5561 12.7381 15.5561 12.7381Z" fill="#743F3D"/>
<path d="M15.8672 12.7626C15.8672 12.7626 15.8223 12.8256 15.6568 12.8654C15.4912 12.9052 15.3711 12.8376 15.2716 12.7751C15.2716 12.7751 15.3613 12.9444 15.5481 12.9671C15.7355 12.9899 15.8609 12.7876 15.8672 12.7626Z" fill="#EA8D78"/>
<path d="M15.1123 10.5003C15.1123 10.5003 15.3968 10.3514 15.7803 10.3707C16.1637 10.39 16.4615 10.6861 16.5724 10.8958C16.6833 11.1055 16.796 11.1652 16.796 11.1652C16.796 11.1652 16.761 11.6732 16.8593 11.8897C16.8593 11.8897 16.992 11.6704 17.145 11.6158C17.145 11.6158 17.276 11.1521 17.1955 10.6583C17.1151 10.165 16.5856 9.6331 15.874 9.56037C15.1617 9.48763 14.8013 9.83029 14.8013 9.83029C14.8013 9.83029 14.3282 10.094 14.1879 10.5418C14.0471 10.9896 14.1678 11.5709 14.1678 11.5709C14.1678 11.5709 14.2897 11.6317 14.3678 11.842C14.3678 11.842 14.5955 11.5021 14.5369 11.1214C14.5374 11.122 14.6311 10.5168 15.1123 10.5003Z" fill="#743F3D"/>
<path d="M14.6886 10.0832C14.8311 10.1281 15.7526 9.6348 15.7526 9.6348C15.7526 9.6348 15.7572 9.55525 15.7313 9.45182C15.6951 9.30975 15.6014 9.12222 15.356 9.03471C15.314 9.01994 15.272 9.00914 15.2318 9.00175C14.8627 8.93981 14.5563 9.18985 14.4684 9.44443C14.3712 9.728 14.5454 10.0388 14.6886 10.0832Z" fill="#743F3D"/>
<path d="M15.8817 11.293C15.8817 11.293 15.7926 11.4584 15.742 11.7096C15.692 11.9607 15.7334 12.1409 15.7334 12.1409C15.7334 12.1409 15.7828 11.4305 16.1484 11.2799C16.1484 11.2799 15.9478 11.2754 15.8817 11.293Z" fill="#EA8D78"/>
<path d="M15.1124 10.5003C15.1124 10.5003 15.5671 10.3497 15.9545 10.5162C16.342 10.6827 16.3328 10.9253 16.6013 10.9464L16.6357 10.8827C16.6357 10.8827 16.5639 10.8964 16.4001 10.7685C16.2362 10.6406 15.8913 10.1815 15.1124 10.5003Z" fill="#743F3D"/>
<path d="M16.9624 23.9217C16.9624 23.9217 17.3343 23.9683 17.4643 23.9933C17.4643 23.9933 17.9839 23.9194 18.2024 23.9291C18.4208 23.9382 18.5398 24.195 18.6634 24.474C18.7864 24.7531 19.2647 25.0497 19.4331 25.2236C19.6021 25.3969 19.6067 25.6515 19.6027 25.7055C19.5993 25.7595 19.7091 25.9129 19.651 26.0385C19.5929 26.1646 19.5303 26.1226 19.4768 26.1078C19.4228 26.0936 19.3854 26.0044 19.3854 26.0044C19.3854 26.0044 19.248 26.0112 19.1894 25.9862C19.1308 25.9606 19.1813 25.9476 19.0503 25.939C18.9198 25.9305 18.8497 25.9146 18.7697 25.8822C18.6898 25.8498 18.1426 25.2884 17.846 25.1389C17.5499 24.9895 17.0929 25.0241 17.0929 25.0241L16.9624 23.9217Z" fill="#FFA488"/>
<path d="M8.56287 24.3035C9.44642 24.7923 10.91 24.9843 12.6035 25.0861C12.8099 25.0986 13.0191 25.1099 13.2318 25.1196L13.2025 25.8458C13.2025 25.8458 13.3313 25.8447 13.5589 25.8413C14.2574 25.8333 15.8865 25.8123 17.5846 25.7788C20.3312 25.7254 22.5157 25.0514 23.1469 24.4507C23.451 24.1609 23.6315 23.6983 23.5671 23.2665C23.5159 22.9244 23.3107 22.6021 22.8922 22.3981C22.7928 22.3493 22.6186 22.2879 22.3829 22.2214C21.6448 22.0123 20.3088 21.76 18.8349 21.7458C18.8113 21.7441 18.7895 21.7429 18.7682 21.7407C18.5739 21.4525 17.8559 20.7212 17.8559 20.7212C17.8559 20.7212 17.3512 21.1411 16.6608 21.3906C16.2958 21.5224 15.879 21.6071 15.4571 21.5565C14.2378 21.4111 13.0128 20.7394 13.0128 20.7394C12.765 20.9831 12.5276 21.556 12.5276 21.556C11.3072 21.5673 9.28604 21.9333 8.85087 22.1487C8.848 22.1504 8.84512 22.1526 8.84282 22.1538C8.54735 22.2322 8.30131 22.4021 8.13288 22.6181C7.74313 23.1181 7.769 23.8654 8.56287 24.3035Z" fill="#E9835B"/>
<path d="M23.133 21.544C23.133 21.544 23.4399 21.4974 23.5635 21.5003C23.6865 21.5026 23.9349 21.5804 24.0757 21.6037C24.216 21.627 24.2867 21.6321 24.2827 21.6531C24.2786 21.6742 24.2321 21.7253 24.0769 21.7469C23.9216 21.7685 23.7889 21.7276 23.7061 21.7259C23.6233 21.7242 23.6049 21.7725 23.6049 21.7725C23.6049 21.7725 23.6888 21.9935 23.959 22.0401C24.2292 22.0873 24.3355 22.0475 24.3539 22.0094C24.3723 21.9714 24.2574 21.7117 24.2878 21.6151C24.3177 21.5185 24.3637 21.5259 24.4206 21.6804C24.4775 21.8344 24.577 21.9827 24.5747 22.0833C24.573 22.1845 24.3988 22.2714 24.3988 22.2714C24.3988 22.2714 24.7339 22.2328 24.8345 22.3248C24.9345 22.4175 24.7339 22.4203 24.5753 22.4345C24.4166 22.4487 24.2677 22.4948 24.1729 22.4828C24.1729 22.4828 24.5988 22.4771 24.6822 22.5448C24.7655 22.6124 24.5954 22.6578 24.4338 22.655C24.2717 22.6522 24.0533 22.6863 24.0176 22.6851C24.0176 22.6851 24.3971 22.7306 24.3844 22.8243C24.3718 22.9181 24.3028 22.8539 24.0947 22.8744C23.8866 22.8948 23.7141 22.8914 23.5181 22.8323C23.3221 22.7726 22.5432 22.185 22.5432 22.185L23.133 21.544Z" fill="#FFA488"/>
<path d="M10.0093 22.4629C11.6327 22.6908 16.1763 23.8404 16.1763 23.8404C16.1763 23.8404 18.57 22.7573 20.175 22.5033C21.6989 22.2623 22.5882 22.3822 22.3841 22.2214C21.646 22.0123 20.3101 21.76 18.8361 21.7458C18.8126 21.7441 18.7907 21.7429 18.7695 21.7407C18.5752 21.4525 17.8572 20.7212 17.8572 20.7212C17.8572 20.7212 17.3525 21.1411 16.6621 21.3906C16.6063 21.6548 15.6492 22.9573 14.9593 22.7431C14.2695 22.53 13.3641 22.235 12.9313 22.3822C12.4984 22.5294 11.6194 22.4487 11.0136 22.314C10.4071 22.1805 10.0093 22.4629 10.0093 22.4629Z" fill="#CC6A4C"/>
<path d="M8.8361 22.1436C8.8361 22.1436 8.8361 22.1441 8.83667 22.1453C8.84242 22.1572 8.87116 22.2152 8.95049 22.2629C8.95107 22.2635 8.95164 22.2635 8.95164 22.2635C8.95451 22.2652 8.95796 22.2674 8.96084 22.2691C10.2646 21.4719 11.5224 20.2842 11.8391 19.9779C12.0018 19.833 12.1547 19.6597 12.2731 19.4528C12.5514 18.9658 12.9273 18.056 13.1895 17.39L13.0388 16.1489C13.0388 16.1489 12.4755 18.5498 11.8799 19.3238C11.2855 20.0972 8.8361 22.1436 8.8361 22.1436Z" fill="#3F2935"/>
<path d="M17.8431 17.5906L17.9185 17.3229L17.9587 17.1786C18.2237 17.8293 18.7123 18.9891 19.0532 19.5591C19.1757 19.7636 19.3309 19.9341 19.4976 20.0756C19.8195 20.3757 21.1026 21.5412 22.4213 22.3146L22.542 22.1845C22.542 22.1845 19.9437 19.9909 19.1808 19.1283C18.4186 18.2657 17.9495 16.3841 17.9495 16.3841L17.8431 17.5906Z" fill="#3F2935"/>
<path d="M8.56278 24.3036C9.44633 24.7923 10.9099 24.9843 12.6034 25.0861C13.3116 24.9713 13.8169 24.6985 13.8169 24.6985V24.6155L16.1738 23.8416C16.1537 23.8467 15.7663 23.7387 15.7663 23.7387C14.693 23.9751 12.0481 24.6877 10.6713 24.3757C8.89965 23.9745 8.83239 23.2381 8.50817 22.8709C8.38113 22.7277 8.24834 22.6544 8.13337 22.6186C7.74304 23.1181 7.76891 23.8654 8.56278 24.3036Z" fill="#CC6A4C"/>
<path d="M13.8164 24.6979C13.8164 24.6979 13.4456 24.7519 13.3163 24.7792C13.3163 24.7792 12.7955 24.7156 12.577 24.7292C12.3592 24.7428 12.2448 25.0014 12.1269 25.2827C12.0091 25.564 11.5371 25.8697 11.3721 26.047C11.2066 26.2237 11.2072 26.4783 11.2123 26.5323C11.2169 26.5863 11.11 26.7414 11.1704 26.8665C11.2307 26.9915 11.2928 26.9483 11.3463 26.9324C11.3997 26.917 11.4359 26.8272 11.4359 26.8272C11.4359 26.8272 11.5733 26.8318 11.6314 26.8051C11.6895 26.7784 11.6389 26.7664 11.7694 26.7551C11.8998 26.7437 11.97 26.7272 12.0487 26.6931C12.1281 26.659 12.6644 26.0874 12.9576 25.9322C13.2508 25.7771 13.7083 25.8027 13.7083 25.8027L13.8164 24.6979Z" fill="#FFA488"/>
<path d="M8.23114 21.5145C8.23114 21.5145 7.92302 21.4741 7.8 21.4787C7.67698 21.4832 7.42979 21.5656 7.2901 21.5918C7.15041 21.6179 7.08028 21.6242 7.08431 21.6446C7.0889 21.6651 7.13662 21.7157 7.29183 21.7344C7.44761 21.7532 7.57983 21.7094 7.66203 21.7066C7.74481 21.7032 7.76436 21.7515 7.76436 21.7515C7.76436 21.7515 7.68503 21.9737 7.41542 22.0259C7.14639 22.0776 7.03889 22.0401 7.01992 22.0026C7.00095 21.9651 7.11075 21.7032 7.07856 21.6071C7.04637 21.5111 7.00095 21.5196 6.94749 21.6747C6.89346 21.8299 6.79745 21.9799 6.8009 22.0805C6.80493 22.1811 6.98083 22.2652 6.98083 22.2652C6.98083 22.2652 6.64512 22.2328 6.54624 22.3271C6.44795 22.4214 6.64857 22.4209 6.80723 22.4322C6.96646 22.4436 7.11592 22.4868 7.2102 22.4726C7.2102 22.4726 6.78423 22.4749 6.70203 22.5442C6.6204 22.6135 6.79113 22.6556 6.95267 22.6499C7.1142 22.6436 7.33379 22.6738 7.36943 22.6726C7.36943 22.6726 6.99118 22.7255 7.00498 22.8187C7.01935 22.9119 7.08718 22.8471 7.29528 22.8636C7.50395 22.88 7.67583 22.8738 7.87071 22.8107C8.06558 22.7476 8.83301 22.1453 8.83301 22.1453L8.23114 21.5145Z" fill="#FFA488"/>
<path d="M13.5589 25.8413C14.2574 25.8333 15.8865 25.8123 17.5846 25.7788C20.3312 25.7254 22.5157 25.0514 23.1469 24.4507C23.451 24.1609 23.6315 23.6983 23.5671 23.2665C23.3349 23.4449 22.8859 23.7557 22.0305 24.1785C20.6244 24.8741 18.0284 25.2486 15.9721 25.4441C13.9165 25.6401 13.7319 25.5538 13.7319 25.5538L13.5589 25.8413Z" fill="#CC6A4C"/>
<path d="M15.0002 9.76721C15.2779 9.6331 15.7171 9.55127 15.7171 9.55127C15.7245 9.5166 15.7291 9.48364 15.7314 9.45239C15.6952 9.31032 15.6015 9.12279 15.3561 9.03528C15.3141 9.0205 15.2721 9.00971 15.2319 9.00232C15.2785 9.04949 15.3262 9.137 15.2842 9.28248C15.2129 9.53024 14.7237 9.90075 15.0002 9.76721Z" fill="#603030"/>
<path d="M15.2588 10.2775C15.2588 10.2775 15.7704 10.086 16.2596 10.2775C16.7488 10.469 16.8172 10.9856 16.9316 11.0367C16.9316 11.0367 16.8328 10.3434 16.3068 10.1928C15.7814 10.0411 15.2588 10.2775 15.2588 10.2775Z" fill="#603030"/>
<path d="M14.8727 9.95872L15.0664 10.39C15.0658 10.39 14.8014 10.2707 14.8727 9.95872Z" fill="#603030"/>
</svg>
