<svg width="32" height="32" viewBox="0 0 32 32" fill="none" xmlns="http://www.w3.org/2000/svg">
<circle cx="16" cy="16" r="16" fill="#DCDCDC"/>
<path d="M21.8755 9.12587H21.8744L23.7726 9.50534C23.8745 9.52572 23.9583 9.60048 23.9878 9.7013C24.0027 9.75027 24.004 9.80235 23.9916 9.85202C23.9792 9.90168 23.9537 9.94706 23.9176 9.98334L22.3625 11.5397C22.1765 11.7254 21.9243 11.8297 21.6614 11.8297H20.3726L17.1334 15.0704C17.1951 15.3037 17.2065 15.5476 17.1667 15.7857C17.1269 16.0238 17.0368 16.2507 16.9024 16.4512C16.768 16.6518 16.5924 16.8214 16.3874 16.9487C16.1823 17.0761 15.9525 17.1583 15.7132 17.1899C15.4739 17.2214 15.2306 17.2016 14.9995 17.1318C14.7685 17.0619 14.555 16.9436 14.3732 16.7848C14.1914 16.6259 14.0456 16.4302 13.9454 16.2105C13.8452 15.9909 13.793 15.7524 13.7922 15.511C13.7924 15.2504 13.8525 14.9932 13.9678 14.7595C14.0832 14.5258 14.2508 14.3217 14.4575 14.1631C14.6643 14.0044 14.9048 13.8955 15.1604 13.8446C15.416 13.7937 15.6799 13.8023 15.9317 13.8697L19.172 10.6279V9.33996C19.172 9.07717 19.2762 8.82457 19.462 8.63881L21.0181 7.08245C21.0544 7.04635 21.0998 7.02076 21.1494 7.00839C21.1991 6.99602 21.2512 6.99735 21.3001 7.01222C21.4009 7.04167 21.4757 7.12549 21.4961 7.22744L21.8755 9.12587Z" fill="#553791"/>
<path d="M8.69523 15.511C8.69639 16.4829 8.90594 17.4431 9.30973 18.3271C9.71353 19.211 10.3022 19.9981 11.036 20.6352C11.7698 21.2722 12.6317 21.7445 13.5635 22.0201C14.4953 22.2958 15.4754 22.3683 16.4376 22.2329C17.3999 22.0975 18.3219 21.7573 19.1415 21.2352C19.961 20.7131 20.6591 20.0213 21.1887 19.2064C21.7182 18.3916 22.0668 17.4726 22.211 16.5115C22.3552 15.5505 22.2917 14.5697 22.0247 13.6352C21.9872 13.5261 21.9723 13.4104 21.9809 13.2953C21.9895 13.1802 22.0215 13.0681 22.0749 12.9657C22.1282 12.8634 22.2018 12.7729 22.2912 12.6999C22.3806 12.6269 22.484 12.5729 22.5949 12.5411C22.7059 12.5093 22.8221 12.5005 22.9366 12.5151C23.0511 12.5297 23.1614 12.5674 23.2609 12.626C23.3603 12.6846 23.4468 12.7628 23.515 12.8559C23.5833 12.949 23.6319 13.055 23.6579 13.1674C24.1749 14.977 24.0767 16.907 23.3786 18.6547C22.6805 20.4024 21.4221 21.8689 19.8007 22.8241C18.1794 23.7793 16.2868 24.1692 14.42 23.9326C12.5531 23.6959 10.8176 22.8462 9.48577 21.5167C8.15537 20.185 7.30483 18.4492 7.0677 16.5817C6.83057 14.7142 7.22027 12.8208 8.17562 11.1989C9.13097 9.57686 10.5979 8.31811 12.346 7.62022C14.0941 6.92233 16.0245 6.82481 17.8341 7.343C18.0496 7.40599 18.2313 7.55172 18.3397 7.74834C18.448 7.94496 18.4742 8.17649 18.4124 8.39232C18.3505 8.60815 18.2058 8.79074 18.0098 8.90018C17.8138 9.00962 17.5825 9.03701 17.3663 8.97638C16.3544 8.68602 15.289 8.63471 14.2539 8.82648C13.2188 9.01825 12.2424 9.44786 11.4017 10.0815C10.5609 10.715 9.87883 11.5353 9.40916 12.4775C8.9395 13.4197 8.6951 14.4582 8.69523 15.511Z" fill="#553791"/>
<path d="M12.0939 15.511C12.0939 16.1301 12.263 16.7375 12.5829 17.2676C12.9027 17.7977 13.3612 18.2303 13.9089 18.519C14.4566 18.8076 15.0727 18.9412 15.6907 18.9053C16.3087 18.8695 16.9052 18.6656 17.4159 18.3156C17.9265 17.9647 18.3314 17.4809 18.5869 16.9165C18.8424 16.3521 18.9388 15.7286 18.8656 15.1134C18.8458 14.9641 18.8662 14.8122 18.9246 14.6734C18.983 14.5346 19.0773 14.4139 19.1979 14.3237C19.3184 14.2334 19.4609 14.177 19.6105 14.1601C19.7601 14.1432 19.9115 14.1665 20.0492 14.2276C20.1868 14.2879 20.3059 14.3837 20.3945 14.505C20.483 14.6264 20.5378 14.7691 20.5532 14.9186C20.6762 15.9699 20.469 17.0334 19.9603 17.9615C19.4515 18.8897 18.6665 19.6364 17.7142 20.0981C16.7618 20.5598 15.6894 20.7135 14.6457 20.5379C13.602 20.3623 12.6389 19.8662 11.89 19.1183C11.141 18.3704 10.6435 17.4079 10.4663 16.3644C10.2892 15.3209 10.4413 14.2481 10.9015 13.2949C11.3616 12.3418 12.1071 11.5555 13.0344 11.0453C13.9616 10.5351 15.0247 10.3263 16.0761 10.4477C16.1886 10.4582 16.298 10.491 16.3977 10.5443C16.4974 10.5975 16.5855 10.6702 16.6568 10.7579C16.7281 10.8457 16.7812 10.9468 16.8129 11.0553C16.8446 11.1638 16.8544 11.2776 16.8415 11.39C16.8287 11.5023 16.7936 11.6109 16.7383 11.7095C16.6829 11.8081 16.6085 11.8947 16.5192 11.9641C16.43 12.0336 16.3278 12.0845 16.2186 12.1139C16.1095 12.1433 15.9955 12.1507 15.8835 12.1355C15.4074 12.0802 14.9251 12.1263 14.468 12.2707C14.011 12.4151 13.5897 12.6545 13.2318 12.9733C12.8739 13.2921 12.5875 13.683 12.3914 14.1204C12.1953 14.5578 12.0939 15.0317 12.0939 15.511Z" fill="#553791"/>
</svg>
