<svg width="32" height="32" viewBox="0 0 32 32" fill="none" xmlns="http://www.w3.org/2000/svg">
<circle cx="16" cy="16" r="16" fill="#01897B"/>
<path d="M16.0255 8.02542C14.9782 8.02542 13.9412 8.23169 12.9737 8.63246C12.0062 9.03322 11.127 9.62063 10.3865 10.3611C8.89098 11.8567 8.0508 13.8851 8.0508 16.0001C8.04383 17.8415 8.68143 19.6274 9.85307 21.0481L8.25814 22.643C8.14748 22.7551 8.07253 22.8975 8.04272 23.0522C8.01292 23.2069 8.0296 23.367 8.09067 23.5122C8.15691 23.6557 8.26428 23.7763 8.39917 23.8586C8.53405 23.941 8.69037 23.9814 8.84826 23.9748H16.0255C18.1405 23.9748 20.1689 23.1346 21.6644 21.639C23.1599 20.1435 24.0001 18.1151 24.0001 16.0001C24.0001 13.8851 23.1599 11.8567 21.6644 10.3611C20.1689 8.86561 18.1405 8.02542 16.0255 8.02542ZM16.0255 22.3798H10.7702L11.5118 21.6382C11.6603 21.4888 11.7437 21.2866 11.7437 21.076C11.7437 20.8653 11.6603 20.6632 11.5118 20.5138C10.4676 19.4707 9.81733 18.0979 9.6718 16.6291C9.52628 15.1604 9.8945 13.6866 10.7137 12.459C11.5329 11.2313 12.7525 10.3256 14.1646 9.89626C15.5767 9.46691 17.094 9.54045 18.4579 10.1043C19.8219 10.6682 20.9481 11.6876 21.6448 12.9888C22.3414 14.2899 22.5654 15.7924 22.2785 17.2402C21.9916 18.6879 21.2116 19.9914 20.0714 20.9286C18.9312 21.8658 17.5014 22.3787 16.0255 22.3798Z" fill="#F4F4F4"/>
<path d="M19.7251 16.8346H19.4633C19.4421 16.8288 19.4228 16.8192 19.4017 16.8154C18.8511 16.7307 18.416 16.2725 18.3794 15.7354C18.3371 15.1348 18.6797 14.6265 19.238 14.461C19.3112 14.4398 19.3882 14.4244 19.4632 14.4052H19.7251C19.7424 14.4109 19.7578 14.4206 19.777 14.4225C20.2853 14.5053 20.6722 14.871 20.7819 15.3716C20.7896 15.4101 20.8012 15.4486 20.8108 15.4871V15.7489C20.805 15.7662 20.7954 15.7835 20.7935 15.8009C20.7126 16.3014 20.3565 16.6825 19.8617 16.7981C19.8136 16.8096 19.7693 16.8231 19.725 16.8346L19.7251 16.8346ZM12.325 14.4052L12.5869 14.4052C12.608 14.4109 12.6273 14.4206 12.6485 14.4225C13.2029 14.5091 13.636 14.9692 13.6707 15.5121C13.7092 16.1108 13.3627 16.6171 12.8025 16.7807C12.7312 16.8019 12.6581 16.8173 12.5869 16.8346H12.325C12.3077 16.8289 12.2923 16.8192 12.275 16.8154C11.7745 16.723 11.4472 16.4323 11.2913 15.9472C11.2701 15.8836 11.2585 15.8163 11.2412 15.7508V15.489C11.247 15.4717 11.2566 15.4543 11.2585 15.437C11.3413 14.9346 11.6955 14.5553 12.1903 14.4398C12.2365 14.4283 12.2808 14.4167 12.325 14.4052ZM15.8942 14.4052H16.156C16.1772 14.4109 16.1964 14.4206 16.2176 14.4244C16.7701 14.511 17.2148 14.9885 17.2379 15.5275C17.2648 16.1339 16.8991 16.6479 16.335 16.7923C16.2753 16.8077 16.2157 16.8212 16.156 16.8346H15.8942C15.873 16.8289 15.8537 16.8192 15.8326 16.8154C15.2801 16.7307 14.8354 16.2513 14.8103 15.7123C14.7815 15.1059 15.1492 14.5919 15.7132 14.4475C15.7748 14.4321 15.8345 14.4186 15.8942 14.4052Z" fill="#553791"/>
</svg>
