<svg width="283" height="256" viewBox="0 0 283 256" fill="none" xmlns="http://www.w3.org/2000/svg">
<path d="M114.678 196.408C117.917 222.58 153.1 226.667 206.788 198.63C260.476 170.593 308.534 120.024 250.695 110.469C192.857 100.913 111.438 170.236 114.678 196.408Z" fill="#553791"/>
<path d="M160.716 209.099C179.668 190.762 161.758 160.204 107.057 134.2C52.3555 108.196 -16.9527 100.248 10.224 152.191C37.4007 204.133 141.764 227.437 160.716 209.099Z" fill="#553791"/>
<path d="M123.696 106.171L123.827 173.477C123.827 174.398 124.463 175.146 125.247 175.146C126.03 175.146 126.661 174.393 126.661 173.471L126.53 106.166L123.696 106.171Z" fill="#E67549"/>
<path d="M182.924 106.056L183.056 173.361C183.056 174.282 183.692 175.03 184.475 175.03C185.259 175.03 185.89 174.277 185.89 173.355L185.758 106.05L182.924 106.056Z" fill="#E67549"/>
<path d="M124.442 52.639C123.79 52.9496 123.412 53.5077 122.897 53.9973C122.681 54.2026 122.45 54.4027 122.218 54.587C122.308 54.4448 122.392 54.3027 122.476 54.1658C123.286 52.8075 124.4 50.9121 123.98 49.3485C123.785 48.6272 122.818 48.6746 122.408 49.1695C121.903 49.7749 121.819 50.4752 121.551 51.1859C121.261 51.9493 120.888 52.6811 120.457 53.3866C120.378 53.5129 120.294 53.6393 120.21 53.7604C120.268 53.5656 120.325 53.3655 120.378 53.176C120.772 51.7598 121.303 49.7749 120.609 48.4061C120.289 47.7743 119.484 48.006 119.242 48.5482C118.948 49.2116 119.027 49.875 118.953 50.5857C118.874 51.3544 118.717 52.1072 118.501 52.8443C118.296 53.5551 117.98 54.2184 117.739 54.9028C117.581 55.1134 117.397 55.3293 117.208 55.5609C117.197 55.3556 117.229 55.1134 117.292 54.7607C117.476 53.7762 117.57 52.3126 116.45 51.8493C116.093 51.7019 115.693 51.6808 115.31 51.6861C114.247 51.7124 115.22 53.2971 115.246 53.8341C115.304 54.945 114.794 56.019 114.736 57.1457C114.7 57.9354 114.915 58.862 115.373 59.6096C115.204 60.3572 115.11 61.1153 115.104 61.8629C115.099 62.2156 115.104 62.6105 115.147 62.9738C115.646 63.4213 116.156 63.853 116.677 64.2742C117.097 64.1162 117.35 63.5266 117.749 63.3476C118.328 63.0843 118.191 63.0738 118.769 62.9738C119.994 62.7579 122.134 61.9103 122.108 60.3256C122.103 60.0834 122.176 59.3358 122.413 58.6566C123.638 58.3302 125.236 57.8511 125.925 56.7771C126.262 56.2559 125.73 55.7505 125.215 55.8031C124.584 55.8716 124.122 56.2243 123.554 56.4823C123.154 56.6666 122.749 56.814 122.334 56.9456C122.318 56.9298 122.297 56.914 122.276 56.8982C122.287 56.8929 122.297 56.8824 122.308 56.8771C123.527 56.0558 125.22 54.8976 125.583 53.4076C125.741 52.739 124.979 52.3863 124.442 52.639Z" fill="#CF795B"/>
<path d="M120.015 58.3829C119.879 58.0828 119.705 57.8037 119.479 57.5563C118.969 56.9982 118.038 56.7561 117.839 55.9505C117.807 55.8242 117.591 55.861 117.607 55.9927C117.718 56.7613 118.212 57.0088 118.774 57.4615C119.784 58.2723 120.073 59.4674 119.873 60.7099C119.858 60.8099 120.005 60.8731 120.047 60.7731C120.383 60.0044 120.362 59.1515 120.015 58.3829Z" fill="#FF8A65"/>
<path d="M121.382 58.1354C120.883 58.2144 120.415 58.425 119.926 58.5461C119.647 58.6145 119.821 59.0726 120.105 58.9199C120.536 58.6883 121.014 58.5356 121.424 58.2671C121.477 58.2302 121.451 58.1197 121.382 58.1354Z" fill="#FF8A65"/>
<path d="M121.992 57.1562C121.335 56.2085 120.115 55.4872 119.132 54.9239C119.053 54.8765 118.959 55.0081 119.037 55.0608C119.526 55.3977 120.005 55.7557 120.462 56.1348C120.92 56.5139 121.325 56.9824 121.808 57.3141C121.913 57.3878 122.076 57.2825 121.992 57.1562Z" fill="#FF8A65"/>
<path d="M114.137 68.4123C113.669 68.2333 113.222 67.9964 112.807 67.7173C112.391 67.4383 112.007 67.1172 111.655 66.7539C111.35 66.438 111.145 66.0589 110.767 65.8378C110.709 65.8062 110.635 65.8641 110.64 65.9221C110.735 66.8276 111.913 67.7279 112.602 68.2017C113.28 68.665 114.437 69.3916 115.294 69.1704C115.414 69.1388 115.441 68.9598 115.346 68.8861C114.994 68.6124 114.557 68.5755 114.137 68.4123Z" fill="#E87348"/>
<path d="M58.2467 99.006L39.4817 99.0429C38.1304 99.0482 37.0315 97.9531 37.0315 96.6L37 79.4947C37 78.1417 38.0884 77.0413 39.4396 77.0413L58.2046 77.0045C59.5559 77.0045 60.6548 78.0943 60.6548 79.4473L60.6863 96.5526C60.6916 97.9057 59.5979 99.006 58.2467 99.006Z" fill="#C7B79E"/>
<path d="M40.9224 99.0429C38.7773 99.0481 37.0369 97.3108 37.0317 95.1627L37.0054 80.9372C37.0001 78.7892 38.7352 77.0466 40.8804 77.0413C43.0255 77.036 44.7659 78.7734 44.7711 80.9215L44.7974 95.1469C44.7974 97.295 43.0623 99.0376 40.9224 99.0429Z" fill="#E3D4BF"/>
<path d="M70.9224 146.88L66.6636 146.889L66.7279 179.604L70.9867 179.596L70.9224 146.88Z" fill="#B0BEC5"/>
<path d="M70.8965 135.603L66.6377 135.611L66.6598 146.894L70.9186 146.886L70.8965 135.603Z" fill="#90A4AE"/>
<path d="M82.8534 138.245L54.0513 138.302C51.7904 138.308 49.9555 136.476 49.9502 134.212V133.09C49.9449 130.826 51.7747 128.989 54.0355 128.984L82.8376 128.926C85.0985 128.921 86.9334 130.753 86.9387 133.017V134.138C86.9387 136.402 85.1142 138.245 82.8534 138.245Z" fill="#C7B79E"/>
<path d="M71.7647 138.271L54.0513 138.308C51.7904 138.313 49.9555 136.481 49.9502 134.217V133.096C49.9449 130.832 51.7747 128.995 54.0355 128.989L71.749 128.952C74.0098 128.947 75.8448 130.779 75.85 133.043V134.165C75.85 136.423 74.0256 138.266 71.7647 138.271Z" fill="#E3D4BF"/>
<path d="M76.6753 175.377L60.8599 175.409C58.4255 175.414 56.4591 177.394 56.4644 179.826L81.0866 179.779C81.0813 177.346 79.1096 175.372 76.6753 175.377Z" fill="#90A4AE"/>
<path d="M69.1091 66.8065C68.6359 64.6269 68.394 61.468 69.7348 59.4779C71.6434 56.6507 75.1924 58.1144 77.3218 59.8149C81.3702 63.0527 85.0191 66.7539 88.6628 70.4392C91.1655 72.9769 93.6682 75.5145 96.1762 78.0521C96.4969 78.3786 96.8544 78.7208 97.3066 78.7997C97.743 78.8734 98.1794 78.6839 98.621 78.6576C99.0627 78.626 99.6095 78.884 99.5832 79.3262C103.137 73.7561 109.063 65.3482 113.422 60.3835C113.706 60.0623 114.016 59.7254 114.436 59.6359C114.941 59.5306 115.435 59.8254 115.867 60.1045C117.113 60.91 117.612 61.2732 118.138 61.647C119.389 62.5368 119.815 64.2057 119.132 65.5851C114.994 73.9245 108.832 84.1646 104.073 91.4826C102.959 93.1937 101.371 95.7471 99.1468 96.0262C95.8344 96.4421 92.2907 91.8512 89.9509 90.0559C85.608 86.7233 81.386 83.2169 77.49 79.3631C74.8085 76.7096 72.1691 73.8772 70.392 70.5182C69.903 69.6074 69.4246 68.2701 69.1091 66.8065Z" fill="#F28F4E"/>
<path d="M97.2436 80.1212C96.7809 81.6901 96.8755 83.317 97.5853 84.7964C97.6957 85.0228 98.069 84.9069 97.9639 84.6647C97.3697 83.2854 97.2804 81.7165 97.8166 80.3055C97.9744 79.9001 97.3697 79.6948 97.2436 80.1212Z" fill="#E87348"/>
<path d="M98.2689 80.8478C98.7263 81.9586 99.4256 82.901 100.377 83.6381C100.535 83.7592 100.73 83.5328 100.577 83.4064C99.7043 82.6746 99.0734 81.7796 98.6895 80.7056C98.5896 80.4318 98.1585 80.5845 98.2689 80.8478Z" fill="#E87348"/>
<path d="M99.7516 80.5687C99.7621 81.2742 100.467 81.7849 101.098 81.9218C101.282 81.9639 101.329 81.6796 101.15 81.6322C100.524 81.4742 100.262 81.0162 99.9724 80.4897C99.9093 80.3739 99.7463 80.4581 99.7516 80.5687Z" fill="#E87348"/>
<path d="M110.656 80.6635C108.332 83.7381 106.339 87.1023 104.221 90.3191C103.306 91.709 102.459 93.3095 101.239 94.4625C99.5359 96.0736 97.5642 95.7208 95.7608 94.5626C92.7533 92.6251 90.0876 89.9717 87.3483 87.6762C84.3093 85.128 81.3124 82.5062 78.0631 80.2265C77.9895 80.1739 77.9106 80.2686 77.9737 80.3318C81.2388 83.5591 84.8772 86.4021 88.4051 89.3346C90.1717 90.8035 91.9226 92.2882 93.6945 93.7465C94.7933 94.6521 95.9658 95.5997 97.3539 96.0104C100.24 96.8685 102.128 94.7152 103.563 92.5093C106.061 88.6765 108.732 84.849 110.94 80.8425C111.029 80.6793 110.772 80.5108 110.656 80.6635Z" fill="#E87348"/>
<path d="M80.4975 62.1367C80.4292 62.084 80.3135 62.1683 80.3766 62.2472C82.7689 65.2429 85.7185 67.8226 88.442 70.5182C91.3075 73.3559 94.0889 76.3358 97.0858 79.0314C97.3645 79.2788 97.6905 78.8629 97.4539 78.5997C94.7882 75.7093 91.8543 73.0401 89.052 70.2813C86.2653 67.5383 83.5839 64.5374 80.4975 62.1367Z" fill="#E87348"/>
<path d="M105.146 71.0973C103.538 72.2503 100.514 77.0992 99.4627 78.7629C98.6846 78.2311 97.5804 78.01 96.9548 78.8471C96.9232 78.8945 96.9495 78.9629 97.0126 78.9577C97.9169 78.8945 98.5794 78.6892 99.3576 79.3789C99.4575 79.4684 99.6678 79.4736 99.7519 79.3473C100.888 77.6099 103.743 73.1875 105.073 71.6133C105.246 71.4027 105.378 70.9341 105.146 71.0973Z" fill="#E87348"/>
<path d="M98.8262 164.079L98.8367 170.607L103.753 170.597L104.794 164.063L98.8262 164.079Z" fill="#CF795B"/>
<path d="M115.919 116.806C111.787 113.663 99.5833 113.137 94.7251 112.6C93.6052 112.473 78.8414 113.7 78.5942 112.863C78.0895 111.178 78.1841 109.567 78.1158 107.846C75.4659 109.093 67.8526 107.23 63.068 107.003C62.2478 106.966 61.6063 106.661 61.1384 106.208C61.1174 106.208 61.0963 106.208 61.0806 106.208C59.6294 111.047 60.3497 119.633 63.3151 123.751C66.1806 127.725 71.2333 128.842 75.8602 128.957C80.7762 129.079 85.687 128.689 90.582 128.305C92.9585 128.12 102.065 127.794 102.065 127.794C94.0574 140.293 98.2846 142.646 98.2899 149.274C98.2951 153.312 98.3267 162.084 98.2426 164.395C100.987 165.006 102.748 165.179 105.593 164.6C105.593 164.595 118.39 118.686 115.919 116.806Z" fill="#383838"/>
<path d="M98.8367 170.607C98.8367 170.607 96.4812 172.345 96.4917 177.457L117.307 177.415C117.307 177.415 117.065 174.582 113.921 174.156C110.777 173.729 104.063 168.622 104.063 168.622L103.474 169.307C102.827 170.06 101.897 170.502 100.908 170.539L98.8367 170.607Z" fill="#2F3A40"/>
<path d="M88.7104 166.195L88.721 172.724L93.637 172.713L94.678 166.185L88.7104 166.195Z" fill="#CF795B"/>
<path d="M105.477 120.276C101.345 117.133 89.1413 116.606 84.2831 116.069C83.1632 115.943 76.1651 116.185 75.9127 115.348C75.408 113.663 75.5026 112.052 75.4342 110.331C72.7843 111.578 69.8032 112.1 66.8693 112.11C62.0637 112.126 57.4053 110.699 52.6207 110.473C51.8058 110.436 51.1591 110.131 50.6911 109.678C50.6701 109.678 50.6491 109.678 50.6333 109.678C49.1822 114.516 49.9025 123.103 52.8679 127.22C55.7333 131.195 60.7861 132.311 65.4129 132.427C70.3289 132.548 75.2397 132.158 80.1347 131.774C82.5112 131.59 91.6177 131.263 91.6177 131.263C83.6101 143.762 87.8373 146.115 87.8426 152.744C87.8479 156.782 87.8794 165.553 87.7953 167.864C90.5399 168.475 92.3012 168.649 95.1457 168.07C95.1509 168.07 107.954 122.161 105.477 120.276Z" fill="#4D4D4D"/>
<path d="M88.721 172.724C88.721 172.724 86.3655 174.461 86.376 179.573L107.192 179.531C107.192 179.531 106.95 176.699 103.806 176.272C100.661 175.846 93.9472 170.739 93.9472 170.739L93.3583 171.423C92.7116 172.176 91.781 172.618 90.7925 172.655L88.721 172.724Z" fill="#37474F"/>
<path d="M67.2061 50.9332C65.5499 51.2912 64.3248 53.4971 63.3258 54.6975C61.0019 57.4984 58.9408 60.1939 57.1059 63.3212C54.314 68.0859 52.458 72.9979 51.1278 78.3838C49.0615 86.7548 48.8617 96.0893 48.8827 104.708C48.888 107.914 48.9721 110.531 52.153 111.989C57.1322 114.279 64.2617 114.679 69.5563 113.832C72.8424 113.305 74.7457 112.168 77.3904 110.315C80.6818 108.009 79.6723 103.371 79.667 99.522C79.6565 94.7468 78.4682 84.8174 80.1087 80.3213C82.6377 73.3823 82.3905 72.0871 82.8217 65.6851C83.1371 61.0521 81.4757 56.5665 78.3315 54.529C76.3809 53.2813 70.4081 50.4646 67.2061 50.9332Z" fill="#FFA264"/>
<path d="M77.848 57.7879C77.8165 57.5931 77.4905 57.6405 77.5062 57.8353C77.8427 62.5894 77.6798 67.2277 76.9594 71.945C76.2654 76.5095 75.2349 81.0162 74.3779 85.5492C73.5734 89.7926 72.9004 94.094 72.8321 98.4216C72.7637 103.007 74.3568 108.251 72.2432 112.552C72.1118 112.821 72.5166 113.053 72.6428 112.784C74.5461 108.799 73.3263 104.318 73.2737 100.101C73.2106 95.1522 73.9625 90.2454 74.8931 85.3965C76.6124 76.4464 79.3622 66.9645 77.848 57.7879Z" fill="#E87348"/>
<path d="M79.5987 64.1004C79.4304 63.9951 79.2412 63.9583 79.0414 64.0425C78.8311 64.132 78.6628 64.3531 78.6733 64.5901C78.6838 64.8007 78.789 65.0007 78.973 65.106C79.1938 65.2376 79.4252 65.1955 79.6197 65.0639C80.0509 64.9112 80.0403 64.2426 79.5987 64.1004Z" fill="white"/>
<path d="M78.042 77.2572C77.9894 77.2572 77.9369 77.2519 77.8843 77.2519C77.5951 77.2414 77.3164 77.5204 77.3269 77.81C77.3427 78.0995 77.5741 78.3838 77.8843 78.368C77.9369 78.368 77.9894 78.3628 78.042 78.3628C78.3312 78.347 78.6046 78.1206 78.5888 77.81C78.5783 77.4994 78.3522 77.273 78.042 77.2572Z" fill="white"/>
<path d="M75.8921 103.344C75.5924 103.344 75.3032 103.613 75.319 103.923C75.3347 104.234 75.5714 104.502 75.8973 104.497C76.197 104.497 76.4862 104.229 76.4757 103.918C76.4599 103.613 76.2181 103.344 75.8921 103.344Z" fill="white"/>
<path d="M70.5764 52.3915C70.3871 50.7963 71.4124 49.459 71.649 48.0165C73.7889 47.8954 77.401 49.9697 79.3622 51.0122C82.112 52.4705 81.3654 54.4659 81.3601 57.5037C78.91 57.8195 72.2484 54.9081 70.5764 52.3915Z" fill="#F28F4E"/>
<path d="M79.7459 43.5203C79.6565 43.1939 79.4725 42.9044 79.2885 42.6201C77.6901 40.1403 70.7183 30.3478 67.1535 32.8012C67.1115 32.8328 67.0694 32.8644 67.0273 32.896C68.4575 38.9716 68.7466 45.1788 68.7151 51.407C72.2325 52.839 75.4924 54.9081 78.2685 57.5036L79.7564 44.9208C79.8195 44.4575 79.8721 43.9731 79.7459 43.5203Z" fill="#FFC0AC"/>
<path d="M78.8888 52.2864L79.7616 44.9262C79.8194 44.4577 79.872 43.9786 79.7405 43.5258C79.6512 43.1994 79.4671 42.9098 79.2831 42.6255C77.6848 40.1458 70.7129 30.3533 67.1482 32.8067C67.1061 32.8383 67.064 32.8699 67.022 32.9015C67.7055 35.8076 68.1261 38.7454 68.3785 41.6989C71.5857 45.2579 74.998 49.1539 78.8888 52.2864Z" fill="#CF795B"/>
<path d="M68.3892 41.704C68.6626 44.926 68.7362 48.1692 68.7204 51.4123C72.2379 52.8443 74.3935 57.6984 78.2738 57.5089L78.8942 52.2862C74.9982 49.1537 71.5859 45.2577 68.3892 41.704Z" fill="#CF795B"/>
<path d="M90.6505 12.7529C91.8493 10.4837 92.4118 7.7987 91.7756 5.31371C91.1395 2.82873 89.1625 0.622779 86.6493 0.133152C85.8606 -0.0195266 85.0562 -0.00899699 84.2518 0.0120622C84.6514 0.0278566 85.0457 0.0594453 85.44 0.138417C87.9532 0.633308 89.9302 2.83399 90.5664 5.31898C91.2025 7.80396 90.6347 10.489 89.4412 12.7581C89.9039 12.5897 90.2246 13.232 90.2772 13.7216C90.4875 15.7275 90.1247 17.8755 88.8576 19.4392C87.9059 20.6132 86.5389 21.3661 85.2034 22.0768C81.1865 24.2038 77.1012 26.2255 72.8424 27.8207C70.7708 28.5946 68.4574 29 66.4594 29.9214C66.0651 30.1056 65.6234 30.49 65.166 30.7216C65.2869 30.8006 65.4026 30.8585 65.5235 30.8848C66.2754 31.0375 67.0325 30.2162 67.6687 29.9214C69.6667 28.9948 71.9801 28.5946 74.0517 27.8207C78.3105 26.2255 82.3958 24.2091 86.4127 22.0768C87.7482 21.3661 89.1152 20.6185 90.0669 19.4392C91.334 17.8703 91.6968 15.7275 91.4865 13.7216C91.4339 13.2267 91.1132 12.5897 90.6505 12.7529Z" fill="#37474F"/>
<path d="M76.1914 4.04486C75.734 4.02907 75.2713 3.99748 74.8191 3.97116C73.7413 3.90798 72.6529 3.86586 71.5698 3.89219C72.2533 3.90272 72.9316 3.9343 73.6098 3.97116C74.4669 4.02381 75.3344 4.08698 76.1914 4.04486Z" fill="#37474F"/>
<path d="M72.8424 27.8159C77.1012 26.2206 81.1865 24.2042 85.2035 22.072C86.5389 21.3612 87.906 20.6136 88.8576 19.4343C90.1248 17.8707 90.4875 15.7226 90.2772 13.7168C90.2247 13.2271 89.9039 12.5848 89.4412 12.7533C90.64 10.4842 91.2026 7.79913 90.5664 5.31414C89.9302 2.82916 87.9533 0.628475 85.4401 0.133584C85.0457 0.0546124 84.6514 0.0230236 84.2518 0.00722921C83.7944 -0.00330039 83.337 0.00722921 82.8743 0.0230236C82.501 0.0335532 82.1119 0.0493476 81.7859 0.228351C81.2076 0.549503 81.0025 1.26025 80.6765 1.83938C80.0298 2.97131 78.7732 3.63994 77.5008 3.89791C77.0697 3.98742 76.6333 4.02953 76.1916 4.05059C75.3346 4.08745 74.4671 4.02953 73.6101 3.98215C72.9318 3.9453 72.2483 3.91371 71.57 3.90318C69.9401 3.87159 68.3102 3.95583 66.7276 4.33489C64.4826 4.8719 62.3164 6.05122 61.0124 7.95707C59.7085 9.86293 59.4298 12.548 60.6917 14.4802C59.4877 15.2278 58.7936 16.6229 58.6254 18.0286C58.4519 19.4343 58.7463 20.8558 59.1669 22.2089C59.8873 24.5517 60.9914 26.7735 62.411 28.7741C62.8264 29.3585 63.5677 30.7326 64.3248 30.8905C64.6087 30.9484 64.8927 30.8642 65.1766 30.7273C65.634 30.4957 66.0757 30.1113 66.47 29.9271C68.4574 28.9952 70.7709 28.5951 72.8424 27.8159Z" fill="#263238"/>
<path d="M65.2659 32.9487C65.2396 32.9539 65.2133 32.9539 65.187 32.9539C65.2501 32.9592 65.3185 32.9592 65.3868 32.9487C65.5603 32.9276 66.1597 32.5749 66.3542 32.2116C66.3174 32.1063 66.2859 32.0063 66.2491 31.8957C66.391 32.3327 65.492 32.9276 65.2659 32.9487Z" fill="#FFCCBC"/>
<path d="M66.2228 29.5423C66.4489 29.695 66.675 29.7792 66.8748 29.7476C66.7171 29.7266 66.5488 29.6529 66.3806 29.5423C66.1177 29.3686 66.3438 28.2788 65.9547 28.0261C65.4394 27.6786 64.8137 27.5048 64.2144 27.5154C64.7664 27.5206 65.3395 27.6944 65.8127 28.0261C66.186 28.2788 65.9705 29.3686 66.2228 29.5423Z" fill="#FFCCBC"/>
<path d="M90.2879 25.2094C89.9041 22.856 89.3783 20.5237 88.779 18.2177C88.3426 16.5225 88.0113 14.764 87.3594 13.132C86.3604 10.6312 84.6989 9.18862 82.2383 9.36236C84.2257 9.50451 85.598 10.8997 86.4603 13.1372C87.0912 14.7693 87.4014 16.5277 87.8273 18.223C88.4057 20.529 88.9157 22.8613 89.2837 25.2147C90.004 29.795 90.1828 34.5176 89.2522 39.0874C89.0366 40.1614 88.2532 43.2571 87.5697 44.0995C86.4971 45.4367 84.7252 45.8369 83.0112 45.8895C85.0144 45.9316 87.2279 45.6315 88.5056 44.0995C89.2101 43.2571 90.0198 40.1667 90.2511 39.0874C91.2238 34.5123 91.0345 29.7898 90.2879 25.2094Z" fill="#C66C54"/>
<path d="M87.5747 44.0942C88.2529 43.2518 89.0363 40.1614 89.2572 39.0821C90.193 34.5176 90.009 29.795 89.2887 25.2094C88.9207 22.856 88.4107 20.5237 87.8323 18.2177C87.4064 16.5225 87.091 14.764 86.4653 13.1319C85.5977 10.8944 84.2255 9.49924 82.2433 9.35709C81.6649 9.31497 81.034 9.38341 80.3452 9.56768C78.2211 10.1363 76.0128 10.6312 74.1042 11.7894C72.6005 12.7055 70.5184 14.1796 70.1872 16.1118C70.0242 17.0753 70.3029 18.0598 70.2923 19.0338C70.2818 20.013 67.511 22.3822 67.5005 22.9929C67.4794 24.5092 67.4531 26.0254 67.4321 27.5417C67.4216 28.0471 67.5373 29.0106 67.2849 29.437C67.1745 29.6266 67.0325 29.7213 66.8748 29.7476C66.675 29.7792 66.4489 29.695 66.2228 29.5423C65.9705 29.3686 66.186 28.2788 65.8127 28.0261C65.3395 27.6944 64.7664 27.5206 64.2144 27.5154C63.2469 27.5048 62.3373 28.0208 62.0955 29.1264C62.0744 29.2001 62.0639 29.2738 62.0534 29.3528C62.0271 29.5423 62.0271 29.7371 62.0534 29.9266C62.127 30.5637 62.453 31.1744 62.9209 31.6009C63.6307 32.2484 64.288 33.0066 65.1818 32.9592C65.187 32.9644 65.187 32.9644 65.1923 32.9592C65.2186 32.9592 65.2449 32.9592 65.2712 32.9539C65.492 32.9328 66.3963 32.3379 66.2544 31.9062C66.2912 32.0115 66.3227 32.1168 66.3595 32.2221C66.4174 32.1168 66.4437 32.0062 66.4068 31.9062C67.6372 35.5705 69.0831 38.8873 72.3902 40.8774C75.6973 42.8675 79.0728 45.7895 82.9268 45.8895H83.0162C84.7302 45.8316 86.5021 45.4315 87.5747 44.0942Z" fill="#CF795B"/>
<path d="M79.4461 22.5454C78.9572 22.3401 78.342 22.6033 78.2105 23.1403C78.0738 23.6931 78.3788 24.2828 78.9729 24.3617C79.2411 24.3986 79.5197 24.3196 79.7143 24.1248C79.7616 24.0774 79.8194 23.9932 79.8562 23.9353C79.8983 23.8616 79.9298 23.7879 79.9509 23.7089C79.9719 23.6405 79.9509 23.6879 79.8878 23.8458C80.1402 23.3614 79.9666 22.7612 79.4461 22.5454Z" fill="#37474F"/>
<path d="M88.7103 20.9554C88.2213 20.7501 87.6062 21.0133 87.4747 21.5503C87.338 22.1032 87.643 22.6928 88.2371 22.7718C88.5052 22.8086 88.7839 22.7297 88.9784 22.5349C89.0258 22.4875 89.0836 22.4032 89.1204 22.3453C89.1625 22.2716 89.194 22.1979 89.215 22.1189C89.2361 22.0505 89.215 22.0979 89.1519 22.2558C89.4043 21.7662 89.2308 21.1713 88.7103 20.9554Z" fill="#37474F"/>
<path d="M79.9301 16.4699C78.4737 15.8381 76.4284 16.891 75.2612 17.8177C74.8195 18.1704 74.7932 18.9548 75.2874 18.6495C75.9552 18.2336 77.0751 17.8914 77.8322 17.7124C78.5262 17.5439 79.2571 17.6281 79.9353 17.407C80.377 17.2596 80.3191 16.6436 79.9301 16.4699Z" fill="#37474F"/>
<path d="M88.1742 16.0539C87.5485 15.3116 86.2603 15.2273 85.3297 15.559C84.5831 15.8275 84.846 16.7383 85.6715 16.612C86.4023 16.4962 87.0963 16.6278 87.8272 16.5751C88.1006 16.5593 88.3687 16.2856 88.1742 16.0539Z" fill="#37474F"/>
<path d="M92.4168 29.7477C92.5797 29.9951 92.7375 30.2583 92.7795 30.5479C92.8584 31.0533 92.5587 31.564 92.1381 31.9062C91.7175 32.2537 91.1864 32.4643 90.6659 32.6696C89.8299 32.996 88.3472 33.6857 87.5375 33.3172C86.8751 33.0118 86.6963 32.359 86.7331 31.7641C86.8645 29.6476 85.9339 27.1995 86.1337 25.1094C86.1547 24.883 86.1863 24.6513 86.323 24.4618C87.1537 23.3562 91.8857 28.9316 92.4168 29.7477Z" fill="#CF795B"/>
<path opacity="0.65" d="M91.9752 29.7476C92.1171 29.9951 92.2591 30.2583 92.2959 30.5479C92.3642 31.0533 92.1014 31.564 91.7333 31.9062C91.3653 32.2537 90.8973 32.4643 90.4399 32.6696C89.7091 32.996 88.4104 33.6857 87.7006 33.3172C87.1222 33.0118 86.9645 32.359 86.9961 31.764C87.1065 29.6476 86.2968 27.1995 86.4703 25.1093C86.4913 24.883 86.5123 24.6513 86.6385 24.4618C87.3641 23.3562 91.5125 28.9369 91.9752 29.7476Z" fill="url(#paint0_radial_1003_2102)"/>
<path d="M92.6849 29.8845C92.1696 28.9369 91.2442 28.105 90.5186 27.3206C89.6984 26.4414 88.8519 25.5306 87.895 24.804C87.8109 24.7408 87.7215 24.8725 87.7899 24.9409C89.0675 26.2676 90.4293 27.4627 91.5965 28.9C91.9067 29.2844 92.2958 29.6529 92.4798 30.1162C92.7269 30.7269 92.4535 31.3166 91.9908 31.743C91.3599 32.3169 90.3925 32.5538 89.6511 32.975C89.588 33.0118 89.6459 33.0961 89.7037 33.0697C90.608 32.6644 91.6543 32.5591 92.3589 31.7904C92.8478 31.2534 93.0476 30.5479 92.6849 29.8845Z" fill="#FF8A65"/>
<path d="M89.4203 32.2432C88.884 32.2116 88.3056 32.4327 87.8429 32.6959C87.7746 32.738 87.7903 32.8433 87.864 32.8644C87.9691 32.896 88.069 32.9276 88.1794 32.9539C88.2425 32.9697 88.2846 32.8802 88.2267 32.8433C88.1899 32.8223 88.1584 32.8065 88.1216 32.7907C88.558 32.6328 88.9944 32.5432 89.4413 32.4064C89.5359 32.38 89.5149 32.2484 89.4203 32.2432Z" fill="#FF8A65"/>
<path d="M87.5958 33.1803C87.4013 32.9803 87.1804 32.896 87.049 32.6275C86.9175 32.3537 86.9386 32.101 86.9649 31.8115C86.9701 31.7588 86.8965 31.7536 86.8755 31.7851C86.6809 32.0431 86.7177 32.4274 86.8387 32.7117C86.9491 32.975 87.2225 33.333 87.5432 33.3172C87.6063 33.3119 87.6431 33.2277 87.5958 33.1803Z" fill="#FF8A65"/>
<path d="M65.4234 30.7743C65.2709 30.7637 65.1448 30.7953 65.0186 30.69C64.8608 30.5532 64.8661 30.3373 64.8608 30.1425C64.8556 29.9161 65.1185 29.4633 65.0764 29.237C65.0081 28.8632 64.5506 28.7315 64.151 28.6684C63.7462 28.6052 63.3624 28.8842 63.2099 29.2475C63.0048 29.7371 63.1626 30.2215 63.4307 30.6427C63.4623 30.6953 63.5516 30.6742 63.5516 30.6111C63.5306 30.2057 63.3256 29.1264 64.0038 29.1369C64.5401 29.1475 64.3403 30.0741 64.3719 30.4005C64.4034 30.7216 64.5454 31.0165 64.8345 31.1797C65.0869 31.3271 65.4392 31.3481 65.5969 31.0638C65.6653 30.9322 65.5706 30.7795 65.4234 30.7743Z" fill="#FF8A65"/>
<path d="M65.6389 30.5426C65.6231 30.5321 65.6073 30.5163 65.5916 30.5058C65.5653 30.4847 65.5232 30.49 65.4969 30.5058C65.3234 30.5532 65.1972 30.4584 65.1184 30.2162C65.1499 30.0951 65.2025 29.9846 65.2814 29.8898C65.3287 29.7898 65.3707 29.7213 65.3918 29.6055C65.4338 29.3844 65.3707 29.1632 65.2498 28.9737C64.9922 28.5736 64.4927 28.3946 64.03 28.4314C63.5621 28.4683 63.1993 28.7105 63.031 29.1527C62.8891 29.5213 62.8786 30.1372 63.173 30.4321C63.2256 30.4847 63.3202 30.4321 63.3044 30.3584C63.2203 30.053 63.0889 29.8266 63.2256 29.5002C63.3255 29.258 63.5042 29.079 63.7356 28.9579C63.9985 28.821 64.3192 28.8052 64.5873 28.9369C64.9922 29.1422 64.9869 29.4107 64.8082 29.7529C64.4927 30.3531 64.8502 31.0691 65.5863 30.927C65.7914 30.9006 65.7703 30.6427 65.6389 30.5426Z" fill="#37474F"/>
<path d="M65.1078 31.5693C64.9763 31.5745 64.887 31.6798 64.7555 31.6798C64.6188 31.6851 64.5242 31.6167 64.4138 31.543C64.3559 31.5061 64.2613 31.5535 64.2718 31.6272C64.2928 31.8483 64.5137 31.9905 64.7187 32.0168C64.9185 32.0379 65.2498 31.9589 65.2445 31.7062C65.2445 31.6325 65.1814 31.564 65.1078 31.5693Z" fill="#FF8A65"/>
<path d="M79.388 25.3621C79.1409 25.3516 78.9201 25.3937 78.6782 25.32C78.4206 25.241 78.2523 25.0831 78.0525 24.9146C77.9526 24.8303 77.7634 24.904 77.8107 25.0567C78.0052 25.6622 78.9306 26.0676 79.4932 25.7464C79.6719 25.6411 79.5878 25.3673 79.388 25.3621Z" fill="#FF8A65"/>
<path d="M89.3727 23.0824C89.1887 23.1667 89.0204 23.3246 88.889 23.4773C88.7733 23.6142 88.9258 23.8669 89.0993 23.7458C89.2781 23.6194 89.4516 23.4668 89.5673 23.272C89.6409 23.1456 89.4936 23.0245 89.3727 23.0824Z" fill="#FF8A65"/>
<path d="M81.4756 36.8499C81.5597 37.0289 81.6544 37.2026 81.7648 37.3711C82.096 37.8712 82.5482 38.2924 83.0582 38.5925C83.5734 38.8926 84.1255 39.0927 84.6986 39.2295C85.0298 39.3085 85.3769 39.3506 85.7134 39.3822C85.1666 37.7238 83.0582 36.5971 81.4756 36.8499Z" fill="#B71C1C"/>
<path d="M86.9856 36.3234C87.0119 36.2497 87.0329 36.1812 87.0487 36.1075C86.6176 36.0759 86.1917 36.018 85.7711 35.9443C84.9508 35.8021 84.1411 35.581 83.384 35.2651C82.6269 34.944 81.9171 34.4912 81.4229 33.8542L81.1652 33.5225L81.1074 33.9489C81.0338 34.5281 81.018 35.123 81.1127 35.7126C81.1127 35.7232 81.1179 35.7284 81.1179 35.739H81.1232C81.1863 36.1233 81.3072 36.4971 81.4754 36.8498C83.058 36.5971 85.1664 37.7238 85.7132 39.3769C85.9551 39.398 86.1917 39.4085 86.423 39.4138C86.5808 39.4243 86.7437 39.4349 86.8962 39.4612C86.8857 39.3769 86.8752 39.2927 86.8699 39.2032C86.8121 38.5925 86.7805 37.7712 86.7805 37.2973C86.7805 37.1183 86.7858 36.9867 86.7911 36.9393C86.8173 36.7656 86.912 36.5445 86.9856 36.3234Z" fill="#821C1C"/>
<path d="M87.8112 36.1496C87.8059 36.2128 87.8007 36.2707 87.8007 36.3339C87.7849 36.5655 87.7691 36.7972 87.7533 37.0341C87.7481 37.1078 87.7376 37.1921 87.685 37.2447C87.6324 37.2973 87.5536 37.3026 87.4799 37.3026C87.2486 37.3131 87.012 37.3079 86.7807 37.3026C86.134 37.2763 85.4872 37.1921 84.8563 37.0604C84.1044 36.9025 83.3736 36.6866 82.648 36.4339C82.3115 36.3181 81.9172 36.2023 81.5702 36.0285C81.4072 35.9496 81.26 35.8548 81.1285 35.739H81.1233C81.1233 35.7284 81.118 35.7232 81.118 35.7126C81.0234 35.123 81.0392 34.5281 81.1128 33.9489L81.1653 33.5225L81.4282 33.8594C81.9225 34.4965 82.6323 34.944 83.3894 35.2704C84.1465 35.5863 84.9562 35.8074 85.7764 35.9496C86.197 36.0233 86.6229 36.0759 87.0541 36.1128C87.3064 36.1338 87.5588 36.1444 87.8112 36.1496Z" fill="#FAFAFA"/>
<path d="M88.5842 36.1707C88.5842 36.1812 88.5842 36.1602 88.5842 36.1917C88.5842 36.2128 88.5737 36.2391 88.5579 36.2497C88.5474 36.2549 88.5369 36.2602 88.5317 36.2655C88.4896 36.2865 88.4633 36.2865 88.437 36.2918C88.3792 36.3023 88.3266 36.3076 88.274 36.3128C88.1163 36.3234 87.9586 36.3339 87.8008 36.3339C87.5327 36.3392 87.2593 36.3339 86.9859 36.3234C86.5652 36.3023 86.1446 36.2602 85.7293 36.2023C84.888 36.0864 84.052 35.9022 83.2581 35.5705C82.5956 35.2967 81.9489 34.9177 81.4284 34.3912C81.3968 34.944 81.4336 35.5021 81.5651 36.0285C81.665 36.4339 81.828 36.8183 82.0593 37.171C82.6429 38.1081 83.6892 38.6504 84.7671 38.9189C85.3086 39.0663 85.8554 39.1242 86.4391 39.1611C86.5758 39.1716 86.7177 39.1874 86.8649 39.2085C87.0121 39.2348 87.1646 39.2716 87.3118 39.3296C87.5905 39.4349 87.8797 39.6297 88.0059 39.9245C88.2688 40.5036 87.9848 41.2512 87.4012 41.4671C86.8386 41.6829 86.2445 41.604 85.6872 41.4934C85.9711 41.525 86.255 41.546 86.539 41.5355C86.8229 41.5197 87.1068 41.4829 87.3539 41.3618C87.8692 41.1459 88.0479 40.472 87.8219 40.0087C87.7114 39.7771 87.4801 39.6297 87.2277 39.5454C87.1173 39.5086 87.0069 39.4822 86.886 39.4664C86.7335 39.4401 86.5705 39.4243 86.4128 39.4191C85.8554 39.4033 85.2508 39.3664 84.6882 39.2295C84.1204 39.0926 83.563 38.8873 83.0478 38.5925C82.5325 38.2924 82.0856 37.8712 81.7544 37.3711C81.4284 36.8814 81.2076 36.3128 81.1129 35.739H81.1077C81.1077 35.7284 81.1024 35.7232 81.1024 35.7126C81.0078 35.123 81.0235 34.5281 81.0971 33.9489L81.1655 33.5225L81.4284 33.8594C81.9226 34.4965 82.6324 34.944 83.3895 35.2704C84.1467 35.5863 84.9564 35.8074 85.7766 35.9496C86.1972 36.0233 86.6231 36.0759 87.0542 36.1128C87.3066 36.1338 87.5642 36.1444 87.8166 36.1496C87.9638 36.1549 88.1163 36.1549 88.2635 36.1496C88.3161 36.1444 88.3687 36.1444 88.416 36.1391L88.4265 36.1338L88.3424 35.839C88.2845 35.6337 88.2372 35.4231 88.2004 35.2178C88.1321 34.7966 88.1321 34.3701 88.1689 33.9489C88.1689 34.3701 88.2004 34.7913 88.2898 35.202C88.3319 35.4073 88.3897 35.6021 88.4633 35.8021L88.5685 36.1022L88.579 36.1444L88.5842 36.1707Z" fill="#FF8A65"/>
<path d="M86.4232 41.5039C85.3191 41.0564 83.8732 41.4039 82.8427 41.8883C82.6797 41.9672 82.7953 42.2252 82.9636 42.1778C83.5419 42.0199 84.1308 41.9146 84.7355 41.9041C85.2823 41.8935 85.8133 42.0146 86.3549 42.0146C86.6703 42.0199 86.6808 41.6092 86.4232 41.5039Z" fill="#FF8A65"/>
<path d="M82.1118 32.7328C81.5071 32.2326 80.3399 32.5275 80.0192 33.2382C79.9666 33.354 80.0928 33.4541 80.1927 33.3698C80.4503 33.1592 80.6922 32.975 81.0287 32.9118C81.3494 32.8486 81.6438 32.9381 81.9593 33.0013C82.096 33.0329 82.2432 32.8434 82.1118 32.7328Z" fill="#FF8A65"/>
<path d="M66.1594 52.4021C65.9701 50.8068 66.9954 49.4696 67.232 48.027C69.3719 47.9059 72.984 49.9803 74.9452 51.0227C77.695 52.481 76.9484 54.4764 76.9431 57.5142C74.4877 57.8301 67.8314 54.9134 66.1594 52.4021Z" fill="#FFA264"/>
<path d="M75.8654 54.0815C75.8391 53.8288 75.5026 53.6919 75.3607 53.9447C74.7245 55.0713 74.1356 56.2559 73.6256 57.4457C73.531 57.6669 73.8201 57.8459 73.9516 57.6353C74.4879 56.7718 74.9979 55.8663 75.4658 54.9502C75.6131 56.119 75.5605 57.2878 75.5815 58.4671C75.5868 58.6935 75.9601 58.7672 75.9969 58.525C76.2282 57.0404 76.0232 55.5557 75.8654 54.0815Z" fill="#E87348"/>
<path d="M73.752 57.172C73.0369 56.4297 71.8382 56.0769 70.9654 55.5294C69.9506 54.8871 69.0253 54.1237 68.0683 53.4024C67.8685 53.2497 67.6688 53.5656 67.816 53.7288C68.6257 54.6607 69.6141 55.3978 70.6657 56.0401C71.528 56.5666 72.6531 57.351 73.6942 57.3089C73.7625 57.3089 73.7993 57.2246 73.752 57.172Z" fill="#E87348"/>
<path d="M80.1505 53.9341C79.8771 54.5133 79.6825 55.1187 79.4722 55.7242C79.2409 56.3823 78.9307 57.0614 78.8308 57.7564C78.7887 58.0512 79.183 58.2776 79.346 57.9722C79.651 57.4089 79.7982 56.7666 79.9875 56.1611C80.1978 55.4872 80.4396 54.8134 80.5763 54.1184C80.6237 53.871 80.2714 53.6814 80.1505 53.9341Z" fill="#E87348"/>
<path d="M113.974 94.1835C115.725 84.9596 119.516 76.0252 124.642 68.1649C119.653 67.8964 111.124 68.2491 106.151 68.7282C99.7046 77.3835 98.9264 87.1655 96.8496 97.7583C102.333 95.9419 108.206 94.4309 113.974 94.1835Z" fill="#EBECF7"/>
<path d="M121.224 73.9456C112.896 79.0788 103.916 84.5173 98.09 92.5198C97.9796 92.9252 97.8639 93.3306 97.7588 93.7413C103.101 89.9611 109.152 88.5133 115.446 88.0763C116.86 83.1906 118.821 78.4418 121.224 73.9456Z" fill="#E0E2F3"/>
<path d="M105.882 84.5173C105.662 83.3959 104.768 82.443 103.664 82.1481C102.475 81.8323 101.408 82.3008 100.562 83.1063C99.4259 84.1856 99.1524 84.6015 97.6067 85.1701C95.8085 85.8335 94.0997 87.0076 92.8694 88.487C92.6433 88.7607 92.3962 89.0661 92.2017 89.3767C92.3068 90.0401 92.4277 90.6982 92.5644 91.351C92.9903 91.4932 93.5582 91.1983 93.9788 91.3089C94.594 91.4721 94.7622 91.8985 95.2775 92.1828C96.3658 92.7936 97.2702 93.1674 98.2481 91.9196C98.49 91.6143 98.6687 91.2668 98.9474 90.993C99.6309 90.3138 100.693 90.2559 101.655 90.2349C101.918 89.5768 101.787 88.8292 101.603 88.1395C101.419 87.4551 101.187 86.7548 101.256 86.0494C101.324 85.3439 101.808 84.6121 102.512 84.5331C102.717 84.512 102.943 84.5542 103.08 84.7121C103.175 84.8227 103.206 84.9701 103.243 85.107C103.464 85.9019 104.216 86.6759 105.01 86.4548C105.756 86.2389 106.03 85.2807 105.882 84.5173Z" fill="#CF795B"/>
<path d="M106.297 87.6393C106.077 86.5179 105.183 85.565 104.079 85.2702C102.89 84.9543 101.823 85.4229 100.977 86.2284C100.414 86.7654 100.062 87.1339 99.6621 87.4445L101.697 88.9871C101.823 88.3396 102.275 87.7288 102.922 87.6551C103.127 87.6341 103.353 87.6762 103.49 87.8341C103.584 87.9447 103.616 88.0921 103.653 88.229C103.874 89.024 104.625 89.7979 105.419 89.5768C106.171 89.3609 106.45 88.4027 106.297 87.6393Z" fill="#CF795B"/>
<path d="M104.873 92.4198C105.467 91.6774 105.588 90.5876 105.183 89.7294C104.741 88.8028 103.869 88.3764 102.901 88.2711C102.26 88.2027 101.834 88.1763 101.418 88.0921L101.534 90.2191C102.013 89.9506 102.649 89.9085 103.043 90.277C103.169 90.3928 103.264 90.5613 103.238 90.735C103.217 90.8561 103.143 90.9561 103.075 91.0509C102.691 91.6195 102.607 92.5145 103.175 92.9041C103.711 93.2727 104.468 92.9304 104.873 92.4198Z" fill="#CF795B"/>
<path d="M101.156 93.2779C101.855 92.9884 102.365 92.2829 102.412 91.5248C102.465 90.7087 102.023 90.0717 101.387 89.6242C100.966 89.3241 100.677 89.1451 100.425 88.924L99.6782 90.4507C100.115 90.4507 100.572 90.6666 100.703 91.0773C100.746 91.2089 100.746 91.3616 100.661 91.4721C100.604 91.5458 100.509 91.5879 100.425 91.6301C99.9359 91.8775 99.531 92.4672 99.7729 92.9568C100.015 93.4148 100.677 93.4727 101.156 93.2779Z" fill="#CF795B"/>
<path d="M58.0262 56.8034C59.367 55.0239 61.6015 52.7811 63.9833 52.5021C67.3641 52.1072 68.5786 55.7557 68.6733 58.4829C68.8625 63.6687 68.4419 68.8493 68.0213 74.0193C67.7321 77.573 67.4429 81.1321 67.1538 84.6858C67.1169 85.1438 67.0854 85.6387 67.322 86.0283C67.5481 86.4074 67.9792 86.618 68.2894 86.9339C68.5996 87.2497 68.7574 87.8289 68.4104 88.1026C74.9458 87.1708 85.1774 86.1915 91.7759 86.26C92.2018 86.2652 92.6645 86.281 93.001 86.5443C93.4111 86.8602 93.511 87.4235 93.5794 87.9394C93.7792 89.4136 93.8317 90.0296 93.8948 90.6666C94.0315 92.1987 93.0483 93.6096 91.5604 93.9887C82.5485 96.2841 70.7711 98.2795 62.1326 99.4377C60.1136 99.7062 57.1429 100.164 55.4762 98.6586C53.0051 96.4158 54.167 90.735 54.004 87.7815C53.6991 82.3114 53.5992 76.8202 53.9778 71.3501C54.2354 67.5805 54.6613 63.7372 56.0493 60.194C56.4226 59.2358 57.1219 58.0038 58.0262 56.8034Z" fill="#FFA264"/>
<path d="M66.2859 86.8549C64.7979 87.5288 63.6255 88.6607 62.9682 90.1664C62.8683 90.3981 63.1996 90.6034 63.3152 90.3665C63.9725 89.0187 65.1029 87.9289 66.5225 87.4129C66.9273 87.2603 66.6907 86.6706 66.2859 86.8549Z" fill="#E87348"/>
<path d="M66.4013 88.1026C65.8545 89.1714 65.6021 90.3191 65.66 91.5195C65.6705 91.7143 65.9702 91.7195 65.9649 91.5195C65.9491 90.3823 66.2173 89.3135 66.7799 88.3237C66.9271 88.0763 66.5327 87.8499 66.4013 88.1026Z" fill="#E87348"/>
<path d="M67.5792 89.045C67.0534 89.5136 67.1218 90.3823 67.432 90.9509C67.5214 91.1194 67.7685 90.972 67.6844 90.8035C67.3952 90.2244 67.5687 89.7295 67.7843 89.1661C67.8316 89.0398 67.6633 88.9713 67.5792 89.045Z" fill="#E87348"/>
<path d="M86.1656 92.0407C85.9973 91.5722 85.8869 91.0773 85.8238 90.5824C85.7607 90.0822 85.7555 89.5821 85.8028 89.0819C85.8448 88.6449 85.9973 88.2448 85.9185 87.8078C85.9079 87.7446 85.8133 87.7236 85.7712 87.771C85.1456 88.4343 85.2297 89.9137 85.3243 90.7456C85.419 91.5616 85.624 92.9147 86.3443 93.4254C86.4442 93.4991 86.5967 93.399 86.5914 93.2832C86.5757 92.8252 86.318 92.4672 86.1656 92.0407Z" fill="#E87348"/>
<path d="M74.6141 97.3845C70.7706 97.6267 66.9272 98.3006 63.1048 98.7902C61.4591 99.0008 59.6925 99.4009 58.0258 99.2272C55.6966 98.9797 54.6766 97.2581 54.3769 95.1311C53.8826 91.5827 54.156 87.8289 54.1087 84.2541C54.0561 80.2844 54.0877 76.299 53.6986 72.3451C53.6881 72.2556 53.5672 72.2556 53.5619 72.3451C53.2464 76.9255 53.4673 81.5427 53.5409 86.1336C53.5777 88.4291 53.5987 90.7298 53.646 93.0252C53.6723 94.4467 53.7249 95.9577 54.3138 97.2792C55.5441 100.033 58.4096 100.059 61.0122 99.7115C65.5444 99.1113 70.1818 98.6428 74.6561 97.7109C74.8454 97.6793 74.8086 97.3739 74.6141 97.3845Z" fill="#E87348"/>
<path d="M68.9883 62.4104C68.9831 62.3209 68.8411 62.2893 68.8253 62.3893C68.1155 66.1589 68.084 70.0812 67.8211 73.9035C67.5424 77.9258 67.0955 81.9797 67.0114 86.0178C67.0009 86.3916 67.5372 86.3705 67.574 86.0178C68.0261 82.1113 68.1365 78.1416 68.3994 74.2141C68.6571 70.3076 69.1828 66.3221 68.9883 62.4104Z" fill="#E87348"/>
<path d="M78.2684 86.9707C76.3441 86.4969 70.7025 87.3656 68.7571 87.6499C68.6519 86.7127 68.0946 85.7282 67.0588 85.7966C67.001 85.8019 66.9694 85.8651 67.0115 85.9125C67.6477 86.5548 68.2366 86.9233 68.2208 87.9657C68.2208 88.1026 68.3522 88.2606 68.4995 88.2448C70.5552 87.971 75.7657 87.2603 77.8268 87.2445C78.1002 87.2445 78.5418 87.0339 78.2684 86.9707Z" fill="#E87348"/>
<path d="M226.795 98.0005L245.56 97.9636C246.911 97.9636 248.005 96.8633 248 95.5102L247.968 78.4049C247.963 77.0518 246.869 75.9568 245.518 75.962L226.753 75.9989C225.402 76.0041 224.308 77.0992 224.313 78.4523L224.345 95.5576C224.35 96.9054 225.449 98.0005 226.795 98.0005Z" fill="#C7B79E"/>
<path d="M244.125 97.9636C246.27 97.9583 248.005 96.2157 248 94.0677L247.974 79.8422C247.969 77.6941 246.228 75.9568 244.083 75.962C241.938 75.9673 240.203 77.7099 240.208 79.858L240.234 94.0834C240.24 96.2315 241.98 97.9689 244.125 97.9636Z" fill="#E3D4BF"/>
<path d="M176.973 89.7031C175.921 88.4449 174.47 87.4551 172.935 86.897C172.656 86.797 172.425 86.6969 172.225 86.6022C172.088 86.3442 171.899 85.9441 171.778 85.723C171.483 85.1807 171.026 84.7753 170.379 84.7384C169.78 84.7068 169.175 85.0385 168.886 85.565C168.87 85.5913 168.86 85.6177 168.849 85.644C168.628 85.6545 168.408 85.7124 168.192 85.8177C167.714 86.0599 167.367 86.539 167.256 87.0655C166.404 87.3708 165.731 88.1342 165.563 89.024C165.442 89.661 165.668 90.456 166.283 90.6508C165.884 91.4879 165.926 92.5409 166.499 93.299C166.725 93.5991 167.088 93.7992 167.461 93.7834C168.339 93.7412 168.586 92.7041 168.35 91.9617C168.313 91.8459 168.266 91.7248 168.281 91.6037C168.302 91.43 168.444 91.2931 168.602 91.2141C168.807 91.1088 169.133 91.0509 169.464 91.0457C169.533 91.0615 171 91.3773 171.178 91.451C171.752 91.6985 172.209 92.146 172.724 92.4935C172.708 92.5145 172.693 92.5409 172.672 92.5619C172.545 92.6883 172.372 92.7778 172.198 92.7462C172.078 92.7199 171.978 92.6409 171.878 92.5672C171.31 92.1565 170.4 92.0407 169.99 92.6093C169.601 93.1463 169.927 93.9308 170.432 94.3572C171.168 94.9837 172.272 95.1469 173.161 94.7573C173.997 94.3941 174.454 93.6781 174.649 92.8515C175.017 92.7199 175.364 92.4987 175.711 92.2671C175.863 92.1671 177.251 92.0986 177.241 92.1355C177.356 91.5774 177.456 91.0193 177.546 90.456C177.377 90.1875 177.167 89.9295 176.973 89.7031ZM169.133 87.0392C169.475 87.0076 169.78 87.2497 169.943 87.5551L169.869 87.6341C169.585 87.4024 169.28 87.2129 168.954 87.0865C169.012 87.0602 169.075 87.0444 169.133 87.0392ZM170.569 86.1178C170.732 86.1915 170.847 86.3389 170.91 86.5074L170.889 86.5285C170.695 86.4021 170.458 86.2442 170.258 86.1125C170.353 86.0599 170.474 86.0757 170.569 86.1178ZM167.866 89.3241C167.887 89.2714 167.908 89.2188 167.945 89.1767C168.055 89.0398 168.25 89.0029 168.423 89.024C168.613 89.045 168.786 89.124 168.933 89.2398C168.565 89.2082 168.203 89.2346 167.866 89.3241Z" fill="#CF795B"/>
<path d="M207.446 53.6814C204.25 53.3234 199.065 57.4247 198.414 65.5851C198.024 70.4708 198.676 71.0394 199.092 75.9199C199.381 79.2788 199.665 82.6378 199.954 85.9967C199.991 86.4284 200.022 86.897 199.802 87.2708C199.586 87.6288 199.186 87.8289 198.892 88.129C198.598 88.4291 198.45 88.9766 198.782 89.2346C192.598 88.3764 182.929 87.4919 176.688 87.5814C176.284 87.5867 175.847 87.6077 175.532 87.8552C175.148 88.1553 175.053 88.6923 174.99 89.1767C174.806 90.5718 174.759 91.151 174.706 91.7564C174.58 93.2042 175.516 94.5362 176.925 94.889C185.453 97.0265 196.589 98.8691 204.76 99.9326C206.668 100.18 209.481 100.601 211.048 99.1692C213.377 97.037 212.257 91.6722 212.399 88.8818C212.667 83.7118 212.741 78.5207 212.362 73.3507C212.1 69.7917 209.697 53.9341 207.446 53.6814Z" fill="#E0E0E0"/>
<path d="M200.785 88.0447C202.194 88.6765 203.304 89.74 203.934 91.1615C204.029 91.3773 203.719 91.5774 203.608 91.351C202.983 90.0769 201.91 89.0503 200.564 88.5712C200.175 88.4343 200.401 87.8763 200.785 88.0447Z" fill="#B0BEC5"/>
<path d="M200.675 89.2293C201.195 90.2401 201.442 91.3194 201.384 92.4566C201.374 92.6409 201.095 92.6462 201.095 92.4566C201.106 91.3826 200.848 90.3718 200.312 89.4399C200.18 89.203 200.554 88.9871 200.675 89.2293Z" fill="#B0BEC5"/>
<path d="M199.571 90.1243C200.07 90.5666 200.007 91.3879 199.718 91.9249C199.634 92.0828 199.402 91.9459 199.481 91.788C199.749 91.2405 199.586 90.7719 199.381 90.2401C199.329 90.1191 199.492 90.0559 199.571 90.1243Z" fill="#B0BEC5"/>
<path d="M182.009 93.0252C182.167 92.5777 182.272 92.1144 182.325 91.6459C182.383 91.1773 182.383 90.7035 182.341 90.2296C182.299 89.8137 182.157 89.4399 182.23 89.024C182.241 88.9608 182.33 88.945 182.367 88.9871C182.961 89.6136 182.888 91.0088 182.798 91.7985C182.714 92.5725 182.525 93.8518 181.841 94.3309C181.747 94.3993 181.599 94.3098 181.605 94.194C181.631 93.7676 181.868 93.4306 182.009 93.0252Z" fill="#B0BEC5"/>
<path d="M192.946 98.0373C196.579 98.2532 200.217 98.8744 203.829 99.3219C205.386 99.5167 207.058 99.8905 208.63 99.7168C210.833 99.4746 211.79 97.8425 212.063 95.8314C212.515 92.4777 212.247 88.9292 212.273 85.5492C212.305 81.8007 212.263 78.0311 212.62 74.2931C212.626 74.2089 212.747 74.2089 212.752 74.2931C213.067 78.6208 212.878 82.9905 212.82 87.3235C212.794 89.4978 212.783 91.6669 212.747 93.8413C212.726 95.1838 212.684 96.6106 212.132 97.8636C210.98 100.47 208.272 100.507 205.812 100.191C201.527 99.6378 197.142 99.2114 192.909 98.348C192.73 98.3164 192.767 98.0215 192.946 98.0373Z" fill="#B0BEC5"/>
<path d="M198.14 64.9533C198.145 64.8691 198.277 64.8428 198.293 64.9323C198.976 68.4913 199.018 72.203 199.286 75.8094C199.565 79.6105 200.001 83.4433 200.096 87.255C200.106 87.6078 199.602 87.5867 199.565 87.255C199.123 83.5644 199.008 79.8106 198.739 76.1042C198.477 72.4188 197.972 68.6492 198.14 64.9533Z" fill="#B0BEC5"/>
<path d="M189.46 88.2027C191.274 87.7499 196.61 88.5449 198.451 88.8081C198.545 87.9236 199.066 86.9918 200.049 87.055C200.101 87.0602 200.133 87.1234 200.091 87.1602C199.492 87.771 198.934 88.1237 198.955 89.1082C198.955 89.2346 198.834 89.3873 198.692 89.3715C196.747 89.124 191.821 88.4659 189.875 88.4607C189.617 88.4607 189.197 88.2659 189.46 88.2027Z" fill="#B0BEC5"/>
<path d="M203.95 54.9662C198.85 58.0198 200.017 65.6958 200.207 70.7237C200.385 75.4252 201.695 79.9582 202.073 84.6386C202.42 88.8609 202.441 93.057 202.562 97.2951C202.788 105.25 203.235 113.121 203.03 121.034C202.899 126.078 201.889 131.543 202.431 136.555C202.841 140.33 207.352 140.035 210.701 140.103C213.582 140.166 216.443 140.145 219.287 140.298C220.449 140.361 223.031 140.682 224.03 140.093C227.826 137.839 225.407 125.525 225.076 122.24C224.224 113.7 223.052 105.182 222.247 96.6318C221.432 87.9659 220.27 79.2211 218.646 70.6553C217.946 66.9752 217.61 59.7624 214.639 57.1511C212.473 55.2294 207.336 54.2765 203.95 54.9662Z" fill="#E0E0E0"/>
<path d="M205.307 54.966C200.207 58.0196 201.374 65.6957 201.563 70.7235C201.742 75.425 203.051 79.958 203.43 84.6384C203.777 88.8608 203.798 93.0568 203.919 97.295C204.145 105.25 204.592 113.121 204.386 121.034C204.255 126.078 203.246 131.542 203.787 136.555C204.197 140.329 208.708 140.035 212.058 140.103C214.939 140.166 217.799 140.145 220.644 140.298C221.805 140.361 224.387 140.682 225.386 140.092C229.182 137.839 226.764 125.525 226.432 122.24C225.581 113.7 224.408 105.182 223.604 96.6316C222.789 87.9657 221.627 79.2209 220.002 70.6551C219.303 66.975 218.966 59.7622 215.996 57.1509C213.829 55.2292 208.693 54.271 205.307 54.966Z" fill="#C0C0C0"/>
<path d="M223.415 146.58L219.156 146.589L219.22 179.304L223.479 179.296L223.415 146.58Z" fill="#B0BEC5"/>
<path d="M223.394 135.303L219.135 135.311L219.157 146.594L223.416 146.585L223.394 135.303Z" fill="#90A4AE"/>
<path d="M206.868 138.002L235.67 137.944C237.931 137.939 239.761 136.102 239.756 133.838V132.717C239.75 130.453 237.915 128.621 235.655 128.626L206.852 128.684C204.592 128.689 202.762 130.526 202.767 132.79V133.912C202.772 136.175 204.607 138.008 206.868 138.002Z" fill="#C7B79E"/>
<path d="M217.957 137.981L235.67 137.944C237.931 137.939 239.761 136.102 239.756 133.838V132.717C239.751 130.453 237.916 128.621 235.655 128.626L217.941 128.663C215.68 128.668 213.851 130.505 213.856 132.769V133.891C213.861 136.154 215.696 137.987 217.957 137.981Z" fill="#E3D4BF"/>
<path d="M232.858 116.538C230.14 124.372 225.523 131.032 219.508 136.681C219.335 136.844 219.592 137.086 219.766 136.939C225.986 131.632 230.544 124.346 233.037 116.59C233.073 116.469 232.895 116.422 232.858 116.538Z" fill="#B0BEC5"/>
<path d="M233.478 134.127C231.296 137.939 228.851 141.235 225.928 144.504C225.66 144.804 226.081 145.231 226.37 144.947C229.382 141.983 231.974 138.102 233.646 134.228C233.694 134.112 233.541 134.012 233.478 134.127Z" fill="#B0BEC5"/>
<path d="M229.251 175.077L213.436 175.109C211.001 175.114 209.035 177.093 209.04 179.526L233.662 179.478C233.657 177.046 231.68 175.072 229.251 175.077Z" fill="#90A4AE"/>
<path d="M223.246 13.1056C222.878 12.5844 222.436 12.1159 222.116 11.563C221.806 11.026 221.622 10.4259 221.311 9.88358C219.298 6.36669 214.408 4.68722 210.717 3.78694C208.666 3.29205 206.411 3.40261 204.418 2.74978C203.845 2.56551 203.34 2.01271 203.382 1.43884C198.456 2.58657 192.288 6.01922 193.492 11.9895C193.592 12.4949 193.766 12.9635 193.987 13.4005C194.181 13.5953 194.386 13.7743 194.602 13.948C195.648 14.7693 196.952 15.359 198.188 15.8749C202.746 17.786 207.441 19.7867 210.901 23.3246C212.105 24.5566 213.162 26.0044 213.561 27.6786C213.982 29.4423 213.798 31.6219 215.265 32.6854C216.048 33.254 217.121 33.3014 218.036 32.9802C218.945 32.6591 219.713 32.022 220.37 31.3113C223.104 28.3525 224.24 24.0459 224.597 20.1236C224.818 17.7808 224.65 15.0905 223.246 13.1056Z" fill="#3E2723"/>
<path d="M203.388 1.43885C203.393 1.37567 203.398 1.31249 203.414 1.25458C199.097 1.54414 190.89 6.17716 192.809 11.5841C193.061 12.2896 193.477 12.8898 193.992 13.4057C193.771 12.9687 193.598 12.5002 193.498 11.9948C192.294 6.01922 198.461 2.58657 203.388 1.43885Z" fill="#5D4037"/>
<path d="M171.452 66.1221C171.636 66.8223 172.114 67.2909 172.503 67.8911C172.666 68.1438 172.819 68.4018 172.961 68.665C172.84 68.5545 172.714 68.4386 172.593 68.3333C171.41 67.2856 169.748 65.8431 168.134 65.9747C167.393 66.0326 167.261 66.9961 167.671 67.491C168.171 68.0964 168.844 68.3123 169.491 68.7019C170.19 69.1231 170.837 69.6232 171.452 70.1813C171.562 70.2813 171.667 70.3866 171.778 70.4972C171.594 70.4024 171.415 70.3129 171.236 70.2234C169.916 69.5758 168.066 68.6913 166.594 69.1231C165.915 69.3231 165.994 70.1602 166.483 70.4972C167.077 70.9078 167.745 70.9552 168.434 71.1553C169.175 71.3711 169.88 71.666 170.568 72.0134C171.226 72.3451 171.825 72.7768 172.451 73.1401C172.624 73.3349 172.808 73.556 173.003 73.7824C172.798 73.7561 172.566 73.6771 172.235 73.5508C171.305 73.1927 169.885 72.8295 169.222 73.8509C169.012 74.1773 168.918 74.5616 168.854 74.9459C168.686 75.9989 170.416 75.3303 170.952 75.3987C172.056 75.5461 173.013 76.2463 174.112 76.5043C174.88 76.6886 175.832 76.6412 176.646 76.3306C177.346 76.6307 178.077 76.8623 178.813 77.0045C179.16 77.0729 179.543 77.1414 179.912 77.1677C180.443 76.757 180.958 76.3358 181.468 75.8989C181.389 75.4513 180.858 75.0986 180.753 74.6774C180.6 74.0614 180.564 74.1931 180.569 73.6034C180.579 72.3556 180.138 70.097 178.576 69.8338C178.334 69.7917 177.614 69.5864 176.993 69.2284C176.894 67.9648 176.715 66.3011 175.789 65.4272C175.343 65.0007 174.743 65.4324 174.706 65.9484C174.659 66.5802 174.922 67.1014 175.069 67.7068C175.174 68.1333 175.248 68.5597 175.3 68.9914C175.285 69.0072 175.264 69.023 175.248 69.0388C175.243 69.0283 175.237 69.0178 175.232 69.002C174.649 67.6489 173.818 65.7747 172.419 65.1429C171.783 64.8586 171.299 65.5483 171.452 66.1221Z" fill="#CF795B"/>
<path d="M176.284 71.5291C175.963 71.6081 175.658 71.7291 175.374 71.9029C174.733 72.303 174.323 73.177 173.502 73.2243C173.371 73.2296 173.371 73.4507 173.502 73.456C174.281 73.4876 174.612 73.0453 175.159 72.5768C176.137 71.7344 177.367 71.666 178.55 72.0871C178.645 72.1187 178.734 71.9871 178.645 71.9292C177.94 71.4606 177.099 71.3343 176.284 71.5291Z" fill="#FF8A65"/>
<path d="M176.284 70.1391C176.273 70.6446 176.389 71.1447 176.421 71.6449C176.436 71.9292 176.915 71.8449 176.82 71.5343C176.673 71.071 176.605 70.5709 176.421 70.1181C176.394 70.0602 176.289 70.0654 176.284 70.1391Z" fill="#FF8A65"/>
<path d="M175.437 69.36C174.391 69.8338 173.455 70.9026 172.724 71.7712C172.666 71.8397 172.772 71.9555 172.84 71.8871C173.261 71.4659 173.702 71.0605 174.154 70.6814C174.607 70.3024 175.148 69.9917 175.558 69.5706C175.653 69.4811 175.574 69.2968 175.437 69.36Z" fill="#FF8A65"/>
<path d="M186.479 163.905L186.489 170.434L181.573 170.444L180.511 163.916L186.479 163.905Z" fill="#CF795B"/>
<path d="M169.202 116.701C173.319 113.542 185.522 112.968 190.38 112.41C191.5 112.284 206.269 113.447 206.516 112.61C207.011 110.92 206.916 109.315 206.974 107.593C209.629 108.83 217.237 106.94 222.016 106.693C222.831 106.651 223.473 106.345 223.941 105.892C223.962 105.892 223.978 105.892 223.999 105.892C225.471 110.725 224.782 119.318 221.832 123.445C218.983 127.431 213.935 128.568 209.308 128.699C204.392 128.842 199.482 128.473 194.581 128.105C192.205 127.926 183.098 127.641 183.098 127.641C191.158 140.108 186.936 142.477 186.957 149.106C186.968 153.144 186.973 161.915 187.068 164.226C184.329 164.848 182.567 165.027 179.718 164.458C179.712 164.453 166.731 118.591 169.202 116.701Z" fill="#383838"/>
<path d="M186.489 170.434C186.489 170.434 188.85 172.16 188.86 177.272L168.045 177.315C168.045 177.315 168.276 174.482 171.415 174.045C174.554 173.608 181.252 168.47 181.252 168.47L181.841 169.149C182.488 169.897 183.424 170.339 184.412 170.37L186.489 170.434Z" fill="#D4D4D4"/>
<path d="M196.6 165.98L196.616 172.508L191.7 172.518L190.632 165.995L196.6 165.98Z" fill="#CF795B"/>
<path d="M179.654 120.134C183.771 116.975 195.974 116.401 200.832 115.843C201.952 115.716 208.95 115.927 209.197 115.09C209.692 113.4 209.597 111.794 209.655 110.073C212.31 111.31 215.296 111.821 218.225 111.821C223.031 111.815 227.684 110.373 232.468 110.125C233.283 110.083 233.925 109.778 234.393 109.325C234.414 109.325 234.435 109.325 234.451 109.325C235.923 114.158 235.234 122.75 232.284 126.878C229.435 130.863 224.387 132 219.76 132.132C214.844 132.274 209.934 131.906 205.033 131.537C202.657 131.358 193.55 131.074 193.55 131.074C201.605 143.541 197.388 145.91 197.409 152.538C197.42 156.577 197.425 165.348 197.52 167.659C194.781 168.28 193.019 168.459 190.17 167.891C190.164 167.88 177.188 122.024 179.654 120.134Z" fill="#4D4D4D"/>
<path d="M196.616 172.508C196.616 172.508 198.976 174.235 198.987 179.347L178.171 179.389C178.171 179.389 178.403 176.556 181.542 176.12C184.681 175.683 191.379 170.544 191.379 170.544L191.968 171.223C192.615 171.971 193.55 172.413 194.539 172.445L196.616 172.508Z" fill="#F5F5F5"/>
<path d="M217.657 50.6331C219.319 50.9858 220.549 53.1865 221.553 54.3816C223.888 57.172 225.959 59.8623 227.805 62.9843C230.618 67.7384 232.495 72.6399 233.841 78.0206C235.938 86.3811 236.175 95.7155 236.191 104.339C236.196 107.546 236.128 110.162 232.952 111.636C227.983 113.942 220.854 114.374 215.559 113.547C212.268 113.031 210.365 111.9 207.715 110.062C204.413 107.767 205.401 103.128 205.396 99.2745C205.385 94.4994 206.537 84.5647 204.881 80.0738C202.325 73.1454 202.567 71.8502 202.11 65.4482C201.779 60.8152 203.419 56.3243 206.558 54.2763C208.488 53.0233 214.45 50.1803 217.657 50.6331Z" fill="#4DB6AC"/>
<path d="M207.036 57.5353C207.068 57.3405 207.394 57.3878 207.378 57.5826C207.063 62.3367 207.241 66.975 207.983 71.687C208.698 76.2516 209.744 80.7477 210.622 85.2807C211.442 89.5242 212.136 93.8202 212.22 98.1479C212.31 102.734 210.732 107.983 212.867 112.273C212.999 112.542 212.599 112.773 212.468 112.505C210.548 108.525 211.752 104.044 211.789 99.8221C211.831 94.8732 211.058 89.9664 210.112 85.128C208.351 76.1884 205.559 66.7118 207.036 57.5353Z" fill="#00897B"/>
<path d="M205.312 63.853C205.48 63.7477 205.67 63.7109 205.869 63.7951C206.08 63.8846 206.248 64.1057 206.237 64.3426C206.227 64.5532 206.127 64.7533 205.943 64.8586C205.722 64.9902 205.491 64.9481 205.291 64.8217C204.865 64.6638 204.87 63.9952 205.312 63.853Z" fill="white"/>
<path d="M206.921 77.0044C206.974 77.0044 207.026 76.9992 207.079 76.9992C207.368 76.9834 207.652 77.2624 207.636 77.5572C207.626 77.8468 207.394 78.1311 207.079 78.1153C207.026 78.1153 206.974 78.11 206.921 78.11C206.632 78.0995 206.358 77.8679 206.369 77.5625C206.385 77.2466 206.611 77.0202 206.921 77.0044Z" fill="white"/>
<path d="M209.172 103.086C209.471 103.086 209.76 103.349 209.75 103.66C209.734 103.971 209.498 104.239 209.177 104.239C208.877 104.239 208.588 103.976 208.598 103.66C208.609 103.349 208.846 103.086 209.172 103.086Z" fill="white"/>
<path d="M214.287 52.1125C214.471 50.5172 213.44 49.18 213.198 47.7427C211.059 47.6269 207.457 49.717 205.496 50.7699C202.751 52.2388 203.503 54.2342 203.519 57.2667C205.974 57.5721 212.625 54.629 214.287 52.1125Z" fill="#26A69A"/>
<path d="M205.086 43.2729C205.175 42.9465 205.354 42.6569 205.538 42.3726C207.126 39.8876 214.061 30.0688 217.631 32.5064C217.673 32.538 217.715 32.5695 217.757 32.6011C216.353 38.682 216.085 44.8892 216.143 51.1174C212.63 52.5652 209.381 54.6448 206.61 57.2509L205.07 44.6733C205.017 44.21 204.959 43.7256 205.086 43.2729Z" fill="#FFC0AC"/>
<path d="M205.974 52.0337L205.075 44.6787C205.017 44.2102 204.959 43.7311 205.086 43.2783C205.175 42.9519 205.354 42.6623 205.538 42.378C207.126 39.893 214.061 30.0742 217.631 32.5118C217.673 32.5434 217.715 32.575 217.757 32.6066C217.084 35.5127 216.674 38.4558 216.437 41.4093C213.251 44.9788 209.854 48.8906 205.974 52.0337Z" fill="#CF795B"/>
<path d="M216.432 41.4091C216.169 44.6312 216.111 47.8743 216.143 51.1227C212.63 52.5705 210.496 57.4352 206.61 57.2562L205.969 52.0335C209.854 48.8904 213.251 44.9787 216.432 41.4091Z" fill="#CF795B"/>
<path d="M219.518 32.6486C219.545 32.6538 219.571 32.6538 219.597 32.6538C219.534 32.6591 219.466 32.6591 219.397 32.6486C219.224 32.6275 218.625 32.28 218.425 31.9167C218.462 31.8115 218.493 31.7114 218.53 31.6009C218.393 32.0326 219.298 32.6222 219.518 32.6486Z" fill="#FFCCBC"/>
<path d="M218.551 29.2422C218.325 29.3949 218.104 29.4844 217.899 29.4528C218.057 29.4317 218.225 29.3528 218.393 29.2422C218.656 29.0685 218.425 27.9786 218.814 27.7207C219.329 27.3679 219.955 27.1942 220.549 27.1995C219.997 27.2047 219.424 27.3837 218.95 27.7207C218.582 27.9786 218.803 29.0685 218.551 29.2422Z" fill="#FFCCBC"/>
<path d="M194.465 25.0042C194.839 22.6456 195.359 20.3133 195.948 18.0073C196.379 16.312 196.7 14.5536 197.347 12.9162C198.335 10.4155 199.991 8.96238 202.452 9.12559C200.464 9.27301 199.097 10.6734 198.24 12.9162C197.62 14.5483 197.31 16.312 196.894 18.0073C196.327 20.3186 195.827 22.6509 195.464 25.0042C194.765 29.5899 194.602 34.3124 195.554 38.877C195.775 39.951 196.568 43.0414 197.252 43.8838C198.33 45.2158 200.191 45.6106 201.905 45.6528C200.212 46.2951 197.515 46.811 196.232 45.2842C195.522 44.4419 194.786 39.951 194.549 38.877C193.571 34.3124 193.74 29.5899 194.465 25.0042Z" fill="#CF795B"/>
<path d="M197.257 43.8783C196.573 43.036 195.779 39.9508 195.559 38.8715C194.607 34.3069 194.77 29.5844 195.469 24.9988C195.827 22.6402 196.332 20.3078 196.899 18.0019C197.315 16.3066 197.625 14.5482 198.245 12.9108C199.102 10.668 200.469 9.26757 202.457 9.12016C203.035 9.07804 203.666 9.14122 204.355 9.32022C206.484 9.87829 208.687 10.3679 210.606 11.5156C212.115 12.4265 214.203 13.8901 214.539 15.8222C214.707 16.7857 214.434 17.7702 214.45 18.7442C214.466 19.7235 217.242 22.0821 217.257 22.6875C217.284 24.2038 217.315 25.7201 217.347 27.2363C217.357 27.7417 217.247 28.7052 217.499 29.1317C217.615 29.3212 217.752 29.4159 217.909 29.4423C218.109 29.4739 218.335 29.3896 218.561 29.2317C218.814 29.0579 218.593 27.9681 218.966 27.7102C219.439 27.3732 220.013 27.1995 220.565 27.1889C221.532 27.1731 222.447 27.6838 222.694 28.7894C222.715 28.8631 222.726 28.9369 222.736 29.0158C222.762 29.2054 222.762 29.4002 222.741 29.5897C222.668 30.2267 222.347 30.8374 221.879 31.2692C221.169 31.922 220.517 32.6801 219.623 32.638C219.618 32.6433 219.618 32.6433 219.613 32.638C219.587 32.638 219.56 32.638 219.534 32.6327C219.313 32.6117 218.409 32.022 218.546 31.585C218.509 31.6903 218.477 31.7956 218.44 31.9009C218.383 31.7956 218.356 31.6851 218.388 31.585C217.173 35.2546 215.743 38.5767 212.441 40.5773C209.145 42.5779 201.926 45.6315 201.926 45.6315H201.836C200.107 45.5999 198.335 45.2103 197.257 43.8783Z" fill="#CF795B"/>
<path d="M205.302 22.2979C205.791 22.0926 206.406 22.3506 206.542 22.8929C206.679 23.4457 206.379 24.0406 205.785 24.1196C205.517 24.1564 205.239 24.0827 205.044 23.8826C204.997 23.8353 204.939 23.751 204.902 23.6931C204.86 23.6194 204.828 23.5457 204.807 23.4667C204.786 23.3983 204.807 23.4457 204.87 23.6036C204.613 23.114 204.781 22.5191 205.302 22.2979Z" fill="#37474F"/>
<path d="M196.031 20.7396C196.52 20.5342 197.136 20.7922 197.272 21.3345C197.409 21.8873 197.109 22.4822 196.515 22.5612C196.247 22.598 195.968 22.5243 195.774 22.3243C195.727 22.2769 195.669 22.1926 195.632 22.1347C195.59 22.061 195.558 21.9873 195.537 21.9083C195.516 21.8399 195.537 21.8873 195.6 22.0452C195.337 21.5609 195.511 20.9607 196.031 20.7396Z" fill="#37474F"/>
<path d="M204.797 16.2276C206.248 15.5906 208.298 16.633 209.471 17.5596C209.912 17.9071 209.939 18.6968 209.45 18.3915C208.777 17.9755 207.657 17.6439 206.905 17.4596C206.211 17.2911 205.48 17.3806 204.802 17.1595C204.35 17.0174 204.402 16.3961 204.797 16.2276Z" fill="#37474F"/>
<path d="M196.547 15.8433C197.167 15.101 198.455 15.0062 199.386 15.3379C200.133 15.6011 199.875 16.5172 199.05 16.3908C198.319 16.2803 197.625 16.4119 196.894 16.3645C196.621 16.3435 196.352 16.075 196.547 15.8433Z" fill="#37474F"/>
<path d="M191.71 30.1478C191.594 30.4268 191.489 30.7163 191.515 31.0059C191.563 31.5166 192.031 31.943 192.593 32.1905C193.156 32.4327 193.802 32.5222 194.439 32.6064C195.453 32.7433 197.294 33.0855 198.098 32.5432C198.755 32.101 198.782 31.4218 198.582 30.848C197.872 28.8105 198.256 26.2202 197.483 24.2249C197.399 24.009 197.304 23.7879 197.099 23.6352C195.874 22.7507 192.083 29.2369 191.71 30.1478Z" fill="#CF795B"/>
<path opacity="0.65" d="M192.199 30.053C192.104 30.3268 192.02 30.6163 192.057 30.9006C192.115 31.4113 192.541 31.8483 193.046 32.101C193.55 32.3537 194.123 32.459 194.686 32.5591C195.585 32.717 197.22 33.1013 197.909 32.5801C198.477 32.1537 198.477 31.485 198.282 30.9059C197.594 28.8684 197.851 26.2992 197.099 24.2986C197.021 24.0827 196.926 23.8616 196.742 23.7037C195.643 22.7929 192.504 29.158 192.199 30.053Z" fill="url(#paint1_radial_1003_2102)"/>
<path d="M191.447 30.3478C191.768 29.3107 192.578 28.2893 193.182 27.368C193.86 26.3308 194.565 25.2515 195.438 24.3302C195.511 24.2512 195.648 24.3618 195.596 24.4407C194.523 26.0149 193.324 27.4891 192.409 29.1475C192.167 29.5897 191.831 30.0372 191.747 30.5268C191.636 31.1744 192.094 31.6956 192.725 32.001C193.582 32.4222 194.723 32.438 195.659 32.6854C195.738 32.7065 195.701 32.8012 195.622 32.7907C194.507 32.5959 193.314 32.7223 192.32 32.1326C191.626 31.7167 191.221 31.0691 191.447 30.3478Z" fill="#FF8A65"/>
<path d="M195.711 31.922C196.3 31.7746 197.004 31.8588 197.588 32.0115C197.677 32.0378 197.683 32.1431 197.609 32.18C197.499 32.2379 197.393 32.2905 197.283 32.3379C197.215 32.3642 197.141 32.2905 197.204 32.2431C197.236 32.2168 197.272 32.1958 197.309 32.1694C196.783 32.1168 196.273 32.122 195.737 32.0905C195.621 32.0747 195.611 31.943 195.711 31.922Z" fill="#FF8A65"/>
<path d="M197.998 32.4222C198.161 32.1853 198.387 32.0484 198.461 31.7588C198.54 31.464 198.445 31.2218 198.335 30.9428C198.314 30.8901 198.393 30.8691 198.429 30.9006C198.713 31.106 198.776 31.4956 198.719 31.7957C198.661 32.0747 198.456 32.4906 198.098 32.5433C198.019 32.5591 197.956 32.4854 197.998 32.4222Z" fill="#FF8A65"/>
<path d="M219.356 30.4689C219.508 30.4584 219.634 30.49 219.76 30.3794C219.918 30.2425 219.913 30.0267 219.918 29.8319C219.923 29.6055 219.655 29.1527 219.697 28.9263C219.76 28.5525 220.218 28.4156 220.623 28.3525C221.028 28.2893 221.411 28.5683 221.569 28.9316C221.779 29.4212 221.622 29.9056 221.354 30.3268C221.322 30.3794 221.233 30.3584 221.233 30.2952C221.254 29.8898 221.453 28.8105 220.775 28.8263C220.239 28.8368 220.444 29.7634 220.412 30.0951C220.381 30.4163 220.239 30.7111 219.955 30.8796C219.703 31.027 219.35 31.048 219.193 30.7637C219.114 30.6321 219.208 30.4794 219.356 30.4689Z" fill="#FF8A65"/>
<path d="M219.14 30.2425C219.156 30.232 219.171 30.2162 219.187 30.2057C219.214 30.1846 219.256 30.1899 219.282 30.2057C219.455 30.253 219.582 30.1583 219.66 29.9161C219.629 29.795 219.576 29.6845 219.497 29.5897C219.45 29.4897 219.403 29.4212 219.382 29.3054C219.34 29.0895 219.403 28.8631 219.518 28.6736C219.776 28.2682 220.27 28.0945 220.733 28.1261C221.201 28.1629 221.564 28.4051 221.737 28.8473C221.879 29.2159 221.895 29.8319 221.601 30.1267C221.548 30.1793 221.453 30.1267 221.469 30.053C221.553 29.7476 221.679 29.5212 221.543 29.1948C221.443 28.9526 221.259 28.7736 221.027 28.6578C220.765 28.5209 220.444 28.5051 220.176 28.642C219.771 28.8473 219.776 29.1159 219.955 29.4633C220.27 30.0635 219.918 30.7795 219.182 30.6374C218.987 30.6005 219.008 30.3425 219.14 30.2425Z" fill="#37474F"/>
<path d="M219.676 31.2639C219.807 31.2692 219.897 31.3745 220.028 31.3745C220.165 31.3745 220.259 31.3113 220.37 31.2376C220.428 31.2007 220.522 31.2481 220.512 31.3218C220.491 31.5429 220.27 31.6851 220.065 31.7114C219.865 31.7325 219.534 31.6588 219.539 31.4008C219.539 31.3271 219.597 31.2586 219.676 31.2639Z" fill="#FF8A65"/>
<path d="M205.37 25.1146C205.617 25.1041 205.838 25.141 206.079 25.0673C206.337 24.9883 206.505 24.8251 206.705 24.6619C206.805 24.5776 206.994 24.6513 206.947 24.7987C206.752 25.4042 205.832 25.8149 205.264 25.4937C205.086 25.3937 205.17 25.1199 205.37 25.1146Z" fill="#FF8A65"/>
<path d="M195.38 22.8718C195.564 22.956 195.732 23.1087 195.864 23.2667C195.979 23.4035 195.827 23.6563 195.659 23.5352C195.48 23.4141 195.301 23.2561 195.191 23.0666C195.107 22.935 195.254 22.8139 195.38 22.8718Z" fill="#FF8A65"/>
<path d="M204.649 36.8288C204.523 37.0025 204.392 37.1657 204.234 37.3237C203.761 37.7922 203.13 38.1766 202.425 38.4293C201.721 38.682 200.964 38.8347 200.196 38.9242C199.749 38.9716 199.287 38.9874 198.829 38.9874C199.66 37.3869 202.546 36.4445 204.649 36.8288Z" fill="#B71C1C"/>
<path d="M197.309 35.8285C197.283 35.7548 197.257 35.6811 197.241 35.6073C197.819 35.6126 198.393 35.5916 198.96 35.5547C200.065 35.481 201.158 35.3336 202.194 35.0809C203.224 34.8229 204.202 34.4333 204.902 33.8436L205.275 33.533L205.322 33.9595C205.385 34.5439 205.37 35.1388 205.201 35.7179C205.201 35.7284 205.196 35.7337 205.196 35.7442H205.191C205.08 36.118 204.896 36.4866 204.649 36.8235C202.546 36.4392 199.66 37.3816 198.824 38.9821C198.503 38.9821 198.182 38.9716 197.872 38.961C197.656 38.9558 197.441 38.9558 197.236 38.9716C197.257 38.8926 197.273 38.8083 197.288 38.7188C197.404 38.1134 197.493 37.2974 197.525 36.8235C197.536 36.6445 197.536 36.5129 197.53 36.4655C197.509 36.2865 197.394 36.0549 197.309 35.8285Z" fill="#821C1C"/>
<path d="M196.216 35.5863C196.222 35.6495 196.222 35.7074 196.222 35.7706C196.232 36.0022 196.237 36.2391 196.243 36.4708C196.248 36.5445 196.253 36.6287 196.321 36.6866C196.39 36.7393 196.495 36.7551 196.595 36.7656C196.905 36.7972 197.221 36.813 197.531 36.8235C198.398 36.8551 199.266 36.8235 200.123 36.7445C201.138 36.655 202.131 36.4971 203.115 36.3128C203.572 36.2286 204.103 36.1444 204.581 36.0022C204.802 35.9338 205.007 35.8548 205.191 35.7548H205.197C205.197 35.7442 205.202 35.739 205.202 35.7284C205.365 35.144 205.386 34.5544 205.323 33.97L205.275 33.5435L204.902 33.8542C204.203 34.4438 203.22 34.8334 202.194 35.0914C201.159 35.3441 200.065 35.4915 198.961 35.5652C198.393 35.6021 197.82 35.6179 197.242 35.6179C196.9 35.6126 196.558 35.6021 196.216 35.5863Z" fill="#FAFAFA"/>
<path d="M195.186 35.5389C195.186 35.5495 195.186 35.5284 195.186 35.56C195.186 35.581 195.201 35.6074 195.217 35.6232C195.228 35.6284 195.243 35.6337 195.254 35.639C195.312 35.66 195.343 35.6653 195.38 35.6705C195.454 35.6863 195.527 35.6969 195.596 35.7074C195.806 35.7285 196.016 35.7548 196.227 35.7706C196.589 35.8022 196.952 35.818 197.315 35.8285C197.878 35.8443 198.44 35.839 199.003 35.818C200.133 35.7706 201.264 35.66 202.352 35.3968C203.256 35.1809 204.145 34.8598 204.876 34.3754C204.886 34.9335 204.797 35.481 204.586 35.997C204.423 36.3918 204.187 36.7656 203.85 37.0973C203.009 37.9818 201.579 38.4346 200.117 38.6083C199.381 38.7083 198.645 38.7189 197.867 38.7031C197.683 38.7031 197.494 38.7083 197.299 38.7136C197.099 38.7294 196.894 38.7557 196.695 38.7926C196.316 38.8715 195.916 39.04 195.727 39.3296C195.338 39.8824 195.675 40.6563 196.437 40.9195C197.173 41.1828 197.977 41.1512 198.724 41.0933C198.345 41.1038 197.962 41.0985 197.583 41.0617C197.205 41.0248 196.826 40.9564 196.505 40.8195C195.832 40.5563 195.632 39.8719 195.964 39.4296C196.127 39.2085 196.442 39.0821 196.784 39.019C196.931 38.9926 197.089 38.9768 197.241 38.9716C197.452 38.9558 197.662 38.961 197.878 38.961C198.624 38.9926 199.434 39.0084 200.196 38.9242C200.964 38.8347 201.721 38.682 202.426 38.4293C203.13 38.1713 203.761 37.7923 204.234 37.3237C204.702 36.8604 205.028 36.3181 205.196 35.7495H205.202C205.202 35.739 205.207 35.7337 205.207 35.7232C205.37 35.1388 205.391 34.5491 205.328 33.9648L205.28 33.5383L204.907 33.8489C204.208 34.4386 203.225 34.8282 202.199 35.0862C201.164 35.3389 200.07 35.4863 198.966 35.56C198.398 35.5968 197.825 35.6126 197.247 35.6126C196.905 35.6126 196.563 35.6021 196.221 35.5863C196.022 35.581 195.822 35.5652 195.622 35.5495C195.548 35.5442 195.485 35.5389 195.417 35.5284L195.401 35.5231L195.533 35.2388C195.627 35.0388 195.701 34.8334 195.759 34.6281C195.874 34.2122 195.901 33.7857 195.885 33.3646C195.864 33.7857 195.785 34.2017 195.648 34.6018C195.575 34.8019 195.485 34.9967 195.38 35.1862L195.217 35.4757L195.196 35.5179L195.186 35.5389Z" fill="#FF8A65"/>
<path d="M218.703 52.1019C218.887 50.5067 217.857 49.1694 217.615 47.7322C215.475 47.6163 211.873 49.7065 209.912 50.7594C207.168 52.2283 207.92 54.2237 207.935 57.2562C210.396 57.5615 217.042 54.6238 218.703 52.1019Z" fill="#4DB6AC"/>
<path d="M209.008 53.8183C209.035 53.5656 209.371 53.4287 209.513 53.6814C210.149 54.8028 210.749 55.9874 211.264 57.172C211.359 57.3878 211.069 57.5774 210.938 57.3615C210.396 56.4981 209.886 55.5925 209.413 54.6817C209.271 55.8505 209.329 57.0193 209.313 58.1986C209.308 58.425 208.94 58.4987 208.898 58.2565C208.656 56.7824 208.856 55.2924 209.008 53.8183Z" fill="#00897B"/>
<path d="M211.132 56.9034C211.842 56.1558 213.041 55.8031 213.914 55.2503C214.923 54.608 215.848 53.8393 216.8 53.1128C217 52.9601 217.2 53.2707 217.052 53.4392C216.243 54.3763 215.265 55.1134 214.213 55.761C213.356 56.2927 212.231 57.0772 211.19 57.0403C211.122 57.0351 211.085 56.9508 211.132 56.9034Z" fill="#00897B"/>
<path d="M204.718 53.6866C204.991 54.2658 205.191 54.8712 205.401 55.4714C205.633 56.1295 205.948 56.8087 206.053 57.4984C206.095 57.7932 205.706 58.0248 205.538 57.7195C205.233 57.1614 205.081 56.5138 204.891 55.9084C204.676 55.2345 204.434 54.5606 204.292 53.8656C204.245 53.6287 204.597 53.4339 204.718 53.6866Z" fill="#00897B"/>
<path d="M221.296 52.0441C218.609 51.6071 213.719 55.482 212.268 57.8564C209.702 62.0524 211.748 71.7081 212.736 78.705C214.098 88.3764 215.707 97.9004 216.201 107.635C216.632 116.064 217.657 125.067 216.853 133.554C216.49 137.392 215.607 141.145 215.433 144.92C215.26 148.711 217.331 148.19 220.675 148.474C225.981 148.922 234.482 140.419 238.031 135.275C239.745 132.796 241.428 129.379 241.296 126.699C241.055 121.955 238.741 126.736 238.478 122.003C237.91 111.81 237.826 105.655 236.896 95.4839C235.997 85.6756 234.961 75.1039 231.138 65.9589C229.324 61.6207 227.179 56.219 223.525 53.1023C222.836 52.5021 222.079 52.1704 221.296 52.0441Z" fill="#ECEFF1"/>
<path d="M225.118 60.81C224.703 58.6198 223.693 55.6189 221.679 54.3132C218.819 52.46 216.122 55.1924 214.828 57.5932C212.368 62.1577 210.454 66.9908 208.54 71.8134C207.226 75.1302 205.911 78.447 204.602 81.7586C204.434 82.185 204.239 82.6431 203.855 82.8905C203.482 83.1327 203.009 83.1274 202.588 83.2748C202.168 83.4223 201.768 83.8698 201.963 84.2699C196.516 80.5319 187.777 75.1197 181.831 72.2556C181.447 72.0714 181.026 71.8818 180.606 71.9661C180.101 72.0661 179.759 72.5294 179.47 72.9611C178.639 74.1931 178.318 74.7196 177.982 75.2671C177.177 76.578 177.44 78.2785 178.608 79.2789C185.674 85.3386 195.343 92.3461 202.578 97.216C204.271 98.3532 206.731 100.08 208.887 99.4693C212.1 98.5533 213.567 92.9463 215.018 90.3718C217.71 85.6019 220.228 80.7214 222.31 75.6514C223.746 72.1609 225.065 68.5176 225.391 64.727C225.481 63.7003 225.402 62.2841 225.118 60.81Z" fill="#ECEFF1"/>
<path d="M204.428 84.0856C205.464 85.3492 206.016 86.8865 205.937 88.5238C205.927 88.7765 205.538 88.8134 205.538 88.5502C205.543 87.0497 205.017 85.5703 203.971 84.4805C203.666 84.1646 204.145 83.7434 204.428 84.0856Z" fill="#B0BEC5"/>
<path d="M203.766 85.1544C203.782 86.3548 203.503 87.4972 202.92 88.5449C202.825 88.7186 202.557 88.587 202.646 88.408C203.162 87.3972 203.398 86.3179 203.33 85.186C203.309 84.8964 203.761 84.8701 203.766 85.1544Z" fill="#B0BEC5"/>
<path d="M202.294 85.4755C202.557 86.1284 202.11 86.876 201.584 87.2498C201.432 87.3603 201.274 87.1182 201.421 87.0076C201.936 86.618 201.999 86.0915 202.057 85.4966C202.073 85.3597 202.252 85.3755 202.294 85.4755Z" fill="#B0BEC5"/>
<path d="M184.307 79.9212C184.664 79.5737 184.985 79.1841 185.259 78.7629C185.532 78.3417 185.758 77.8942 185.942 77.4256C186.1 77.015 186.142 76.5885 186.405 76.2305C186.447 76.1779 186.536 76.2042 186.552 76.2621C186.82 77.1361 186.089 78.4207 185.637 79.1262C185.196 79.8159 184.412 80.9373 183.534 81.0741C183.413 81.0952 183.318 80.9373 183.376 80.8372C183.592 80.4424 183.981 80.237 184.307 79.9212Z" fill="#B0BEC5"/>
<path d="M192.299 89.8348C195.638 91.7564 198.787 94.0677 201.994 96.1999C203.377 97.1213 204.781 98.2637 206.353 98.8429C208.551 99.6536 210.228 98.5638 211.432 96.7896C213.44 93.8308 214.86 90.3402 216.485 87.155C218.288 83.6223 220.023 80.0317 222.121 76.6623C222.168 76.5886 222.279 76.6412 222.242 76.7254C220.496 80.9741 218.262 85.0175 216.159 89.0977C215.107 91.1405 214.071 93.1937 213.015 95.2312C212.357 96.4948 211.648 97.8267 210.533 98.7481C208.214 100.67 205.633 99.422 203.451 97.9584C199.655 95.4102 195.706 92.9305 192.104 90.1138C191.957 89.998 192.131 89.74 192.299 89.8348Z" fill="#B0BEC5"/>
<path d="M212.815 60.9731C212.857 60.8942 212.999 60.931 212.973 61.0258C211.942 64.7164 210.233 68.2491 208.782 71.7923C207.252 75.525 205.859 79.3578 204.15 83.0116C203.992 83.3485 203.524 83.0958 203.645 82.7589C204.97 79.0577 206.626 75.4461 208.125 71.8134C209.613 68.2017 210.911 64.3953 212.815 60.9731Z" fill="#B0BEC5"/>
<path d="M193.629 78.8735C195.564 79.2999 200.238 82.5799 201.852 83.7013C202.362 82.9116 203.293 82.2745 204.192 82.7957C204.24 82.8221 204.24 82.901 204.182 82.9168C203.325 83.2117 202.636 83.2801 202.189 84.2225C202.131 84.3436 201.942 84.4331 201.816 84.3489C200.091 83.1906 195.738 80.2423 193.897 79.3157C193.661 79.1946 193.356 78.8156 193.629 78.8735Z" fill="#B0BEC5"/>
<path d="M230.912 107.482C227.61 107.477 224.066 107.488 220.801 108.004C220.533 108.046 220.628 108.425 220.865 108.446C224.13 108.756 227.642 108.535 230.912 108.325C231.454 108.293 231.459 107.482 230.912 107.482Z" fill="#B0BEC5"/>
<path d="M227.058 112.31C226.312 111.42 225.186 111.22 224.103 110.978C223.372 110.815 222.626 110.636 222.026 110.173C221.353 109.651 221.385 109.051 220.964 108.441C220.943 108.414 220.907 108.404 220.88 108.43C220.197 109.167 221.175 110.352 221.806 110.794C223.278 111.815 225.249 111.705 226.795 112.658C227.016 112.795 227.211 112.494 227.058 112.31Z" fill="#B0BEC5"/>
<path d="M231.201 107.551C230.965 107.498 230.681 107.772 230.854 108.009C231.264 108.562 231.538 109.22 231.022 109.825C230.518 110.415 229.571 110.546 228.883 110.81C228.031 111.131 227.247 111.61 227.021 112.547C226.974 112.747 227.263 112.826 227.332 112.631C227.936 110.815 230.402 111.299 231.48 109.952C232.006 109.278 232.353 107.804 231.201 107.551Z" fill="#B0BEC5"/>
<path d="M194.291 19.6708C194.013 19.8182 193.76 20.013 193.545 20.271C192.541 21.4819 192.157 23.4825 193.256 24.7461C194.723 26.4308 197.22 25.4779 198.529 24.109C199.754 22.8297 199.707 21.1502 198.224 20.1183C197.157 19.376 195.485 19.0443 194.291 19.6708ZM196.936 24.3091C195.564 25.0778 193.666 24.8724 193.471 23.0298C193.229 20.7712 195.159 19.5497 197.236 20.2921C198.156 20.6185 198.997 21.3134 198.697 22.4243C198.498 23.1824 197.583 23.9458 196.936 24.3091Z" fill="#212121"/>
<path d="M203.514 20.6027C202.825 20.9554 202.262 21.5451 201.952 22.4243C201.952 22.4296 201.952 22.4296 201.952 22.4348C201.2 23.8826 201.064 25.62 202.215 26.9415C204.045 29.0421 207.168 27.8523 208.803 26.1465C210.254 24.6302 210.323 22.6138 208.603 21.2924C207.205 20.2078 205.044 19.813 203.514 20.6027ZM206.816 26.3887C205.102 27.3469 202.73 27.0942 202.483 24.7882C202.383 23.8774 202.599 22.4612 203.351 21.8557C204.434 20.9817 205.922 20.9133 207.189 21.3661C208.335 21.7767 209.387 22.6454 209.019 24.0353C208.766 24.983 207.62 25.9412 206.816 26.3887Z" fill="#212121"/>
<path d="M202.415 22.5717C202.215 21.9347 201.695 21.5083 201.043 21.3714C200.564 21.2713 199.302 21.2503 199.134 21.8505C199.123 21.8821 199.134 21.9136 199.155 21.9347C199.465 22.2453 199.975 21.9821 200.359 21.961C200.953 21.9242 201.642 22.0926 201.852 22.7244C201.968 23.0824 202.531 22.9297 202.415 22.5717Z" fill="#212121"/>
<path d="M222.337 26.8046C221.353 25.2252 219.156 24.9672 217.531 24.6039C215.123 24.0617 212.021 23.1403 209.544 23.2614C209.424 23.2667 209.282 24.2617 209.418 24.2723C211.485 24.4355 213.798 24.6303 215.838 25.0883C217.983 25.5674 220.197 25.8517 222.032 27.1153C222.216 27.2416 222.452 26.9889 222.337 26.8046Z" fill="#212121"/>
<path d="M206.585 107.835L102.875 108.04C101.95 108.04 101.198 107.293 101.198 106.366C101.198 105.44 101.944 104.687 102.87 104.687L206.579 104.481C207.505 104.481 208.257 105.229 208.257 106.156C208.257 107.082 207.51 107.835 206.585 107.835Z" fill="#FFA165"/>
<path d="M118.033 106.182L118.18 182.006C118.18 183.043 118.932 183.885 119.857 183.885C120.783 183.885 121.529 183.037 121.529 182L121.382 106.177L118.033 106.182Z" fill="#FFA165"/>
<path d="M188.066 106.045L188.214 181.869C188.214 182.906 188.965 183.748 189.891 183.748C190.816 183.748 191.563 182.901 191.563 181.863L191.416 106.04L188.066 106.045Z" fill="#FFA165"/>
<path d="M188.426 101.057L174.956 101.083L174.962 103.889L188.432 103.863L188.426 101.057Z" fill="#CFD8DC"/>
<path d="M188.429 103.863L174.958 103.89L174.959 104.364L188.43 104.337L188.429 103.863Z" fill="#26A69A"/>
<path d="M168.586 101.096L159.138 101.117L159.143 103.923L171.646 103.897C171.51 102.323 170.195 101.096 168.586 101.096Z" fill="#CFD8DC"/>
<path d="M159.148 103.923V104.397L171.667 104.371V104.166C171.667 104.076 171.662 103.987 171.651 103.897L159.148 103.923Z" fill="#CFD8DC"/>
<path d="M153.933 103.934V104.408L166.451 104.381V104.176C166.451 104.087 166.446 103.997 166.436 103.908L153.933 103.934Z" fill="#80CBC4"/>
<path d="M163.371 101.107L153.922 101.128L153.928 103.934L166.431 103.908C166.294 102.333 164.979 101.107 163.371 101.107Z" fill="#ECEFF1"/>
<path d="M166.463 103.908C166.457 103.997 166.447 104.087 166.447 104.176V104.381L178.966 104.355V103.881L166.463 103.908Z" fill="#4DB6AC"/>
<path d="M178.96 101.075L169.512 101.096C167.908 101.101 166.594 102.333 166.457 103.908L178.96 103.881V101.075Z" fill="#ECEFF1"/>
<defs>
<radialGradient id="paint0_radial_1003_2102" cx="0" cy="0" r="1" gradientUnits="userSpaceOnUse" gradientTransform="translate(93.2029 31.1136) rotate(-0.111326) scale(5.11019 5.84067)">
<stop stop-color="#FF8A65"/>
<stop offset="1" stop-color="#FF8864" stop-opacity="0"/>
</radialGradient>
<radialGradient id="paint1_radial_1003_2102" cx="0" cy="0" r="1" gradientUnits="userSpaceOnUse" gradientTransform="translate(191.198 31.6578) rotate(168.818) scale(5.80642 5.88953)">
<stop stop-color="#FF8A65"/>
<stop offset="1" stop-color="#FF8864" stop-opacity="0"/>
</radialGradient>
</defs>
</svg>
