<svg width="32" height="32" viewBox="0 0 32 32" fill="none" xmlns="http://www.w3.org/2000/svg">
<circle cx="16" cy="16" r="16" fill="#01897B"/>
<path d="M15.5 7C10.8056 7 7 10.8056 7 15.5C7 20.1944 10.8056 24 15.5 24C20.1944 24 24 20.1944 24 15.5C24 10.8056 20.1944 7 15.5 7ZM20.709 20.709C19.4174 21.9968 17.6926 22.7576 15.8707 22.8431C14.0487 22.9286 12.2603 22.3328 10.8537 21.1717C9.44707 20.0105 8.52315 18.3673 8.26193 16.5622C8.0007 14.7571 8.42088 12.9194 9.4406 11.4072C10.4603 9.89494 12.0065 8.81652 13.7779 8.38204C15.5494 7.94756 17.4191 8.18815 19.0228 9.05693C20.6265 9.92571 21.8493 11.3604 22.453 13.0816C23.0567 14.8027 22.9979 16.6869 22.2882 18.3671C21.9183 19.2426 21.382 20.0379 20.709 20.709Z" fill="#F58F1F"/>
<path d="M15.4998 20.0333C16.4766 20.0333 17.4135 19.6452 18.1043 18.9545C18.795 18.2637 19.1831 17.3269 19.1831 16.35H11.8164C11.8164 17.3269 12.2045 18.2637 12.8952 18.9545C13.586 19.6452 14.5229 20.0333 15.4998 20.0333ZM13.7203 14.5186L14.4459 13.648L12.3831 11.929L10.3203 13.648L11.0459 14.5186L12.3831 13.4043L13.7203 14.5186ZM16.5536 13.648L17.2792 14.5186L18.6164 13.4043L19.9536 14.5186L20.6792 13.648L18.6164 11.929L16.5536 13.648Z" fill="#F58F1F"/>
</svg>
