<svg width="25" height="24" viewBox="0 0 25 24" fill="none" xmlns="http://www.w3.org/2000/svg">
<path d="M11.5 17H13.5V13H17.5V11H13.5V7H11.5V11H7.5V13H11.5V17ZM12.5 22C11.1167 22 9.81667 21.7373 8.6 21.212C7.38333 20.6873 6.325 19.975 5.425 19.075C4.525 18.175 3.81267 17.1167 3.288 15.9C2.76267 14.6833 2.5 13.3833 2.5 12C2.5 10.6167 2.76267 9.31667 3.288 8.1C3.81267 6.88333 4.525 5.825 5.425 4.925C6.325 4.025 7.38333 3.31233 8.6 2.787C9.81667 2.26233 11.1167 2 12.5 2C13.8833 2 15.1833 2.26233 16.4 2.787C17.6167 3.31233 18.675 4.025 19.575 4.925C20.475 5.825 21.1873 6.88333 21.712 8.1C22.2373 9.31667 22.5 10.6167 22.5 12C22.5 13.3833 22.2373 14.6833 21.712 15.9C21.1873 17.1167 20.475 18.175 19.575 19.075C18.675 19.975 17.6167 20.6873 16.4 21.212C15.1833 21.7373 13.8833 22 12.5 22Z" fill="white"/>
</svg>
