<svg width="312" height="262" viewBox="0 0 312 262" fill="none" xmlns="http://www.w3.org/2000/svg">
<path d="M126.659 196.668C130.236 225.574 169.096 230.087 228.392 199.122C287.689 168.156 340.768 112.303 276.887 101.75C213.006 91.1958 123.081 167.762 126.659 196.668Z" fill="#553791"/>
<path d="M177.507 210.685C198.439 190.432 178.658 156.681 118.241 127.96C57.8253 99.2391 -18.7239 90.4613 11.2921 147.83C41.308 205.2 156.574 230.938 177.507 210.685Z" fill="#553791"/>
<path d="M233.008 5.25703C229.693 -2.21797 216.908 2.25003 216.908 2.25003C216.908 2.25003 210.075 17.278 207.525 18.004C204.975 18.73 210.86 4.01303 210.86 4.01303C205.747 4.30203 193.86 12.457 193.86 12.457C193.86 12.457 197.128 28.257 194.477 28.333C191.826 28.409 192.298 14.195 192.298 14.195C187.648 16.409 183.975 22.795 183.975 22.795C179.716 32.934 192.955 37.88 192.955 37.88C193.48 42.0557 192.993 46.2964 191.534 50.244C191.073 51.3415 190.716 52.4799 190.468 53.644L191.797 53.444C191.85 53.0714 191.917 52.709 191.997 52.357C191.996 52.3551 191.996 52.353 191.997 52.351V52.335C192.056 52.116 192.142 51.803 192.25 51.422C192.533 50.565 192.717 49.935 192.825 49.485C193.657 46.802 194.908 43.285 195.972 42.419C195.822 42.2477 195.695 42.0574 195.594 41.853L195.972 42.419C198.999 46.944 210.499 46.002 216.636 43.725C222.773 41.448 219.736 40.086 215.875 37.712C212.014 35.338 204.983 37.204 202.695 36.392C200.407 35.58 203.319 33.967 207.595 33.64C211.871 33.313 214.634 37.213 221.559 36.811C228.484 36.409 231.705 22.769 231.705 22.769C227.218 24.958 218.367 23.661 217.791 22.086C217.215 20.511 229.753 18.744 231.628 17.956C233.503 17.168 236.323 12.731 233.008 5.25703Z" fill="#DFEBFD"/>
<path d="M270.102 134.62C281.996 127.52 271.869 106.92 271.869 106.92C271.869 106.92 245.196 98.499 243.453 94.359C241.71 90.219 267.664 97.106 267.664 97.106C266.133 88.566 249.988 70.242 249.988 70.242C249.988 70.242 224.082 78.968 223.412 74.526C222.742 70.084 246.745 67.97 246.745 67.97C242.07 60.603 230.574 55.731 230.574 55.731C212.649 50.64 207.037 73.919 207.037 73.919C200.122 75.6559 192.89 75.7032 185.952 74.057C184.013 73.5056 182.026 73.1373 180.018 72.957L180.634 75.15C181.272 75.164 181.897 75.202 182.504 75.267C182.506 75.2662 182.508 75.2657 182.51 75.2657C182.512 75.2657 182.513 75.2662 182.515 75.267H182.541C182.922 75.322 183.465 75.402 184.128 75.507H184.133C185.633 75.807 186.733 75.989 187.51 76.079H187.517C192.2 76.93 198.378 78.315 200.045 79.928C200.302 79.6401 200.596 79.3872 200.919 79.176L200.045 79.928C193.054 85.943 196.988 105.094 202.073 114.95C207.158 124.806 208.827 119.418 212.032 112.441C215.237 105.464 210.66 94.017 211.557 90.003C212.454 85.989 215.764 90.557 217.187 97.681C218.61 104.805 212.617 110.251 214.709 121.816C216.801 133.381 240.4 136.01 240.4 136.01C235.8 128.91 236.173 113.759 238.7 112.469C241.227 111.179 246.766 131.906 248.475 134.898C250.184 137.89 258.208 141.72 270.102 134.62Z" fill="#DFEBFD"/>
<path d="M93.761 51.222C100.422 41.613 117.185 51.317 117.185 51.317C117.185 51.317 122.752 74.259 126.139 75.963C129.526 77.667 125.209 55.419 125.209 55.419C132.309 57.197 146.821 71.838 146.821 71.838C146.821 71.838 137.993 93.155 141.695 93.972C145.397 94.789 148.549 74.698 148.549 74.698C154.486 79.055 157.932 89.015 157.932 89.015C161.195 104.4 141.271 107.796 141.271 107.796C139.414 113.52 138.961 119.607 139.951 125.543C140.304 127.207 140.5 128.901 140.537 130.602L138.727 129.961C138.752 129.422 138.756 128.895 138.735 128.38C138.736 128.377 138.736 128.374 138.735 128.371V128.349C138.71 128.025 138.674 127.563 138.624 126.999C138.456 125.718 138.367 124.785 138.335 124.123C138.335 124.121 138.335 124.119 138.335 124.117C137.886 120.126 137.072 114.843 135.81 113.347C136.067 113.147 136.296 112.914 136.493 112.654L135.81 113.347C130.345 118.89 114.443 114.483 106.434 109.638C98.425 104.793 103.057 103.696 109.116 101.395C115.175 99.094 124.552 103.603 127.983 103.077C131.414 102.551 127.757 99.503 121.839 97.898C115.921 96.293 110.993 101.029 101.374 98.606C91.755 96.183 90.8879 76.161 90.8879 76.161C96.6039 80.44 109.388 80.992 110.615 78.934C111.842 76.876 94.709 71.034 92.287 69.422C89.865 67.81 87.1 60.832 93.761 51.222Z" fill="#CDE0FB"/>
<path d="M215.055 65.5581C215.033 65.5051 215.007 65.4501 214.975 65.3911C214.87 64.9811 213.949 62.8071 213.848 62.5681C213.559 61.8911 213.085 62.2511 213.085 62.7571C213.085 62.9131 213.152 64.0291 213.113 64.1911C212.181 63.348 211.055 62.7491 209.835 62.4481C209.835 62.4481 208.297 61.9431 209.035 63.4921C209.529 64.5271 210.118 64.6571 210.835 66.1051C211.099 66.7621 211.543 67.3313 212.117 67.7474C212.69 68.1636 213.368 68.4099 214.075 68.4581L215.353 68.8901L216.645 66.9801L215.814 66.4671C215.473 66.2498 215.208 65.9322 215.055 65.5581Z" fill="#FFB27D"/>
<path d="M213.085 21.822H137.415V130.713H213.085V21.822Z" fill="white"/>
<path d="M191.311 31.6281H156.82V33.4191H191.311V31.6281Z" fill="#F99746"/>
<path d="M169.608 35.7841H152.362V37.5751H169.608V35.7841Z" fill="#F99746"/>
<path d="M196.999 35.7841H171.688V37.5751H196.999V35.7841Z" fill="#F99746"/>
<path d="M191.43 76.123H154.218V77.486H191.43V76.123Z" fill="#AEC3FF"/>
<path d="M200.191 72.485H173.841V73.848H200.191V72.485Z" fill="#AEC3FF"/>
<path d="M171.126 72.485H145.457V73.848H171.126V72.485Z" fill="#AEC3FF"/>
<path d="M197.61 68.847H174.942V70.21H197.61V68.847Z" fill="#AEC3FF"/>
<path d="M170.705 68.847H148.037V70.21H170.705V68.847Z" fill="#AEC3FF"/>
<path d="M178.897 89.566H167.955C167.717 89.5644 167.489 89.4691 167.32 89.3007C167.152 89.1322 167.057 88.9042 167.055 88.666C167.057 88.4278 167.152 88.1998 167.32 88.0313C167.489 87.8629 167.717 87.7676 167.955 87.766H178.897C179.135 87.7676 179.363 87.8629 179.532 88.0313C179.7 88.1998 179.795 88.4278 179.797 88.666C179.795 88.9042 179.7 89.1322 179.532 89.3007C179.363 89.4691 179.135 89.5644 178.897 89.566Z" fill="#A8C3F7"/>
<path d="M194.161 89.566H183.219C182.981 89.5644 182.753 89.4691 182.584 89.3007C182.416 89.1322 182.321 88.9042 182.319 88.666C182.321 88.4278 182.416 88.1998 182.584 88.0313C182.753 87.8629 182.981 87.7676 183.219 87.766H194.161C194.399 87.7676 194.627 87.8629 194.796 88.0313C194.964 88.1998 195.059 88.4278 195.061 88.666C195.059 88.9042 194.964 89.1322 194.796 89.3007C194.627 89.4691 194.399 89.5644 194.161 89.566Z" fill="#A8C3F7"/>
<path d="M180.8 113.544C178.85 113.544 176.944 112.966 175.323 111.883C173.702 110.799 172.438 109.26 171.692 107.458C170.946 105.657 170.751 103.675 171.131 101.763C171.512 99.8506 172.451 98.094 173.829 96.7154C175.208 95.3367 176.964 94.3978 178.877 94.0174C180.789 93.6371 182.771 93.8323 184.572 94.5784C186.374 95.3245 187.913 96.5881 188.997 98.2092C190.08 99.8303 190.658 101.736 190.658 103.686C190.655 106.3 189.615 108.805 187.767 110.653C185.919 112.502 183.413 113.541 180.8 113.544ZM180.8 94.326C178.948 94.326 177.139 94.875 175.599 95.9037C174.06 96.9323 172.86 98.3944 172.151 100.105C171.443 101.816 171.258 103.698 171.619 105.514C171.98 107.329 172.872 108.997 174.181 110.307C175.49 111.616 177.158 112.507 178.974 112.868C180.79 113.229 182.672 113.044 184.383 112.335C186.093 111.626 187.555 110.427 188.584 108.887C189.612 107.347 190.161 105.537 190.161 103.686C190.158 101.204 189.171 98.8251 187.416 97.0703C185.661 95.3156 183.282 94.3287 180.8 94.326Z" fill="#A8C3F7"/>
<path d="M180.797 111.63C179.226 111.63 177.69 111.164 176.384 110.291C175.078 109.419 174.06 108.178 173.459 106.727C172.857 105.275 172.7 103.678 173.007 102.137C173.313 100.597 174.07 99.1813 175.18 98.0705C176.291 96.9596 177.707 96.2031 179.247 95.8966C180.788 95.5902 182.385 95.7475 183.837 96.3486C185.288 96.9498 186.529 97.9679 187.401 99.2741C188.274 100.58 188.74 102.116 188.74 103.687C188.738 105.793 187.9 107.812 186.411 109.301C184.922 110.79 182.903 111.628 180.797 111.63ZM180.797 96.241C179.324 96.241 177.885 96.6777 176.66 97.4959C175.436 98.3141 174.481 99.477 173.918 100.838C173.354 102.198 173.207 103.695 173.494 105.14C173.781 106.584 174.491 107.911 175.532 108.952C176.573 109.993 177.9 110.703 179.344 110.99C180.789 111.277 182.286 111.13 183.646 110.566C185.007 110.003 186.17 109.048 186.988 107.824C187.806 106.599 188.243 105.16 188.243 103.687C188.241 101.713 187.456 99.8202 186.06 98.4242C184.664 97.0283 182.771 96.2431 180.797 96.241Z" fill="#A8C3F7"/>
<path d="M180.901 106.802C179.994 107.126 179.034 107.277 178.071 107.245C176.864 107.145 176.185 106.512 176.158 105.465C176.149 105.054 176.235 104.647 176.408 104.274C176.581 103.902 176.838 103.574 177.158 103.316C177.151 103.259 177.146 103.203 177.142 103.146C177.097 102.56 177.223 102.17 177.514 101.989C177.985 101.695 178.685 102.097 178.714 102.114L178.558 102.382C178.401 102.29 177.936 102.09 177.678 102.252C177.455 102.391 177.429 102.775 177.448 103.086C178.1 102.64 178.826 102.315 179.593 102.126C180.255 101.951 180.931 101.835 181.614 101.781C181.614 101.708 181.624 101.643 181.631 101.589C181.652 101.445 181.702 101.277 181.844 101.243C181.894 101.235 181.946 101.243 181.991 101.267C182.036 101.29 182.072 101.328 182.094 101.374C182.158 101.489 182.191 101.619 182.189 101.751C182.414 101.746 182.622 101.751 182.807 101.763L182.812 101.751C182.773 101.391 182.789 101.027 182.86 100.672C182.938 100.313 183.067 100.132 183.248 100.114C183.3 100.109 183.352 100.121 183.396 100.148C183.44 100.176 183.474 100.217 183.493 100.266C183.516 100.8 183.39 101.33 183.131 101.797C183.388 101.84 183.562 101.911 183.617 102.011C183.642 102.059 183.65 102.114 183.639 102.168C183.627 102.221 183.598 102.268 183.555 102.302C183.503 102.368 183.429 102.415 183.346 102.433C183.264 102.451 183.177 102.44 183.102 102.402C183.03 102.356 182.972 102.29 182.936 102.212C182.786 102.547 182.579 102.855 182.326 103.121C182.279 103.167 182.219 103.198 182.154 103.207C182.089 103.217 182.023 103.205 181.965 103.174C181.936 103.157 181.91 103.136 181.887 103.111C181.819 103.279 181.74 103.442 181.651 103.599C181.327 104.168 180.962 104.461 180.595 104.443C180.444 104.437 180.301 104.374 180.195 104.268C180.005 104.685 179.767 105.077 179.484 105.437C179.384 105.583 179.241 105.693 179.074 105.752C178.908 105.811 178.727 105.816 178.558 105.765C178.182 105.55 177.864 105.249 177.629 104.885C177.394 104.522 177.25 104.108 177.209 103.677C176.964 103.903 176.771 104.178 176.642 104.485C176.514 104.792 176.452 105.123 176.463 105.456C176.486 106.35 177.034 106.847 178.092 106.935C180.762 107.157 185.442 104.676 185.797 102.849C185.513 104.336 183.292 106.028 180.901 106.802ZM177.487 103.44C177.505 103.847 177.62 104.244 177.823 104.598C178.027 104.951 178.312 105.25 178.656 105.47C178.766 105.501 178.883 105.496 178.99 105.455C179.097 105.414 179.187 105.339 179.248 105.242C179.555 104.854 179.806 104.425 179.994 103.967C179.936 103.839 179.893 103.705 179.865 103.567C179.783 103.175 179.783 102.771 179.865 102.379C179.362 102.5 178.873 102.67 178.404 102.888C178.079 103.037 177.771 103.222 177.487 103.44ZM180.337 103.948C180.364 103.999 180.403 104.042 180.451 104.074C180.498 104.106 180.553 104.126 180.61 104.133C180.845 104.143 181.127 103.893 181.382 103.445C181.512 103.215 181.619 102.973 181.702 102.723C181.651 102.517 181.622 102.305 181.615 102.093C181.271 102.12 180.897 102.167 180.515 102.237C180.676 102.81 180.612 103.422 180.336 103.949L180.337 103.948ZM182.025 102.729C182.073 102.875 182.117 102.903 182.117 102.903C182.348 102.658 182.534 102.374 182.668 102.065C182.521 102.059 182.355 102.059 182.174 102.065C182.144 102.291 182.094 102.513 182.024 102.73L182.025 102.729ZM180.206 102.329C180.097 102.706 180.083 103.104 180.166 103.488C180.331 103.123 180.345 102.708 180.206 102.332V102.329ZM183.211 100.539C183.177 100.645 183.152 100.753 183.137 100.863C183.167 100.758 183.19 100.651 183.206 100.543L183.211 100.539Z" fill="#A8C3F7"/>
<path d="M193.599 59.5601H152.048V60.9231H193.599V59.5601Z" fill="#AEC3FF"/>
<path d="M203.381 55.922H173.959V57.285H203.381V55.922Z" fill="#AEC3FF"/>
<path d="M170.928 55.922H142.266V57.285H170.928V55.922Z" fill="#AEC3FF"/>
<path d="M200.499 52.2841H175.188V53.6471H200.499V52.2841Z" fill="#AEC3FF"/>
<path d="M170.458 52.2841H145.147V53.6471H170.458V52.2841Z" fill="#AEC3FF"/>
<path d="M245.963 62.155C245.963 62.155 252.325 86.525 232.983 82.474C227.761 81.38 213.849 67.517 213.849 67.517C213.849 67.517 215.188 65.405 216.836 65.629C216.836 65.629 230.277 70 232.426 71.582C233.617 72.458 234.976 58.652 239.093 58.848C241.71 59.0752 244.153 60.2514 245.963 62.155Z" fill="#8C3E79"/>
<path d="M254.679 165.205C254.679 165.205 254.324 170.937 253.215 171.019C253.067 171.03 247.59 171.03 247.59 171.03L240.599 170.989C240.651 170.457 240.889 169.961 241.271 169.588C241.654 169.214 242.155 168.988 242.688 168.948C244.732 168.592 248.152 167.156 249.388 164.455C250.693 161.613 254.679 165.205 254.679 165.205Z" fill="#553791"/>
<path d="M255.082 165.603C253.857 166.006 252.585 166.246 251.297 166.314C250.102 166.3 248.915 166.132 247.763 165.814C247.168 161.628 246.3 157.486 245.163 153.414C244.008 148.945 242.363 143.199 240.014 136.059C233.529 116.326 231.557 104.782 231.377 103.689C231.368 103.631 231.364 103.603 231.364 103.603L231.385 103.593L251.323 94.8391C251.323 94.8391 248.859 122.039 252.003 132.475C252.48 134.118 252.861 135.788 253.144 137.475C255.129 148.815 255.082 165.603 255.082 165.603Z" fill="#553791"/>
<path d="M253.142 137.476L245.162 153.415C244.007 148.946 242.362 143.2 240.013 136.06C233.528 116.327 231.556 104.783 231.376 103.69C231.376 103.657 231.376 103.627 231.383 103.59L251.321 94.8361C251.321 94.8361 248.857 122.036 252.001 132.472C252.479 134.116 252.859 135.787 253.142 137.476Z" fill="#553791"/>
<path d="M239.106 165.205C239.106 165.205 238.751 170.937 237.642 171.019C237.495 171.03 232.018 171.03 232.018 171.03L225.026 170.989C225.078 170.457 225.316 169.961 225.698 169.588C226.081 169.214 226.582 168.988 227.115 168.948C229.159 168.592 232.579 167.156 233.815 164.455C235.12 161.613 239.106 165.205 239.106 165.205Z" fill="#553791"/>
<path d="M227.801 95.4801C227.822 108.616 228.754 121.735 230.591 134.742C233.64 156.381 232.607 165.566 232.607 165.566C233.568 165.886 234.55 166.136 235.547 166.313C237.019 166.389 238.493 166.22 239.91 165.813C239.91 165.813 244.275 144.166 243.023 133.335C241.771 122.504 248.999 96.1701 248.999 96.1701L227.801 95.4801Z" fill="#553791"/>
<path d="M242.324 53.5431L238.824 56.6131L233.109 56.3611C233.123 55.9011 233.227 53.9861 233.324 52.2511C233.33 52.1511 233.336 52.0511 233.342 51.9511C233.426 50.4741 233.499 49.2061 233.499 49.2061L238.376 46.1781L240.194 45.0491C240.194 45.0801 240.269 46.6641 240.281 46.8951C240.365 49.2523 241.069 51.5457 242.324 53.5431Z" fill="#FFB27D"/>
<path d="M226.641 96.2431C226.721 105.543 227.341 127.306 227.797 127.749C232.642 132.426 253.953 126.467 255.083 121.314C256.213 116.161 250.789 55.2492 242.514 52.8142C240.797 52.3142 231.614 55.2781 231.614 55.2781C230.602 58.0686 229.805 60.9322 229.23 63.8441C228.88 65.6221 227.738 78.3091 227.071 86.7871C226.895 89.0471 226.751 91.0071 226.666 92.3821C226.633 92.9531 226.625 94.3371 226.641 96.2431Z" fill="#8C3E79"/>
<path d="M239.905 47.016C239.036 49.116 235.016 51.385 233.328 52.251C233.334 52.151 233.34 52.051 233.345 51.951C233.429 50.474 233.503 49.206 233.503 49.206L238.38 46.178C239.527 45.995 240.263 46.153 239.905 47.016Z" fill="#FCA56B"/>
<path d="M231.7 49.4081C231.7 49.4081 240.525 50.2281 240.951 44.7251C241.377 39.2221 242.803 35.6251 237.187 34.8651C231.571 34.1051 230.312 36.1241 229.723 37.9261C229.134 39.7281 229.415 49.0521 231.7 49.4081Z" fill="#FFB27D"/>
<path d="M229.941 37.3581C229.941 37.3581 231.751 43.2711 232.941 42.7451C234.131 42.2191 235.22 41.7841 235.424 43.6391C235.628 45.4941 234.347 47.9591 238.255 47.4631C242.163 46.9671 245.577 35.8881 244.123 34.2371C239.929 29.4741 224.137 31.6931 229.941 37.3581Z" fill="#163560"/>
<path d="M233.866 52.9521C233.975 52.9061 240.166 50.1301 240.888 50.3691C241.61 50.6081 242.514 52.8181 242.514 52.8181L231.614 55.2821C232.109 54.2937 232.895 53.4806 233.866 52.9521Z" fill="#8C3E79"/>
<path d="M226.64 102.906C243.222 90.9151 244.512 71.9061 244.512 71.9061C236.622 76.3571 229.131 83.7141 226.7 91.8061C226.524 94.0661 226.752 97.6761 226.667 99.0501C226.632 99.6171 226.624 101.001 226.64 102.906Z" fill="#332456"/>
<path d="M216.229 96.7711C216.027 96.6444 215.794 96.5752 215.556 96.5711C214.961 96.3617 214.388 96.0938 213.846 95.7711C213.239 95.2211 213.027 95.8061 213.446 96.3911C213.538 96.5181 213.866 96.7331 213.98 96.8541C212.616 97.4414 211.365 98.2646 210.287 99.2861C210.287 99.2861 209.027 100.302 210.729 100.523C211.867 100.671 212.296 100.247 213.903 100.43C214.598 100.565 215.318 100.502 215.978 100.247C216.639 99.9921 217.215 99.5561 217.639 98.9891L218.697 98.1521L217.797 96.0291L216.229 96.7711Z" fill="#FFB27D"/>
<path d="M237.469 55.7201C237.469 55.7201 254.934 54.8811 239.14 84.2651C236.614 88.9651 218.565 99.1761 218.565 99.1761C218.565 99.1761 216.865 97.3391 217.509 95.8041C217.509 95.8041 229.262 82.4281 230.838 81.8841C232.238 81.4011 231.946 65.1151 233.196 61.1841C233.891 58.8949 235.415 56.9468 237.469 55.7201Z" fill="#8C3E79"/>
<path opacity="0.5" d="M216.804 170.72H204.143H197.443C196.191 170.716 194.991 170.216 194.106 169.33C193.221 168.444 192.722 167.243 192.719 165.991L192.734 119.208C192.737 117.956 193.236 116.756 194.122 115.871C195.008 114.986 196.208 114.487 197.46 114.484H203.4H216.819C218.071 114.488 219.271 114.988 220.156 115.874C221.042 116.759 221.54 117.96 221.543 119.212L221.529 165.996C221.524 167.248 221.025 168.447 220.14 169.332C219.255 170.217 218.056 170.716 216.804 170.72Z" fill="#C0D8FB"/>
<path d="M219.486 157.457L219.15 154.995L218.814 152.532C218.729 151.926 218.408 151.379 217.921 151.009C217.434 150.639 216.82 150.477 216.214 150.558C216.144 150.568 216.077 150.581 216.014 150.597C216.006 150.378 216.044 150.159 216.127 149.955C216.21 149.752 216.335 149.568 216.494 149.417C216.653 149.266 216.842 149.15 217.05 149.077C217.257 149.005 217.477 148.977 217.696 148.996C217.915 149.015 218.127 149.081 218.318 149.188C218.51 149.296 218.677 149.443 218.807 149.62C218.937 149.796 219.028 149.999 219.074 150.214C219.121 150.428 219.12 150.65 219.074 150.865C219.668 150.721 220.181 150.348 220.501 149.827C220.821 149.306 220.922 148.679 220.781 148.084L220.202 145.667L219.624 143.249C219.554 142.954 219.426 142.677 219.248 142.431C219.07 142.186 218.845 141.978 218.587 141.82C218.329 141.661 218.042 141.555 217.743 141.507C217.443 141.46 217.138 141.472 216.843 141.542C216.548 141.613 216.27 141.74 216.025 141.918C215.78 142.096 215.572 142.321 215.414 142.579C215.255 142.837 215.149 143.124 215.101 143.424C215.054 143.723 215.065 144.028 215.136 144.323L216.008 147.965C215.803 147.67 215.532 147.428 215.215 147.257C214.899 147.087 214.547 146.994 214.188 146.985C214.414 146.692 214.566 146.349 214.633 145.985C214.531 144.655 214.219 143.35 213.708 142.118L209.876 138.951C209.423 138.576 208.845 138.388 208.258 138.425C207.672 138.463 207.122 138.723 206.72 139.152C206.319 139.581 206.097 140.148 206.099 140.735C206.101 141.323 206.327 141.888 206.732 142.314C206.524 142.312 206.317 142.339 206.117 142.393L203.717 143.049L201.317 143.705C200.92 143.815 200.56 144.028 200.273 144.324C199.986 144.619 199.783 144.986 199.686 145.386L199.435 144.786L198.477 142.493C198.241 141.928 197.791 141.481 197.224 141.248C196.658 141.016 196.023 141.018 195.458 141.254C194.894 141.49 194.446 141.94 194.214 142.506C193.981 143.072 193.983 143.707 194.219 144.272L195.177 146.565L195.791 148.034C195.38 148.197 195.024 148.474 194.765 148.834C194.507 149.193 194.357 149.618 194.333 150.06L194.207 152.542L194.082 155.025C194.062 155.394 194.132 155.763 194.285 156.1C194.438 156.436 194.67 156.731 194.961 156.959C195.252 157.187 195.594 157.341 195.957 157.409C196.321 157.477 196.695 157.456 197.049 157.348C196.809 157.831 196.744 158.382 196.865 158.907C196.425 159.159 196.081 159.55 195.887 160.018L194.938 162.318L193.989 164.618C195.849 165.178 197.456 166.37 198.533 167.987C199.02 168.357 199.633 168.52 200.239 168.439C200.845 168.359 201.394 168.042 201.767 167.557L203.277 165.584L204.788 163.61C204.812 163.389 204.885 163.176 205.002 162.987C205.118 162.797 205.275 162.636 205.462 162.514C205.648 162.392 205.859 162.314 206.079 162.283C206.299 162.253 206.524 162.272 206.736 162.338L207.136 162.065L206.588 162.781L205.086 164.742C204.735 165.229 204.588 165.835 204.676 166.429C204.764 167.023 205.08 167.559 205.557 167.924C206.035 168.289 206.635 168.453 207.232 168.381C207.828 168.31 208.373 168.009 208.751 167.542L210.261 165.568L211.772 163.594C211.792 163.569 211.808 163.542 211.826 163.516C211.947 163.711 212.096 163.886 212.268 164.036L211.73 164.736C211.534 164.976 211.388 165.252 211.301 165.549C211.214 165.846 211.188 166.158 211.223 166.465C211.259 166.772 211.357 167.069 211.51 167.338C211.663 167.607 211.868 167.843 212.114 168.031C212.36 168.219 212.641 168.355 212.941 168.432C213.241 168.509 213.553 168.525 213.859 168.479C214.165 168.433 214.459 168.326 214.722 168.164C214.986 168.002 215.215 167.788 215.394 167.536L218.415 163.588C218.633 163.306 218.782 162.976 218.85 162.626C218.919 162.276 218.905 161.915 218.809 161.571C218.714 161.227 218.54 160.91 218.302 160.645C218.063 160.38 217.766 160.175 217.434 160.044C217.462 160.044 217.49 160.044 217.518 160.037C218.119 159.951 218.662 159.632 219.03 159.15C219.398 158.667 219.562 158.059 219.486 157.457ZM198.695 155.257L198.738 154.41C198.942 154.762 199.24 155.05 199.597 155.244L198.54 155.973C198.631 155.744 198.684 155.501 198.698 155.255L198.695 155.257ZM214.242 153.157L214.694 156.468C214.479 156.031 214.131 155.672 213.7 155.444C213.269 155.216 212.777 155.131 212.294 155.199C212.537 155.052 212.749 154.862 212.922 154.637L214.222 152.943C214.23 153.012 214.236 153.083 214.245 153.155L214.242 153.157ZM208.995 144.211L209.576 144.691L208.976 145.104C209.042 144.81 209.05 144.506 208.998 144.209L208.995 144.211ZM209.495 151.527C209.342 151.502 209.203 151.421 209.106 151.299C209.01 151.177 208.962 151.024 208.974 150.869C208.985 150.714 209.053 150.568 209.166 150.462C209.279 150.355 209.428 150.294 209.583 150.291L211.401 149.037L209.495 151.527ZM211.004 155.844C210.764 155.644 210.486 155.495 210.188 155.404C209.889 155.314 209.574 155.285 209.264 155.319L209.313 154.698C209.563 155.006 209.889 155.243 210.258 155.386C210.628 155.529 211.028 155.573 211.42 155.514C211.271 155.607 211.132 155.717 211.008 155.842L211.004 155.844ZM206.356 147.112C206.101 147.496 205.966 147.948 205.969 148.409C205.972 148.871 206.113 149.321 206.374 149.701C206.384 149.716 206.396 149.728 206.406 149.743C206.36 149.821 206.293 149.886 206.213 149.929C206.133 149.973 206.043 149.994 205.952 149.991C205.861 149.988 205.773 149.96 205.696 149.911C205.62 149.862 205.558 149.793 205.517 149.712C205.476 149.63 205.458 149.54 205.464 149.449C205.471 149.358 205.501 149.271 205.553 149.196C205.605 149.121 205.676 149.062 205.758 149.024C205.841 148.986 205.933 148.971 206.023 148.98C205.984 148.68 205.886 148.39 205.734 148.128C205.583 147.865 205.381 147.635 205.141 147.451H205.134L206.356 147.112ZM204.056 152.659L204.946 151.497C204.934 151.569 204.924 151.641 204.918 151.716L204.749 153.85C204.421 153.554 204.014 153.358 203.577 153.286L204.056 152.66V152.659ZM199.891 162.411L200.152 161.779C200.335 161.336 200.374 160.846 200.263 160.379C200.316 160.348 200.368 160.318 200.419 160.279L204.511 157.457C204.537 157.439 204.561 157.418 204.586 157.399C204.641 157.621 204.728 157.834 204.846 158.03L204.117 158.53C203.886 159.154 203.482 159.698 202.951 160.1C202.421 160.501 201.787 160.742 201.124 160.795L199.891 162.411ZM210.746 159.567L210.874 160.101C210.671 160.01 210.456 159.949 210.235 159.92L210.746 159.567ZM215.62 160.106L215.442 159.363L215.408 159.222C215.658 159.53 215.983 159.768 216.351 159.915C216.101 159.938 215.857 160.002 215.627 160.104L215.62 160.106ZM201.645 148.22L200.393 149.856L198.883 151.829C198.876 151.838 198.871 151.848 198.864 151.857L198.943 150.292C198.943 150.252 198.943 150.212 198.943 150.173C199.014 150.151 199.085 150.126 199.154 150.097C198.983 149.765 198.934 149.384 199.017 149.019C199.1 148.655 199.309 148.332 199.607 148.107C199.906 147.883 200.274 147.771 200.647 147.791C201.02 147.812 201.373 147.964 201.645 148.22Z" fill="#AFCDFB"/>
<path opacity="0.5" d="M204.143 170.716H197.443C196.191 170.712 194.991 170.212 194.106 169.326C193.221 168.44 192.722 167.239 192.719 165.987L192.734 119.204C192.737 117.952 193.236 116.752 194.122 115.867C195.008 114.982 196.208 114.483 197.46 114.48H203.4C203.912 115.368 204.179 116.377 204.175 117.402L204.159 170.244C204.162 170.404 204.156 170.562 204.143 170.716Z" fill="#AFCDFB"/>
<path d="M221.235 116.69L203.254 116.684H193.049C192.806 116.684 192.572 116.587 192.4 116.414C192.228 116.242 192.131 116.009 192.131 115.765V111.359C192.132 111.115 192.229 110.882 192.401 110.71C192.573 110.538 192.806 110.441 193.05 110.44H203.241L221.235 110.445C221.479 110.446 221.712 110.543 221.884 110.715C222.056 110.887 222.153 111.121 222.153 111.364V115.775C222.151 116.018 222.054 116.25 221.882 116.421C221.71 116.592 221.478 116.689 221.235 116.69Z" fill="#F99746"/>
<path d="M203.253 116.684H193.048C192.805 116.684 192.571 116.587 192.399 116.414C192.227 116.242 192.13 116.009 192.13 115.765V111.359C192.131 111.115 192.228 110.882 192.4 110.71C192.572 110.538 192.806 110.441 193.049 110.44H203.24C203.483 110.441 203.716 110.539 203.887 110.711C204.059 110.883 204.156 111.116 204.156 111.359V115.765C204.155 116.006 204.06 116.237 203.892 116.408C203.723 116.58 203.494 116.679 203.253 116.684Z" fill="#EF7E29"/>
<path d="M287.46 167.918C287.457 168.739 287.13 169.526 286.549 170.107C285.968 170.688 285.181 171.015 284.36 171.018H269.725C268.903 171.018 268.114 170.691 267.533 170.11C266.952 169.529 266.625 168.74 266.625 167.918C266.625 167.096 266.952 166.307 267.533 165.726C268.114 165.145 268.903 164.818 269.725 164.818H284.36C285.182 164.82 285.969 165.147 286.55 165.728C287.131 166.309 287.458 167.096 287.46 167.918Z" fill="#EF7E29"/>
<path d="M279.916 167.918C279.914 168.739 279.586 169.527 279.005 170.107C278.425 170.688 277.637 171.016 276.816 171.018H269.73C268.908 171.018 268.119 170.691 267.538 170.11C266.957 169.529 266.63 168.74 266.63 167.918C266.63 167.096 266.957 166.307 267.538 165.726C268.119 165.145 268.908 164.818 269.73 164.818H276.816C277.637 164.82 278.425 165.147 279.006 165.728C279.587 166.309 279.914 167.096 279.916 167.918Z" fill="#F99746"/>
<path opacity="0.5" d="M284.564 165.508H270.704C270.434 165.508 270.215 165.727 270.215 165.996C270.215 166.266 270.434 166.485 270.704 166.485H284.564C284.834 166.485 285.053 166.266 285.053 165.996C285.053 165.727 284.834 165.508 284.564 165.508Z" fill="#FFE2CC"/>
<path d="M153.922 86.654V130.29C153.918 131.58 153.404 132.817 152.492 133.729C151.58 134.641 150.343 135.155 149.053 135.159H123.117C122.444 135.16 121.778 135.019 121.163 134.746C120.298 134.365 119.562 133.741 119.045 132.95C118.528 132.159 118.251 131.235 118.248 130.29V86.654C118.252 85.3639 118.766 84.1278 119.678 83.2155C120.591 82.3032 121.827 81.789 123.117 81.785H149.054C150.344 81.7887 151.58 82.3029 152.492 83.2153C153.405 84.1276 153.919 85.3639 153.922 86.654Z" fill="#FCECDB"/>
<path d="M142.433 98.194C141.452 97.8256 140.602 97.1745 139.99 96.323C139.379 95.4715 139.034 94.4578 138.999 93.4102C138.964 92.3626 139.24 91.3281 139.793 90.4374C140.345 89.5468 141.15 88.8401 142.104 88.4066C143.058 87.9731 144.12 87.8323 145.154 88.0021C146.189 88.1719 147.149 88.6445 147.915 89.3603C148.681 90.0761 149.217 91.0029 149.456 92.0235C149.695 93.0441 149.626 94.1126 149.258 95.094C149.014 95.7457 148.643 96.3429 148.168 96.8514C147.692 97.3599 147.121 97.7698 146.488 98.0577C145.854 98.3455 145.17 98.5058 144.474 98.5291C143.778 98.5525 143.085 98.4387 142.433 98.194Z" fill="#F7E0CB"/>
<path d="M149.258 95.095L139.335 91.369C139.575 90.7109 139.942 90.1068 140.417 89.5917C140.892 89.0766 141.464 88.6606 142.1 88.3679C142.736 88.0752 143.424 87.9116 144.124 87.8864C144.824 87.8612 145.522 87.975 146.178 88.2212C146.834 88.4674 147.434 88.8411 147.945 89.3208C148.455 89.8005 148.865 90.3766 149.152 91.0158C149.438 91.6549 149.595 92.3445 149.613 93.0447C149.631 93.7449 149.511 94.4418 149.258 95.095Z" fill="#EFCBAB"/>
<path d="M124.522 97.338C123.71 96.6752 123.113 95.7864 122.806 94.7841C122.499 93.7817 122.496 92.7109 122.798 91.707C123.099 90.7031 123.692 89.8112 124.501 89.144C125.309 88.4769 126.297 88.0646 127.34 87.9591C128.383 87.8537 129.434 88.0599 130.36 88.5516C131.286 89.0434 132.045 89.7986 132.541 90.7218C133.038 91.645 133.249 92.6947 133.149 93.7382C133.049 94.7817 132.642 95.772 131.979 96.5841C131.09 97.6728 129.805 98.3639 128.407 98.5053C127.008 98.6467 125.611 98.2269 124.522 97.338Z" fill="#F7E0CB"/>
<path d="M131.98 96.5841L123.768 89.8841C124.665 88.8224 125.943 88.1555 127.327 88.0272C128.711 87.8988 130.09 88.3193 131.167 89.1979C132.244 90.0766 132.933 91.3431 133.085 92.7247C133.237 94.1062 132.84 95.4922 131.98 96.5841Z" fill="#EFCBAB"/>
<path d="M142.433 130.526C141.452 130.158 140.602 129.506 139.99 128.655C139.379 127.803 139.034 126.79 138.999 125.742C138.964 124.695 139.24 123.66 139.793 122.769C140.345 121.879 141.15 121.172 142.104 120.739C143.058 120.305 144.12 120.164 145.154 120.334C146.189 120.504 147.149 120.977 147.915 121.692C148.681 122.408 149.217 123.335 149.456 124.355C149.695 125.376 149.626 126.445 149.258 127.426C149.014 128.078 148.643 128.675 148.168 129.183C147.692 129.692 147.121 130.102 146.488 130.39C145.854 130.678 145.17 130.838 144.474 130.861C143.778 130.885 143.085 130.771 142.433 130.526Z" fill="#F7E0CB"/>
<path d="M149.258 127.787L139.335 124.061C139.575 123.403 139.942 122.799 140.417 122.284C140.892 121.769 141.464 121.353 142.1 121.06C142.736 120.767 143.424 120.604 144.124 120.578C144.824 120.553 145.522 120.667 146.178 120.913C146.834 121.159 147.434 121.533 147.945 122.013C148.455 122.493 148.865 123.069 149.152 123.708C149.438 124.347 149.595 125.037 149.613 125.737C149.631 126.437 149.511 127.134 149.258 127.787Z" fill="#EFCBAB"/>
<path d="M124.522 129.67C123.71 129.007 123.113 128.118 122.806 127.116C122.499 126.114 122.496 125.043 122.798 124.039C123.099 123.035 123.692 122.143 124.501 121.476C125.309 120.809 126.297 120.397 127.34 120.291C128.383 120.186 129.434 120.392 130.36 120.884C131.286 121.375 132.045 122.131 132.541 123.054C133.038 123.977 133.249 125.027 133.149 126.07C133.049 127.114 132.642 128.104 131.979 128.916C131.09 130.005 129.805 130.696 128.407 130.837C127.008 130.979 125.611 130.559 124.522 129.67Z" fill="#F7E0CB"/>
<path d="M131.98 129.276L123.768 122.576C124.665 121.514 125.943 120.848 127.327 120.719C128.711 120.591 130.09 121.011 131.167 121.89C132.244 122.769 132.933 124.035 133.085 125.417C133.237 126.798 132.84 128.184 131.98 129.276Z" fill="#EFCBAB"/>
<path d="M146.566 114.79C145.619 115.239 144.56 115.397 143.523 115.244C142.486 115.091 141.517 114.634 140.74 113.931C139.963 113.228 139.411 112.31 139.156 111.293C138.9 110.277 138.952 109.207 139.304 108.22C139.656 107.232 140.294 106.372 141.135 105.747C141.977 105.121 142.985 104.76 144.031 104.708C145.078 104.655 146.117 104.915 147.017 105.453C147.916 105.991 148.636 106.784 149.085 107.731C149.687 109.001 149.76 110.458 149.288 111.782C148.815 113.106 147.836 114.188 146.566 114.79Z" fill="#F7E0CB"/>
<path d="M149.085 107.731L139.506 112.271C139.208 111.642 139.037 110.961 139.002 110.265C138.967 109.57 139.07 108.875 139.304 108.219C139.538 107.564 139.898 106.961 140.365 106.445C140.832 105.929 141.397 105.51 142.026 105.212C142.654 104.913 143.336 104.742 144.031 104.707C144.726 104.673 145.422 104.775 146.077 105.009C146.733 105.243 147.336 105.604 147.852 106.071C148.368 106.538 148.787 107.102 149.085 107.731Z" fill="#EFCBAB"/>
<path d="M122.953 108.031C123.343 107.058 124.012 106.222 124.876 105.629C125.741 105.037 126.762 104.713 127.81 104.701C128.858 104.688 129.887 104.987 130.765 105.559C131.644 106.131 132.333 106.95 132.745 107.914C133.158 108.877 133.276 109.942 133.084 110.972C132.891 112.003 132.398 112.953 131.666 113.703C130.933 114.453 129.995 114.969 128.97 115.186C127.944 115.403 126.877 115.311 125.904 114.921C125.258 114.662 124.669 114.279 124.171 113.793C123.673 113.307 123.276 112.727 123.002 112.087C122.728 111.447 122.582 110.76 122.574 110.064C122.566 109.368 122.694 108.677 122.953 108.031Z" fill="#F7E0CB"/>
<path d="M125.905 114.921L129.844 105.08C131.149 105.602 132.193 106.622 132.747 107.914C133.3 109.206 133.317 110.665 132.795 111.97C132.273 113.275 131.253 114.319 129.961 114.873C128.669 115.426 127.21 115.443 125.905 114.921Z" fill="#EFCBAB"/>
<path opacity="0.5" d="M153.923 92.626V130.598C153.933 131.793 153.471 132.943 152.636 133.798C151.802 134.652 150.663 135.142 149.468 135.16H125.734C125.117 135.16 124.508 135.029 123.946 134.774V97.884C123.945 97.1676 124.089 96.4584 124.37 95.7992C124.65 95.1401 125.062 94.5447 125.579 94.049C125.95 93.6922 126.373 93.3933 126.833 93.162C127.53 92.8101 128.3 92.6268 129.081 92.627L153.923 92.626Z" fill="#EFCBAB"/>
<path d="M160.468 110.708V128.408C160.468 133.139 158.589 137.676 155.244 141.021C151.899 144.366 147.362 146.245 142.631 146.245C140.289 146.245 137.969 145.784 135.805 144.888C133.641 143.991 131.674 142.677 130.018 141.021C128.361 139.365 127.047 137.398 126.151 135.234C125.254 133.07 124.793 130.751 124.793 128.408V110.708C124.793 108.366 125.254 106.046 126.151 103.882C127.047 101.718 128.361 99.7514 130.018 98.0951C131.674 96.4387 133.641 95.1249 135.805 94.2286C137.969 93.3322 140.289 92.871 142.631 92.8711V92.8711C147.362 92.8711 151.899 94.7503 155.244 98.0954C158.589 101.441 160.468 105.977 160.468 110.708V110.708Z" fill="#FCECDB"/>
<path d="M148.978 109.281C147.997 108.913 147.147 108.262 146.535 107.41C145.924 106.559 145.579 105.545 145.544 104.497C145.509 103.45 145.785 102.415 146.337 101.525C146.89 100.634 147.695 99.9272 148.649 99.4937C149.603 99.0603 150.665 98.9195 151.699 99.0893C152.734 99.259 153.694 99.7317 154.46 100.447C155.226 101.163 155.762 102.09 156.001 103.111C156.24 104.131 156.171 105.2 155.803 106.181C155.558 106.833 155.188 107.43 154.713 107.939C154.237 108.447 153.666 108.857 153.033 109.145C152.399 109.433 151.715 109.593 151.019 109.616C150.323 109.64 149.63 109.526 148.978 109.281Z" fill="#F7E0CB"/>
<path d="M155.8 106.182L145.877 102.456C146.117 101.798 146.484 101.194 146.959 100.679C147.434 100.164 148.006 99.7477 148.642 99.455C149.278 99.1623 149.966 98.9986 150.666 98.9734C151.366 98.9482 152.064 99.062 152.72 99.3082C153.376 99.5545 153.976 99.9282 154.487 100.408C154.997 100.888 155.407 101.464 155.694 102.103C155.98 102.742 156.137 103.432 156.155 104.132C156.173 104.832 156.053 105.529 155.8 106.182Z" fill="#EFCBAB"/>
<path d="M131.068 108.425C130.256 107.762 129.659 106.873 129.352 105.871C129.045 104.869 129.042 103.798 129.344 102.794C129.645 101.79 130.238 100.898 131.046 100.231C131.855 99.564 132.843 99.1516 133.886 99.0462C134.929 98.9407 135.98 99.1469 136.906 99.6387C137.831 100.13 138.591 100.886 139.087 101.809C139.584 102.732 139.795 103.782 139.695 104.825C139.595 105.869 139.188 106.859 138.525 107.671C137.636 108.76 136.351 109.451 134.953 109.592C133.554 109.734 132.157 109.314 131.068 108.425Z" fill="#F7E0CB"/>
<path d="M138.525 107.671L130.314 100.971C130.748 100.415 131.289 99.9519 131.905 99.6079C132.521 99.2639 133.199 99.0463 133.9 98.9678C134.601 98.8894 135.311 98.9516 135.987 99.1509C136.664 99.3502 137.294 99.6826 137.841 100.129C138.387 100.574 138.839 101.125 139.17 101.748C139.501 102.371 139.704 103.053 139.768 103.756C139.832 104.458 139.755 105.167 139.541 105.839C139.328 106.511 138.982 107.134 138.525 107.671Z" fill="#EFCBAB"/>
<path d="M148.978 141.612C147.997 141.244 147.147 140.593 146.535 139.741C145.924 138.89 145.579 137.876 145.544 136.828C145.509 135.781 145.785 134.746 146.337 133.856C146.89 132.965 147.695 132.258 148.649 131.825C149.603 131.391 150.665 131.25 151.699 131.42C152.734 131.59 153.694 132.063 154.46 132.778C155.226 133.494 155.762 134.421 156.001 135.442C156.24 136.462 156.171 137.531 155.803 138.512C155.558 139.164 155.188 139.761 154.713 140.269C154.237 140.778 153.666 141.188 153.033 141.476C152.399 141.764 151.715 141.924 151.019 141.947C150.323 141.971 149.63 141.857 148.978 141.612Z" fill="#F7E0CB"/>
<path d="M155.8 138.873L145.877 135.147C146.117 134.489 146.484 133.885 146.959 133.37C147.434 132.855 148.006 132.439 148.642 132.146C149.278 131.853 149.966 131.69 150.666 131.664C151.366 131.639 152.064 131.753 152.72 131.999C153.376 132.245 153.976 132.619 154.487 133.099C154.997 133.579 155.407 134.155 155.694 134.794C155.98 135.433 156.137 136.123 156.155 136.823C156.173 137.523 156.053 138.22 155.8 138.873Z" fill="#EFCBAB"/>
<path d="M139.256 138.818C140.453 136.147 139.258 133.011 136.587 131.814C133.916 130.617 130.78 131.812 129.583 134.483C128.386 137.154 129.58 140.29 132.251 141.487C134.923 142.684 138.058 141.489 139.256 138.818Z" fill="#F7E0CB"/>
<path d="M138.525 140.362L130.314 133.662C130.748 133.106 131.289 132.643 131.905 132.299C132.521 131.955 133.199 131.737 133.9 131.659C134.601 131.58 135.311 131.643 135.987 131.842C136.664 132.041 137.294 132.374 137.841 132.82C138.387 133.265 138.839 133.816 139.17 134.439C139.501 135.062 139.704 135.745 139.768 136.447C139.832 137.149 139.755 137.858 139.541 138.53C139.328 139.202 138.982 139.825 138.525 140.362Z" fill="#EFCBAB"/>
<path d="M153.114 125.876C152.167 126.325 151.108 126.483 150.071 126.33C149.034 126.177 148.065 125.72 147.288 125.016C146.511 124.313 145.96 123.395 145.704 122.378C145.449 121.361 145.501 120.292 145.853 119.305C146.205 118.317 146.843 117.457 147.684 116.832C148.526 116.207 149.534 115.845 150.581 115.793C151.628 115.741 152.666 116 153.566 116.539C154.465 117.077 155.185 117.87 155.634 118.817C156.236 120.087 156.308 121.545 155.836 122.869C155.363 124.192 154.384 125.274 153.114 125.876Z" fill="#F7E0CB"/>
<path d="M155.631 118.817L146.052 123.357C145.45 122.087 145.377 120.629 145.85 119.306C146.322 117.982 147.301 116.9 148.571 116.298C149.842 115.696 151.299 115.623 152.623 116.095C153.947 116.568 155.029 117.547 155.631 118.817Z" fill="#EFCBAB"/>
<path d="M129.499 119.117C129.888 118.144 130.558 117.308 131.422 116.715C132.287 116.123 133.308 115.8 134.356 115.787C135.404 115.774 136.433 116.073 137.311 116.645C138.189 117.217 138.879 118.036 139.291 119C139.704 119.964 139.822 121.028 139.63 122.058C139.437 123.089 138.944 124.039 138.212 124.789C137.479 125.539 136.541 126.055 135.516 126.272C134.49 126.489 133.423 126.397 132.45 126.007C131.804 125.748 131.215 125.365 130.717 124.879C130.219 124.393 129.821 123.813 129.547 123.173C129.273 122.533 129.128 121.846 129.12 121.15C129.111 120.454 129.24 119.763 129.499 119.117Z" fill="#F7E0CB"/>
<path d="M132.45 126.01L136.389 116.169C137.035 116.428 137.624 116.811 138.122 117.297C138.62 117.784 139.017 118.363 139.291 119.003C139.565 119.643 139.711 120.33 139.719 121.026C139.727 121.722 139.599 122.413 139.34 123.059C139.081 123.705 138.698 124.294 138.212 124.792C137.726 125.29 137.146 125.687 136.506 125.962C135.866 126.236 135.179 126.381 134.483 126.389C133.787 126.398 133.096 126.269 132.45 126.01Z" fill="#EFCBAB"/>
<path d="M156.454 110.277H115.718V171.07H156.454V110.277Z" fill="#EF7E29"/>
<path d="M162.128 110.277H121.392V171.071H162.128V110.277Z" fill="#F99746"/>
<path d="M121.392 113.805L119.44 116.841H115.722V110.278H121.396L121.392 113.805Z" fill="#D8661A"/>
<path d="M117.912 115.067H112.238L115.718 110.278H121.392L117.912 115.067Z" fill="#F99746"/>
<path opacity="0.5" d="M142.401 171.265H121.391V113.048L142.401 115.067V171.265Z" fill="#EFCBAB"/>
<path d="M162.127 115.067L158.822 116.841H123.355L121.391 113.805V110.277L162.127 115.067Z" fill="#EF7E29"/>
<path d="M165.005 115.067H124.269L121.391 110.278H162.127L165.005 115.067Z" fill="#F99746"/>
<path d="M75.5491 94.6469C75.3108 93.8695 74.8541 93.1768 74.2335 92.6514C73.6128 92.126 72.8544 91.7898 72.0482 91.683C71.2421 91.5762 70.4222 91.7032 69.6861 92.0489C68.95 92.3946 68.3288 92.9444 67.8962 93.633C67.537 94.2139 67.3392 94.8801 67.3232 95.563C67.2232 99.622 75.2232 115.334 76.2872 116.724C78.2222 119.255 89.8992 125.339 89.8992 125.339L92.3812 124.978C91.3525 124.298 90.3947 123.517 89.5222 122.646C86.5222 119.646 82.1481 114.781 81.3461 114.107C79.9751 112.949 77.5961 101.221 75.5491 94.6469Z" fill="#ED985F"/>
<path d="M107.846 126.68H128.864C131.769 126.68 134.646 127.252 137.33 128.364C140.015 129.476 142.454 131.105 144.508 133.16C146.562 135.214 148.192 137.653 149.304 140.337C150.416 143.022 150.988 145.899 150.988 148.804C150.988 154.671 148.657 160.298 144.508 164.447C140.359 168.596 134.732 170.927 128.865 170.927H107.846C101.978 170.927 96.3513 168.596 92.2022 164.447C88.0532 160.298 85.7222 154.671 85.7219 148.804V148.804C85.7219 142.936 88.0528 137.309 92.2019 133.16C96.3509 129.011 101.978 126.68 107.846 126.68V126.68Z" fill="#FCECDB"/>
<path d="M105.787 140.93C105.496 141.734 105.049 142.472 104.47 143.101C103.892 143.731 103.194 144.239 102.418 144.597C101.641 144.955 100.801 145.154 99.9471 145.185C99.0928 145.215 98.241 145.076 97.441 144.774C95.8232 144.145 94.5183 142.904 93.8091 141.319C93.0999 139.735 93.0435 137.935 93.652 136.309C93.9429 135.505 94.3905 134.767 94.9688 134.138C95.5471 133.509 96.2447 133 97.021 132.643C97.7974 132.285 98.637 132.085 99.4912 132.055C100.345 132.024 101.197 132.164 101.997 132.465C103.615 133.094 104.92 134.335 105.63 135.919C106.339 137.504 106.395 139.304 105.787 140.93Z" fill="#F7E0CB"/>
<path d="M101.998 132.465L97.442 144.773C95.8241 144.144 94.5192 142.903 93.8101 141.318C93.1009 139.734 93.0445 137.934 93.653 136.308C93.944 135.504 94.3916 134.766 94.97 134.137C95.5484 133.508 96.246 133 97.0223 132.642C97.7986 132.285 98.6382 132.085 99.4924 132.055C100.347 132.024 101.198 132.164 101.998 132.465Z" fill="#EFCBAB"/>
<path d="M104.74 163.145C104.208 163.812 103.548 164.367 102.799 164.776C102.05 165.185 101.227 165.441 100.378 165.528C99.5294 165.616 98.6715 165.533 97.855 165.285C97.0384 165.037 96.2796 164.628 95.6228 164.083C94.2888 162.969 93.4449 161.376 93.2725 159.647C93.1001 157.917 93.6129 156.189 94.7008 154.834C95.2333 154.167 95.8934 153.613 96.6426 153.204C97.3917 152.795 98.215 152.539 99.0641 152.452C99.9132 152.365 100.771 152.448 101.588 152.696C102.404 152.945 103.163 153.354 103.82 153.899C105.152 155.013 105.995 156.606 106.167 158.334C106.339 160.063 105.827 161.79 104.74 163.145Z" fill="#F7E0CB"/>
<path d="M103.823 153.896L95.6228 164.083C94.2888 162.969 93.4449 161.376 93.2725 159.647C93.1001 157.917 93.6129 156.189 94.7008 154.834C95.2331 154.166 95.8932 153.611 96.6425 153.202C97.3918 152.792 98.2153 152.536 99.0648 152.449C99.9143 152.361 100.773 152.444 101.59 152.693C102.407 152.941 103.166 153.35 103.823 153.896Z" fill="#EFCBAB"/>
<path d="M145.323 140.93C145.032 141.734 144.585 142.472 144.006 143.101C143.428 143.731 142.73 144.239 141.954 144.597C141.178 144.954 140.338 145.154 139.484 145.184C138.63 145.215 137.778 145.075 136.978 144.774C135.36 144.145 134.055 142.904 133.346 141.319C132.637 139.735 132.58 137.935 133.189 136.309C133.48 135.505 133.927 134.767 134.506 134.138C135.084 133.508 135.782 133 136.558 132.642C137.335 132.285 138.175 132.085 139.029 132.054C139.883 132.024 140.735 132.163 141.535 132.465C143.153 133.094 144.457 134.336 145.166 135.92C145.875 137.504 145.931 139.304 145.323 140.93Z" fill="#F7E0CB"/>
<path d="M141.535 132.465L136.979 144.773C135.361 144.144 134.056 142.903 133.347 141.318C132.638 139.734 132.581 137.934 133.19 136.308C133.481 135.504 133.928 134.766 134.507 134.137C135.085 133.508 135.783 133 136.559 132.642C137.335 132.285 138.175 132.085 139.029 132.055C139.883 132.024 140.735 132.164 141.535 132.465Z" fill="#EFCBAB"/>
<path d="M144.276 163.144C143.241 164.442 141.742 165.289 140.096 165.505C138.449 165.721 136.783 165.291 135.448 164.304C135.348 164.234 135.254 164.158 135.158 164.079C133.824 162.965 132.98 161.372 132.807 159.643C132.635 157.913 133.148 156.185 134.236 154.83C134.768 154.163 135.428 153.608 136.177 153.199C136.926 152.79 137.75 152.534 138.599 152.447C139.448 152.36 140.306 152.443 141.123 152.692C141.939 152.94 142.698 153.349 143.355 153.895C143.449 153.974 143.54 154.053 143.63 154.136C144.854 155.279 145.6 156.843 145.72 158.513C145.84 160.184 145.324 161.838 144.276 163.144Z" fill="#F7E0CB"/>
<path d="M143.626 154.137L135.444 164.304C135.344 164.234 135.25 164.158 135.154 164.079C133.82 162.965 132.976 161.372 132.804 159.643C132.631 157.913 133.144 156.185 134.232 154.83C134.764 154.163 135.424 153.608 136.173 153.199C136.923 152.79 137.746 152.534 138.595 152.447C139.444 152.36 140.302 152.443 141.119 152.692C141.935 152.94 142.694 153.349 143.351 153.895C143.448 153.974 143.539 154.053 143.626 154.137Z" fill="#EFCBAB"/>
<path d="M126.079 135.804C126.818 137.376 126.909 139.175 126.332 140.813C125.756 142.451 124.558 143.797 122.998 144.56C122.227 144.928 121.391 145.14 120.537 145.182C119.684 145.224 118.831 145.096 118.027 144.805C117.224 144.514 116.487 144.066 115.858 143.488C115.229 142.909 114.722 142.211 114.366 141.435C113.627 139.863 113.536 138.064 114.113 136.426C114.689 134.788 115.887 133.442 117.447 132.679C118.218 132.311 119.054 132.099 119.907 132.057C120.761 132.015 121.614 132.143 122.417 132.434C123.221 132.725 123.958 133.173 124.587 133.751C125.215 134.33 125.723 135.027 126.079 135.804Z" fill="#F7E0CB"/>
<path d="M117.447 132.679L122.998 144.56C122.227 144.928 121.391 145.14 120.537 145.182C119.684 145.224 118.831 145.096 118.027 144.805C117.224 144.514 116.487 144.066 115.858 143.488C115.229 142.909 114.722 142.211 114.366 141.435C113.627 139.863 113.536 138.064 114.113 136.426C114.689 134.788 115.887 133.442 117.447 132.679Z" fill="#EFCBAB"/>
<path d="M117.813 165.091C116.209 164.427 114.931 163.158 114.255 161.558C113.58 159.959 113.561 158.158 114.204 156.545C114.512 155.748 114.975 155.02 115.567 154.403C116.158 153.786 116.867 153.293 117.651 152.953C118.435 152.612 119.278 152.431 120.133 152.419C120.988 152.408 121.836 152.566 122.629 152.885C124.233 153.549 125.51 154.819 126.186 156.418C126.861 158.017 126.88 159.818 126.238 161.431C125.93 162.228 125.466 162.956 124.875 163.573C124.283 164.189 123.575 164.682 122.791 165.023C122.007 165.363 121.163 165.545 120.309 165.556C119.454 165.568 118.606 165.41 117.813 165.091Z" fill="#F7E0CB"/>
<path d="M126.241 161.431L114.209 156.546C114.517 155.749 114.98 155.021 115.572 154.404C116.164 153.787 116.872 153.294 117.656 152.954C118.44 152.613 119.284 152.432 120.138 152.42C120.993 152.409 121.841 152.567 122.634 152.886C124.237 153.551 125.514 154.82 126.189 156.419C126.864 158.018 126.883 159.818 126.241 161.431Z" fill="#EFCBAB"/>
<path d="M78.938 74.788C76.8754 75.5913 74.8835 76.5653 72.983 77.7C70.296 80.681 71.062 84.57 72.6 84.607C73.586 84.631 73.3999 86.27 73.3999 86.27L84.3849 81.623C84.3849 81.623 83.057 73.911 78.938 74.788Z" fill="#B5453C"/>
<path d="M80.2909 75.389C80.2909 75.389 80.683 71.11 75.902 71.11C76.7145 71.333 77.4664 71.7359 78.102 72.289C77.069 71.7818 75.9058 71.602 74.7679 71.7735C73.63 71.9451 72.5716 72.4598 71.734 73.249C68.415 76 70.4769 82.899 69.4679 84.209C68.4589 85.519 64.529 85.781 65.009 90.017C65.489 94.253 77.482 99.558 76.709 103.062C76.709 103.062 81.409 96.153 78.048 93C78.9874 93.9089 79.6171 95.0904 79.8479 96.377C79.8479 96.377 80.292 92.796 78.014 91.651C75.998 90.637 74.346 86.931 74.521 86.268C74.696 85.605 80.2909 75.389 80.2909 75.389Z" fill="#B5453C"/>
<path d="M66.8611 167.919L64.484 167.57C59.2526 162.866 55.9758 156.372 55.3011 149.369C55.1762 148.152 55.1571 146.926 55.2441 145.705C55.2607 145.566 55.2315 145.426 55.161 145.305C54.905 144.913 54.2681 143.93 53.4071 142.533C52.5571 141.157 51.1071 138.554 49.5071 135.633C46.6251 130.374 43.2701 124.084 42.1191 122.081C38.4521 115.696 40.219 111.403 40.219 111.403C40.219 111.403 50.449 110.392 53.252 107.939L54.2621 109.496C54.2621 109.496 56.4781 119.309 56.3741 119.354L56.7071 120.373C58.6407 126.163 60.2623 132.052 61.565 138.016C62.1547 140.512 62.4126 143.075 62.3321 145.639C62.2945 146.573 62.3552 147.509 62.513 148.431C63.497 155.462 66.8611 167.919 66.8611 167.919Z" fill="#553791"/>
<path d="M71.848 170.928H61.9301C61.8014 170.032 61.898 169.119 62.2111 168.27C62.7111 167.17 63.411 167.134 62.301 165.41C62.931 166.059 64.9571 166.327 66.3911 166.134C66.8486 167.077 67.4264 167.957 68.11 168.751C68.761 169.215 71.648 169.049 71.848 170.928Z" fill="#233862"/>
<path d="M56.7 120.362C55.833 125.14 53.7869 133.092 49.4999 135.623C46.6179 130.364 43.2629 124.074 42.1119 122.071C38.4449 115.686 40.212 111.393 40.212 111.393C40.212 111.393 50.4419 110.382 53.2449 107.929L54.2549 109.486C54.2549 109.486 56.4709 119.299 56.3669 119.344L56.7 120.362Z" fill="#233862"/>
<path d="M71.3711 99.749C65.3291 98.363 69.1891 89.873 69.5391 90.022C70.3761 89.852 72.2141 88.382 73.8591 85.511L74.081 85.704L77.792 88.957C77.792 88.957 76.934 90.222 76.212 91.457C75.7287 92.1285 75.3987 92.898 75.245 93.711C75.545 93.952 72.9831 100.12 71.3711 99.749Z" fill="#FFB27D"/>
<path d="M75.1859 93.444C75.8192 94.7085 76.3636 96.0157 76.815 97.356C77.382 99.172 78.8 104.947 78.8 104.947C78.8 104.947 75.876 108.284 71.807 108.089C71.807 108.089 69.62 104.665 70.391 101.573C71.162 98.481 75.1859 93.444 75.1859 93.444Z" fill="#8C3E79"/>
<path d="M77.7921 88.959C77.7921 88.959 76.9341 90.223 76.2131 91.459C73.9061 90.037 73.9031 87.18 74.0811 85.701L77.7921 88.959Z" fill="#ED985F"/>
<path d="M77.896 90.589C77.896 90.589 72.296 87.472 74.289 84.014C76.282 80.556 76.904 77.824 80.565 79.668C84.226 81.512 84.153 83.229 83.765 84.545C83.377 85.861 79.404 91.313 77.896 90.589Z" fill="#FFB27D"/>
<path d="M84.714 82.5221C84.458 80.9871 83.678 80.84 83.133 80.943C82.6237 80.002 81.7943 79.2744 80.795 78.8918C79.7958 78.5092 78.6926 78.4968 77.685 78.857C76.5652 80.2261 75.0046 81.1636 73.27 81.5091C73.27 81.5091 73.92 82.719 76.598 83.467C77.4802 83.6586 78.3994 83.5852 79.24 83.256C78.0444 83.9043 76.7659 84.3864 75.44 84.689C78.97 85.012 82.328 81.7891 82.676 81.4401C82.9482 82.1784 83.043 82.9703 82.953 83.752C82.721 84.792 81.798 86.676 82.361 86.92C82.36 86.922 85.099 84.8301 84.714 82.5221Z" fill="#B5453C"/>
<path d="M41.5081 170.927H31.5901C31.461 170.032 31.5572 169.118 31.8701 168.269C32.3701 167.169 33.1441 166.669 32.9581 165.337C33.3396 165.769 33.8201 166.102 34.3583 166.308C34.8966 166.514 35.4767 166.586 36.0491 166.519C36.5236 167.334 37.1021 168.084 37.7701 168.75C38.4181 169.216 41.3081 169.05 41.5081 170.927Z" fill="#233862"/>
<path d="M72.0821 106.48C70.4837 106.944 68.8417 107.242 67.1821 107.368C64.5741 107.653 61.8821 107.847 60.4711 108.41C59.8053 108.676 59.1737 109.02 58.5901 109.437C58.5709 109.45 58.5525 109.464 58.5351 109.479C58.2571 109.68 57.9969 109.904 57.7571 110.15C57.3697 110.537 57.0607 110.996 56.8471 111.5C56.3301 112.778 57.0151 116.321 57.4541 118.257C57.541 118.636 57.4998 119.033 57.337 119.386C57.1741 119.74 56.8988 120.029 56.5541 120.209C55.5628 120.722 54.5884 121.195 53.6311 121.628L53.4801 121.696C53.4891 121.496 53.4921 121.304 53.4921 121.113C53.4916 120.294 53.4355 119.476 53.3241 118.665C52.964 120.099 52.2982 121.438 51.3721 122.591C38.0631 127.931 28.7641 125.61 28.9161 122.95C29.4411 113.713 35.6701 105.856 35.6701 105.856C47.2871 92.346 70.7871 88.7899 70.7871 88.7899C70.7871 88.7899 71.9131 88.6549 73.2711 90.2899C75.2241 92.6409 75.3211 93.2539 75.3211 93.2539C75.3211 93.2539 75.8371 105.17 72.0821 106.48Z" fill="#8C3E79"/>
<path d="M67.1821 107.365C64.5741 107.65 61.8821 107.845 60.4711 108.407C60.1639 103.146 61.3746 97.9083 63.9591 93.316C63.9591 93.316 66.6111 104.109 67.1821 107.365Z" fill="#8C3E79"/>
<path d="M69.9211 91.653C69.9211 91.653 63.3851 92.299 62.8611 96.546C62.3371 100.793 69.1271 118.09 70.1001 119.657C71.8701 122.509 82.2951 132.283 82.2951 132.283L84.2171 131.118C84.2171 131.118 76.8221 118.6 75.6781 117.429C73.8801 115.586 72.1351 93.124 69.9211 91.653Z" fill="#FFB27D"/>
<path d="M73.2701 99.766C73.2701 99.766 73.9411 88.816 65.5601 91.466C57.1791 94.116 66.8602 112.948 66.8602 112.948C66.8602 112.948 71.7792 112.705 73.5242 108.413L73.2701 99.766Z" fill="#8C3E79"/>
<path d="M57.4551 118.259C57.542 118.638 57.5008 119.035 57.3379 119.388C57.1751 119.742 56.8998 120.031 56.5551 120.211C55.5638 120.724 54.5895 121.197 53.6321 121.63C53.5811 121.467 53.5321 121.296 53.4931 121.114C53.3252 120.31 53.2687 119.486 53.3251 118.666C53.5471 114.577 56.3321 111.481 57.7591 110.151C57.3717 110.538 57.0627 110.997 56.8491 111.501C56.3311 112.78 57.0211 116.323 57.4551 118.259Z" fill="#8C3E79"/>
<path d="M70.7871 88.792C70.7871 88.792 71.8101 87.499 72.5021 87.54C72.5021 87.54 75.3021 91.455 75.3211 93.252C75.3211 93.253 71.8331 88.607 70.7871 88.792Z" fill="#91CECF"/>
<path d="M97.6179 126.681C97.6179 126.681 96.1309 126.708 95.8099 126.661C95.4277 126.57 95.0403 126.504 94.6499 126.461C94.2465 126.479 93.8469 126.546 93.4599 126.661C93.4016 126.673 93.3423 126.678 93.2829 126.678H90.8169C90.5988 126.542 90.4203 126.351 90.2989 126.124C90.1819 125.935 90.1659 125.486 89.8989 125.338C88.4059 124.505 92.3809 124.977 92.3809 124.977C93.2915 124.938 94.2038 124.98 95.1069 125.103C95.972 125.583 96.8102 126.11 97.6179 126.681Z" fill="#ED985F"/>
<path d="M90.817 126.68C91.4789 126.861 92.1232 127.101 92.7421 127.398L93.1771 127.672C93.1771 127.672 93.428 127.391 93.033 127.08C92.619 126.801 92.3316 126.37 92.233 125.88C92.209 125.331 90.5 125.813 90.817 126.68Z" fill="#ED985F"/>
<path d="M84.217 131.117C84.7729 131.619 85.4172 132.014 86.117 132.282C86.94 132.482 87.875 134.842 88.025 135.182C88.175 135.522 87.239 135.032 86.865 134.459C86.491 133.886 86.235 133.659 86.126 133.786C86.0851 134.693 86.3258 135.59 86.815 136.355C87.438 137.228 87.815 138.001 87.363 137.955C86.911 137.909 84.246 137.255 83.697 135.635C83.148 134.015 83.551 133.957 82.29 132.29C81.029 130.623 84.217 131.117 84.217 131.117Z" fill="#FFB27D"/>
<path d="M203.585 167.446C203.582 168.35 203.221 169.217 202.582 169.856C201.943 170.495 201.076 170.856 200.172 170.859H184.055C183.16 170.844 182.307 170.477 181.68 169.839C181.052 169.201 180.7 168.342 180.7 167.447C180.7 166.551 181.052 165.692 181.68 165.054C182.307 164.416 183.16 164.049 184.055 164.034H200.172C201.076 164.037 201.943 164.397 202.582 165.036C203.222 165.676 203.582 166.542 203.585 167.446Z" fill="#2B478B"/>
<path d="M195.271 167.446C195.268 168.35 194.908 169.216 194.269 169.856C193.629 170.495 192.763 170.856 191.859 170.859H184.059C183.164 170.844 182.311 170.477 181.684 169.839C181.056 169.201 180.705 168.342 180.705 167.447C180.705 166.551 181.056 165.692 181.684 165.054C182.311 164.416 183.164 164.049 184.059 164.034H191.859C192.763 164.037 193.63 164.397 194.269 165.036C194.908 165.676 195.268 166.542 195.271 167.446Z" fill="#699FF0"/>
<path opacity="0.4" d="M200.39 164.791H185.125C184.828 164.791 184.587 165.032 184.587 165.329C184.587 165.626 184.828 165.867 185.125 165.867H200.39C200.687 165.867 200.928 165.626 200.928 165.329C200.928 165.032 200.687 164.791 200.39 164.791Z" fill="#E9F3FE"/>
<path d="M189.831 157.779C190.258 158.638 190.327 159.63 190.025 160.54C189.722 161.449 189.073 162.203 188.217 162.635L172.94 170.29C172.083 170.715 171.092 170.782 170.185 170.479C169.278 170.175 168.528 169.524 168.1 168.669C167.671 167.814 167.599 166.824 167.898 165.915C168.198 165.007 168.845 164.254 169.698 163.821L184.974 156.166C185.832 155.739 186.825 155.668 187.735 155.971C188.645 156.273 189.399 156.923 189.831 157.779Z" fill="#EF7E29"/>
<path d="M181.951 161.728C182.378 162.586 182.448 163.579 182.146 164.489C181.844 165.399 181.194 166.152 180.338 166.584L172.938 170.291C172.081 170.716 171.09 170.783 170.183 170.48C169.276 170.176 168.526 169.525 168.098 168.67C167.669 167.815 167.597 166.825 167.896 165.916C168.196 165.008 168.843 164.255 169.696 163.822L177.096 160.115C177.954 159.688 178.947 159.618 179.856 159.92C180.766 160.222 181.519 160.872 181.951 161.728Z" fill="#F99746"/>
<path opacity="0.5" d="M171.074 164.03L185.542 156.78C185.678 156.712 185.835 156.701 185.978 156.748C186.122 156.796 186.241 156.899 186.309 157.034C186.342 157.101 186.362 157.174 186.368 157.249C186.373 157.324 186.364 157.399 186.34 157.47C186.316 157.541 186.279 157.606 186.23 157.663C186.181 157.72 186.121 157.766 186.054 157.799L171.586 165.05C171.45 165.118 171.294 165.129 171.15 165.082C171.007 165.034 170.888 164.932 170.82 164.796V164.796C170.752 164.661 170.741 164.504 170.788 164.361C170.836 164.217 170.939 164.098 171.074 164.03V164.03Z" fill="#FFE2CC"/>
</svg>
