<svg width="237" height="201" viewBox="0 0 237 201" fill="none" xmlns="http://www.w3.org/2000/svg">
<path d="M210.78 183.019C210.78 183.019 221.158 152.065 211.672 139.196C202.186 126.326 194.662 120.647 199.415 110.267C204.169 99.8867 202.05 82.9251 189.491 77.8279C176.931 72.7307 182.76 53.553 168.849 42.5391C154.938 31.5252 143.599 36.509 136.931 22.9233C131.076 10.9868 118.923 -0.258996 106.766 11.3012C104.099 13.837 102.31 17.1406 101.381 20.7174C100.41 24.4592 97.0134 30.9325 85.5444 37.4058C67.8974 47.3683 74.8946 53.7901 67.8087 65.2936C60.7227 76.8023 37.9987 71.0093 29.4726 93.0835C20.9413 115.163 39.3397 122.574 37.8474 135.768C36.355 148.962 27.5159 156.162 32.9008 182.653" stroke="#E5C2A5" stroke-width="1.07273" stroke-miterlimit="10"/>
<path d="M215.793 183.354C215.793 183.354 227.935 149.107 217.698 136.103C207.46 123.095 199.346 117.358 204.476 106.87C209.605 96.382 207.319 79.2401 193.768 74.0913C180.212 68.9426 186.505 49.5587 171.498 38.4314C156.492 27.3041 146.447 28.3658 139.251 14.641C132.933 2.58597 117.634 -4.8099 104.511 6.87402C101.635 9.43551 99.7048 12.7752 98.703 16.3881C97.6542 20.166 93.9912 26.7114 81.6143 33.2517C62.5741 43.3173 70.1244 49.8061 62.475 61.4333C54.8255 73.0605 33.6877 69.0714 24.2328 88.5481C13.6926 110.267 30.0664 118.997 28.4541 132.331C26.8418 145.664 22.7979 156.25 28.6054 183.019" stroke="#E5C2A5" stroke-width="1.07273" stroke-miterlimit="10"/>
<path d="M108.424 18.2075C105.821 20.7432 104.073 24.0469 103.165 27.6237C102.215 31.3654 98.8964 37.8387 87.6935 44.3121C70.4587 54.2746 77.2942 60.6963 70.37 72.1999C63.4458 83.7086 43.7273 74.8799 35.3995 96.9541C27.0717 119.028 46.2684 128.991 44.8126 142.19C43.3568 155.384 31.893 156.162 37.1527 182.653H210.894C210.894 182.653 220.161 158.971 210.894 146.097C201.627 133.227 194.28 127.543 198.924 117.168C203.568 106.788 201.502 89.8262 189.229 84.729C176.957 79.6318 182.655 60.4541 169.067 49.4402C155.48 38.4263 144.407 43.4101 137.89 29.8244C132.171 17.8931 120.306 6.64727 108.424 18.2075Z" fill="#F7E4D2"/>
<path d="M109.106 24.4128C106.617 26.8351 104.942 29.9996 104.076 33.4167C103.168 36.9935 99.9958 43.1885 89.2782 49.3835C72.7948 58.9131 79.3276 65.0565 72.706 76.0601C66.0845 87.0637 47.2217 78.6216 39.2539 99.7372C31.2914 120.853 49.6533 130.382 48.2601 143.004C46.8669 155.626 35.904 156.368 40.9341 181.705H207.115C207.115 181.705 215.98 159.054 207.115 146.741C198.249 134.428 191.226 128.996 195.666 119.07C200.107 109.143 198.129 92.9134 186.394 88.043C174.659 83.1674 180.107 64.8246 167.114 54.29C154.121 43.7554 143.524 48.5176 137.294 35.5246C131.82 24.1087 120.471 13.3525 109.106 24.4128Z" stroke="white" stroke-width="1.07273" stroke-miterlimit="10"/>
<path d="M173.236 86.971C172.214 86.3834 170.868 86.806 170.648 86.4813C170.429 86.1515 171.749 85.1362 172.177 84.0642C172.605 82.9973 172.125 80.2297 170.382 81.5336C168.639 82.8375 168.561 85.0589 168.561 85.0589C168.561 85.0589 168.535 85.1826 168.509 85.3836C167.919 84.0075 168.238 82.116 168.238 82.0902C168.253 81.9871 168.185 81.8892 168.081 81.8686C167.972 81.8531 167.878 81.9201 167.862 82.0232C167.846 82.1057 167.596 83.6209 167.972 84.9919C167.053 83.9508 165.723 83.3169 165.65 83.2808C165.556 83.2344 165.441 83.2756 165.394 83.3735C165.347 83.4663 165.389 83.5797 165.488 83.6261C165.509 83.6364 167.408 84.5383 168.149 85.8938C167.919 85.7289 167.758 85.6464 167.758 85.6464C167.758 85.6464 166.004 84.2549 163.87 84.7084C161.736 85.1619 163.542 87.3266 164.637 87.708C165.733 88.0894 167.377 87.7647 167.486 88.1409C167.596 88.5223 166.391 89.249 166.171 90.3983C165.952 91.5476 167.319 92.7434 168.086 92.7949C168.78 92.8413 169.834 90.5375 169.819 88.8161C171.165 89.8623 173.424 90.4962 173.821 89.9705C174.28 89.3624 174.259 87.5585 173.236 86.971Z" fill="#DBA291"/>
<path d="M59.8237 104.809C59.6306 103.865 58.634 103.278 58.7227 102.964C58.8062 102.649 60.1628 102.902 61.0603 102.577C61.9578 102.252 63.4188 100.459 61.6604 100.108C59.9019 99.7578 58.4774 100.917 58.4774 100.917C58.4774 100.917 58.3835 100.969 58.2478 101.062C58.7801 99.9537 60.1315 99.1136 60.1472 99.1084C60.2202 99.062 60.2463 98.9693 60.1993 98.892C60.1524 98.8147 60.0585 98.794 59.9802 98.8404C59.9228 98.8765 58.8375 99.5465 58.1904 100.521C58.3418 99.3971 58.0078 98.2374 57.9922 98.1756C57.9661 98.0931 57.8826 98.0467 57.7991 98.0673C57.7156 98.0931 57.6687 98.1756 57.6895 98.258C57.6947 98.2735 58.1644 99.9227 57.7261 101.113C57.7052 100.887 57.6687 100.742 57.6687 100.742C57.6687 100.742 57.5799 98.9177 56.1346 97.8663C54.6892 96.8149 54.324 99.093 54.684 99.964C55.044 100.835 56.1398 101.66 55.9624 101.933C55.785 102.206 54.6788 101.871 53.8387 102.361C53.0038 102.855 53.0038 104.334 53.39 104.834C53.7396 105.283 55.7432 104.67 56.8129 103.721C56.8912 105.108 57.726 106.829 58.2739 106.783C58.9053 106.747 60.0167 105.752 59.8237 104.809Z" fill="#DBA291"/>
<path d="M118.49 38.5706C118.297 37.6274 117.301 37.0399 117.389 36.7255C117.473 36.4111 118.829 36.6636 119.727 36.339C120.624 36.0143 122.085 34.2207 120.327 33.8702C118.569 33.5198 117.144 34.6794 117.144 34.6794C117.144 34.6794 117.05 34.7309 116.914 34.8237C117.447 33.7156 118.798 32.8755 118.814 32.8704C118.887 32.824 118.913 32.7312 118.866 32.6539C118.819 32.5766 118.725 32.556 118.652 32.6024C118.595 32.6384 117.509 33.3084 116.862 34.2825C117.014 33.159 116.68 31.9994 116.664 31.9375C116.638 31.855 116.554 31.8087 116.471 31.8293C116.387 31.855 116.341 31.9375 116.361 32.02C116.367 32.0354 116.836 33.6847 116.398 34.8752C116.377 34.6485 116.341 34.5042 116.341 34.5042C116.341 34.5042 116.252 32.6797 114.806 31.6283C113.361 30.5769 112.996 32.8549 113.356 33.7259C113.716 34.5969 114.812 35.4216 114.634 35.6947C114.457 35.9679 113.351 35.6329 112.511 36.1225C111.676 36.6173 111.676 38.0964 112.062 38.5964C112.411 39.0448 114.415 38.4314 115.485 37.4831C115.563 38.8695 116.403 40.5909 116.946 40.5445C117.572 40.5136 118.683 39.5189 118.49 38.5706Z" fill="#DBA291"/>
<path d="M91.8561 64.1649C91.6735 64.4123 91.3186 64.4639 91.0734 64.2783C90.8229 64.0979 90.7708 63.7475 90.9586 63.5001C91.1412 63.2527 91.496 63.2011 91.7413 63.3867C91.9917 63.5722 92.0439 63.9175 91.8561 64.1649Z" fill="white"/>
<path d="M93.3053 61.7993C93.1227 62.0467 92.7679 62.0982 92.5226 61.9126C92.2722 61.7323 92.22 61.3818 92.4078 61.1344C92.5904 60.887 92.9453 60.8355 93.1905 61.021C93.4357 61.2066 93.4879 61.557 93.3053 61.7993Z" fill="white"/>
<path d="M94.9869 65.5256C94.8043 65.7729 94.4495 65.8245 94.2043 65.6389C93.9538 65.4586 93.9016 65.1081 94.0895 64.8607C94.2721 64.6133 94.6269 64.5618 94.8721 64.7473C95.1226 64.9329 95.1748 65.2833 94.9869 65.5256Z" fill="white"/>
<path d="M167.378 70.6588C167.195 70.9062 166.84 70.9577 166.595 70.7722C166.344 70.5918 166.292 70.2414 166.48 69.994C166.663 69.7466 167.018 69.695 167.263 69.8806C167.508 70.0661 167.56 70.4166 167.378 70.6588Z" fill="white"/>
<path d="M168.823 68.2983C168.64 68.5457 168.285 68.5973 168.04 68.4117C167.79 68.2313 167.738 67.8809 167.925 67.6335C168.108 67.3861 168.463 67.3346 168.708 67.5201C168.953 67.7057 169.006 68.051 168.823 68.2983Z" fill="white"/>
<path d="M170.505 72.0246C170.322 72.272 169.967 72.3236 169.722 72.138C169.471 71.9576 169.419 71.6072 169.607 71.3598C169.79 71.1124 170.144 71.0609 170.39 71.2464C170.64 71.4319 170.692 71.7773 170.505 72.0246Z" fill="white"/>
<path d="M140.739 48.1723C140.556 48.4197 140.201 48.4713 139.956 48.2857C139.706 48.1053 139.654 47.7549 139.841 47.5075C140.024 47.2601 140.379 47.2086 140.624 47.3941C140.869 47.5745 140.922 47.925 140.739 48.1723Z" fill="white"/>
<path d="M142.184 45.8067C142.002 46.0541 141.647 46.1056 141.402 45.9201C141.151 45.7397 141.099 45.3892 141.287 45.1418C141.469 44.8944 141.824 44.8429 142.069 45.0284C142.32 45.214 142.372 45.5593 142.184 45.8067Z" fill="white"/>
<path d="M143.87 49.5329C143.687 49.7803 143.332 49.8319 143.087 49.6463C142.837 49.4659 142.784 49.1155 142.972 48.8681C143.155 48.6207 143.51 48.5692 143.755 48.7547C144 48.9402 144.052 49.2907 143.87 49.5329Z" fill="white"/>
<path d="M147.998 80.4461C147.758 80.2503 147.727 79.8998 147.925 79.6679C148.123 79.4308 148.478 79.3999 148.713 79.5957C148.953 79.7916 148.984 80.1421 148.786 80.374C148.588 80.6111 148.233 80.642 147.998 80.4461Z" fill="white"/>
<path d="M150.309 81.9975C150.069 81.8016 150.037 81.4511 150.236 81.2192C150.434 80.9821 150.789 80.9512 151.024 81.1471C151.264 81.3429 151.295 81.6934 151.097 81.9253C150.898 82.1624 150.543 82.1933 150.309 81.9975Z" fill="white"/>
<path d="M146.453 83.4663C146.213 83.2705 146.182 82.92 146.38 82.6881C146.578 82.451 146.933 82.4201 147.168 82.6159C147.408 82.8118 147.439 83.1623 147.241 83.3942C147.048 83.6261 146.693 83.6622 146.453 83.4663Z" fill="white"/>
<path d="M67.2129 92.094C67.2129 92.4857 66.8946 92.8001 66.4981 92.8001C66.1067 92.8001 65.7832 92.4857 65.7832 92.094C65.7832 91.7023 66.1015 91.3879 66.4981 91.3879C66.8946 91.3879 67.2129 91.7023 67.2129 92.094Z" fill="white"/>
<path d="M162.803 55.7486C162.803 56.233 162.407 56.6247 161.916 56.6247C161.426 56.6247 161.029 56.233 161.029 55.7486C161.029 55.2641 161.426 54.8724 161.916 54.8724C162.407 54.8724 162.803 55.2641 162.803 55.7486Z" fill="white"/>
<path d="M101.583 83.0386C101.583 83.523 101.186 83.9147 100.696 83.9147C100.205 83.9147 99.8086 83.523 99.8086 83.0386C99.8086 82.5541 100.205 82.1624 100.696 82.1624C101.186 82.1624 101.583 82.5541 101.583 83.0386Z" fill="white"/>
<path d="M118.521 25.8611C118.521 26.1549 118.281 26.3971 117.978 26.3971C117.681 26.3971 117.436 26.16 117.436 25.8611C117.436 25.5673 117.676 25.3251 117.978 25.3251C118.276 25.3251 118.521 25.5622 118.521 25.8611Z" fill="white"/>
<path d="M159.861 104.309C159.861 104.747 159.501 105.102 159.057 105.102C158.614 105.102 158.254 104.747 158.254 104.309C158.254 103.871 158.614 103.515 159.057 103.515C159.501 103.515 159.861 103.871 159.861 104.309Z" fill="white"/>
<path d="M107.168 43.9101C107.168 44.3482 106.808 44.7038 106.364 44.7038C105.921 44.7038 105.561 44.3482 105.561 43.9101C105.561 43.472 105.921 43.1164 106.364 43.1164C106.808 43.1164 107.168 43.472 107.168 43.9101Z" fill="white"/>
<path d="M18.5976 176.896H233.091C234.672 176.896 235.105 179.046 233.644 179.638C219.3 185.462 181.251 198.646 127.929 200.156C78.3428 201.558 36.9177 188.812 17.7158 181.617C15.1538 180.654 15.853 176.896 18.5976 176.896Z" fill="#F7E4D2"/>
<path d="M90.0888 132.521C89.614 124.151 80.7331 122.471 79.846 120.389C78.959 118.307 77.5241 114.044 71.1321 112.04C64.7401 110.03 60.7589 113.746 57.1794 111.468C53.5947 109.195 50.4065 107.313 46.1382 110.174C41.87 113.034 38.8436 111.983 32.676 111.292C26.5136 110.602 21.614 116.477 21.614 116.477C19.2033 118.662 21.5305 121.43 27.2128 122.786C35.238 124.703 32.9473 129.852 37.226 131.939C41.5047 134.026 46.5922 131.959 49.8117 134.485C53.0363 137.01 52.7911 141.592 56.7828 142.664C60.7745 143.736 65.4811 141.123 67.7665 142.669C70.052 144.221 71.2938 148.808 74.0176 150.395C76.7414 151.982 84.4535 152.374 84.4535 152.374L86.3162 151.931C86.3215 151.921 90.5636 140.886 90.0888 132.521Z" fill="#B9BC7E"/>
<path d="M85.0588 149.292C85.0588 149.292 83.0447 132.207 71.153 124.43C59.2561 116.647 39.7515 116.462 33.8396 116.142C27.9277 115.817 27.9277 115.817 27.9277 115.817C27.9277 115.817 51.7997 114.318 63.634 119.075C79.8878 125.6 84.5161 136.263 85.0588 149.292Z" fill="#FFFBF4"/>
<path d="M76.3276 131.305C76.3276 131.305 66.3823 122.528 64.8847 115.225C63.3872 107.922 67.7807 105.19 64.8221 101.495C61.8635 97.7942 63.1837 91.1611 66.3718 89.4758C69.56 87.7904 70.8645 84.1157 71.1723 79.034C71.4854 73.9522 75.404 72.0607 76.6198 73.4729C79.9645 77.3538 78.3 81.3223 83.4188 83.791C88.5376 86.2597 90.3482 91.3724 89.0646 95.5626C87.781 99.7475 93.4215 101.088 97.1576 107.478C100.894 113.869 98.1855 119.214 96.6045 123.224C95.0234 127.233 99.4117 132.063 97.815 136.686C96.2184 141.309 85.2137 148.916 85.2137 148.916C85.2137 148.916 79.8915 146.963 76.3276 131.305Z" fill="#CFC293"/>
<path d="M76.2305 80.5492C76.2305 80.5492 79.5125 93.0577 83.4677 109.184C87.4229 125.311 88.0908 145.2 88.0908 145.2C88.0908 145.2 90.3815 130.764 87.4125 117.219C84.4435 103.675 76.4809 82.6314 76.2305 80.5492Z" fill="#FFFBF4"/>
<path d="M77.6642 137.835C76.3075 130.965 83.1482 127.8 83.4352 125.935C83.7222 124.069 83.9935 120.327 88.7523 117.405C93.511 114.483 97.5027 116.678 99.9343 114.111C102.361 111.545 104.552 109.375 108.606 110.823C112.661 112.272 114.889 110.808 119.736 108.999C124.584 107.19 129.77 110.952 129.77 110.952C132.176 112.23 130.871 114.946 126.551 117.194C120.451 120.373 123.378 124.079 120.347 126.635C117.315 129.192 112.77 128.553 110.683 131.248C108.596 133.949 109.749 137.608 106.738 139.288C103.733 140.968 99.376 139.804 97.8471 141.52C96.3183 143.236 96.2661 147.205 94.3929 149.045C92.5144 150.879 86.352 152.766 86.352 152.766L84.7501 152.781C84.7501 152.781 79.0208 144.705 77.6642 137.835Z" fill="#B9BC7E"/>
<path d="M85.2249 150.39C85.2249 150.39 83.2995 136.15 91.3143 127.434C99.329 118.719 115.082 114.611 119.804 113.153C124.526 111.694 124.526 111.694 124.526 111.694C124.526 111.694 104.886 115.323 96.2922 121.574C84.484 130.161 82.9551 139.737 85.2249 150.39Z" fill="#FFFBF4"/>
<path d="M80.5237 150.369C80.5237 150.369 67.4215 146.823 60.5391 149.931C53.6566 153.039 52.3887 157.312 52.3887 157.312C52.3887 157.312 55.3368 158.332 60.9408 157.554C66.5449 156.781 67.385 153.498 71.2932 155.059C75.2014 156.621 76.485 158.121 79.7723 157.188C83.0596 156.255 84.7502 152.776 84.7502 152.776L80.5237 150.369Z" fill="#9A9B82"/>
<path d="M86.974 150.833C86.974 150.833 90.4961 146.823 95.6097 147.086C100.723 147.354 101.621 149.112 104.12 149.225C106.625 149.338 108.007 148.555 111.425 149.71C114.806 150.849 116.81 152.415 116.81 152.415C116.81 152.415 113.335 157.384 107.924 156.095C102.513 154.807 98.4221 153.977 96.648 155.771C94.8792 157.559 83.7598 154.297 83.7598 154.297L86.974 150.833Z" fill="#9A9B82"/>
<path d="M162.829 134.902C162.829 134.902 170.196 139.572 185.344 142.18C200.497 144.788 206.889 140.53 207.724 138.541C208.559 136.552 206.054 135.454 196.187 133.665C186.32 131.882 183.679 129.681 188.543 129.135C193.406 128.584 200.22 132.841 206.054 132.841C211.888 132.841 215.921 129.774 216.062 127.671C216.203 125.569 198.551 125.017 196.322 121.997C194.1 118.977 207.765 122.136 213.651 122.956C219.537 123.775 221.901 119.25 221.483 117.74C221.066 116.23 206.748 115.74 205.36 113.653C203.972 111.565 211.334 112.308 217.732 113.653C224.124 114.998 227.322 110.328 226.487 109.231C225.652 108.133 213.839 107.308 212.587 105.252C211.334 103.19 218.979 103.742 222.871 104.566C226.764 105.391 230.933 101.685 229.545 100.448C228.157 99.2115 219.396 98.7992 219.12 97.0159C218.843 95.2327 230.787 96.1913 229.816 93.5834C228.846 90.9755 225.512 88.5326 220.372 88.4501C215.232 88.3677 210.505 93.7226 207.724 92.0733C204.943 90.4241 214.533 86.4453 212.034 84.9352C209.534 83.4251 203.972 84.2497 202.026 86.8576C200.079 89.4654 199.939 93.8617 197.857 93.7226C195.769 93.5834 199.385 87.409 197.58 86.0329C195.775 84.662 191.047 87.543 190.077 90.2901C189.106 93.0371 190.218 98.526 188.271 98.8043C186.325 99.0775 188.741 90.0169 187.045 89.1923C185.349 88.3677 179.933 93.7226 179.792 97.0159C179.651 100.309 181.462 105.499 178.54 106.339C175.623 107.174 176.176 96.8819 173.953 95.9181C171.73 94.9595 167.28 101.252 167.979 106.412C168.673 111.571 170.202 115.786 168.12 115.807C166.032 115.828 164.504 109.236 162.839 108.138C161.169 107.04 159.667 109.787 159.239 116.786C158.8 123.78 162.14 133.181 162.829 134.902Z" fill="#D1C795"/>
<path d="M160.448 146.179C160.448 146.179 168.254 126.398 177.338 115.436C186.423 104.474 203.95 97.8663 212.392 97.3922C212.392 97.3922 192.413 101.062 179.566 116.75C166.72 132.439 161.878 153.894 161.878 153.894L158.371 153.214L160.448 146.179Z" fill="#FFFBF4"/>
<path d="M18.9834 175.232C18.9834 175.232 20.1 171.129 25.5684 169.227C31.042 167.326 31.8508 172.433 35.2998 172.232C38.7436 172.031 40.3455 178.638 40.3455 178.638H17.7676L18.9834 175.232Z" fill="#9A9B82"/>
<path d="M32.2169 178.401C31.8986 176.845 31.4133 175.093 30.808 173.217C31.7995 171.315 34.6067 165.279 34.5389 157.971C34.4554 149.101 28.2356 139.804 28.2356 139.804C28.2356 139.804 26.6024 154.977 29.3105 168.934C27.4373 163.939 25.0318 158.523 22.809 153.786C23.7534 151.828 25.4597 147.612 25.444 142.613C25.4284 135.701 20.6227 128.419 20.6227 128.419C20.6227 128.419 19.3338 139.68 21.1653 150.349C19.5269 146.957 18.1076 144.174 17.2519 142.515C17.1006 140.175 16.5162 136.072 14.3612 132.047C11.0895 125.935 3.41395 121.693 3.41395 121.693C3.41395 121.693 8.25096 133.975 15.8222 142.839C16.5057 144.169 17.6589 146.432 19.0364 149.246C17.9824 147.72 16.6414 146.102 14.9508 144.628C9.70154 140.051 0.998047 138.773 0.998047 138.773C0.998047 138.773 10.8912 149.617 21.8176 155.049C22.9551 157.482 24.1239 160.069 25.2405 162.677C23.9778 160.981 22.4281 159.229 20.56 157.621C13.7872 151.802 2.61039 150.235 2.61039 150.235C2.61039 150.235 14.7108 163.331 28.3191 170.372C29.4462 173.443 30.3437 176.309 30.8237 178.675L32.2169 178.401Z" fill="#B9BC7E"/>
<path d="M210.789 174.211H217.661C217.661 174.211 220.771 168.552 228.3 164.671C235.83 160.79 236.649 156.111 236.973 153.925C237.301 151.74 234.024 152.869 229.114 155.781C224.204 158.693 222.895 165.578 220.766 165.45C218.637 165.321 219.946 157.399 224.528 154.812C229.109 152.225 232.71 145.921 233.857 141.881C235.005 137.84 225.676 140.747 221.256 145.597C216.837 150.447 217.494 162.29 214.217 163.805C210.946 165.321 216.67 155.379 210.043 151.323C207.387 149.694 206.688 154.348 207.507 160.239C208.331 166.13 212.422 168.877 210.789 174.211Z" fill="#9A9B82"/>
<path d="M199.211 177.726C199.211 177.726 211.28 179.025 220.604 179.025C229.924 179.025 233.508 178.2 233.508 178.2C233.508 178.2 231.479 174.423 225.504 173.005C219.53 171.588 218.929 175.129 216.305 173.005C213.675 170.882 208.895 169.346 204.711 170.526C200.526 171.706 199.211 177.726 199.211 177.726Z" fill="#D7CA8C"/>
<path d="M122.362 188.58C162.22 188.58 194.532 185.966 194.532 182.741C194.532 179.516 162.22 176.902 122.362 176.902C82.5046 176.902 50.1934 179.516 50.1934 182.741C50.1934 185.966 82.5046 188.58 122.362 188.58Z" fill="#E2C9B5"/>
<path d="M189.513 150.508L184.029 156.219C184.029 156.219 184.029 156.224 184.024 156.234L182.991 157.301C182.985 157.306 182.98 157.306 182.98 157.306L182.917 157.373C182.912 157.368 182.902 157.363 182.897 157.358C171.062 150.127 159.646 139.355 156.77 136.577C155.294 135.263 153.906 133.691 152.831 131.815C150.305 127.398 146.893 119.147 144.514 113.106L144.2 114.421L139.917 132.351C141.748 135.129 144.258 139.386 146.408 144.633C147.498 147.298 148.495 150.225 149.262 153.333L124.638 167.64L124.644 168.001L124.31 167.826L123.981 168.011L123.976 167.65L98.8098 154.286C99.6238 150.349 100.808 146.7 102.092 143.478C102.113 143.427 102.134 143.37 102.154 143.319C103.908 138.974 105.849 135.413 107.331 132.959L102.274 114.921L101.591 112.493L101.226 111.184C98.8202 117.085 94.385 127.604 91.2907 132.774C90.1793 134.629 88.7705 136.175 87.2573 137.459C84.3352 140.18 72.6888 150.751 60.7189 157.765L59.6231 156.585L54.2539 150.776L81.5436 125.435L90.7637 99.3919C96.0756 88.1358 100.057 87.9811 100.057 87.9811V87.9863C100.793 87.373 101.627 86.8627 102.567 86.4968C102.869 86.3783 103.177 86.2597 103.495 86.1309L103.501 86.1257C105.301 85.3939 107.315 84.461 109.334 83.2911C111.714 81.9047 114.093 80.1781 116.133 78.0444C116.431 76.0395 116.54 73.1894 116.582 71.3392C116.603 70.2362 116.603 69.4838 116.603 69.4838L122.405 70.0713L128.181 69.2621C128.181 69.2621 128.234 70.7516 128.369 72.6173C128.5 74.2975 128.688 76.2869 128.975 77.8022C129.919 78.7196 130.931 79.5545 131.98 80.3018C135.617 82.9458 139.671 84.6414 142.859 85.734C143.684 86.0175 144.435 86.4144 145.119 86.8885C145.948 87.0947 149.549 88.5172 154 98.4487L162.719 124.656L189.513 150.508Z" fill="#5E4453"/>
<path d="M131.979 80.307C131.045 81.3429 128.185 83.5643 120.087 85.4042C109.135 87.8884 103.494 86.1361 103.494 86.1361L103.499 86.1309C105.3 85.399 107.314 84.4662 109.333 83.2963C111.712 81.9098 114.092 80.1833 116.132 78.0496C116.429 76.0447 116.539 73.1946 116.581 71.3443L128.368 72.6225C128.498 74.3027 128.686 76.2921 128.973 77.8073C129.918 78.7196 130.935 79.5597 131.979 80.307Z" fill="#3F2935"/>
<path d="M138.148 118.987C134.303 120.667 127.587 117.41 121.884 119.229C116.181 121.049 113.353 126.264 112.247 132.934C111.14 139.598 113.963 149.292 113.963 149.292C113.963 149.292 108.865 150.689 102.145 143.329C103.898 138.984 105.839 135.423 107.321 132.97L101.581 112.503L101.216 111.194C101.216 111.194 99.8488 104.195 103.282 98.8611C103.282 98.8611 102.213 104.566 104.221 109.777C106.225 114.988 110.958 114.988 115.894 114.869C120.83 114.751 120.762 113.076 126.34 114.266C135.649 116.245 139.286 115.359 141.457 112.339C142.897 110.339 141.989 117.307 138.148 118.987Z" fill="#3F2935"/>
<path d="M111.665 63.2939C111.665 63.2939 110.345 60.6293 108.602 60.7376C106.865 60.8406 106.28 64.5102 108.733 67.3655C111.185 70.2208 113.408 68.9993 113.408 68.9993L111.665 63.2939Z" fill="#EA8D78"/>
<path d="M133.481 62.8816C133.481 62.8816 134.697 60.1706 136.44 60.2067C138.183 60.2479 138.908 63.8866 136.57 66.8346C134.233 69.7827 131.963 68.6437 131.963 68.6437L133.481 62.8816Z" fill="#EA8D78"/>
<path d="M134.266 57.3824C134.475 68.0252 128.052 77.5342 122.938 77.6321C116.734 77.7506 110.733 67.7572 110.54 57.8308C110.399 50.4916 114.856 44.4512 122.286 44.3121C129.721 44.1729 134.12 50.0432 134.266 57.3824Z" fill="#FFA488"/>
<path d="M113.199 58.3668C113.199 58.3668 114.942 57.8772 116.831 57.738C119.2 57.5679 120.071 57.8102 120.071 57.8102C120.071 57.8102 119.617 56.5011 117.624 56.5371C115.631 56.5732 113.199 58.3668 113.199 58.3668Z" fill="#2F2A00"/>
<path d="M119.952 61.2375C119.952 61.2375 118.554 59.3821 116.759 59.3615C114.964 59.3408 113.367 61.3612 113.367 61.3612C113.367 61.3612 113.858 61.892 116.409 62.0003C119.023 62.1188 119.952 61.2375 119.952 61.2375Z" fill="#EA8D78"/>
<path d="M116.712 61.856C115.022 61.8714 113.644 61.454 113.409 61.3767L113.383 61.3663C113.383 61.3663 113.378 61.3663 113.378 61.3715L113.368 61.3663L113.373 61.3715C113.075 61.5622 112.465 61.6137 112.465 61.6137C113.096 61.8096 113.592 61.7426 113.816 61.6962C114.307 62.026 115.168 62.4538 116.717 62.4384C118.94 62.4126 119.947 61.2478 119.947 61.2478C119.947 61.2478 118.57 61.8405 116.712 61.856Z" fill="#2F2A00"/>
<path d="M131.511 58.0163C131.511 58.0163 129.747 57.5937 127.858 57.5267C125.489 57.4442 124.623 57.7225 124.623 57.7225C124.623 57.7225 125.025 56.398 127.018 56.3567C129.011 56.3207 131.511 58.0163 131.511 58.0163Z" fill="#2F2A00"/>
<path d="M124.877 61.1447C124.877 61.1447 126.202 59.2378 127.997 59.1502C129.792 59.0625 131.462 61.021 131.462 61.021C131.462 61.021 130.992 61.5725 128.446 61.7787C125.837 61.99 124.877 61.1447 124.877 61.1447Z" fill="#EA8D78"/>
<path d="M132.369 61.2323C132.369 61.2323 131.759 61.2066 131.451 61.0262L131.456 61.021C131.456 61.021 131.451 61.021 131.446 61.0262C131.446 61.0262 131.44 61.0262 131.44 61.021L131.414 61.0365C131.185 61.119 129.823 61.5931 128.132 61.6395C126.275 61.691 124.871 61.1447 124.871 61.1447C124.871 61.1447 125.92 62.2734 128.148 62.2116C129.698 62.1703 130.543 61.7065 131.018 61.3612C131.247 61.4024 131.748 61.4488 132.369 61.2323Z" fill="#2F2A00"/>
<path d="M120.877 67.618C120.877 67.618 121.832 68.1901 122.615 68.2314C123.397 68.2726 124.326 67.5562 124.326 67.5562C124.326 67.5562 123.601 67.4789 122.729 67.4634C121.853 67.4377 120.877 67.618 120.877 67.618Z" fill="#EA8D78"/>
<path d="M123.027 70.9165C124.958 70.8032 126.179 70.2002 126.179 70.2002C126.179 70.2002 124.118 69.9837 123.585 70.0816C123.257 70.1435 123.027 70.4527 122.902 70.6795C122.766 70.4578 122.526 70.1589 122.197 70.1074C121.665 70.0249 119.609 70.3238 119.609 70.3238C119.609 70.3238 120.856 70.8753 122.787 70.9165L122.782 70.9269C122.824 70.9269 122.86 70.9217 122.902 70.9217C122.944 70.9217 122.98 70.9217 123.022 70.9217C123.032 70.9268 123.027 70.9165 123.027 70.9165Z" fill="#743F3D"/>
<path d="M120.203 71.1382C120.203 71.1382 120.61 71.7103 122.113 72.071C123.616 72.4318 124.706 71.8185 125.609 71.2516C125.609 71.2516 124.795 72.7874 123.099 72.9936C121.398 73.1997 120.261 71.365 120.203 71.1382Z" fill="#EA8D78"/>
<path d="M127.057 50.6204C127.057 50.6204 124.474 49.2701 120.994 49.4454C117.514 49.6206 114.811 52.3058 113.804 54.2076C112.797 56.1094 111.774 56.6505 111.774 56.6505C111.774 56.6505 112.092 61.2581 111.2 63.2218C111.2 63.2218 109.995 61.2323 108.607 60.7376C108.607 60.7376 107.417 56.532 108.147 52.0532C108.878 47.5796 113.684 42.7556 120.143 42.0959C126.608 41.4362 129.88 44.544 129.88 44.544C129.88 44.544 134.174 46.9354 135.448 50.9967C136.726 55.058 135.63 60.3304 135.63 60.3304C135.63 60.3304 134.524 60.8819 133.814 62.7888C133.814 62.7888 131.748 59.7068 132.28 56.2537C132.275 56.2588 131.425 50.7699 127.057 50.6204Z" fill="#743F3D"/>
<path d="M130.9 46.8375C129.605 47.2446 121.241 42.7711 121.241 42.7711C121.241 42.7711 121.199 42.0495 121.434 41.1115C121.763 39.823 122.613 38.1222 124.842 37.3285C125.222 37.1945 125.603 37.0966 125.969 37.0296C129.318 36.4678 132.1 38.7355 132.898 41.0445C133.78 43.6163 132.199 46.4355 130.9 46.8375Z" fill="#743F3D"/>
<path d="M120.073 57.8101C120.073 57.8101 120.882 59.3099 121.341 61.588C121.795 63.866 121.42 65.4998 121.42 65.4998C121.42 65.4998 120.971 59.0574 117.652 57.6916C117.652 57.6916 119.473 57.6504 120.073 57.8101Z" fill="#EA8D78"/>
<path d="M127.058 50.6204C127.058 50.6204 122.931 49.2547 119.414 50.7648C115.897 52.2748 115.98 54.4756 113.544 54.6663L113.23 54.089C113.23 54.089 113.883 54.2127 115.37 53.0531C116.857 51.8935 119.988 47.7291 127.058 50.6204Z" fill="#743F3D"/>
<path d="M110.263 172.346C110.263 172.346 106.887 172.768 105.708 172.995C105.708 172.995 100.991 172.325 99.0083 172.413C97.0255 172.495 95.9454 174.825 94.8235 177.355C93.7069 179.886 89.3656 182.576 87.8367 184.153C86.3027 185.725 86.2609 188.034 86.2975 188.524C86.3288 189.013 85.3321 190.405 85.8591 191.544C86.3862 192.688 86.9549 192.307 87.4402 192.173C87.9307 192.044 88.2698 191.235 88.2698 191.235C88.2698 191.235 89.5169 191.296 90.0491 191.07C90.5814 190.838 90.1222 190.719 91.3119 190.642C92.4963 190.565 93.1329 190.42 93.8582 190.127C94.5835 189.833 99.551 184.741 102.243 183.385C104.931 182.03 109.079 182.344 109.079 182.344L110.263 172.346Z" fill="#FFA488"/>
<path d="M186.506 175.809C178.486 180.241 165.201 181.983 149.829 182.906C147.956 183.019 146.057 183.122 144.126 183.21L144.392 189.797C144.392 189.797 143.224 189.786 141.157 189.755C134.817 189.683 120.03 189.493 104.616 189.189C79.6849 188.704 59.8568 182.591 54.1275 177.144C51.3672 174.515 49.7288 170.32 50.3132 166.403C50.7776 163.3 52.6404 160.378 56.439 158.528C57.3417 158.085 58.9228 157.528 61.0621 156.925C67.7619 155.028 79.8884 152.74 93.2671 152.611C93.4811 152.596 93.6793 152.585 93.8724 152.565C95.6361 149.952 102.153 143.319 102.153 143.319C102.153 143.319 106.735 147.127 113.001 149.39C116.315 150.586 120.098 151.354 123.928 150.895C134.995 149.576 146.114 143.484 146.114 143.484C148.363 145.695 150.518 150.89 150.518 150.89C161.596 150.993 179.942 154.312 183.892 156.265C183.918 156.281 183.944 156.301 183.965 156.312C186.647 157.023 188.88 158.564 190.409 160.522C193.947 165.058 193.712 171.835 186.506 175.809Z" fill="#E9835B"/>
<path d="M54.2529 150.782C54.2529 150.782 51.4665 150.359 50.3447 150.385C49.228 150.405 46.9739 151.111 45.6955 151.323C44.4223 151.534 43.7805 151.58 43.8171 151.771C43.8536 151.962 44.2762 152.426 45.6851 152.621C47.0939 152.817 48.2993 152.446 49.0506 152.431C49.802 152.415 49.969 152.853 49.969 152.853C49.969 152.853 49.2072 154.858 46.7547 155.281C44.3023 155.709 43.337 155.348 43.17 155.003C43.0031 154.657 44.0466 152.302 43.7701 151.426C43.4988 150.55 43.0813 150.617 42.5648 152.018C42.0482 153.415 41.1455 154.76 41.1664 155.673C41.182 156.59 42.763 157.379 42.763 157.379C42.763 157.379 39.721 157.028 38.8078 157.863C37.8999 158.703 39.721 158.729 41.1611 158.858C42.6013 158.987 43.9527 159.404 44.8137 159.296C44.8137 159.296 40.9472 159.244 40.1906 159.858C39.434 160.471 40.9785 160.883 42.4447 160.857C43.9162 160.832 45.899 161.141 46.2225 161.131C46.2225 161.131 42.7787 161.543 42.8935 162.393C43.0083 163.244 43.6344 162.661 45.5233 162.847C47.4122 163.032 48.9776 163.001 50.7569 162.465C52.5362 161.924 59.6065 156.595 59.6065 156.595L54.2529 150.782Z" fill="#FFA488"/>
<path d="M173.378 159.115C158.643 161.182 117.4 171.609 117.4 171.609C117.4 171.609 95.6728 161.785 81.1043 159.481C67.2716 157.296 59.1995 158.384 61.0519 156.925C67.7517 155.028 79.8781 152.74 93.2569 152.611C93.4708 152.596 93.6691 152.585 93.8622 152.565C95.6258 149.952 102.143 143.319 102.143 143.319C102.143 143.319 106.724 147.127 112.991 149.39C113.497 151.787 122.185 163.599 128.447 161.656C134.708 159.724 142.926 157.049 146.855 158.384C150.784 159.718 158.763 158.987 164.262 157.765C169.767 156.554 173.378 159.115 173.378 159.115Z" fill="#CC6A4C"/>
<path d="M184.027 156.219C184.027 156.219 184.027 156.224 184.022 156.234C183.97 156.343 183.709 156.868 182.989 157.301C182.983 157.306 182.978 157.306 182.978 157.306C182.952 157.322 182.921 157.343 182.895 157.358C171.061 150.127 159.644 139.355 156.769 136.577C155.292 135.263 153.904 133.691 152.829 131.815C150.304 127.398 146.891 119.147 144.512 113.106L145.879 101.85C145.879 101.85 150.992 123.626 156.398 130.645C161.793 137.66 184.027 156.219 184.027 156.219Z" fill="#3F2935"/>
<path d="M102.269 114.926L101.585 112.498L101.22 111.189C98.8142 117.09 94.379 127.61 91.2848 132.779C90.1734 134.634 88.7645 136.181 87.2513 137.464C84.3293 140.185 72.6829 150.756 60.713 157.77L59.6172 156.59C59.6172 156.59 83.2022 136.696 90.1264 128.872C97.0454 121.049 101.303 103.984 101.303 103.984L102.269 114.926Z" fill="#3F2935"/>
<path d="M186.507 175.809C178.487 180.241 165.202 181.983 149.83 182.906C143.402 181.865 138.815 179.391 138.815 179.391V178.638L117.422 171.619C117.605 171.665 121.121 170.686 121.121 170.686C130.863 172.83 154.871 179.293 167.368 176.464C183.449 172.825 184.06 166.145 187.003 162.816C188.156 161.517 189.361 160.852 190.405 160.528C193.948 165.058 193.713 171.835 186.507 175.809Z" fill="#CC6A4C"/>
<path d="M138.818 179.386C138.818 179.386 142.184 179.875 143.358 180.123C143.358 180.123 148.085 179.546 150.068 179.669C152.046 179.793 153.084 182.138 154.154 184.689C155.224 187.24 159.507 190.013 161.005 191.621C162.508 193.224 162.503 195.533 162.456 196.023C162.414 196.512 163.384 197.919 162.836 199.053C162.289 200.187 161.725 199.795 161.24 199.651C160.755 199.512 160.426 198.697 160.426 198.697C160.426 198.697 159.179 198.739 158.652 198.496C158.125 198.254 158.584 198.146 157.399 198.043C156.215 197.94 155.578 197.79 154.863 197.481C154.143 197.172 149.275 191.987 146.614 190.58C143.953 189.173 139.799 189.405 139.799 189.405L138.818 179.386Z" fill="#FFA488"/>
<path d="M189.512 150.514C189.512 150.514 192.309 150.148 193.425 150.189C194.542 150.23 196.786 150.977 198.054 151.214C199.322 151.452 199.958 151.508 199.922 151.694C199.88 151.879 199.447 152.338 198.038 152.508C196.624 152.678 195.424 152.281 194.678 152.256C193.926 152.225 193.749 152.663 193.749 152.663C193.749 152.663 194.469 154.678 196.916 155.152C199.358 155.621 200.334 155.281 200.506 154.941C200.678 154.601 199.682 152.225 199.974 151.354C200.266 150.483 200.678 150.56 201.164 151.967C201.654 153.374 202.526 154.735 202.494 155.647C202.458 156.559 200.861 157.322 200.861 157.322C200.861 157.322 203.908 157.028 204.806 157.884C205.698 158.739 203.877 158.734 202.437 158.837C200.991 158.94 199.635 159.332 198.779 159.203C198.779 159.203 202.646 159.224 203.392 159.852C204.133 160.481 202.583 160.863 201.117 160.811C199.65 160.754 197.657 161.028 197.334 161.017C197.334 161.017 200.767 161.497 200.642 162.342C200.511 163.187 199.896 162.599 198.007 162.749C196.113 162.898 194.553 162.842 192.784 162.27C191.015 161.698 184.049 156.234 184.049 156.234L189.512 150.514Z" fill="#FFA488"/>
<path d="M141.153 189.755C134.814 189.683 120.026 189.493 104.612 189.189C79.681 188.704 59.8529 182.592 54.1236 177.144C51.3633 174.515 49.7249 170.32 50.3093 166.403C52.4173 168.021 56.4925 170.841 64.2568 174.675C77.0198 180.983 100.584 184.38 119.248 186.153C137.908 187.931 139.583 187.148 139.583 187.148L141.153 189.755Z" fill="#CC6A4C"/>
<path d="M128.071 43.9719C125.551 42.7556 121.564 42.0134 121.564 42.0134C121.496 41.699 121.454 41.4001 121.434 41.1166C121.762 39.8281 122.613 38.1274 124.841 37.3337C125.222 37.1997 125.603 37.1017 125.968 37.0347C125.545 37.4625 125.112 38.2562 125.493 39.5756C126.14 41.8227 130.581 45.1831 128.071 43.9719Z" fill="#603030"/>
<path d="M125.723 48.6001C125.723 48.6001 121.079 46.8632 116.639 48.6001C112.198 50.337 111.577 55.0219 110.539 55.4857C110.539 55.4857 111.437 49.198 116.211 47.8322C120.98 46.4561 125.723 48.6001 125.723 48.6001Z" fill="#603030"/>
<path d="M129.235 45.7088L127.477 49.6206C127.482 49.6206 129.882 48.5383 129.235 45.7088Z" fill="#603030"/>
</svg>
