<svg width="15" height="9" viewBox="0 0 15 9" fill="none" xmlns="http://www.w3.org/2000/svg">
<path d="M10.1268 7.08984L14.4186 2.798C14.6819 2.53465 14.8297 2.17753 14.8296 1.80519C14.8295 1.43285 14.6815 1.07579 14.4182 0.812572C14.1548 0.549351 13.7977 0.401524 13.4254 0.401611C13.053 0.401699 12.696 0.549695 12.4327 0.813041L8.14181 5.10489C8.09835 5.14846 8.04671 5.18304 7.98986 5.20663C7.93301 5.23022 7.87207 5.24236 7.81052 5.24236C7.74897 5.24236 7.68803 5.23022 7.63118 5.20663C7.57433 5.18304 7.52269 5.14846 7.47923 5.10489L3.18831 0.81304C2.92509 0.549694 2.56803 0.401699 2.19569 0.401611C1.82335 0.401523 1.46623 0.54935 1.20288 0.812571C0.939535 1.07579 0.791538 1.43285 0.79145 1.80519C0.791363 2.17753 0.93919 2.53465 1.20241 2.798L5.49427 7.08984C6.10916 7.70305 6.94212 8.0474 7.81052 8.0474C8.67892 8.0474 9.51188 7.70305 10.1268 7.08984Z" fill="#353535"/>
</svg>
