<svg width="29" height="28" viewBox="0 0 29 28" fill="none" xmlns="http://www.w3.org/2000/svg">
<path d="M6.37211 10.891H5.16211V12.101H6.37211V10.891Z" fill="white"/>
<path d="M20.894 20.572V27.833L28.155 19.362H22.104C21.7834 19.3628 21.4761 19.4905 21.2493 19.7173C21.0226 19.944 20.8948 20.2513 20.894 20.572Z" fill="white"/>
<path d="M6.37211 15.731H5.16211V16.941H6.37211V15.731Z" fill="white"/>
<path d="M25.734 0H2.74202C2.10077 0.00184687 1.4863 0.257403 1.03286 0.710842C0.579425 1.16428 0.323868 1.77874 0.322021 2.42L0.322021 6.05H28.155V2.42C28.1532 1.77857 27.8975 1.16396 27.4438 0.71049C26.9902 0.257023 26.3755 0.00158308 25.734 0V0Z" fill="white"/>
<path d="M0.322021 25.411C0.323868 26.0523 0.579425 26.6667 1.03286 27.1202C1.4863 27.5736 2.10077 27.8292 2.74202 27.831H19.684V20.57C19.6859 19.9287 19.9414 19.3143 20.3949 18.8608C20.8483 18.4074 21.4628 18.1518 22.104 18.15H28.155V7.261H0.322021V25.411ZM10.003 10.891H24.522V12.101H10.003V10.891ZM10.003 15.731H18.474V16.941H10.003V15.731ZM10.003 20.571H17.264V21.781H10.003V20.571ZM3.95202 9.681H7.58202V13.311H3.95202V9.681ZM3.95202 14.521H7.58202V18.151H3.95202V14.521ZM3.95202 19.361H7.58202V22.991H3.95202V19.361Z" fill="white"/>
<path d="M6.37211 20.572H5.16211V21.782H6.37211V20.572Z" fill="white"/>
</svg>
