<svg width="28" height="27" viewBox="0 0 28 27" fill="none" xmlns="http://www.w3.org/2000/svg">
<path d="M22.184 9.35096H18.592V13.482H14.46V17.074H18.591V21.205H22.183V17.074H26.314V13.482H22.183L22.184 9.35096Z" fill="white"/>
<path d="M12.663 11.684H16.794V7.55196H23.98V11.683H26.064C27.1208 10.0324 27.4907 8.03416 27.0946 6.11471C26.6985 4.19525 25.5678 2.50665 23.9439 1.40933C22.3199 0.312016 20.3314 -0.10709 18.4028 0.241471C16.4741 0.590033 14.7581 1.67865 13.621 3.27496C13.0355 2.45648 12.2916 1.76401 11.4333 1.23867C10.575 0.713328 9.61993 0.365834 8.62472 0.216828C7.62952 0.0678211 6.61452 0.120341 5.64001 0.371268C4.66551 0.622195 3.75136 1.06641 2.95189 1.67753C2.15241 2.28865 1.4839 3.05421 0.986076 3.92874C0.488247 4.80327 0.17125 5.76892 0.0539141 6.76836C-0.0634224 7.76779 0.0212948 8.78061 0.303033 9.74666C0.584772 10.7127 1.05779 11.6123 1.69398 12.392L13.621 26.827L16.794 22.985V18.869H12.663V11.684Z" fill="white"/>
</svg>
