<svg width="28" height="28" viewBox="0 0 28 28" fill="none" xmlns="http://www.w3.org/2000/svg">
<path d="M14.6474 22.7034C14.6474 19.7739 16.2586 17.1374 18.6022 15.8192C16.698 15.0868 14.3544 14.6474 11.7179 14.6474C5.27305 14.6474 0 17.2839 0 20.5063V23.4358H14.6474V22.7034ZM22.7034 17.5768C19.9204 17.5768 17.5768 19.9204 17.5768 22.7034C17.5768 25.4864 19.9204 27.83 22.7034 27.83C25.4864 27.83 27.83 25.4864 27.83 22.7034C27.83 19.9204 25.4864 17.5768 22.7034 17.5768ZM17.5768 5.85895C17.5768 9.08137 14.9403 11.7179 11.7179 11.7179C8.49547 11.7179 5.85895 9.08137 5.85895 5.85895C5.85895 2.63653 8.49547 0 11.7179 0C14.9403 0 17.5768 2.63653 17.5768 5.85895Z" fill="white"/>
</svg>
