<svg width="37" height="36" viewBox="0 0 37 36" fill="none" xmlns="http://www.w3.org/2000/svg">
<circle cx="18.5726" cy="18.147" r="17.6903" fill="#D685C3"/>
<path d="M18.5721 20.3583C18.3766 20.3583 18.1892 20.2806 18.0509 20.1424C17.9127 20.0041 17.835 19.8167 17.835 19.6212C17.8624 19.1395 18.0089 18.6722 18.2615 18.2612C18.514 17.8501 18.8647 17.5082 19.282 17.2661C19.5546 17.1167 19.7729 16.8846 19.9053 16.6033C20.0378 16.322 20.0776 16.0059 20.019 15.7006C19.9623 15.4089 19.8197 15.1408 19.6096 14.9307C19.3994 14.7206 19.1314 14.578 18.8397 14.5212C18.6268 14.4819 18.4078 14.49 18.1984 14.5449C17.9889 14.5998 17.7941 14.7002 17.6279 14.8388C17.4616 14.9775 17.3279 15.1511 17.2363 15.3473C17.1447 15.5435 17.0975 15.7575 17.0979 15.974C17.0979 16.1695 17.0203 16.357 16.882 16.4952C16.7438 16.6335 16.5563 16.7111 16.3608 16.7111C16.1654 16.7111 15.9779 16.6335 15.8396 16.4952C15.7014 16.357 15.6237 16.1695 15.6237 15.974C15.6237 15.5434 15.7179 15.1179 15.8999 14.7276C16.0819 14.3373 16.3471 13.9916 16.6771 13.7148C16.9924 13.4512 17.3593 13.2565 17.7543 13.143C18.1492 13.0296 18.5636 13 18.9707 13.0561C19.3778 13.1122 19.7687 13.2528 20.1183 13.4689C20.4678 13.685 20.7684 13.9717 21.0006 14.3108C21.2328 14.6498 21.3916 15.0337 21.4668 15.4377C21.5419 15.8417 21.5318 16.257 21.437 16.6569C21.3422 17.0568 21.1649 17.4324 20.9164 17.7597C20.6679 18.087 20.3537 18.3588 19.994 18.5575C19.8076 18.6724 19.6494 18.8275 19.5309 19.0116C19.4123 19.1957 19.3366 19.404 19.3092 19.6212C19.3092 19.8167 19.2316 20.0041 19.0933 20.1424C18.9551 20.2806 18.7676 20.3583 18.5721 20.3583ZM19.1566 26.8152C20.7488 26.1754 25.9431 23.6597 25.9431 18.1787V14.3672C25.9439 13.5925 25.7002 12.8373 25.2468 12.2092C24.7934 11.5811 24.1533 11.112 23.4178 10.8689L18.8043 9.33943C18.6537 9.28859 18.4906 9.28859 18.3399 9.33943L13.7265 10.8689C12.9909 11.112 12.3509 11.5811 11.8974 12.2092C11.444 12.8373 11.2004 13.5925 11.2012 14.3672V18.1787C11.2012 23.0155 16.3645 25.9742 17.9478 26.7658C18.1392 26.8811 18.3513 26.958 18.5721 26.9921C18.7763 26.97 18.9745 26.91 19.1566 26.8152ZM22.9534 12.2679C23.3946 12.4142 23.7785 12.6957 24.0505 13.0725C24.3226 13.4494 24.469 13.9024 24.4689 14.3672V18.1787C24.4689 22.7361 19.9822 24.8943 18.6068 25.4472C17.2151 24.7514 12.6754 22.1708 12.6754 18.1787V14.3672C12.6753 13.9024 12.8217 13.4494 13.0937 13.0725C13.3658 12.6957 13.7497 12.4142 14.1908 12.2679L18.5721 10.8158L22.9534 12.2679ZM18.5721 21.8325C18.4263 21.8325 18.2838 21.8757 18.1626 21.9567C18.0414 22.0377 17.9469 22.1528 17.8911 22.2875C17.8354 22.4222 17.8208 22.5704 17.8492 22.7134C17.8776 22.8563 17.9478 22.9877 18.0509 23.0908C18.154 23.1938 18.2853 23.264 18.4283 23.2925C18.5713 23.3209 18.7195 23.3063 18.8542 23.2505C18.9889 23.1947 19.104 23.1003 19.185 22.9791C19.266 22.8578 19.3092 22.7153 19.3092 22.5696C19.3092 22.3741 19.2316 22.1866 19.0933 22.0483C18.9551 21.9101 18.7676 21.8325 18.5721 21.8325Z" fill="#003165"/>
</svg>
