<svg width="20" height="20" viewBox="0 0 20 20" fill="none" xmlns="http://www.w3.org/2000/svg">
<g clip-path="url(#clip0_1003_1223)">
<path d="M9.72958 9.72966C12.4163 9.72966 14.5944 7.5516 14.5944 4.86483C14.5944 2.17806 12.4163 0 9.72958 0C7.0428 0 4.86475 2.17806 4.86475 4.86483C4.86475 7.5516 7.0428 9.72966 9.72958 9.72966Z" fill="white"/>
<path d="M9.72937 11.3513C7.79468 11.3534 5.93985 12.1229 4.57181 13.4909C3.20378 14.859 2.43427 16.7138 2.43213 18.6485C2.43213 18.8635 2.51755 19.0698 2.66961 19.2218C2.82166 19.3739 3.02789 19.4593 3.24293 19.4593H16.2158C16.4309 19.4593 16.6371 19.3739 16.7891 19.2218C16.9412 19.0698 17.0266 18.8635 17.0266 18.6485C17.0245 16.7138 16.255 14.859 14.8869 13.4909C13.5189 12.1229 11.6641 11.3534 9.72937 11.3513Z" fill="white"/>
</g>
<defs>
<clipPath id="clip0_1003_1223">
<rect width="19.4593" height="19.4593" fill="white"/>
</clipPath>
</defs>
</svg>
