<svg width="47" height="21" viewBox="0 0 47 21" fill="none" xmlns="http://www.w3.org/2000/svg">
    <path fill-rule="evenodd" clip-rule="evenodd"
        d="M5.8535 7.92567L2.36407 11.1597C1.41594 12.0388 1.41594 13.4638 2.36569 14.3413C3.31543 15.2189 4.85513 15.2189 5.80325 14.3398L10.1241 10.3377C13.2003 11.8123 16.915 13.0468 21.1013 13.3993V18.7499C21.1013 19.992 22.1905 21 23.5324 21C24.8744 21 25.9635 19.992 25.9635 18.7499V13.3933C29.4432 13.0918 32.5939 12.1843 35.3216 11.0367L40.5063 15.8399C41.4544 16.7189 42.9941 16.7189 43.9439 15.8414C44.8936 14.9638 44.8936 13.5388 43.9455 12.6598L39.7656 8.78819C43.9633 6.29062 46.396 3.73456 46.396 3.73456C47.281 2.80154 47.1821 1.3795 46.174 0.558979C45.1659 -0.260042 43.6295 -0.168539 42.7429 0.764484C42.7429 0.764484 34.9407 8.99969 23.5 8.99969C12.0593 8.99969 4.25708 0.764484 4.25708 0.764484C3.37054 -0.168539 1.83409 -0.260042 0.825994 0.558979C-0.1821 1.3795 -0.280964 2.80154 0.603954 3.73456C0.603954 3.73456 2.50831 5.73561 5.8535 7.92567Z"
        fill="#8C3E79" />
</svg>