<svg width="46" height="43" viewBox="0 0 46 43" fill="none" xmlns="http://www.w3.org/2000/svg">
    <path fill-rule="evenodd" clip-rule="evenodd"
        d="M45.3257 39.33C46.2248 40.1705 46.2248 41.5313 45.3257 42.3696C44.4266 43.2101 42.971 43.2101 42.0742 42.3696L35.4977 36.2221C36.9648 35.618 38.3812 34.908 39.7333 34.1019L45.3257 39.33ZM6.26437 34.0956C7.61646 34.9017 9.03065 35.6117 10.5 36.2179L3.92579 42.3612C3.029 43.2017 1.57112 43.2017 0.674323 42.3612C-0.224774 41.5229 -0.224774 40.1621 0.674323 39.3216L6.26437 34.0956ZM0.683516 3.67682C-0.215582 2.83848 -0.215582 1.47765 0.683516 0.637155C1.58031 -0.203339 3.03589 -0.203339 3.93499 0.637155L11.2152 7.44282C9.72049 8.01892 8.28101 8.70711 6.90132 9.48956L0.683516 3.67682ZM39.0964 9.48326C37.7144 8.70296 36.2749 8.01257 34.7803 7.43862L42.065 0.628758C42.9618 -0.209586 44.4197 -0.209586 45.3165 0.628758C46.2156 1.46925 46.2156 2.83008 45.3165 3.66843L39.0964 9.48326ZM27.6036 21.9789C27.6036 24.352 25.5432 26.2781 23.0046 26.2781C20.4637 26.2781 18.4056 24.352 18.4056 21.9789C18.4056 19.6036 20.4637 17.6797 23.0046 17.6797C25.5432 17.6797 27.6036 19.6036 27.6036 21.9789ZM23.0046 30.1018C16.1314 30.1018 9.6561 27.0433 5.52623 21.9789C9.6561 16.9123 16.1314 13.8528 23.0046 13.8528C29.8777 13.8528 36.3531 16.9123 40.483 21.9789C36.3531 27.0433 29.8777 30.1018 23.0046 30.1018ZM45.9994 21.9789C41.4005 14.5584 32.8372 9.55359 23.0046 9.55359C13.172 9.55359 4.60644 14.5584 0.00976944 21.9789C4.60644 29.3971 13.172 34.401 23.0046 34.401C32.8372 34.401 41.4005 29.3971 45.9994 21.9789Z"
        fill="#8C3E79" />
</svg>