<svg width="37" height="36" viewBox="0 0 37 36" fill="none" xmlns="http://www.w3.org/2000/svg">
<circle cx="18.5726" cy="18.1601" r="17.6903" fill="#D685C3"/>
<path d="M23.423 10.8923L18.8051 9.35253C18.6539 9.30217 18.4904 9.30217 18.3392 9.35253L13.7213 10.8923C12.9871 11.1362 12.3484 11.6053 11.896 12.2329C11.4436 12.8605 11.2005 13.6147 11.2012 14.3884V18.1601C11.2012 23.7347 17.9825 26.8136 18.2729 26.9418C18.3671 26.9837 18.469 27.0053 18.5721 27.0053C18.6752 27.0053 18.7772 26.9837 18.8714 26.9418C19.1618 26.8136 25.9431 23.7347 25.9431 18.1601V14.3884C25.9438 13.6147 25.7007 12.8605 25.2483 12.2329C24.7959 11.6053 24.1572 11.1362 23.423 10.8923ZM24.4689 18.1601C24.4689 22.1809 19.8112 24.8183 18.5721 25.4492C17.3316 24.8205 12.6754 22.1913 12.6754 18.1601V14.3884C12.6754 13.9242 12.8215 13.4718 13.093 13.0953C13.3644 12.7188 13.7475 12.4373 14.1879 12.2906L18.5721 10.8289L22.9564 12.2906C23.3968 12.4373 23.7798 12.7188 24.0513 13.0953C24.3227 13.4718 24.4688 13.9242 24.4689 14.3884V18.1601Z" fill="#003165"/>
<path d="M21.0048 15.4329L17.9179 18.5287L16.2638 16.8038C16.1974 16.7313 16.1172 16.6727 16.0279 16.6316C15.9385 16.5905 15.8418 16.5677 15.7435 16.5646C15.6452 16.5614 15.5473 16.578 15.4555 16.6133C15.3636 16.6486 15.2798 16.7019 15.2089 16.7701C15.1381 16.8382 15.0815 16.9199 15.0427 17.0103C15.0039 17.1007 14.9835 17.1979 14.9828 17.2962C14.9822 17.3946 15.0012 17.4921 15.0388 17.583C15.0763 17.6739 15.1317 17.7563 15.2017 17.8255L16.9014 19.5945C17.0282 19.7314 17.1814 19.8412 17.3518 19.9172C17.5222 19.9932 17.7062 20.0339 17.8928 20.0367H17.9171C18.1 20.0374 18.2811 20.0016 18.45 19.9317C18.619 19.8617 18.7723 19.7589 18.9012 19.6291L22.05 16.4803C22.1188 16.4116 22.1734 16.3301 22.2107 16.2404C22.2479 16.1507 22.2672 16.0545 22.2673 15.9573C22.2674 15.8602 22.2483 15.764 22.2113 15.6742C22.1742 15.5843 22.1198 15.5027 22.0511 15.434C21.9825 15.3652 21.901 15.3106 21.8113 15.2733C21.7216 15.236 21.6254 15.2168 21.5282 15.2167C21.431 15.2166 21.3348 15.2356 21.245 15.2727C21.1552 15.3098 21.0736 15.3642 21.0048 15.4329Z" fill="#003165"/>
</svg>
