<svg width="37" height="37" viewBox="0 0 37 37" fill="none" xmlns="http://www.w3.org/2000/svg">
<circle cx="18.5721" cy="18.6667" r="17.6903" fill="#D685C3"/>
<path d="M18.5723 18.6667C19.447 18.6667 20.3021 18.4073 21.0294 17.9213C21.7567 17.4354 22.3235 16.7447 22.6583 15.9366C22.993 15.1284 23.0806 14.2392 22.9099 13.3813C22.7393 12.5234 22.3181 11.7354 21.6996 11.1169C21.0811 10.4984 20.293 10.0772 19.4351 9.90651C18.5772 9.73587 17.688 9.82345 16.8799 10.1582C16.0718 10.4929 15.3811 11.0598 14.8951 11.7871C14.4091 12.5143 14.1498 13.3694 14.1498 14.2441C14.1509 15.4167 14.6173 16.5409 15.4464 17.37C16.2755 18.1992 17.3998 18.6655 18.5723 18.6667ZM18.5723 11.2957C19.1555 11.2957 19.7255 11.4686 20.2104 11.7926C20.6952 12.1166 21.0731 12.5771 21.2963 13.1158C21.5194 13.6546 21.5778 14.2474 21.4641 14.8193C21.3503 15.3912 21.0695 15.9166 20.6572 16.3289C20.2448 16.7413 19.7195 17.0221 19.1475 17.1358C18.5756 17.2496 17.9828 17.1912 17.444 16.9681C16.9053 16.7449 16.4448 16.367 16.1208 15.8821C15.7969 15.3973 15.624 14.8272 15.624 14.2441C15.624 13.4621 15.9346 12.7122 16.4875 12.1593C17.0404 11.6064 17.7904 11.2957 18.5723 11.2957Z" fill="#003165"/>
<path d="M18.5723 20.1409C16.8135 20.1429 15.1273 20.8424 13.8836 22.0861C12.64 23.3297 11.9404 25.0159 11.9385 26.7748C11.9385 26.9702 12.0161 27.1577 12.1544 27.296C12.2926 27.4342 12.4801 27.5119 12.6756 27.5119C12.8711 27.5119 13.0585 27.4342 13.1968 27.296C13.335 27.1577 13.4127 26.9702 13.4127 26.7748C13.4127 25.4063 13.9563 24.0939 14.9239 23.1263C15.8915 22.1587 17.2039 21.6151 18.5723 21.6151C19.9408 21.6151 21.2531 22.1587 22.2208 23.1263C23.1884 24.0939 23.732 25.4063 23.732 26.7748C23.732 26.9702 23.8097 27.1577 23.9479 27.296C24.0861 27.4342 24.2736 27.5119 24.4691 27.5119C24.6646 27.5119 24.8521 27.4342 24.9903 27.296C25.1285 27.1577 25.2062 26.9702 25.2062 26.7748C25.2042 25.0159 24.5047 23.3297 23.261 22.0861C22.0174 20.8424 20.3311 20.1429 18.5723 20.1409Z" fill="#003165"/>
</svg>
