<svg width="37" height="37" viewBox="0 0 37 37" fill="none" xmlns="http://www.w3.org/2000/svg">
<circle cx="18.5726" cy="18.6535" r="17.6903" fill="#D685C3"/>
<path d="M18.5722 15.7052C17.989 15.7052 17.419 15.8781 16.9341 16.2021C16.4493 16.526 16.0714 16.9865 15.8482 17.5253C15.625 18.064 15.5667 18.6568 15.6804 19.2288C15.7942 19.8007 16.075 20.326 16.4873 20.7384C16.8997 21.1507 17.425 21.4315 17.997 21.5453C18.5689 21.659 19.1617 21.6007 19.7005 21.3775C20.2392 21.1543 20.6997 20.7764 21.0236 20.2916C21.3476 19.8067 21.5205 19.2367 21.5205 18.6536C21.5205 17.8716 21.2099 17.1217 20.657 16.5687C20.104 16.0158 19.3541 15.7052 18.5722 15.7052ZM18.5722 20.1277C18.2806 20.1277 17.9956 20.0413 17.7531 19.8793C17.5107 19.7173 17.3218 19.4871 17.2102 19.2177C17.0986 18.9483 17.0694 18.6519 17.1263 18.366C17.1832 18.08 17.3236 17.8173 17.5297 17.6111C17.7359 17.405 17.9986 17.2646 18.2846 17.2077C18.5705 17.1508 18.8669 17.18 19.1363 17.2916C19.4057 17.4032 19.6359 17.5921 19.7979 17.8345C19.9599 18.077 20.0463 18.362 20.0463 18.6536C20.0463 19.0445 19.891 19.4195 19.6146 19.696C19.3381 19.9724 18.9631 20.1277 18.5722 20.1277Z" fill="#003165"/>
<path d="M25.423 20.054L25.0957 19.8653C25.2431 19.0637 25.2431 18.2419 25.0957 17.4403L25.423 17.2516C25.6747 17.1064 25.8953 16.9131 26.0722 16.6826C26.2492 16.4522 26.379 16.1891 26.4543 15.9085C26.5296 15.6279 26.5489 15.3351 26.511 15.0471C26.4732 14.759 26.379 14.4812 26.2338 14.2295C26.0886 13.9778 25.8953 13.7572 25.6648 13.5803C25.4344 13.4033 25.1713 13.2735 24.8907 13.1982C24.6101 13.1229 24.3173 13.1036 24.0293 13.1415C23.7412 13.1793 23.4634 13.2735 23.2117 13.4187L22.8837 13.6081C22.2642 13.0788 21.5523 12.6685 20.7837 12.3978V12.0197C20.7837 11.4332 20.5507 10.8708 20.1361 10.4561C19.7214 10.0414 19.1589 9.80841 18.5724 9.80841C17.986 9.80841 17.4235 10.0414 17.0088 10.4561C16.5941 10.8708 16.3612 11.4332 16.3612 12.0197V12.3978C15.5926 12.6695 14.881 13.0808 14.2619 13.6111L13.9324 13.4202C13.4241 13.1269 12.8202 13.0476 12.2535 13.1997C11.6867 13.3517 11.2036 13.7227 10.9103 14.231C10.6171 14.7393 10.5378 15.3432 10.6898 15.91C10.8419 16.4767 11.2129 16.9598 11.7211 17.2531L12.0484 17.4418C11.9011 18.2434 11.9011 19.0652 12.0484 19.8668L11.7211 20.0555C11.2129 20.3487 10.8419 20.8319 10.6898 21.3986C10.5378 21.9654 10.6171 22.5693 10.9103 23.0776C11.2036 23.5859 11.6867 23.9568 12.2535 24.1089C12.8202 24.261 13.4241 24.1816 13.9324 23.8884L14.2604 23.699C14.8802 24.2283 15.5923 24.6387 16.3612 24.9093V25.2874C16.3612 25.8739 16.5941 26.4363 17.0088 26.851C17.4235 27.2657 17.986 27.4987 18.5724 27.4987C19.1589 27.4987 19.7214 27.2657 20.1361 26.851C20.5507 26.4363 20.7837 25.8739 20.7837 25.2874V24.9093C21.5522 24.6376 22.2639 24.2263 22.883 23.696L23.2125 23.8862C23.7207 24.1794 24.3247 24.2587 24.8914 24.1067C25.4582 23.9546 25.9413 23.5837 26.2345 23.0754C26.5278 22.5671 26.6071 21.9632 26.455 21.3964C26.303 20.8297 25.932 20.3465 25.4237 20.0533L25.423 20.054ZM23.5449 17.2708C23.7945 18.1752 23.7945 19.1304 23.5449 20.0349C23.5013 20.1923 23.5112 20.3597 23.5731 20.5109C23.635 20.6621 23.7454 20.7884 23.8869 20.87L24.6859 21.3314C24.8553 21.4292 24.9789 21.5902 25.0296 21.7791C25.0802 21.968 25.0538 22.1693 24.9561 22.3387C24.8583 22.5081 24.6973 22.6317 24.5084 22.6823C24.3195 22.733 24.1182 22.7066 23.9488 22.6088L23.1483 22.1459C23.0067 22.0639 22.8419 22.0313 22.6797 22.0534C22.5176 22.0754 22.3674 22.1507 22.2528 22.2675C21.5967 22.9373 20.7701 23.4152 19.8624 23.6496C19.7039 23.6903 19.5635 23.7826 19.4633 23.9119C19.3631 24.0412 19.3087 24.2002 19.3088 24.3638V25.2874C19.3088 25.4829 19.2311 25.6704 19.0929 25.8086C18.9547 25.9469 18.7672 26.0245 18.5717 26.0245C18.3762 26.0245 18.1887 25.9469 18.0505 25.8086C17.9123 25.6704 17.8346 25.4829 17.8346 25.2874V24.3646C17.8347 24.201 17.7803 24.042 17.6801 23.9127C17.5799 23.7834 17.4395 23.6911 17.281 23.6503C16.3732 23.415 15.5469 22.936 14.8914 22.2653C14.7768 22.1485 14.6266 22.0732 14.4644 22.0511C14.3023 22.0291 14.1374 22.0617 13.9958 22.1437L13.1968 22.6059C13.1129 22.655 13.0202 22.6871 12.9239 22.7003C12.8276 22.7135 12.7296 22.7074 12.6356 22.6826C12.5416 22.6577 12.4535 22.6146 12.3763 22.5555C12.2991 22.4965 12.2343 22.4227 12.1857 22.3385C12.1371 22.2544 12.1056 22.1614 12.0931 22.065C12.0805 21.9686 12.0872 21.8707 12.1127 21.7769C12.1381 21.683 12.1819 21.5952 12.2415 21.5184C12.301 21.4415 12.3752 21.3773 12.4597 21.3292L13.2587 20.8678C13.4002 20.7862 13.5106 20.6598 13.5725 20.5087C13.6344 20.3575 13.6443 20.1901 13.6007 20.0327C13.3511 19.1282 13.3511 18.173 13.6007 17.2686C13.6435 17.1115 13.6331 16.9446 13.5711 16.7941C13.5091 16.6435 13.399 16.5178 13.258 16.4364L12.459 15.975C12.2896 15.8772 12.166 15.7162 12.1153 15.5273C12.0646 15.3384 12.0911 15.1371 12.1888 14.9677C12.2866 14.7983 12.4476 14.6747 12.6365 14.624C12.8254 14.5734 13.0267 14.5998 13.1961 14.6976L13.9965 15.1605C14.1378 15.2427 14.3023 15.2756 14.4643 15.2541C14.6262 15.2326 14.7765 15.1579 14.8914 15.0418C15.5475 14.372 16.374 13.8941 17.2818 13.6597C17.4407 13.6189 17.5815 13.5261 17.6818 13.3962C17.782 13.2663 17.8361 13.1066 17.8353 12.9425V12.0197C17.8353 11.8242 17.913 11.6367 18.0512 11.4985C18.1895 11.3603 18.3769 11.2826 18.5724 11.2826C18.7679 11.2826 18.9554 11.3603 19.0936 11.4985C19.2319 11.6367 19.3095 11.8242 19.3095 12.0197V12.9425C19.3095 13.1061 19.3638 13.2651 19.464 13.3944C19.5642 13.5238 19.7046 13.616 19.8631 13.6568C20.7712 13.892 21.5978 14.3709 22.2535 15.0418C22.3681 15.1586 22.5183 15.2339 22.6804 15.256C22.8426 15.278 23.0075 15.2454 23.1491 15.1634L23.9481 14.7012C24.0319 14.6521 24.1247 14.62 24.221 14.6068C24.3173 14.5937 24.4153 14.5997 24.5093 14.6245C24.6032 14.6494 24.6914 14.6926 24.7686 14.7516C24.8458 14.8107 24.9106 14.8844 24.9592 14.9686C25.0078 15.0528 25.0393 15.1457 25.0518 15.2421C25.0643 15.3385 25.0577 15.4364 25.0322 15.5303C25.0067 15.6241 24.963 15.7119 24.9034 15.7887C24.8438 15.8656 24.7697 15.9299 24.6852 15.9779L23.8862 16.4393C23.7454 16.5209 23.6356 16.6468 23.5739 16.7973C23.5121 16.9479 23.502 17.1138 23.5449 17.2708Z" fill="#003165"/>
</svg>
