<svg width="15" height="15" viewBox="0 0 15 15" fill="none" xmlns="http://www.w3.org/2000/svg">
<g clip-path="url(#clip0_1003_1267)">
<path d="M4.36406 13.112H3.18471C2.71553 13.112 2.26557 12.9257 1.93382 12.5939C1.60206 12.2621 1.41568 11.8122 1.41568 11.343V3.08754C1.41568 2.61837 1.60206 2.16841 1.93382 1.83665C2.26557 1.50489 2.71553 1.31851 3.18471 1.31851H4.36406C4.52045 1.31851 4.67044 1.25639 4.78103 1.1458C4.89161 1.03521 4.95374 0.885228 4.95374 0.728836C4.95374 0.572445 4.89161 0.422458 4.78103 0.311872C4.67044 0.201287 4.52045 0.13916 4.36406 0.13916L3.18471 0.13916C2.40304 0.140096 1.65365 0.451029 1.10092 1.00376C0.548197 1.55648 0.237264 2.30587 0.236328 3.08754L0.236328 11.343C0.237264 12.1247 0.548197 12.8741 1.10092 13.4268C1.65365 13.9795 2.40304 14.2905 3.18471 14.2914H4.36406C4.52045 14.2914 4.67044 14.2293 4.78103 14.1187C4.89161 14.0081 4.95374 13.8581 4.95374 13.7017C4.95374 13.5453 4.89161 13.3953 4.78103 13.2848C4.67044 13.1742 4.52045 13.112 4.36406 13.112Z" fill="#DA2C2C"/>
<path d="M11.1676 11.1702L13.8725 8.46598C14.2031 8.1337 14.3887 7.68402 14.3887 7.21528C14.3887 6.74653 14.2031 6.29685 13.8725 5.96457L11.1676 3.26032C11.0564 3.1529 10.9074 3.09347 10.7528 3.09481C10.5982 3.09615 10.4503 3.15817 10.341 3.2675C10.2317 3.37683 10.1696 3.52473 10.1683 3.67934C10.167 3.83395 10.2264 3.9829 10.3338 4.09412L12.8647 6.6256H3.77425C3.61785 6.6256 3.46787 6.68773 3.35728 6.79831C3.2467 6.9089 3.18457 7.05888 3.18457 7.21528C3.18457 7.37167 3.2467 7.52165 3.35728 7.63224C3.46787 7.74283 3.61785 7.80495 3.77425 7.80495H12.8653L10.3338 10.3364C10.2775 10.3908 10.2326 10.4559 10.2017 10.5278C10.1708 10.5998 10.1545 10.6772 10.1538 10.7555C10.1531 10.8338 10.168 10.9114 10.1977 10.9839C10.2273 11.0563 10.2711 11.1222 10.3265 11.1775C10.3819 11.2329 10.4477 11.2767 10.5202 11.3063C10.5926 11.336 10.6703 11.3509 10.7486 11.3502C10.8269 11.3496 10.9043 11.3333 10.9762 11.3024C11.0481 11.2715 11.1132 11.2266 11.1676 11.1702Z" fill="#DA2C2C"/>
</g>
<defs>
<clipPath id="clip0_1003_1267">
<rect width="14.1522" height="14.1522" fill="white" transform="translate(0.236328 0.13916)"/>
</clipPath>
</defs>
</svg>
