<svg width="42" height="43" viewBox="0 0 42 43" fill="none" xmlns="http://www.w3.org/2000/svg">
<g filter="url(#filter0_d_13_1634)">
<path d="M8.69291 4.34503H32.5929C33.3061 4.34503 33.99 4.62834 34.4943 5.13262C34.9986 5.63691 35.2819 6.32086 35.2819 7.03403V31.234C35.2819 31.9472 34.9986 32.6312 34.4943 33.1354C33.99 33.6397 33.3061 33.923 32.5929 33.923H8.69291C7.98026 33.923 7.29676 33.6401 6.79256 33.1365C6.28836 32.6329 6.0047 31.9497 6.00391 31.237V7.03403C6.00391 6.32086 6.28721 5.63691 6.7915 5.13262C7.29578 4.62834 7.97974 4.34503 8.69291 4.34503V4.34503Z" fill="#D685C3"/>
</g>
<path d="M26.6785 22.7905H17.1467C17.1819 24.2935 17.5862 25.4536 18.3596 26.271C19.1331 27.0884 20.1965 27.4971 21.55 27.4971C23.0706 27.4971 24.468 26.9961 25.7424 25.9941V28.0244C24.5559 28.8857 22.9871 29.3164 21.0359 29.3164C19.1287 29.3164 17.6301 28.7056 16.5403 27.4839C15.4504 26.2534 14.9055 24.5264 14.9055 22.3027C14.9055 20.2021 15.4988 18.4927 16.6853 17.1743C17.8806 15.8472 19.3616 15.1836 21.1282 15.1836C22.8948 15.1836 24.2615 15.7549 25.2283 16.8975C26.1951 18.04 26.6785 19.6265 26.6785 21.6567V22.7905ZM24.4636 20.958C24.4548 19.71 24.1516 18.7388 23.554 18.0444C22.9651 17.3501 22.1433 17.0029 21.0886 17.0029C20.0691 17.0029 19.2034 17.3677 18.4915 18.0972C17.7795 18.8267 17.3401 19.7803 17.1731 20.958H24.4636Z" fill="white"/>
<path d="M22.6399 12H19.6399V28H22.6399V12Z" fill="#D685C3"/>
<defs>
<filter id="filter0_d_13_1634" x="0.00390625" y="1.34503" width="41.2781" height="41.578" filterUnits="userSpaceOnUse" color-interpolation-filters="sRGB">
<feFlood flood-opacity="0" result="BackgroundImageFix"/>
<feColorMatrix in="SourceAlpha" type="matrix" values="0 0 0 0 0 0 0 0 0 0 0 0 0 0 0 0 0 0 127 0" result="hardAlpha"/>
<feOffset dy="3"/>
<feGaussianBlur stdDeviation="3"/>
<feColorMatrix type="matrix" values="0 0 0 0 0 0 0 0 0 0 0 0 0 0 0 0 0 0 0.161 0"/>
<feBlend mode="normal" in2="BackgroundImageFix" result="effect1_dropShadow_13_1634"/>
<feBlend mode="normal" in="SourceGraphic" in2="effect1_dropShadow_13_1634" result="shape"/>
</filter>
</defs>
</svg>
