<svg width="209" height="200" viewBox="0 0 209 200" fill="none" xmlns="http://www.w3.org/2000/svg">
<path d="M26.6982 196.698H75.0292V41.452H26.6982V196.698Z" fill="#F5F5F5"/>
<path d="M50.8633 196.698H75.0283V41.452H50.8633V196.698Z" fill="#ECECEC"/>
<path d="M31.375 41.45H48.525V25.85H31.375V41.45Z" fill="#F5F5F5"/>
<path d="M44.627 41.45H48.527V25.85H44.627V41.45Z" fill="#ECECEC"/>
<path d="M22.0215 41.452V40.672H76.5885V41.452" fill="#E1E1E1"/>
<path d="M36.0527 57.055H39.9527V48.474H36.0527V57.055Z" fill="#FAFAFA"/>
<path d="M50.6362 60.204C50.6362 60.296 45.1652 60.37 38.4192 60.37C31.6732 60.37 26.2002 60.297 26.2002 60.204C26.2002 60.111 31.6702 60.038 38.4182 60.038C45.1662 60.038 50.6362 60.112 50.6362 60.204Z" fill="#E1E1E1"/>
<path d="M60.4951 56.784H64.6321V48.068H60.4951V56.784Z" fill="#E1E1E1"/>
<path d="M75.2846 60.204C75.2846 60.296 69.8136 60.37 63.0676 60.37C56.3216 60.37 50.8496 60.297 50.8496 60.204C50.8496 60.111 56.3186 60.038 63.0676 60.038C69.8166 60.038 75.2846 60.112 75.2846 60.204Z" fill="#E1E1E1"/>
<path d="M60.4951 74.0879H64.6321V65.3719H60.4951V74.0879Z" fill="#E1E1E1"/>
<path d="M75.2846 77.508C75.2846 77.6 69.8136 77.674 63.0676 77.674C56.3216 77.674 50.8496 77.6 50.8496 77.508C50.8496 77.416 56.3186 77.342 63.0676 77.342C69.8166 77.342 75.2846 77.417 75.2846 77.508Z" fill="#E1E1E1"/>
<path d="M60.4951 91.915H64.6321V83.199H60.4951V91.915Z" fill="#E1E1E1"/>
<path d="M75.2846 95.3349C75.2846 95.4269 69.8136 95.5009 63.0676 95.5009C56.3216 95.5009 50.8496 95.4269 50.8496 95.3349C50.8496 95.2429 56.3186 95.1689 63.0676 95.1689C69.8166 95.1689 75.2846 95.2429 75.2846 95.3349Z" fill="#E1E1E1"/>
<path d="M60.4951 109.741H64.6321V101.025H60.4951V109.741Z" fill="#E1E1E1"/>
<path d="M75.2846 113.161C75.2846 113.253 69.8136 113.327 63.0676 113.327C56.3216 113.327 50.8496 113.253 50.8496 113.161C50.8496 113.069 56.3186 112.995 63.0676 112.995C69.8166 112.995 75.2846 113.07 75.2846 113.161Z" fill="#E1E1E1"/>
<path d="M60.4951 127.058H64.6321V118.342H60.4951V127.058Z" fill="#E1E1E1"/>
<path d="M75.2846 130.478C75.2846 130.57 69.8136 130.644 63.0676 130.644C56.3216 130.644 50.8496 130.57 50.8496 130.478C50.8496 130.386 56.3186 130.312 63.0676 130.312C69.8166 130.312 75.2846 130.387 75.2846 130.478Z" fill="#E1E1E1"/>
<path d="M60.4951 144.444H64.6321V135.728H60.4951V144.444Z" fill="#E1E1E1"/>
<path d="M60.4951 162.059H64.6321V153.343H60.4951V162.059Z" fill="#E1E1E1"/>
<path d="M75.2846 147.864C75.2846 147.956 69.8136 148.03 63.0676 148.03C56.3216 148.03 50.8496 147.957 50.8496 147.864C50.8496 147.771 56.3186 147.698 63.0676 147.698C69.8166 147.698 75.2846 147.773 75.2846 147.864Z" fill="#E1E1E1"/>
<path d="M35.8477 74.352H39.9847V65.636H35.8477V74.352Z" fill="#FAFAFA"/>
<path d="M50.6362 77.772C50.6362 77.864 45.1652 77.938 38.4192 77.938C31.6732 77.938 26.2002 77.865 26.2002 77.772C26.2002 77.679 31.6702 77.606 38.4182 77.606C45.1662 77.606 50.6362 77.681 50.6362 77.772Z" fill="#E1E1E1"/>
<path d="M35.8477 91.921H39.9847V83.205H35.8477V91.921Z" fill="#FAFAFA"/>
<path d="M50.6362 95.341C50.6362 95.433 45.1652 95.507 38.4192 95.507C31.6732 95.507 26.2002 95.434 26.2002 95.341C26.2002 95.248 31.6702 95.175 38.4182 95.175C45.1662 95.175 50.6362 95.249 50.6362 95.341Z" fill="#E1E1E1"/>
<path d="M35.8477 109.489H39.9847V100.773H35.8477V109.489Z" fill="#FAFAFA"/>
<path d="M50.6362 112.909C50.6362 113.001 45.1652 113.075 38.4192 113.075C31.6732 113.075 26.2002 113.001 26.2002 112.909C26.2002 112.817 31.6702 112.743 38.4182 112.743C45.1662 112.743 50.6362 112.818 50.6362 112.909Z" fill="#E1E1E1"/>
<path d="M35.8477 127.058H39.9847V118.342H35.8477V127.058Z" fill="#FAFAFA"/>
<path d="M50.6362 130.478C50.6362 130.57 45.1652 130.644 38.4192 130.644C31.6732 130.644 26.2002 130.57 26.2002 130.478C26.2002 130.386 31.6702 130.312 38.4182 130.312C45.1662 130.312 50.6362 130.387 50.6362 130.478Z" fill="#E1E1E1"/>
<path d="M35.8477 144.626H39.9847V135.91H35.8477V144.626Z" fill="#FAFAFA"/>
<path d="M50.6362 148.047C50.6362 148.139 45.1652 148.213 38.4192 148.213C31.6732 148.213 26.2002 148.138 26.2002 148.047C26.2002 147.956 31.6702 147.88 38.4182 147.88C45.1662 147.88 50.6362 147.955 50.6362 148.047Z" fill="#E1E1E1"/>
<path d="M35.8477 162.195H39.9847V153.479H35.8477V162.195Z" fill="#FAFAFA"/>
<path d="M61.6254 195.82H5.14737L4.90137 106.629H61.3794L61.6254 195.82Z" fill="#ECECEC"/>
<path d="M33.1406 195.82H61.3796V106.629H33.1406V195.82Z" fill="#E1E1E1"/>
<path d="M11.3506 106.629H31.2946V89.0699H11.3506V106.629Z" fill="#ECECEC"/>
<path d="M26.54 106.629H31.293V89.0699H26.54V106.629Z" fill="#E1E1E1"/>
<path d="M0.194336 106.629H63.0323V105.605H0.194336V106.629Z" fill="#E1E1E1"/>
<path d="M16.0498 124.361H20.8308V114.288H16.0498V124.361Z" fill="white"/>
<path d="M33.1404 128.313C33.1404 128.419 26.8184 128.505 19.0214 128.505C11.2244 128.505 4.90137 128.419 4.90137 128.313C4.90137 128.207 11.2214 128.121 19.0214 128.121C26.8214 128.121 33.1404 128.207 33.1404 128.313Z" fill="#E1E1E1"/>
<path d="M44.5342 124.361H49.3152V114.288H44.5342V124.361Z" fill="#F5F5F5"/>
<path d="M61.6257 128.313C61.6257 128.419 55.3037 128.505 47.5067 128.505C39.7097 128.505 33.3867 128.419 33.3867 128.313C33.3867 128.207 39.7077 128.121 47.5067 128.121C55.3057 128.121 61.6257 128.207 61.6257 128.313Z" fill="#ECECEC"/>
<path d="M44.5342 144.358H49.3152V134.285H44.5342V144.358Z" fill="#F5F5F5"/>
<path d="M61.6257 148.311C61.6257 148.417 55.3037 148.504 47.5067 148.504C39.7097 148.504 33.3867 148.417 33.3867 148.311C33.3867 148.205 39.7077 148.119 47.5067 148.119C55.3057 148.119 61.6257 148.205 61.6257 148.311Z" fill="#ECECEC"/>
<path d="M44.5342 164.96H49.3152V154.887H44.5342V164.96Z" fill="#F5F5F5"/>
<path d="M61.6257 168.913C61.6257 169.019 55.3037 169.105 47.5067 169.105C39.7097 169.105 33.3867 169.019 33.3867 168.913C33.3867 168.807 39.7077 168.721 47.5067 168.721C55.3057 168.721 61.6257 168.807 61.6257 168.913Z" fill="#ECECEC"/>
<path d="M44.5342 185.56H49.3152V175.488H44.5342V185.56Z" fill="#F5F5F5"/>
<path d="M61.6257 189.514C61.6257 189.62 55.3037 189.706 47.5067 189.706C39.7097 189.706 33.3867 189.62 33.3867 189.514C33.3867 189.408 39.7077 189.322 47.5067 189.322C55.3057 189.322 61.6257 189.408 61.6257 189.514Z" fill="#ECECEC"/>
<path d="M16.0498 144.663H20.8308V134.591H16.0498V144.663Z" fill="white"/>
<path d="M33.1404 148.616C33.1404 148.722 26.8184 148.809 19.0214 148.809C11.2244 148.809 4.90137 148.722 4.90137 148.616C4.90137 148.51 11.2214 148.424 19.0214 148.424C26.8214 148.424 33.1404 148.51 33.1404 148.616Z" fill="#E1E1E1"/>
<path d="M16.0498 164.966H20.8308V154.894H16.0498V164.966Z" fill="white"/>
<path d="M33.1404 168.92C33.1404 169.026 26.8184 169.112 19.0214 169.112C11.2244 169.112 4.90137 169.026 4.90137 168.92C4.90137 168.814 11.2214 168.728 19.0214 168.728C26.8214 168.728 33.1404 168.814 33.1404 168.92Z" fill="#E1E1E1"/>
<path d="M16.0498 185.269H20.8308V175.197H16.0498V185.269Z" fill="white"/>
<path d="M33.1404 189.223C33.1404 189.329 26.8184 189.415 19.0214 189.415C11.2244 189.415 4.90137 189.329 4.90137 189.223C4.90137 189.117 11.2214 189.031 19.0214 189.031C26.8214 189.031 33.1404 189.117 33.1404 189.223Z" fill="#E1E1E1"/>
<path d="M113.587 195.892H169.618V122.045H113.587V195.892Z" fill="#ECECEC"/>
<path d="M143.348 195.892H169.62V122.045H143.348V195.892Z" fill="#E1E1E1"/>
<path d="M125.336 144.275H130.374V132.044H125.336V144.275Z" fill="#F5F5F5"/>
<path d="M125.336 192.142H130.374V179.912H125.336V192.142Z" fill="#F5F5F5"/>
<path d="M143.347 149.074C143.347 149.212 136.688 149.326 128.468 149.326C120.248 149.326 113.588 149.212 113.588 149.074C113.588 148.936 120.249 148.826 128.468 148.826C136.687 148.826 143.347 148.937 143.347 149.074Z" fill="#F5F5F5"/>
<path d="M125.336 168.39H130.374V156.16H125.336V168.39Z" fill="#F5F5F5"/>
<path d="M143.347 173.19C143.347 173.327 136.688 173.441 128.468 173.441C120.248 173.441 113.588 173.327 113.588 173.19C113.588 173.053 120.249 172.941 128.468 172.941C136.687 172.941 143.347 173.053 143.347 173.19Z" fill="#F5F5F5"/>
<path d="M148.927 144.275H153.965V132.044H148.927V144.275Z" fill="#F5F5F5"/>
<path d="M159.856 144.275H164.894V132.044H159.856V144.275Z" fill="#F5F5F5"/>
<path d="M148.927 167.483H153.965V155.252H148.927V167.483Z" fill="#F5F5F5"/>
<path d="M159.856 167.483H164.894V155.252H159.856V167.483Z" fill="#F5F5F5"/>
<path d="M148.927 190.691H153.965V178.46H148.927V190.691Z" fill="#F5F5F5"/>
<path d="M159.856 190.691H164.894V178.46H159.856V190.691Z" fill="#F5F5F5"/>
<path d="M109.375 122.138H173.831V119.475H109.375V122.138Z" fill="#E1E1E1"/>
<path d="M170.01 122.389C170.01 122.526 157.487 122.64 142.041 122.64C126.595 122.64 114.07 122.526 114.07 122.389C114.07 122.252 126.591 122.14 142.041 122.14C157.491 122.14 170.01 122.252 170.01 122.389Z" fill="#ECECEC"/>
<path d="M169.133 14.6049C169.405 12.6339 166.62 11.0119 164.533 10.8439C163.533 10.8846 162.532 10.7982 161.554 10.5869C159.506 9.87395 158.688 7.23095 156.69 6.38695C155.192 5.75795 153.472 6.31495 152.023 7.04695C150.574 7.77895 149.144 8.69095 147.523 8.79495C146.116 8.88495 144.588 8.36395 143.356 9.05095C142.442 9.56295 141.962 10.6149 141.115 11.2419C140.235 11.7846 139.216 12.0607 138.182 12.0369C137.152 12.0117 136.126 12.1792 135.158 12.5309C134.678 12.7178 134.272 13.0548 133.999 13.4917C133.726 13.9285 133.602 14.4418 133.645 14.9549L169.133 14.6049Z" fill="#ECECEC"/>
<path d="M208.778 37.4469C209.187 34.4839 205.001 32.0469 201.857 31.7929C200.357 31.6729 198.799 31.9019 197.379 31.4069C194.3 30.3349 193.07 26.3609 190.067 25.0949C187.822 24.1479 185.236 24.9949 183.059 26.0859C180.882 27.1769 178.731 28.5579 176.299 28.7139C174.184 28.8489 171.886 28.0659 170.035 29.0979C168.656 29.8679 167.935 31.4559 166.662 32.3919C165.338 33.2065 163.807 33.6208 162.254 33.5849C160.706 33.5467 159.164 33.7984 157.709 34.3269C156.986 34.6075 156.374 35.1142 155.964 35.7713C155.553 36.4285 155.367 37.2009 155.432 37.9729L208.778 37.4469Z" fill="#F5F5F5"/>
<path d="M33.2446 9.22497C33.4526 7.71897 31.3246 6.47997 29.7266 6.35097C28.9625 6.38049 28.1978 6.31329 27.4506 6.15097C25.8856 5.60997 25.2606 3.58997 23.7336 2.94597C23.1384 2.77198 22.5129 2.72658 21.8988 2.81278C21.2847 2.89899 20.6959 3.11482 20.1716 3.44597C19.1272 4.11753 17.9589 4.57315 16.7356 4.78597C15.6606 4.85497 14.4926 4.45597 13.5516 4.98597C12.8516 5.37697 12.4826 6.18597 11.8366 6.65997C11.164 7.07474 10.3856 7.28558 9.59559 7.26696C8.8092 7.24569 8.02577 7.37152 7.28559 7.63797C6.91831 7.7808 6.60714 8.03868 6.39858 8.37304C6.19003 8.70741 6.09531 9.1003 6.12859 9.49297L33.2446 9.22497Z" fill="#F5F5F5"/>
<path d="M205.99 197.089C205.99 197.201 161.139 197.289 105.825 197.289C50.4924 197.292 5.65137 197.201 5.65137 197.089C5.65137 196.977 50.4924 196.886 105.826 196.886C161.14 196.886 205.991 196.976 205.991 197.086" fill="#1A2E35"/>
<path d="M61.8951 196.117C58.0539 196.116 54.3701 194.59 51.654 191.874C48.9378 189.158 47.4117 185.474 47.4111 181.633L47.4441 14.959C47.4452 13.056 47.8211 11.1719 48.5505 9.41427C49.2799 7.65664 50.3484 6.05993 51.6951 4.71535C53.0417 3.37077 54.64 2.30468 56.3987 1.57796C58.1575 0.851243 60.0422 0.478148 61.9451 0.479987L128.479 0.518987C132.321 0.519783 136.004 2.04613 138.721 4.76242C141.437 7.47872 142.963 11.1626 142.964 15.004L142.931 181.68C142.93 183.583 142.554 185.467 141.825 187.224C141.096 188.982 140.027 190.579 138.681 191.923C137.334 193.268 135.736 194.334 133.977 195.061C132.219 195.787 130.334 196.161 128.431 196.159L61.8951 196.117Z" fill="#19201F"/>
<path d="M115.641 6.388C115.221 6.39683 114.806 6.48842 114.421 6.65751C114.036 6.82661 113.689 7.0699 113.398 7.37349C113.107 7.67708 112.879 8.03501 112.726 8.42682C112.574 8.81864 112.5 9.23666 112.509 9.657V11.997C112.518 12.4175 112.445 12.8357 112.292 13.2277C112.14 13.6197 111.912 13.9778 111.621 14.2815C111.33 14.5852 110.982 14.8286 110.596 14.9977C110.211 15.1668 109.797 15.2583 109.376 15.267L84.2301 15.252C83.3808 15.2329 82.5737 14.8772 81.9864 14.2633C81.3991 13.6494 81.0796 12.8274 81.0981 11.978V9.64C81.1164 8.79085 80.7969 7.96916 80.2099 7.35532C79.6229 6.74148 78.8163 6.38567 77.9671 6.366H73.4301L62.1401 6.357C60.8074 6.35569 59.4875 6.61695 58.2558 7.12587C57.024 7.63479 55.9046 8.3814 54.9615 9.32304C54.0184 10.2647 53.27 11.3829 52.7591 12.6138C52.2483 13.8448 51.9849 15.1643 51.9841 16.497L51.9521 179.183C51.9527 181.873 53.0216 184.453 54.9238 186.356C56.826 188.258 59.4059 189.327 62.0961 189.328L128.496 189.366C129.829 189.367 131.149 189.106 132.381 188.597C133.612 188.088 134.732 187.342 135.675 186.4C136.618 185.458 137.366 184.34 137.877 183.109C138.388 181.878 138.651 180.559 138.652 179.226L138.684 16.54C138.683 13.8501 137.614 11.2705 135.713 9.36834C133.811 7.46617 131.231 6.39706 128.541 6.396L115.641 6.388Z" fill="white"/>
<path d="M128.888 6.40596C129.233 6.40929 129.576 6.43602 129.917 6.48596C131.265 6.64861 132.564 7.09654 133.725 7.79996C134.589 8.30222 135.37 8.93464 136.041 9.67496C136.861 10.5611 137.515 11.5866 137.974 12.703C138.501 14.0107 138.76 15.4112 138.734 16.821C138.734 18.319 138.736 19.9126 138.739 21.602C138.748 35.117 138.759 54.669 138.774 78.828C138.789 102.987 138.783 131.758 138.788 163.701C138.788 167.694 138.788 171.736 138.788 175.826V178.902C138.808 179.947 138.677 180.989 138.399 181.996C138.115 183.01 137.677 183.974 137.099 184.854C136.511 185.734 135.799 186.524 134.984 187.199C133.316 188.551 131.267 189.346 129.123 189.473C126.994 189.535 124.881 189.488 122.743 189.502L109.816 189.496L83.2862 189.483L69.7172 189.476H62.8632C60.5193 189.608 58.197 188.967 56.2522 187.652C54.3207 186.31 52.9019 184.352 52.2282 182.099C51.9104 180.982 51.7687 179.822 51.8082 178.662C51.8082 177.521 51.8082 176.381 51.8082 175.242C51.8082 170.69 51.8082 166.169 51.8082 161.68C51.8082 152.702 51.8106 143.863 51.8152 135.163C51.8262 117.778 51.8322 101.009 51.8382 85.034C51.8442 69.059 51.8532 53.88 51.8602 39.674C51.8642 32.5713 51.8682 25.719 51.8722 19.117C51.8722 18.293 51.8722 17.473 51.8722 16.657C51.8792 16.253 51.9082 15.835 51.9312 15.427C52.0022 15.027 52.0312 14.613 52.1392 14.218C52.5047 12.6373 53.236 11.1645 54.2742 9.91796C55.3023 8.71089 56.5887 7.75052 58.0382 7.10796C59.4625 6.4983 61.0026 6.20652 62.5512 6.25296L71.3992 6.26296L75.6562 6.26796H77.7412C78.451 6.23041 79.1534 6.4264 79.7412 6.82596C80.315 7.22615 80.7492 7.79572 80.9832 8.45496C81.1757 9.103 81.2456 9.78128 81.1892 10.455C81.1892 10.7883 81.1892 11.1173 81.1892 11.442C81.1786 11.7646 81.1893 12.0877 81.2212 12.409C81.2999 13.0382 81.5637 13.6299 81.9792 14.109C82.3833 14.5836 82.9256 14.9203 83.5302 15.072C83.8299 15.1426 84.1376 15.1729 84.4452 15.162H85.3802L89.0442 15.167L102.429 15.186L108.329 15.196C108.795 15.188 109.269 15.218 109.712 15.179C110.152 15.1307 110.575 14.9851 110.951 14.753C111.313 14.5244 111.625 14.226 111.869 13.8751C112.113 13.5243 112.285 13.1281 112.374 12.71C112.446 12.3035 112.473 11.8903 112.454 11.478C112.454 11.068 112.454 10.6636 112.454 10.265C112.438 9.86847 112.456 9.47135 112.508 9.07796C112.574 8.69699 112.703 8.32983 112.891 7.99196C113.248 7.34202 113.82 6.83621 114.508 6.56096C115.16 6.35402 115.847 6.28089 116.528 6.34596L123.108 6.36396L127.157 6.38096C128.069 6.38596 128.537 6.39596 128.537 6.39596C128.537 6.39596 128.069 6.40596 127.157 6.40996L123.108 6.42096L116.528 6.43096C115.86 6.36926 115.186 6.44237 114.546 6.64596C113.878 6.91519 113.324 7.40785 112.978 8.03996C112.796 8.36831 112.671 8.72498 112.608 9.09496C112.559 9.48155 112.543 9.87163 112.56 10.261C112.56 10.661 112.56 11.0653 112.56 11.474C112.58 11.8939 112.553 12.3148 112.481 12.729C112.39 13.1624 112.213 13.5733 111.96 13.9373C111.708 14.3014 111.385 14.6113 111.011 14.849C110.62 15.0956 110.179 15.2518 109.72 15.306C109.25 15.347 108.795 15.318 108.32 15.327H102.42H89.0352H84.4352C84.1141 15.3385 83.7929 15.3069 83.4802 15.233C82.8414 15.0738 82.2681 14.7194 81.8402 14.219C81.4031 13.7153 81.1247 13.0935 81.0402 12.432C81.0083 12.1067 80.9976 11.7796 81.0082 11.453C81.0082 11.1256 81.0082 10.7966 81.0082 10.466C81.0631 9.81083 80.9953 9.15121 80.8082 8.52096C80.5874 7.89814 80.1777 7.35977 79.6362 6.98096C79.0791 6.60335 78.4132 6.41957 77.7412 6.45796H62.5512C61.031 6.41238 59.5192 6.69905 58.1212 7.29796C56.702 7.92859 55.4426 8.87013 54.4362 10.053C53.4209 11.2748 52.7064 12.7178 52.3502 14.266C52.2482 14.653 52.2182 15.053 52.1482 15.453C52.1272 15.853 52.0982 16.253 52.0932 16.653C52.0932 17.4683 52.0932 18.2883 52.0932 19.113C52.0932 25.7076 52.0932 32.56 52.0932 39.67C52.0932 53.876 52.0932 69.056 52.0932 85.03C52.0932 101.004 52.0932 117.773 52.0932 135.159C52.0932 143.851 52.0932 152.69 52.0932 161.676C52.0932 166.165 52.0932 170.685 52.0932 175.238C52.0932 176.376 52.0932 177.516 52.0932 178.658C52.0557 179.791 52.1958 180.923 52.5082 182.013C53.1633 184.204 54.5425 186.108 56.4202 187.413C58.317 188.695 60.5826 189.318 62.8682 189.186H69.7212L83.2902 189.195L109.82 189.213L122.747 189.222C124.878 189.21 127.015 189.256 129.11 189.196C131.196 189.073 133.191 188.3 134.815 186.985C135.608 186.327 136.301 185.559 136.874 184.703C137.436 183.846 137.862 182.908 138.138 181.921C138.41 180.938 138.538 179.92 138.518 178.9C138.518 177.871 138.518 176.846 138.518 175.824C138.518 171.735 138.518 167.693 138.518 163.699C138.536 131.756 138.552 102.987 138.566 78.826C138.58 54.665 138.61 35.115 138.623 21.6C138.623 19.9113 138.626 18.3176 138.631 16.819C138.661 15.421 138.409 14.0314 137.89 12.733C137.44 11.6247 136.796 10.6055 135.988 9.72296C135.324 8.98595 134.551 8.35527 133.695 7.85296C132.543 7.14603 131.254 6.68979 129.913 6.51396C129.574 6.46126 129.232 6.4302 128.888 6.42096C128.658 6.40696 128.541 6.39596 128.541 6.39596C128.541 6.39596 128.658 6.39596 128.888 6.40596Z" fill="#1A2E35"/>
<path d="M98.2562 39.363C98.2562 39.2 98.2502 38.981 98.2452 38.704C98.2392 38.118 98.2312 37.287 98.2212 36.245C98.2082 34.136 98.1952 31.173 98.1782 27.685L98.2672 27.774L90.2282 27.785C90.2082 27.802 90.4082 27.599 90.3242 27.685V28.52C90.3242 28.7973 90.3242 29.0733 90.3242 29.348C90.3242 29.8967 90.3242 30.439 90.3242 30.975C90.3242 32.045 90.3242 33.086 90.3242 34.089C90.3142 36.095 90.3082 37.951 90.3082 39.597L90.2302 39.519L96.0632 39.56L97.6872 39.58L98.1172 39.589C98.1683 39.5884 98.2194 39.591 98.2702 39.597C98.2249 39.6039 98.179 39.6069 98.1332 39.606L97.7182 39.615L96.1082 39.634L90.2272 39.675H90.1492V39.597C90.1492 37.951 90.1402 36.097 90.1352 34.09C90.1352 33.09 90.1352 32.046 90.1352 30.976C90.1352 30.4427 90.1352 29.9003 90.1352 29.349V27.685C90.0432 27.772 90.2482 27.565 90.2282 27.585L98.2672 27.595H98.3562V27.685C98.3382 31.197 98.3232 34.185 98.3082 36.303C98.2982 37.337 98.2902 38.161 98.2842 38.742C98.2842 39.012 98.2762 39.224 98.2732 39.383C98.2747 39.4541 98.2713 39.5253 98.2632 39.596C98.2566 39.5185 98.2543 39.4407 98.2562 39.363V39.363Z" fill="white"/>
<path d="M96.7784 27.684V27.772H96.6894L95.6264 27.781L95.5264 27.681V27.463C95.5264 27.39 95.5264 27.318 95.5264 27.246C95.5264 27.105 95.5264 26.967 95.5264 26.832C95.537 26.5773 95.5444 26.3336 95.5484 26.101V26.021H95.6264C95.9824 26.0155 96.3382 26.0423 96.6894 26.101C96.3371 26.1503 95.982 26.1764 95.6264 26.179L95.7074 26.101C95.7074 26.3336 95.711 26.5776 95.7184 26.833C95.7184 26.968 95.7184 27.106 95.7184 27.247C95.7184 27.319 95.7184 27.391 95.7184 27.464V27.681C95.8074 27.771 95.6074 27.566 95.6264 27.587L96.6894 27.595L96.6004 27.684C96.5991 27.155 96.6288 26.6264 96.6894 26.101C96.758 26.6257 96.7877 27.1548 96.7784 27.684V27.684Z" fill="white"/>
<path d="M101.079 39.668H100.498L98.2689 39.655H98.2089V39.597C98.1849 36.917 98.1689 32.576 98.1689 27.687V27.587H98.2969H101.269H101.369V27.687C101.351 31.106 101.337 34.104 101.326 36.272C101.314 37.322 101.305 38.172 101.299 38.772C101.293 39.048 101.289 39.272 101.286 39.437C101.288 39.5112 101.284 39.5854 101.274 39.659C101.265 39.577 101.261 39.4945 101.262 39.412C101.262 39.238 101.255 39.012 101.25 38.726C101.244 38.114 101.234 37.259 101.223 36.199C101.207 34.051 101.192 31.076 101.175 27.687L101.275 27.787L98.2969 27.781H98.2689L98.3689 27.687C98.3689 32.576 98.3479 36.917 98.3249 39.597L98.2689 39.539L100.469 39.617L101.063 39.644C101.134 39.645 101.205 39.6503 101.276 39.66C101.211 39.6686 101.145 39.6713 101.079 39.668V39.668Z" fill="white"/>
<path d="M91.5098 30.423H92.7558V29.178H91.5098V30.423Z" fill="white"/>
<path d="M93.624 30.423H94.87V29.178H93.624V30.423Z" fill="white"/>
<path d="M95.7393 30.423H96.9853V29.178H95.7393V30.423Z" fill="white"/>
<path d="M91.5098 32.565H92.7558V31.32H91.5098V32.565Z" fill="white"/>
<path d="M93.624 32.565H94.87V31.32H93.624V32.565Z" fill="white"/>
<path d="M95.7393 32.565H96.9853V31.32H95.7393V32.565Z" fill="white"/>
<path d="M91.5098 34.706H92.7558V33.461H91.5098V34.706Z" fill="white"/>
<path d="M93.624 34.706H94.87V33.461H93.624V34.706Z" fill="white"/>
<path d="M95.7393 34.706H96.9853V33.461H95.7393V34.706Z" fill="white"/>
<path d="M91.5098 36.847H92.7558V35.602H91.5098V36.847Z" fill="white"/>
<path d="M125.194 73H67.1943C62.7761 73 59.1943 76.5817 59.1943 81C59.1943 85.4183 62.7761 89 67.1943 89H125.194C129.613 89 133.194 85.4183 133.194 81C133.194 76.5817 129.613 73 125.194 73Z" fill="#CCCCCC"/>
<path d="M125.194 99H67.1943C62.7761 99 59.1943 102.582 59.1943 107C59.1943 111.418 62.7761 115 67.1943 115H125.194C129.613 115 133.194 111.418 133.194 107C133.194 102.582 129.613 99 125.194 99Z" fill="#8C3E79"/>
<path d="M125.194 123H69.1943C68.6421 123 68.1943 123.448 68.1943 124C68.1943 124.552 68.6421 125 69.1943 125H125.194C125.747 125 126.194 124.552 126.194 124C126.194 123.448 125.747 123 125.194 123Z" fill="#8C3E79"/>
<path d="M113.694 130H77.6943C76.8659 130 76.1943 130.672 76.1943 131.5C76.1943 132.328 76.8659 133 77.6943 133H113.694C114.523 133 115.194 132.328 115.194 131.5C115.194 130.672 114.523 130 113.694 130Z" fill="#8C3E79"/>
<path d="M93.624 36.847H94.87V35.602H93.624V36.847Z" fill="white"/>
<path d="M95.7393 36.847H96.9853V35.602H95.7393V36.847Z" fill="white"/>
<path d="M99.041 30.423H100.287V29.178H99.041V30.423Z" fill="white"/>
<path d="M99.041 32.565H100.287V31.32H99.041V32.565Z" fill="white"/>
<path d="M99.041 34.706H100.287V33.461H99.041V34.706Z" fill="white"/>
<path d="M99.041 36.847H100.287V35.602H99.041V36.847Z" fill="white"/>
<path d="M93.7686 39.597H94.9896V37.669H93.7686V39.597Z" fill="white"/>
<path d="M103.938 39.5969C103.938 39.6509 100.07 39.6969 95.2992 39.6969C90.5282 39.6969 86.6592 39.6509 86.6592 39.5969C86.6592 39.5429 90.5262 39.4969 95.2992 39.4969C100.072 39.4969 103.938 39.5399 103.938 39.5969Z" fill="white"/>
<path d="M154.685 79.4989L135.002 79.8869L131.82 79.6089C131.82 79.6089 124.62 79.4089 123.928 79.2969C123.131 79.1709 122.879 79.5269 122.851 79.8249C122.811 80.2889 123.325 80.7019 124.005 80.8299C124.24 80.8739 127.978 81.4239 127.978 81.4239C127.592 81.5872 127.218 81.7773 126.859 81.9929C126.402 82.3596 126.027 82.8191 125.761 83.3411C125.494 83.863 125.342 84.4356 125.313 85.0209C125.15 86.3629 125.223 86.7539 125.739 86.8409C125.837 86.8527 125.937 86.8423 126.031 86.8105C126.125 86.7786 126.211 86.7262 126.282 86.6569C126.544 86.3855 126.72 86.0424 126.788 85.6709C127.225 83.1149 128.239 83.2809 128.239 83.2809L128.683 83.2709C128.683 83.2709 127.53 84.4709 127.761 85.5709C127.794 85.7318 127.859 85.8846 127.951 86.0209C127.906 86.3123 127.939 86.6102 128.045 86.885C128.151 87.1599 128.328 87.4022 128.557 87.5878C128.785 87.7734 129.059 87.896 129.35 87.9432C129.641 87.9904 129.939 87.9606 130.215 87.8569C130.482 87.7569 130.75 87.5349 130.737 87.2499C130.716 87.0998 130.657 86.9574 130.567 86.8359C130.522 86.7684 130.483 86.6972 130.451 86.6229L131.632 86.5609C131.632 86.5609 134.276 86.2799 135.44 86.2879L153.932 86.9009C156.565 87.1779 159.415 86.6219 159.645 83.9749C159.895 81.0949 157.556 79.3419 154.681 79.4989" fill="#CC8B6A"/>
<path d="M134.65 80.463C134.647 80.6692 134.58 80.8694 134.458 81.0355C134.336 81.2016 134.165 81.3252 133.969 81.389C133.59 81.547 133.169 81.572 132.779 81.702C131.615 82.092 130.893 83.36 129.71 83.694C129.546 83.74 129.328 83.746 129.248 83.594C129.168 83.442 129.275 83.288 129.372 83.161L131.862 79.935" fill="#CC8B6A"/>
<path d="M131.862 79.934C131.748 80.0271 131.648 80.135 131.562 80.255C131.377 80.471 131.117 80.788 130.798 81.184L129.685 82.58L129.367 82.985C129.213 83.1302 129.121 83.3301 129.112 83.542C129.124 83.6097 129.155 83.6725 129.203 83.7222C129.25 83.7719 129.311 83.8063 129.378 83.821C129.489 83.8453 129.603 83.8425 129.712 83.813C129.906 83.7589 130.092 83.6831 130.268 83.587C130.877 83.1804 131.456 82.7317 132.002 82.244C132.245 82.0553 132.515 81.9043 132.802 81.796C133.071 81.696 133.346 81.658 133.596 81.596C133.803 81.5621 133.999 81.4835 134.172 81.3655C134.345 81.2474 134.49 81.093 134.596 80.913C134.639 80.847 134.666 80.7722 134.675 80.6942C134.685 80.6162 134.676 80.5371 134.65 80.463C134.631 80.603 134.586 80.7384 134.519 80.863C134.407 81.0188 134.263 81.1496 134.098 81.2471C133.932 81.3445 133.748 81.4065 133.557 81.429C133.314 81.484 133.036 81.517 132.74 81.611C132.43 81.7179 132.139 81.8724 131.876 82.069C131.33 82.5404 130.757 82.9789 130.158 83.382C129.999 83.4679 129.832 83.5367 129.658 83.587C129.494 83.63 129.341 83.597 129.339 83.506C129.321 83.406 129.439 83.258 129.539 83.121L129.85 82.71L130.92 81.284C131.22 80.876 131.463 80.543 131.62 80.31C131.718 80.1965 131.799 80.0699 131.862 79.934" fill="#FF9A6C"/>
<path d="M128.683 83.2679C128.423 83.2543 128.164 83.3016 127.926 83.4059C127.679 83.5327 127.479 83.7352 127.355 83.9839C127.204 84.2963 127.103 84.6304 127.055 84.9739C127.005 85.3294 126.92 85.6788 126.8 86.0169C126.696 86.2998 126.52 86.5503 126.288 86.7429C126.207 86.8081 126.112 86.8535 126.01 86.8753C125.909 86.8972 125.803 86.895 125.703 86.8689C125.629 86.8523 125.561 86.8152 125.507 86.7619C125.513 86.7489 125.583 86.7849 125.714 86.8069C125.804 86.8203 125.897 86.8136 125.984 86.7874C126.072 86.7611 126.153 86.7159 126.221 86.6549C126.426 86.4645 126.58 86.2264 126.671 85.9619C126.78 85.63 126.859 85.289 126.907 84.9429C126.957 84.5837 127.068 84.2356 127.234 83.9129C127.376 83.6436 127.605 83.4298 127.883 83.3059C128.069 83.2257 128.271 83.1934 128.473 83.2119C128.614 83.2279 128.686 83.2599 128.684 83.2679" fill="#FF9A6C"/>
<path d="M123.745 80.772C123.996 80.7831 124.245 80.8166 124.489 80.872L126.273 81.172L128.061 81.442C128.311 81.4631 128.559 81.507 128.801 81.573C128.549 81.5952 128.296 81.5888 128.045 81.554C127.586 81.514 126.945 81.437 126.245 81.326C125.545 81.215 124.921 81.091 124.468 80.985C124.22 80.9413 123.977 80.8699 123.745 80.772" fill="#FF9A6C"/>
<path d="M129.394 84.243C129.403 84.25 129.354 84.32 129.276 84.443C129.217 84.5242 129.176 84.6173 129.156 84.7158C129.136 84.8144 129.137 84.9161 129.16 85.014C129.182 85.0754 129.219 85.13 129.268 85.1725C129.318 85.215 129.377 85.2437 129.441 85.256C129.601 85.2893 129.765 85.3028 129.928 85.296C130.134 85.2838 130.337 85.3479 130.499 85.476C130.58 85.5551 130.64 85.6522 130.677 85.7592C130.713 85.8662 130.723 85.9802 130.707 86.092C130.69 86.2018 130.651 86.3069 130.591 86.4009C130.532 86.495 130.455 86.576 130.363 86.639C130.2 86.7603 130.004 86.83 129.801 86.839C129.477 86.8316 129.156 86.7767 128.848 86.676C128.638 86.6143 128.441 86.5176 128.263 86.39C128.14 86.29 128.099 86.213 128.105 86.21C128.111 86.207 128.171 86.265 128.296 86.342C128.479 86.4456 128.674 86.5237 128.878 86.574C129.177 86.6568 129.486 86.6995 129.796 86.701C129.974 86.6956 130.145 86.6315 130.283 86.5186C130.421 86.4057 130.517 86.2504 130.557 86.077C130.57 85.9888 130.563 85.8988 130.535 85.814C130.508 85.7292 130.461 85.6519 130.399 85.588C130.263 85.4845 130.094 85.433 129.923 85.443C129.748 85.4452 129.573 85.424 129.404 85.38C129.323 85.3595 129.249 85.3184 129.188 85.2608C129.128 85.2032 129.083 85.1309 129.059 85.051C129.036 84.9391 129.039 84.8232 129.069 84.7128C129.098 84.6023 129.153 84.5004 129.229 84.415C129.329 84.294 129.387 84.238 129.395 84.243" fill="#FF9A6C"/>
<path d="M130.259 86.5649C130.259 86.5579 130.341 86.5489 130.466 86.6189C130.553 86.6712 130.627 86.743 130.682 86.8287C130.737 86.9145 130.771 87.0118 130.782 87.1129C130.792 87.2648 130.762 87.4167 130.696 87.5537C130.629 87.6906 130.528 87.8079 130.403 87.8939C130.097 88.0961 129.725 88.1724 129.365 88.1069C129.006 88.0521 128.675 87.8859 128.417 87.6319C128.209 87.4242 128.061 87.165 127.987 86.8809C127.935 86.6925 127.92 86.4961 127.941 86.3019C127.941 86.23 127.96 86.1593 127.994 86.0959C127.989 86.3508 128.021 86.6049 128.088 86.8509C128.17 87.1102 128.317 87.3446 128.514 87.5329C128.755 87.7598 129.06 87.9083 129.388 87.9589C129.711 88.0182 130.045 87.9547 130.325 87.7809C130.434 87.7096 130.524 87.6118 130.585 87.4966C130.647 87.3815 130.679 87.2526 130.678 87.1219C130.671 87.0331 130.646 86.9465 130.604 86.8682C130.561 86.7899 130.503 86.7216 130.432 86.6679C130.332 86.5959 130.256 86.5779 130.259 86.5649Z" fill="#FF9A6C"/>
<path d="M133.152 84.373C133.135 84.2506 133.156 84.1262 133.212 84.016C133.325 83.7212 133.533 83.4725 133.803 83.309L133.82 83.44C133.655 83.3967 133.493 83.3433 133.335 83.28C132.769 83.0818 132.27 82.7304 131.894 82.265C132.361 82.6096 132.864 82.9033 133.394 83.141C133.554 83.205 133.713 83.259 133.861 83.302L134.025 83.35L133.878 83.434C133.628 83.5798 133.427 83.7948 133.298 84.053C133.198 84.246 133.175 84.377 133.156 84.373" fill="#FF9A6C"/>
<path d="M126.787 83.454C126.81 83.425 127.056 83.611 127.142 83.962C127.228 84.313 127.112 84.595 127.076 84.578C127.04 84.561 127.083 84.305 127.001 84C126.919 83.695 126.757 83.488 126.787 83.454Z" fill="#FF9A6C"/>
<path d="M169.54 67.0259C169.24 67.4559 155.782 78.1439 154.118 78.5939C152.454 79.0439 137.078 79.2709 137.078 79.2709C137.078 79.2709 135.876 88.7619 136.272 89.4069C137.732 91.7769 155.296 98.0379 163.672 89.5539L169.54 68.0399" fill="#553791"/>
<path d="M152.658 84.388C152.551 84.1228 152.495 83.8399 152.492 83.554C152.377 82.1785 152.641 80.7977 153.256 79.562C153.364 79.2973 153.521 79.0554 153.719 78.849C153.35 79.7227 153.055 80.6259 152.836 81.549C152.698 82.4888 152.639 83.4384 152.658 84.388" fill="#1A2E35"/>
<path d="M154.116 84.758C154.01 84.4687 153.946 84.1656 153.926 83.858C153.828 83.1205 153.771 82.3779 153.757 81.634C153.741 80.8914 153.768 80.1485 153.836 79.409C153.843 79.0995 153.895 78.7926 153.99 78.498C154.06 78.505 153.959 79.904 153.997 81.629C154.035 83.354 154.186 84.748 154.116 84.758Z" fill="#1A2E35"/>
<path d="M169.639 68.729L169.994 66.456L167.134 68.986L165.711 73.938L169.639 68.729Z" fill="#1A2E35"/>
<path d="M172.727 64.106L170.717 65.24L164.252 76.126L164.277 81.826C163.411 84.1361 162.868 86.5545 162.663 89.013C162.568 92.213 162.663 103.93 162.663 103.93L154.5 158.238L161.477 160.5L175.29 97.261V63.248L172.727 64.106Z" fill="#8C3E79"/>
<path d="M161.477 160.499L155.956 158.709L163.856 99.795C163.856 99.795 162.536 91.16 163.856 87.377C165.176 83.594 167.2 78.033 167.2 78.033L164.895 88.581C165.076 97.757 164.729 106.936 163.856 116.072H165.97L161.477 160.499Z" fill="black"/>
<path d="M168.019 69.782C167.974 69.8838 167.919 69.9809 167.855 70.072C167.744 70.259 167.561 70.522 167.355 70.88C166.766 71.8828 166.248 72.9256 165.805 74.001C165.157 75.6002 164.636 77.2479 164.247 78.929C163.778 80.9912 163.431 83.0791 163.208 85.182C162.956 87.421 162.808 89.564 162.733 91.514C162.658 93.464 162.673 95.224 162.683 96.702C162.689 98.16 162.695 99.349 162.699 100.202C162.693 100.596 162.69 100.913 162.687 101.154C162.691 101.265 162.684 101.376 162.666 101.486C162.646 101.377 162.636 101.266 162.638 101.155C162.63 100.914 162.619 100.597 162.606 100.204C162.579 99.352 162.552 98.163 162.513 96.706C162.482 95.228 162.455 93.465 162.513 91.506C162.571 89.547 162.713 87.4 162.97 85.155C163.194 83.0441 163.549 80.9492 164.032 78.882C164.433 77.191 164.974 75.5364 165.65 73.935C166.109 72.8584 166.654 71.8202 167.279 70.83C167.496 70.482 167.692 70.224 167.816 70.044C167.875 69.9503 167.943 69.8626 168.019 69.782" fill="#1A2E35"/>
<path d="M188.595 48.111C189.111 46.8961 190.017 45.8879 191.171 45.246C191.747 44.9347 192.391 44.7682 193.046 44.7609C193.702 44.7536 194.349 44.9056 194.933 45.204C195.508 45.5219 195.968 46.0132 196.247 46.6079C196.527 47.2027 196.611 47.8704 196.489 48.516C197.482 49.0473 198.237 49.9356 198.601 51.0017C198.965 52.0677 198.911 53.2322 198.45 54.26C197.916 55.2498 197.024 55.9987 195.957 56.354C194.89 56.7093 193.727 56.6442 192.707 56.172C192.932 56.5471 193.073 56.9675 193.117 57.4031C193.161 57.8387 193.109 58.2788 192.963 58.6917C192.817 59.1046 192.582 59.4802 192.274 59.7916C191.967 60.103 191.594 60.3425 191.183 60.493C190.321 60.721 189.407 60.6476 188.593 60.2852C187.779 59.9227 187.113 59.2928 186.706 58.5C186.324 57.6918 186.131 56.8076 186.141 55.9141C186.151 55.0205 186.363 54.1407 186.762 53.341" fill="#1A2E35"/>
<path d="M187.841 49.019C187.963 48.7173 188.161 48.4526 188.417 48.2508C188.672 48.049 188.976 47.9171 189.298 47.868C189.621 47.83 189.948 47.897 190.231 48.0593C190.513 48.2216 190.736 48.4704 190.866 48.769C190.979 49.0743 190.972 49.4111 190.846 49.7115C190.721 50.0119 190.486 50.2537 190.19 50.388C190.554 50.5622 190.852 50.8513 191.036 51.211C191.221 51.5708 191.282 51.9811 191.211 52.379C191.121 52.7729 190.904 53.1264 190.594 53.3848C190.283 53.6431 189.896 53.7918 189.493 53.808C189.674 54.1436 189.739 54.5303 189.676 54.9068C189.613 55.2833 189.426 55.6279 189.145 55.886C188.851 56.1282 188.484 56.2647 188.103 56.2736C187.722 56.2825 187.35 56.1633 187.045 55.935C186.602 55.5475 186.33 55.0015 186.288 54.415C186.248 53.8343 186.285 53.251 186.398 52.68C186.531 51.8087 186.664 50.937 186.798 50.065C186.828 49.6779 186.938 49.3012 187.12 48.958C187.214 48.7892 187.356 48.6524 187.528 48.5651C187.7 48.4778 187.895 48.444 188.087 48.468" fill="#DA2C2C"/>
<path d="M166.79 41.871C166.515 41.2889 166.434 40.6343 166.559 40.0029C166.683 39.3716 167.006 38.7966 167.481 38.362C168.459 37.5146 169.733 37.0886 171.024 37.177C172.301 37.2712 173.56 37.5338 174.768 37.958C175.227 37.3571 175.844 36.896 176.551 36.6261C177.257 36.3563 178.025 36.2884 178.768 36.43C179.511 36.5717 180.199 36.9174 180.757 37.4283C181.314 37.9392 181.719 38.5953 181.925 39.323C182.365 39.151 182.843 39.1023 183.309 39.1819C183.775 39.2616 184.21 39.4667 184.568 39.7752C184.926 40.0837 185.193 40.4839 185.341 40.9328C185.488 41.3817 185.511 41.8623 185.406 42.323L179.99 45.05L175.195 56.786C174.362 57.6569 173.251 58.2088 172.054 58.346C170.858 58.4832 169.65 58.1969 168.643 57.537C167.674 56.8171 166.985 55.7825 166.695 54.6106C166.406 53.4387 166.533 52.2025 167.055 51.114C166.668 50.8485 166.328 50.5215 166.047 50.146C165.513 49.9158 165.031 49.582 164.627 49.1638C164.224 48.7456 163.907 48.2514 163.697 47.71C163.512 47.1236 163.446 46.5064 163.502 45.8942C163.558 45.282 163.735 44.687 164.022 44.1437C164.31 43.6005 164.703 43.1199 165.178 42.7297C165.653 42.3395 166.201 42.0476 166.79 41.871" fill="#1A2E35"/>
<path d="M173.464 64.189C173.588 62.363 173.678 61.112 173.676 61.126C173.674 61.14 170.164 60.25 169.793 55.531C169.732 52.4402 169.957 49.3504 170.465 46.301C170.861 43.523 172.977 40.24 175.729 40.755L184.222 43.641C185.058 43.798 185.296 44.536 185.212 45.386L185.251 45.786L183.795 59.101L183.221 65.041C183.067 66.3023 182.429 67.4544 181.442 68.2544C180.455 69.0544 179.196 69.4397 177.93 69.3289C176.664 69.2181 175.491 68.6199 174.657 67.6606C173.824 66.7013 173.396 65.4558 173.464 64.187" fill="#CC8B6A"/>
<path d="M171.347 49.9809C171.333 50.1364 171.381 50.2912 171.479 50.4123C171.577 50.5335 171.719 50.6116 171.874 50.6299C171.949 50.6418 172.026 50.6385 172.101 50.6201C172.175 50.6018 172.244 50.5688 172.305 50.5232C172.366 50.4775 172.418 50.4201 172.456 50.3543C172.495 50.2885 172.52 50.2156 172.53 50.1399C172.545 49.9844 172.499 49.8291 172.402 49.7069C172.304 49.5848 172.163 49.5055 172.008 49.4859C171.932 49.4735 171.854 49.4766 171.779 49.4949C171.704 49.5133 171.634 49.5466 171.572 49.5928C171.511 49.639 171.459 49.6972 171.42 49.7639C171.381 49.8306 171.357 49.9044 171.347 49.9809" fill="#1A2E35"/>
<path d="M171.243 48.819C171.31 48.903 171.788 48.604 172.428 48.656C173.068 48.708 173.513 49.068 173.589 48.994C173.626 48.963 173.561 48.816 173.368 48.65C173.107 48.4333 172.785 48.3033 172.447 48.278C172.114 48.2515 171.78 48.3325 171.496 48.509C171.287 48.646 171.209 48.778 171.243 48.819Z" fill="#1A2E35"/>
<path d="M177.164 50.449C177.151 50.6044 177.198 50.7592 177.296 50.8803C177.395 51.0015 177.536 51.0796 177.691 51.098C177.767 51.11 177.844 51.1067 177.918 51.0884C177.992 51.0702 178.062 51.0372 178.123 50.9915C178.184 50.9458 178.236 50.8884 178.274 50.8225C178.313 50.7566 178.338 50.6837 178.347 50.608C178.362 50.4524 178.316 50.2972 178.219 50.1753C178.121 50.0533 177.98 49.9743 177.824 49.955C177.749 49.9425 177.671 49.9456 177.596 49.9639C177.521 49.9822 177.451 50.0154 177.389 50.0615C177.328 50.1076 177.276 50.1657 177.237 50.2323C177.199 50.2989 177.174 50.3726 177.164 50.449" fill="#1A2E35"/>
<path d="M177.37 49.1819C177.438 49.2659 177.917 48.9669 178.556 49.0189C179.195 49.0709 179.642 49.4309 179.717 49.3569C179.754 49.3249 179.691 49.1789 179.497 49.0129C179.235 48.7962 178.913 48.6662 178.575 48.6409C178.241 48.6147 177.908 48.6957 177.624 48.8719C177.415 49.0089 177.337 49.1409 177.37 49.1819Z" fill="#1A2E35"/>
<path d="M174.721 53.55C174.391 53.4169 174.046 53.3258 173.693 53.279C173.531 53.249 173.379 53.204 173.36 53.089C173.36 52.9197 173.411 52.7545 173.507 52.615L174.09 51.4C174.622 50.3759 175.072 49.3108 175.434 48.215C174.82 49.1936 174.284 50.2199 173.834 51.284L173.274 52.505C173.156 52.695 173.108 52.9204 173.139 53.142C173.158 53.2018 173.19 53.2564 173.234 53.3018C173.277 53.3472 173.33 53.3822 173.389 53.404C173.478 53.4359 173.57 53.4564 173.664 53.465C174.011 53.5383 174.367 53.5669 174.721 53.55" fill="#1A2E35"/>
<path d="M173.676 61.125C175.86 61.3321 178.059 60.9266 180.025 59.954C180.025 59.954 178.197 63.118 173.585 62.314L173.676 61.125Z" fill="#CC8B6A"/>
<path d="M177.5 47.4369C177.569 47.6119 178.209 47.5239 178.964 47.6109C179.72 47.6819 180.33 47.8989 180.429 47.7449C180.473 47.6699 180.366 47.5059 180.119 47.3369C179.791 47.1263 179.418 46.9968 179.031 46.9589C178.645 46.9146 178.254 46.9633 177.89 47.1009C177.614 47.2149 177.475 47.3539 177.5 47.4369Z" fill="#1A2E35"/>
<path d="M171.363 47.559C171.485 47.715 172.02 47.605 172.648 47.648C173.278 47.672 173.8 47.838 173.934 47.69C173.993 47.62 173.921 47.467 173.7 47.31C173.393 47.1133 173.04 47.0028 172.676 46.99C172.314 46.9649 171.952 47.0393 171.629 47.205C171.395 47.338 171.31 47.483 171.363 47.559Z" fill="#1A2E35"/>
<path d="M181.87 40.878C181.837 41.3455 181.701 41.8001 181.473 42.2092C181.244 42.6183 180.928 42.972 180.547 43.245C180.166 43.518 179.729 43.7036 179.268 43.7887C178.808 43.8737 178.333 43.8561 177.88 43.737C177.18 43.552 176.43 43.137 175.787 43.464C175.11 43.813 175.009 44.788 174.398 45.243C173.525 45.893 172.274 45.124 171.211 45.353C170.423 45.6549 169.74 46.1817 169.248 46.868C168.999 47.2068 168.659 47.4676 168.267 47.6199C167.875 47.7722 167.448 47.8097 167.035 47.728C167.114 47.0041 167.276 46.2918 167.518 45.605C167.764 44.9136 168.241 44.3282 168.868 43.948C169.234 43.7925 169.593 43.6186 169.941 43.427C170.649 42.939 170.875 42.011 171.341 41.289C171.648 40.8246 172.062 40.4405 172.549 40.1688C173.035 39.897 173.579 39.7455 174.135 39.727C175.045 39.8487 175.962 39.9048 176.88 39.895C177.551 39.78 178.159 39.395 178.835 39.319C180.153 39.172 181.288 40.205 182.159 41.205" fill="#1A2E35"/>
<path d="M177.572 42.412C178.362 42.3176 179.111 42.0096 179.738 41.521C180.093 41.0005 180.578 40.5832 181.146 40.3115C181.714 40.0398 182.344 39.9233 182.971 39.974C183.601 40.0735 184.181 40.3742 184.626 40.8309C185.07 41.2877 185.355 41.876 185.437 42.508C186.195 42.5942 186.916 42.8836 187.524 43.3457C188.131 43.8077 188.602 44.4252 188.887 45.133C189.181 45.8754 189.291 46.678 189.207 47.4721C189.124 48.2662 188.849 49.0282 188.406 49.693C188.194 50.0425 188.007 50.4063 187.845 50.782C188.175 51.0995 188.474 51.4478 188.737 51.822C189.969 53.829 187.47 54.981 187.47 54.981C187.646 56.414 186.331 56.581 185.486 56.681C184.674 56.781 184.463 59.104 183.796 59.101L183.57 52.04C183.477 52.0913 183.376 52.1252 183.27 52.14C181.682 52.37 181.71 49.296 182.125 48.45C181.573 47.9213 181.09 47.3253 180.686 46.676C180.261 45.6573 180.097 44.5481 180.211 43.45C179.274 43.2734 178.379 42.9212 177.572 42.412" fill="#1A2E35"/>
<path d="M183.378 52.441C183.404 52.2126 183.487 51.9944 183.619 51.8069C183.752 51.6193 183.93 51.4685 184.137 51.3686C184.344 51.2687 184.573 51.2229 184.803 51.2356C185.032 51.2482 185.254 51.3189 185.449 51.441C185.732 51.6668 185.943 51.9697 186.058 52.3131C186.172 52.6565 186.184 53.0257 186.093 53.376C186.08 53.7291 185.978 54.0733 185.797 54.3768C185.616 54.6803 185.361 54.9334 185.057 55.113C184.752 55.2926 184.408 55.3928 184.055 55.4045C183.701 55.4162 183.351 55.339 183.035 55.18C183.035 55.13 183.235 53.598 183.378 52.441" fill="#CC8B6A"/>
<path d="M184.008 54.221C184.021 54.213 184.053 54.261 184.13 54.308C184.239 54.3711 184.369 54.3894 184.492 54.359C184.685 54.2654 184.851 54.122 184.971 53.9435C185.091 53.765 185.162 53.5577 185.176 53.343C185.212 53.1042 185.195 52.8604 185.126 52.629C185.11 52.5389 185.073 52.4538 185.018 52.381C184.962 52.3082 184.89 52.2499 184.808 52.211C184.754 52.1905 184.694 52.1893 184.64 52.2075C184.585 52.2257 184.538 52.2623 184.508 52.311C184.456 52.384 184.467 52.442 184.452 52.445C184.437 52.448 184.398 52.391 184.434 52.278C184.457 52.2107 184.503 52.1536 184.564 52.116C184.647 52.0671 184.747 52.0531 184.841 52.077C184.952 52.1131 185.052 52.1769 185.132 52.2625C185.212 52.348 185.268 52.4525 185.297 52.566C185.387 52.8225 185.413 53.0971 185.373 53.366C185.358 53.6172 185.27 53.8585 185.118 54.0595C184.967 54.2604 184.759 54.412 184.522 54.495C184.444 54.5075 184.365 54.5024 184.289 54.4801C184.214 54.4578 184.145 54.4188 184.087 54.366C184.008 54.289 184.002 54.224 184.008 54.221Z" fill="#FF9A6C"/>
<path d="M168.403 50.523C168.417 50.5 168.134 50.365 167.736 49.987C167.179 49.4424 166.792 48.7475 166.623 47.987C166.499 47.4689 166.482 46.9309 166.573 46.406C166.68 45.8079 166.945 45.2494 167.341 44.789C167.803 44.2692 168.394 43.8801 169.054 43.6605C169.714 43.441 170.42 43.3987 171.101 43.538C171.233 43.562 171.358 43.611 171.484 43.645C171.61 43.679 171.723 43.745 171.838 43.791L172.016 43.864L171.996 43.673C171.959 43.3463 172.039 43.017 172.222 42.744C172.404 42.4765 172.643 42.2525 172.922 42.088C173.463 41.777 174.091 41.6503 174.71 41.727C175.902 41.842 176.953 42.246 177.894 42.233C178.636 42.2647 179.363 42.0183 179.933 41.542C180.078 41.4056 180.199 41.2453 180.29 41.068C180.322 41.0065 180.345 40.9409 180.359 40.873C180.232 41.0996 180.07 41.3044 179.878 41.48C179.31 41.9113 178.607 42.1242 177.895 42.08C177.402 42.0549 176.912 41.9799 176.434 41.856C175.873 41.7087 175.303 41.5995 174.727 41.529C174.407 41.4957 174.084 41.5048 173.766 41.556C173.432 41.6176 173.111 41.7367 172.817 41.908C172.508 42.0871 172.242 42.3331 172.04 42.628C171.827 42.9442 171.734 43.3261 171.777 43.705L171.934 43.591C171.811 43.541 171.687 43.483 171.557 43.435C171.427 43.387 171.289 43.347 171.149 43.321C170.43 43.1729 169.684 43.2184 168.988 43.453C168.292 43.6875 167.67 44.1027 167.187 44.656C166.772 45.146 166.498 45.7394 166.393 46.373C166.304 46.9238 166.331 47.487 166.471 48.027C166.66 48.8078 167.081 49.5131 167.678 50.05C167.838 50.1947 168.014 50.3206 168.202 50.425C168.264 50.4671 168.331 50.5008 168.402 50.525" fill="#375A64"/>
<path d="M167.732 40.932C167.986 40.7524 168.267 40.6134 168.563 40.52C168.904 40.4269 169.262 40.4135 169.608 40.481C170.056 40.5594 170.465 40.7841 170.771 41.12L170.893 41.255L170.932 41.078C171.086 40.5334 171.381 40.0395 171.789 39.6469C172.196 39.2543 172.701 38.9772 173.25 38.844C174.122 38.6988 175.017 38.8391 175.802 39.244C176.468 39.5675 177.165 39.8225 177.882 40.005C178.376 40.1233 178.891 40.1178 179.382 39.989C179.514 39.9502 179.641 39.8969 179.76 39.83C179.841 39.782 179.88 39.754 179.877 39.747C179.874 39.74 179.697 39.827 179.361 39.905C178.881 39.9941 178.387 39.9733 177.916 39.844C177.215 39.6406 176.534 39.3728 175.881 39.044C175.48 38.8635 175.061 38.7228 174.632 38.624C174.161 38.5162 173.671 38.5162 173.199 38.624C172.611 38.7662 172.073 39.0655 171.642 39.4897C171.21 39.914 170.902 40.4474 170.75 41.033L170.913 40.992C170.574 40.6314 170.122 40.3969 169.632 40.327C169.264 40.2674 168.887 40.2969 168.532 40.413C168.305 40.4867 168.093 40.6008 167.906 40.75C167.782 40.858 167.726 40.926 167.733 40.932" fill="#375A64"/>
<path d="M175.12 54.91C175.208 54.8099 175.318 54.7303 175.44 54.6768C175.562 54.6232 175.695 54.597 175.829 54.6C175.98 54.6129 176.128 54.6577 176.261 54.7312C176.394 54.8048 176.511 54.9055 176.603 55.027L176.615 55.041C176.623 55.052 176.635 55.061 176.643 55.073L176.632 55.067C176.704 55.1539 176.746 55.262 176.752 55.375C176.747 55.5012 176.711 55.6243 176.647 55.7334C176.584 55.8426 176.494 55.9344 176.387 56.001C176.221 56.1141 176.024 56.1732 175.824 56.17C175.623 56.1667 175.429 56.1014 175.267 55.983C175.112 55.8551 175.011 55.6738 174.984 55.4751C174.957 55.2764 175.005 55.0747 175.12 54.91" fill="#FF4F5B"/>
<path d="M176.778 54.3849C176.741 54.3749 176.685 54.5229 176.546 54.7169C176.371 54.9671 176.128 55.1619 175.846 55.2779C175.558 55.3838 175.245 55.4047 174.946 55.3379C174.715 55.2849 174.575 55.2159 174.552 55.2479C174.529 55.2799 174.644 55.4029 174.894 55.5069C175.227 55.6387 175.597 55.6404 175.932 55.5119C176.265 55.382 176.538 55.1324 176.697 54.8119C176.814 54.5619 176.807 54.3909 176.778 54.3849Z" fill="#1A2E35"/>
<path d="M187.529 46.668C187.574 46.6427 187.615 46.6118 187.653 46.576C187.764 46.4794 187.868 46.3755 187.966 46.265C188.334 45.8574 188.594 45.3635 188.722 44.829C188.806 44.4553 188.806 44.0676 188.722 43.694C188.627 43.261 188.41 42.8642 188.098 42.55C187.923 42.3765 187.716 42.2395 187.488 42.1472C187.26 42.0548 187.016 42.0088 186.771 42.012C186.505 42.0069 186.242 42.0635 186.001 42.1773C185.761 42.2912 185.551 42.4591 185.387 42.668L185.516 42.736C185.516 42.727 185.523 42.716 185.526 42.706C185.887 41.7557 185.86 40.7013 185.45 39.771C185.278 39.3946 185.017 39.066 184.689 38.8141C184.361 38.5621 183.976 38.3945 183.569 38.326C183.294 38.2916 183.015 38.3128 182.749 38.3884C182.483 38.464 182.234 38.5924 182.019 38.766C181.904 38.8615 181.803 38.9722 181.719 39.095C181.687 39.1367 181.662 39.1824 181.643 39.231C181.763 39.0758 181.901 38.9352 182.054 38.812C182.484 38.4935 183.023 38.3571 183.554 38.432C183.94 38.5048 184.303 38.6702 184.612 38.914C184.92 39.1579 185.165 39.4728 185.326 39.832C185.711 40.7311 185.732 41.7449 185.384 42.659L185.374 42.689L185.232 43.123L185.502 42.757C185.653 42.5664 185.845 42.4131 186.065 42.3091C186.285 42.205 186.525 42.153 186.769 42.157C186.996 42.1533 187.222 42.1949 187.433 42.2794C187.645 42.3639 187.837 42.4895 188 42.649C188.297 42.9433 188.505 43.3156 188.6 43.723C188.686 44.0801 188.693 44.4519 188.62 44.812C188.503 45.3343 188.263 45.8212 187.92 46.232C187.68 46.526 187.52 46.663 187.526 46.673" fill="#1A2E35"/>
<path d="M192.156 55.8449C192.18 55.8587 192.205 55.8697 192.232 55.8779L192.459 55.9609C192.659 56.0309 192.959 56.1339 193.34 56.2529C193.808 56.4001 194.284 56.52 194.766 56.6119C195.407 56.7375 196.064 56.7682 196.714 56.7029C197.508 56.6231 198.268 56.3336 198.914 55.8639C199.279 55.5821 199.585 55.2304 199.813 54.8294C200.041 54.4284 200.188 53.986 200.244 53.5279C200.369 52.5171 200.209 51.4912 199.781 50.5669C199.565 50.0721 199.244 49.6302 198.841 49.2719C198.414 48.9006 197.868 48.6945 197.303 48.6909C196.896 48.6842 196.499 48.8137 196.175 49.0589L196.275 49.1679C196.628 48.7791 196.881 48.3103 197.012 47.8019C197.132 47.311 197.153 46.801 197.073 46.3019C197.003 45.8295 196.833 45.3774 196.575 44.9757C196.316 44.574 195.975 44.2318 195.575 43.9719C194.849 43.5173 193.994 43.3109 193.141 43.3839C192.401 43.4421 191.694 43.716 191.109 44.1719C190.634 44.5476 190.243 45.0183 189.961 45.5539C189.75 45.9566 189.6 46.3883 189.516 46.8349C189.462 47.1154 189.437 47.4005 189.441 47.6859C189.447 47.7769 189.451 47.8499 189.455 47.9069C189.455 47.9322 189.458 47.9574 189.464 47.9819C189.461 47.6003 189.496 47.2194 189.57 46.8449C189.663 46.4074 189.818 45.9854 190.031 45.5919C190.314 45.071 190.702 44.6142 191.17 44.2499C191.743 43.8137 192.43 43.5541 193.149 43.5029C193.976 43.4387 194.802 43.6439 195.503 44.0879C195.886 44.3377 196.211 44.6657 196.458 45.0505C196.705 45.4352 196.867 45.8679 196.935 46.3199C197.011 46.7999 196.99 47.2902 196.874 47.7619C196.749 48.2453 196.508 48.6913 196.174 49.0619L196.274 49.1709C196.572 48.9467 196.937 48.8284 197.311 48.8349C197.842 48.8387 198.353 49.0324 198.754 49.3809C199.14 49.726 199.447 50.1507 199.654 50.6259C200.073 51.5247 200.232 52.5225 200.114 53.5069C200.062 53.949 199.923 54.3764 199.704 54.7642C199.485 55.152 199.192 55.4925 198.841 55.7659C198.213 56.2278 197.474 56.5152 196.699 56.5989C196.059 56.6691 195.411 56.6462 194.778 56.5309C194.298 56.4455 193.822 56.3343 193.354 56.1979L192.466 55.9319L192.241 55.8639C192.215 55.8546 192.187 55.8486 192.16 55.8459" fill="#1A2E35"/>
<path d="M187.906 60.314C188.008 60.3956 188.119 60.4653 188.237 60.522C188.548 60.6962 188.872 60.8457 189.206 60.969C189.705 61.16 190.237 61.253 190.771 61.243C191.437 61.2288 192.076 60.981 192.577 60.543C192.83 60.306 193.023 60.0123 193.14 59.686C193.249 59.3837 193.305 59.0651 193.306 58.744C193.301 58.2079 193.189 57.6781 192.979 57.185C192.842 56.8547 192.684 56.5333 192.506 56.223C192.451 56.1054 192.384 55.9938 192.306 55.89C192.345 56.014 192.395 56.1342 192.456 56.249C192.561 56.477 192.722 56.803 192.877 57.222C193.068 57.7061 193.165 58.2217 193.165 58.742C193.171 59.0555 193.112 59.3668 192.994 59.6571C192.876 59.9474 192.699 60.2107 192.476 60.431C192.001 60.8468 191.396 61.0856 190.764 61.107C190.246 61.1223 189.73 61.0423 189.24 60.871C188.399 60.579 187.919 60.29 187.906 60.314Z" fill="#1A2E35"/>
<path d="M186.414 62.13C186.287 62.1079 186.165 62.0595 186.057 61.988C185.919 61.8808 185.811 61.7397 185.744 61.5786C185.676 61.4174 185.652 61.2415 185.672 61.068C185.679 60.9508 185.712 60.8365 185.767 60.733C185.823 60.6295 185.9 60.5391 185.993 60.468C186.095 60.3886 186.221 60.3455 186.351 60.3455C186.48 60.3455 186.606 60.3886 186.708 60.468C186.758 60.5147 186.798 60.5708 186.826 60.6331C186.854 60.6954 186.869 60.7627 186.871 60.831C186.873 60.8997 186.855 60.9676 186.821 61.0274C186.787 61.0873 186.738 61.1368 186.678 61.171C186.543 61.2417 186.388 61.2653 186.238 61.238C186.077 61.2116 185.924 61.1524 185.787 61.064C185.527 60.8798 185.314 60.6375 185.164 60.3565C185.014 60.0754 184.932 59.7633 184.924 59.445C184.915 58.9143 185.015 58.3874 185.218 57.897C185.326 57.5558 185.488 57.2344 185.698 56.945C185.741 56.8969 185.793 56.8586 185.851 56.8325C185.91 56.8065 185.973 56.7933 186.037 56.794C186.005 56.7769 185.969 56.7703 185.933 56.775C185.829 56.7846 185.732 56.8302 185.658 56.904C185.545 57.0164 185.453 57.1485 185.387 57.294C185.301 57.457 185.21 57.645 185.121 57.859C184.898 58.3597 184.784 58.9025 184.787 59.451C184.8 59.779 184.879 60.1009 185.021 60.397C185.171 60.7205 185.409 60.9953 185.708 61.19C185.857 61.2985 186.031 61.3656 186.214 61.3842C186.397 61.4028 186.582 61.3724 186.749 61.296C186.83 61.2486 186.897 61.1804 186.943 61.0985C186.989 61.0165 187.012 60.9238 187.01 60.83C187.007 60.7426 186.987 60.6567 186.95 60.5774C186.914 60.498 186.862 60.4268 186.797 60.368C186.735 60.3136 186.662 60.2722 186.584 60.2461C186.505 60.22 186.423 60.2098 186.34 60.216C186.188 60.226 186.043 60.2791 185.92 60.369C185.815 60.4514 185.728 60.5559 185.667 60.675C185.606 60.7942 185.572 60.9252 185.566 61.059C185.548 61.2477 185.581 61.4378 185.661 61.6096C185.741 61.7814 185.866 61.9286 186.022 62.036C186.108 62.0915 186.206 62.1258 186.307 62.136C186.341 62.1419 186.375 62.1399 186.407 62.13" fill="#1A2E35"/>
<path d="M196.05 56.049C196.09 56.0623 196.132 56.0693 196.175 56.07C196.298 56.0739 196.421 56.057 196.538 56.02C196.754 55.9446 196.949 55.8202 197.109 55.6566C197.269 55.493 197.389 55.2946 197.459 55.077C197.543 54.7476 197.54 54.402 197.449 54.0744C197.359 53.7468 197.184 53.4484 196.943 53.209C196.589 52.8394 196.143 52.5718 195.65 52.434C195.157 52.2963 194.637 52.2935 194.143 52.426L194.232 52.526C194.35 52.1612 194.374 51.7724 194.301 51.396C194.228 51.0196 194.06 50.6679 193.814 50.374C193.601 50.1199 193.329 49.9223 193.022 49.799C192.757 49.6965 192.476 49.6456 192.192 49.649C191.785 49.6519 191.388 49.7693 191.045 49.988C190.952 50.0449 190.867 50.112 190.789 50.188C190.737 50.241 190.714 50.27 190.714 50.274C190.714 50.278 190.833 50.172 191.073 50.034C191.414 49.8417 191.8 49.7434 192.192 49.749C192.461 49.7525 192.727 49.8065 192.977 49.908C193.264 50.0285 193.517 50.2177 193.714 50.459C193.94 50.7362 194.094 51.0658 194.16 51.4176C194.226 51.7694 194.204 52.1322 194.094 52.473L194.049 52.604L194.183 52.568C194.652 52.4436 195.145 52.4459 195.613 52.5746C196.081 52.7034 196.506 52.9541 196.845 53.301C197.074 53.5234 197.242 53.8011 197.332 54.1074C197.422 54.4136 197.432 54.7379 197.36 55.049C197.297 55.255 197.189 55.4445 197.044 55.6035C196.899 55.7625 196.719 55.887 196.52 55.968C196.368 56.0183 196.21 56.0466 196.051 56.052" fill="#375A64"/>
<path d="M196.387 47.42C196.331 47.3838 196.268 47.3587 196.202 47.346C196.017 47.3001 195.825 47.2882 195.635 47.311C195.346 47.3436 195.069 47.4428 194.825 47.601C194.51 47.7989 194.265 48.0906 194.125 48.435L194.244 48.413C194.013 48.1612 193.7 47.9993 193.361 47.956C192.872 47.8923 192.377 48.0069 191.966 48.279C191.641 48.4995 191.359 48.7782 191.134 49.101C190.981 49.3132 190.843 49.5357 190.721 49.767C190.67 49.8481 190.629 49.9359 190.602 50.028C190.625 50.042 190.819 49.68 191.216 49.163C191.444 48.8612 191.723 48.6008 192.039 48.393C192.425 48.146 192.886 48.0426 193.34 48.101C193.645 48.1375 193.928 48.2789 194.14 48.501L194.217 48.586L194.259 48.48C194.386 48.1619 194.607 47.8902 194.892 47.701C195.119 47.5467 195.376 47.4443 195.647 47.401C195.893 47.3717 196.142 47.3781 196.386 47.42" fill="#375A64"/>
<path d="M183.726 61.491L173.303 62.972L172.838 66.281C172.838 66.281 167.657 75.372 167.2 78.033C166.743 80.694 164.433 87.291 164.894 92.262C165.355 97.233 163.857 116.072 163.857 116.072H166.508L176.767 90.991L183.726 61.491Z" fill="#F1F1F1"/>
<path d="M190.923 182.565L193.539 192.065C193.539 192.065 184.643 197.222 184.957 199.028L203.643 195.298L200.172 180.328L190.923 182.565Z" fill="#DA2C2C"/>
<path d="M199.079 189.887C199.271 189.899 199.452 189.981 199.587 190.117C199.722 190.254 199.802 190.436 199.811 190.628C199.807 190.82 199.729 191.002 199.594 191.138C199.459 191.275 199.277 191.354 199.085 191.36C198.881 191.348 198.689 191.261 198.546 191.115C198.403 190.969 198.319 190.775 198.311 190.571C198.336 190.371 198.438 190.188 198.595 190.062C198.752 189.935 198.952 189.875 199.153 189.894" fill="white"/>
<path d="M203.643 195.295L203.293 193.786L185.375 198.019C185.203 198.156 185.069 198.335 184.983 198.537C184.897 198.74 184.864 198.961 184.885 199.18L203.643 195.295Z" fill="white"/>
<path d="M193.215 192.04C193.242 192.13 193.704 192.063 194.215 192.251C194.726 192.439 195.057 192.762 195.132 192.706C195.215 192.666 194.951 192.151 194.324 191.941C193.697 191.731 193.178 191.961 193.215 192.04Z" fill="#1A2E35"/>
<path d="M191.464 193.312C191.464 193.405 191.893 193.466 192.292 193.776C192.691 194.086 192.876 194.476 192.965 194.446C193.053 194.44 192.99 193.893 192.487 193.516C191.984 193.139 191.446 193.225 191.464 193.312Z" fill="#1A2E35"/>
<path d="M190.914 195.91C191.001 195.91 191.019 195.426 190.668 194.984C190.317 194.542 189.849 194.445 189.826 194.53C189.803 194.615 190.126 194.818 190.413 195.186C190.7 195.554 190.82 195.922 190.913 195.91" fill="#1A2E35"/>
<path d="M192.86 189.809C192.917 189.883 193.303 189.658 193.823 189.571C194.343 189.484 194.78 189.55 194.808 189.461C194.836 189.372 194.377 189.139 193.766 189.251C193.155 189.363 192.798 189.751 192.86 189.809" fill="#1A2E35"/>
<path d="M191.444 184.445L191.908 186.137L200.996 183.878L200.644 182.337L191.444 184.445Z" fill="black"/>
<path d="M192.367 187.884C192.691 187.894 193.011 187.816 193.294 187.657C193.614 187.517 193.917 187.338 194.194 187.125C194.359 186.998 194.514 186.86 194.66 186.711C194.75 186.629 194.827 186.534 194.888 186.429C194.932 186.35 194.949 186.259 194.935 186.17C194.922 186.08 194.88 185.998 194.815 185.935C194.754 185.882 194.682 185.844 194.604 185.825C194.526 185.806 194.445 185.805 194.367 185.823C194.249 185.85 194.135 185.894 194.03 185.954C193.843 186.05 193.666 186.163 193.5 186.291C193.22 186.508 192.977 186.767 192.778 187.059C192.568 187.31 192.44 187.62 192.412 187.946C192.46 187.966 192.602 187.632 192.961 187.198C193.171 186.946 193.412 186.721 193.68 186.531C193.836 186.421 194.001 186.323 194.174 186.239C194.358 186.139 194.525 186.099 194.596 186.175C194.622 186.204 194.627 186.217 194.596 186.284C194.549 186.361 194.493 186.432 194.427 186.493C194.294 186.634 194.152 186.768 194.004 186.893C193.75 187.104 193.477 187.291 193.189 187.452C192.905 187.577 192.63 187.721 192.367 187.884" fill="#1A2E35"/>
<path d="M192.516 187.986C192.628 187.678 192.639 187.342 192.547 187.028C192.481 186.679 192.357 186.345 192.179 186.038C192.072 185.856 191.948 185.686 191.808 185.529C191.729 185.418 191.624 185.33 191.501 185.272C191.378 185.215 191.243 185.19 191.108 185.2C191.025 185.221 190.95 185.265 190.891 185.328C190.833 185.391 190.794 185.469 190.779 185.553C190.757 185.673 190.752 185.796 190.764 185.917C190.781 186.133 190.832 186.344 190.913 186.545C191.047 186.881 191.261 187.179 191.538 187.412C192.014 187.812 192.418 187.826 192.418 187.793C192.437 187.74 192.081 187.64 191.693 187.243C191.47 187.014 191.299 186.739 191.193 186.438C191.13 186.263 191.092 186.08 191.081 185.895C191.058 185.695 191.099 185.514 191.178 185.517C191.269 185.495 191.458 185.605 191.574 185.744C191.704 185.883 191.821 186.034 191.924 186.194C192.098 186.469 192.233 186.768 192.324 187.081C192.479 187.621 192.463 187.981 192.516 187.986" fill="#1A2E35"/>
<path d="M163.621 181.99L162.46 191.775C162.46 191.775 152.281 193.171 151.891 194.959L170.591 198.605L173.026 183.433L163.621 181.99Z" fill="#DA2C2C"/>
<path d="M168.407 191.866C168.58 191.95 168.716 192.095 168.788 192.272C168.861 192.45 168.866 192.648 168.802 192.829C168.726 193.004 168.585 193.144 168.408 193.218C168.232 193.293 168.034 193.296 167.854 193.229C167.672 193.14 167.528 192.986 167.452 192.798C167.376 192.609 167.372 192.399 167.44 192.208C167.539 192.033 167.702 191.903 167.895 191.846C168.088 191.788 168.295 191.808 168.473 191.901" fill="white"/>
<path d="M170.593 198.605L170.838 197.076L152.657 194.186C152.446 194.249 152.255 194.363 152.1 194.519C151.945 194.674 151.831 194.866 151.77 195.077L170.593 198.605Z" fill="white"/>
<path d="M162.17 191.631C162.159 191.724 162.612 191.837 163.018 192.205C163.424 192.573 163.605 192.997 163.696 192.974C163.784 192.974 163.732 192.396 163.232 191.96C162.732 191.524 162.163 191.544 162.17 191.631Z" fill="#1A2E35"/>
<path d="M160.066 192.143C160.033 192.229 160.407 192.448 160.658 192.887C160.909 193.326 160.936 193.752 161.028 193.763C161.112 193.791 161.26 193.263 160.936 192.721C160.612 192.179 160.083 192.055 160.066 192.143Z" fill="#1A2E35"/>
<path d="M158.584 194.338C158.665 194.37 158.864 193.929 158.707 193.387C158.55 192.845 158.146 192.578 158.095 192.649C158.044 192.72 158.269 193.031 158.395 193.478C158.521 193.925 158.495 194.315 158.584 194.338Z" fill="#1A2E35"/>
<path d="M162.679 189.432C162.706 189.518 163.148 189.46 163.662 189.576C164.176 189.692 164.555 189.921 164.616 189.849C164.677 189.777 164.338 189.388 163.73 189.259C163.122 189.13 162.647 189.352 162.679 189.432Z" fill="#1A2E35"/>
<path d="M163.393 183.929L163.184 185.672L172.448 187.029L172.702 185.468L163.393 183.929Z" fill="black"/>
<path d="M162.951 187.461C163.247 187.593 163.573 187.642 163.895 187.603C164.244 187.595 164.591 187.545 164.928 187.453C165.128 187.4 165.324 187.333 165.514 187.253C165.629 187.211 165.737 187.151 165.834 187.075C165.905 187.018 165.955 186.94 165.977 186.851C165.998 186.763 165.989 186.67 165.951 186.587C165.915 186.516 165.863 186.454 165.799 186.406C165.734 186.359 165.66 186.327 165.581 186.314C165.462 186.294 165.341 186.292 165.221 186.307C165.013 186.325 164.806 186.361 164.604 186.417C164.263 186.511 163.94 186.659 163.645 186.855C163.145 187.192 162.945 187.514 162.971 187.536C162.997 187.558 163.266 187.317 163.762 187.052C164.051 186.898 164.359 186.783 164.677 186.708C164.864 186.665 165.053 186.637 165.244 186.625C165.451 186.604 165.621 186.625 165.659 186.725C165.672 186.762 165.672 186.776 165.622 186.825C165.551 186.879 165.472 186.923 165.388 186.955C165.211 187.035 165.03 187.104 164.845 187.163C164.531 187.262 164.208 187.332 163.88 187.371C163.569 187.379 163.258 187.409 162.951 187.461" fill="#1A2E35"/>
<path d="M163.05 187.613C163.08 187.632 163.314 187.331 163.441 186.738C163.511 186.39 163.522 186.033 163.472 185.682C163.443 185.473 163.392 185.268 163.321 185.07C163.29 184.937 163.225 184.815 163.133 184.715C163.041 184.615 162.924 184.54 162.794 184.498C162.711 184.487 162.625 184.5 162.548 184.535C162.472 184.57 162.406 184.627 162.36 184.698C162.295 184.802 162.244 184.914 162.209 185.032C162.144 185.238 162.11 185.453 162.109 185.669C162.106 186.031 162.192 186.388 162.36 186.709C162.652 187.255 163.019 187.426 163.031 187.396C162.862 187.144 162.707 186.882 162.567 186.612C162.448 186.315 162.394 185.996 162.409 185.677C162.417 185.492 162.451 185.309 162.509 185.134C162.57 184.937 162.67 184.787 162.742 184.819C162.835 184.832 162.971 185.008 163.023 185.18C163.091 185.358 163.143 185.542 163.177 185.73C163.234 186.051 163.245 186.378 163.209 186.702C163.149 187.261 162.997 187.591 163.045 187.613" fill="#1A2E35"/>
<path d="M177.738 153.021C177.738 153.37 173.46 186.931 173.46 186.931L161.038 184.56L166.038 149.921L177.738 153.021Z" fill="#19201F"/>
<path d="M192.887 149.431C193.003 149.76 201.644 183.64 201.644 183.64L189.826 186.375L179.699 149.921L192.887 149.431Z" fill="#19201F"/>
<path d="M181.751 62.5609L184.182 61.7289L188.43 67.5549L189.572 86.2679L186.637 95.9079C186.637 95.9079 194.908 114.251 195.037 118.808C195.166 123.365 198.888 165.752 198.888 165.752L160.623 168.878L167.693 99.5229C167.693 99.5229 168.627 82.5229 169.693 79.9749C170.759 77.4269 181.751 62.5609 181.751 62.5609Z" fill="#8C3E79"/>
<path d="M185.037 122.83C185.037 122.838 184.989 122.864 184.887 122.906C184.736 122.963 184.58 123.005 184.42 123.031C183.825 123.108 183.22 123.02 182.672 122.775C181.862 122.401 181.176 121.803 180.697 121.05C180.122 120.141 179.667 119.162 179.341 118.137C178.715 116.29 178.383 114.357 178.357 112.407C178.352 111.819 178.378 111.231 178.434 110.646C178.445 110.43 178.479 110.216 178.534 110.007C178.551 110.222 178.549 110.438 178.527 110.652C178.516 111.067 178.499 111.666 178.527 112.407C178.603 114.331 178.953 116.235 179.568 118.06C179.888 119.065 180.329 120.028 180.881 120.927C181.331 121.654 181.975 122.24 182.741 122.62C183.26 122.868 183.835 122.977 184.409 122.938C184.814 122.897 185.029 122.809 185.037 122.83" fill="#1A2E35"/>
<path d="M198.892 165.749C198.892 165.749 198.828 165.761 198.703 165.775L198.145 165.831L195.985 166.031L187.947 166.724L160.632 168.995L160.492 169.007L160.506 168.866C160.812 165.854 161.13 162.73 161.455 159.533C162.811 146.374 164.038 134.46 164.927 125.826C165.382 121.526 165.75 118.036 166.006 115.615L166.312 112.839C166.349 112.529 166.377 112.289 166.397 112.119C166.418 111.956 166.435 111.874 166.435 111.874C166.435 111.874 166.435 111.958 166.422 112.121C166.409 112.284 166.387 112.534 166.36 112.845C166.299 113.49 166.212 114.425 166.099 115.624C165.861 118.047 165.519 121.536 165.099 125.844C164.227 134.479 163.026 146.394 161.699 159.557L160.74 168.889L160.613 168.76L187.936 166.567L195.98 165.945L198.143 165.788L198.704 165.753C198.83 165.746 198.895 165.753 198.895 165.753" fill="#1A2E35"/>
<path d="M186.362 64.718C186.332 64.7462 186.298 64.7704 186.262 64.79L185.957 64.98L184.777 65.699C184.265 66.012 183.639 66.399 182.924 66.858C182.569 67.091 182.185 67.34 181.81 67.635C181.724 67.6973 181.648 67.7714 181.584 67.855C181.567 67.955 181.555 68.098 181.541 68.221C181.512 68.476 181.478 68.737 181.441 69.004C181.27 70.169 181.034 71.3235 180.734 72.462C180.408 73.7788 179.927 75.0523 179.302 76.256C178.47 77.5053 177.427 78.5994 176.218 79.489C175.618 79.9806 175.096 80.5594 174.668 81.206C174.242 81.8723 174.065 82.6678 174.168 83.452C174.313 84.2412 174.536 85.0141 174.835 85.759C175.102 86.5127 175.258 87.3013 175.298 88.1C175.338 89.6082 175.072 91.109 174.517 92.512C174.034 93.7757 173.431 94.9902 172.717 96.139C172.058 97.222 171.408 98.205 170.817 99.103C169.621 100.897 168.678 102.357 168.067 103.392C167.76 103.908 167.53 104.314 167.377 104.592C167.306 104.72 167.248 104.823 167.201 104.906C167.183 104.942 167.16 104.976 167.134 105.006C167.144 104.966 167.159 104.927 167.179 104.891L167.334 104.568C167.474 104.283 167.691 103.868 167.986 103.344C168.574 102.293 169.498 100.818 170.664 99.01C171.245 98.11 171.887 97.118 172.534 96.036C173.236 94.8946 173.828 93.6892 174.302 92.436C174.84 91.06 175.097 89.5899 175.056 88.113C175.016 87.3363 174.863 86.5696 174.602 85.837C174.296 85.0769 174.068 84.2879 173.922 83.482C173.814 82.6433 174.005 81.7935 174.462 81.082C174.903 80.4152 175.443 79.8189 176.062 79.313C177.253 78.4423 178.285 77.3714 179.11 76.148C179.731 74.9624 180.212 73.7082 180.542 72.411C180.848 71.2815 181.092 70.1361 181.273 68.98C181.315 68.716 181.35 68.456 181.383 68.203C181.401 68.072 181.407 67.962 181.434 67.818C181.504 67.6974 181.601 67.5947 181.717 67.518C182.107 67.218 182.493 66.977 182.854 66.748C183.575 66.292 184.209 65.918 184.728 65.618L185.928 64.938L186.245 64.768C186.281 64.7459 186.321 64.7291 186.362 64.718" fill="#1A2E35"/>
<path d="M185.797 95.439C185.402 95.4594 185.006 95.4158 184.625 95.31C183.692 95.1005 182.799 94.739 181.983 94.24C181.166 93.7406 180.436 93.1106 179.822 92.375C179.553 92.0827 179.332 91.7492 179.168 91.387C180.006 92.4146 180.998 93.3074 182.107 94.034C183.258 94.6872 184.502 95.1594 185.797 95.434" fill="#1A2E35"/>
<path d="M186.545 96.249C186.259 96.3719 185.955 96.4491 185.645 96.478C184.91 96.5993 184.166 96.6568 183.422 96.65C182.676 96.6451 181.932 96.5758 181.198 96.443C180.889 96.409 180.587 96.327 180.304 96.2C180.318 96.127 181.699 96.4 183.423 96.41C185.147 96.42 186.532 96.176 186.545 96.249Z" fill="#1A2E35"/>
<path d="M200.882 91.022C200.772 88.155 195.33 76.822 195.33 76.822C195.33 76.822 192.809 71.195 192.214 70.056C190.921 67.581 187.31 67.321 186.008 68.072L187.017 82.051L190.006 92.235L184.182 103.262L191.434 110.429C201.104 109.216 200.993 93.889 200.883 91.022" fill="#553791"/>
<path d="M198.517 92.577C198.068 92.5944 197.62 92.5287 197.195 92.383C196.389 92.183 195.342 91.712 194.141 91.427C193.581 91.2885 193.002 91.2453 192.428 91.299C191.962 91.3512 191.512 91.4979 191.105 91.73C190.736 91.9622 190.412 92.2601 190.151 92.609C190.175 92.4882 190.227 92.3748 190.303 92.278C190.49 92.0005 190.733 91.7646 191.016 91.585C191.435 91.3172 191.907 91.1444 192.4 91.079C193 91.009 193.607 91.0469 194.194 91.191C195.435 91.491 196.463 91.982 197.242 92.22C198.017 92.477 198.521 92.539 198.517 92.577Z" fill="#1A2E35"/>
<path d="M195.127 88.237C194.779 88.3336 194.423 88.3976 194.064 88.428C193.214 88.5287 192.389 88.7832 191.63 89.179C190.89 89.5998 190.343 90.2914 190.104 91.108C190.035 91.4545 190.014 91.8087 190.041 92.161C190.028 92.161 189.98 92.07 189.941 91.883C189.886 91.6151 189.886 91.3389 189.941 91.071C190.042 90.6312 190.234 90.2173 190.504 89.8558C190.774 89.4942 191.117 89.1929 191.51 88.971C192.294 88.5563 193.157 88.3139 194.043 88.26C194.402 88.205 194.766 88.1973 195.127 88.237" fill="#1A2E35"/>
<path d="M192.34 110.547C192.156 110.498 191.979 110.428 191.811 110.34C191.34 110.128 190.882 109.889 190.44 109.622C189.778 109.232 189.143 108.798 188.54 108.322C187.805 107.733 187.115 107.092 186.474 106.402C185.842 105.703 185.263 104.959 184.74 104.176C184.316 103.533 183.937 102.863 183.603 102.17C183.375 101.705 183.175 101.227 183.005 100.738C182.93 100.563 182.875 100.379 182.84 100.192C182.884 100.176 183.158 100.939 183.755 102.092C184.106 102.767 184.496 103.421 184.924 104.051C185.451 104.818 186.029 105.548 186.654 106.238C187.287 106.919 187.965 107.557 188.683 108.148C189.272 108.626 189.889 109.07 190.53 109.477C191.63 110.17 192.363 110.505 192.344 110.546" fill="#1A2E35"/>
<path d="M190.006 92.2329C189.775 91.7562 189.583 91.2616 189.432 90.7539C189.112 89.8279 188.694 88.5389 188.277 87.1019C187.86 85.6649 187.526 84.3509 187.312 83.3939C187.169 82.8829 187.071 82.3607 187.017 81.8329C187.203 82.3286 187.356 82.8364 187.473 83.3529C187.732 84.2969 188.092 85.5999 188.512 87.0329L189.593 90.7019C189.767 91.2016 189.905 91.7133 190.006 92.2329" fill="#1A2E35"/>
<path d="M184.181 103.261C184.124 103.234 185.381 100.734 186.989 97.692C188.597 94.65 189.948 92.203 190.006 92.234C190.064 92.265 188.809 94.759 187.201 97.804C185.593 100.849 184.241 103.292 184.181 103.261Z" fill="#1A2E35"/>
<path d="M180.31 160.31C180.244 160.304 180.596 155.85 181.096 150.362C181.596 144.874 182.055 140.429 182.122 140.435C182.189 140.441 181.836 144.894 181.336 150.383C180.836 155.872 180.376 160.316 180.31 160.31Z" fill="#1A2E35"/>
<path d="M184.607 162.121C184.196 160.707 183.862 159.271 183.607 157.821C183.274 156.384 183.02 154.93 182.846 153.465C183.256 154.879 183.59 156.315 183.846 157.765C184.178 159.201 184.433 160.654 184.609 162.117" fill="#1A2E35"/>
<path d="M180.984 150.597C180.981 150.664 176.936 150.561 171.956 150.368C166.976 150.175 162.936 149.964 162.936 149.897C162.936 149.83 166.98 149.934 171.965 150.127C176.95 150.32 180.986 150.527 180.984 150.598" fill="#FAFAFA"/>
<path d="M197.699 152.545C197.698 152.611 193.977 152.571 189.384 152.454C184.791 152.337 181.084 152.191 181.084 152.123C181.084 152.055 184.806 152.097 189.395 152.213C193.984 152.329 197.701 152.478 197.695 152.544" fill="#FAFAFA"/>
<path d="M181.368 145.743C181.368 145.81 177.301 145.674 172.292 145.443C167.283 145.212 163.227 144.964 163.227 144.898C163.227 144.832 167.293 144.967 172.303 145.198C177.313 145.429 181.371 145.674 181.368 145.741" fill="#FAFAFA"/>
<path d="M197.316 147.884C197.314 147.947 193.743 147.89 189.34 147.747C184.937 147.604 181.372 147.441 181.372 147.374C181.372 147.307 184.945 147.368 189.348 147.509C193.751 147.65 197.318 147.818 197.316 147.884" fill="#FAFAFA"/>
<path d="M31.4137 174.05C31.5412 173.503 31.7861 172.991 32.1315 172.548C32.4768 172.105 32.9143 171.743 33.4137 171.486C34.5319 171.123 35.7456 171.195 36.8137 171.686C37.8716 172.177 38.9943 172.513 40.1477 172.686C40.7274 172.76 41.3154 172.644 41.8243 172.357C42.3331 172.07 42.7355 171.626 42.9717 171.091C43.0704 170.55 43.021 169.993 42.8288 169.478C42.6365 168.963 42.3086 168.51 41.8797 168.166C41.0405 167.374 40.0189 166.802 38.9054 166.499C37.792 166.197 36.6212 166.174 35.4967 166.432C34.3768 166.714 33.3437 167.269 32.4891 168.046C31.6344 168.822 30.9844 169.798 30.5967 170.886" fill="#FF4F5B"/>
<path d="M31.4137 174.05C31.5412 173.503 31.7861 172.991 32.1315 172.548C32.4768 172.105 32.9143 171.743 33.4137 171.486C34.5319 171.123 35.7456 171.195 36.8137 171.686C37.8716 172.177 38.9943 172.513 40.1477 172.686C40.7274 172.76 41.3154 172.644 41.8243 172.357C42.3331 172.07 42.7355 171.626 42.9717 171.091C43.0704 170.55 43.021 169.993 42.8288 169.478C42.6365 168.963 42.3086 168.51 41.8797 168.166C41.0405 167.374 40.0189 166.802 38.9054 166.499C37.792 166.197 36.6212 166.174 35.4967 166.432C34.3768 166.714 33.3437 167.269 32.4891 168.046C31.6344 168.822 30.9844 169.798 30.5967 170.886" fill="#CCCCCC"/>
<path d="M19.6893 188.095C19.6796 188.007 19.6772 187.919 19.6823 187.831C19.6823 187.657 19.6823 187.401 19.6963 187.072C19.7223 186.412 19.7823 185.459 19.9323 184.288C20.1062 182.917 20.3566 181.557 20.6823 180.214C21.0857 178.565 21.7111 176.978 22.5413 175.497C23.3749 174.016 24.3971 172.649 25.5823 171.431C26.5469 170.438 27.6154 169.551 28.7693 168.786C29.2553 168.45 29.7263 168.195 30.1313 167.958C30.5473 167.74 30.9093 167.558 31.2063 167.418L31.9063 167.124C31.9862 167.086 32.0692 167.055 32.1543 167.031C32.0789 167.078 32 167.119 31.9183 167.153L31.2323 167.475C30.9403 167.627 30.5833 167.813 30.1743 168.037C29.7743 168.28 29.3113 168.537 28.8313 168.881C26.2956 170.612 24.1917 172.903 22.6823 175.576C21.2623 178.294 20.3677 181.255 20.0453 184.304C19.8823 185.468 19.8033 186.418 19.7593 187.074C19.7406 187.391 19.7256 187.644 19.7143 187.831C19.713 187.92 19.7046 188.008 19.6893 188.095Z" fill="#1A2E35"/>
<path d="M3.44659 160.009C-0.114405 162.159 -0.105405 164.115 0.494595 165.962C0.792248 166.885 1.43795 167.656 2.2947 168.112C3.15145 168.567 4.15183 168.67 5.08359 168.4C6.07994 167.926 6.91463 167.168 7.48359 166.223C8.04803 165.28 8.76316 164.435 9.60059 163.723C10.0261 163.375 10.5472 163.165 11.0949 163.12C11.6426 163.075 12.191 163.197 12.6676 163.471" fill="#FF4F5B"/>
<path d="M3.44659 160.009C-0.114405 162.159 -0.105405 164.115 0.494595 165.962C0.792248 166.885 1.43795 167.656 2.2947 168.112C3.15145 168.567 4.15183 168.67 5.08359 168.4C6.07994 167.926 6.91463 167.168 7.48359 166.223C8.04803 165.28 8.76316 164.435 9.60059 163.723C10.0261 163.375 10.5472 163.165 11.0949 163.12C11.6426 163.075 12.191 163.197 12.6676 163.471" fill="#CCCCCC"/>
<path d="M17.3333 184.974C17.3263 184.949 17.3229 184.923 17.3233 184.897C17.3233 184.837 17.3163 184.762 17.3113 184.67C17.3033 184.457 17.2929 184.166 17.2803 183.796C17.2573 183.024 17.2253 181.929 17.1803 180.582C17.1353 179.235 17.0803 177.61 16.9803 175.819C16.8803 174.028 16.7403 172.059 16.4603 170.01C16.3419 169.012 16.1413 168.025 15.8603 167.06C15.5714 166.167 15.1998 165.302 14.7503 164.478C14.3458 163.727 13.8774 163.012 13.3503 162.342C12.8834 161.758 12.3708 161.212 11.8173 160.71C11.0043 159.983 10.0901 159.378 9.10326 158.913C8.92626 158.835 8.77226 158.757 8.63326 158.703L8.27826 158.569L8.06126 158.484C8.0358 158.476 8.01159 158.464 7.98926 158.449C8.01604 158.452 8.04227 158.459 8.06726 158.469L8.28926 158.539L8.65126 158.659C8.79326 158.71 8.95126 158.783 9.13026 158.859C10.1356 159.305 11.0675 159.901 11.8943 160.627C12.4578 161.128 12.9795 161.675 13.4543 162.261C13.9925 162.934 14.4707 163.653 14.8833 164.41C15.3412 165.239 15.7199 166.11 16.0143 167.01C16.3003 167.983 16.5043 168.978 16.6243 169.985C16.9053 172.042 17.0373 174.015 17.1323 175.808C17.2273 177.601 17.2703 179.218 17.2993 180.576C17.3283 181.934 17.3383 183.032 17.3423 183.791C17.3423 184.161 17.3423 184.453 17.3423 184.665C17.3423 184.757 17.3423 184.832 17.3423 184.892C17.3438 184.918 17.3414 184.944 17.3353 184.97" fill="#1A2E35"/>
<path d="M18.7093 186.534C18.5503 186.038 18.4279 185.53 18.3433 185.016C18.1114 183.607 18.0599 182.173 18.1903 180.751C18.3943 178.649 18.8213 176.575 19.4643 174.563C20.1503 172.289 21.0823 169.856 21.8773 167.242C22.2703 165.97 22.5908 164.677 22.8373 163.369C23.0585 162.145 23.2167 160.91 23.3113 159.669C23.4637 157.566 23.4994 155.456 23.4183 153.349C23.3603 151.549 23.2703 150.093 23.2183 149.087C23.1903 148.587 23.1693 148.203 23.1533 147.928C23.1433 147.806 23.1383 147.707 23.1353 147.627C23.1321 147.594 23.1321 147.56 23.1353 147.527C23.1433 147.56 23.1483 147.593 23.1503 147.627C23.1573 147.703 23.1663 147.802 23.1783 147.927L23.2713 149.084C23.3453 150.089 23.4523 151.544 23.5233 153.346C23.6197 155.458 23.5946 157.573 23.4483 159.682C23.3569 160.927 23.2007 162.166 22.9803 163.395C22.7362 164.711 22.4166 166.011 22.0233 167.29C21.2233 169.913 20.2903 172.342 19.5983 174.607C18.9518 176.607 18.5162 178.67 18.2983 180.761C18.1598 182.175 18.1951 183.6 18.4033 185.005C18.4853 185.505 18.5603 185.884 18.6263 186.139L18.6943 186.432C18.7035 186.465 18.7095 186.498 18.7123 186.532" fill="#1A2E35"/>
<path d="M27.4781 188.095H10.7111L10.3281 184.974H27.4781V188.095Z" fill="#DA2C2C"/>
<path d="M12.667 188.094L14.777 197.456H23.945L25.919 188.094H12.667Z" fill="#DA2C2C"/>
<path d="M27.4774 188.117C27.4774 188.161 23.8124 188.186 19.2924 188.174C14.7724 188.162 11.1074 188.115 11.1074 188.071C11.1074 188.027 14.7714 188.002 19.2934 188.015C23.8154 188.028 27.4774 188.073 27.4774 188.115" fill="#375A64"/>
<path d="M104.194 24H90.1943C86.8806 24 84.1943 26.6863 84.1943 30V43C84.1943 46.3137 86.8806 49 90.1943 49H104.194C107.508 49 110.194 46.3137 110.194 43V30C110.194 26.6863 107.508 24 104.194 24Z" fill="#8C3E79"/>
<path d="M102.694 43H91.6943C91.5617 43 91.4346 42.9473 91.3408 42.8536C91.247 42.7598 91.1943 42.6326 91.1943 42.5V37.5C91.1943 37.3674 91.247 37.2402 91.3408 37.1465C91.4346 37.0527 91.5617 37 91.6943 37H92.1943V42H93.1943V35.5C93.1943 35.3674 93.247 35.2402 93.3408 35.1465C93.4346 35.0527 93.5617 35 93.6943 35H98.6943C98.8269 35 98.9541 35.0527 99.0479 35.1465C99.1417 35.2402 99.1943 35.3674 99.1943 35.5V42H102.194V33.372L98.1943 32.172V34H97.1943V31.5C97.1944 31.4221 97.2126 31.3453 97.2475 31.2757C97.2825 31.2061 97.3332 31.1457 97.3956 31.0992C97.4581 31.0526 97.5305 31.0213 97.6072 31.0078C97.6839 30.9942 97.7627 30.9987 97.8373 31.021L102.837 32.521C102.94 32.5518 103.031 32.615 103.095 32.7013C103.16 32.7876 103.194 32.8924 103.194 33V42.5C103.194 42.6326 103.142 42.7598 103.048 42.8536C102.954 42.9473 102.827 43 102.694 43ZM95.1943 40.5V41.5H97.1943V40.5H95.1943ZM95.1943 38.5V39.5H97.1943V38.5H95.1943ZM95.1943 36.5V37.5H97.1943V36.5H95.1943Z" fill="white"/>
<path d="M101.587 35.161H100.548V41.402H101.587V35.161Z" fill="white"/>
<path d="M71.1943 84C72.8512 84 74.1943 82.6569 74.1943 81C74.1943 79.3431 72.8512 78 71.1943 78C69.5375 78 68.1943 79.3431 68.1943 81C68.1943 82.6569 69.5375 84 71.1943 84Z" fill="white"/>
<path d="M81.1943 84C82.8512 84 84.1943 82.6569 84.1943 81C84.1943 79.3431 82.8512 78 81.1943 78C79.5375 78 78.1943 79.3431 78.1943 81C78.1943 82.6569 79.5375 84 81.1943 84Z" fill="white"/>
<path d="M91.1943 84C92.8512 84 94.1943 82.6569 94.1943 81C94.1943 79.3431 92.8512 78 91.1943 78C89.5375 78 88.1943 79.3431 88.1943 81C88.1943 82.6569 89.5375 84 91.1943 84Z" fill="white"/>
<path d="M101.194 84C102.851 84 104.194 82.6569 104.194 81C104.194 79.3431 102.851 78 101.194 78C99.5375 78 98.1943 79.3431 98.1943 81C98.1943 82.6569 99.5375 84 101.194 84Z" fill="white"/>
<path d="M111.694 84C113.627 84 115.194 82.6569 115.194 81C115.194 79.3431 113.627 78 111.694 78C109.761 78 108.194 79.3431 108.194 81C108.194 82.6569 109.761 84 111.694 84Z" fill="white"/>
<path d="M90.4775 111H86.8447V103.998H87.665V110.258H90.4775V111ZM93.5342 111.117C92.7952 111.117 92.2044 110.884 91.7617 110.419C91.3223 109.95 91.1025 109.33 91.1025 108.559C91.1025 107.719 91.332 107.063 91.791 106.591C92.25 106.119 92.8701 105.883 93.6514 105.883C94.3968 105.883 94.9779 106.112 95.3945 106.571C95.8145 107.03 96.0244 107.667 96.0244 108.48C96.0244 109.278 95.7982 109.918 95.3457 110.399C94.8965 110.878 94.2926 111.117 93.5342 111.117ZM93.5928 106.557C93.0785 106.557 92.6715 106.732 92.3721 107.084C92.0726 107.432 91.9229 107.914 91.9229 108.529C91.9229 109.122 92.0742 109.589 92.377 109.931C92.6797 110.272 93.085 110.443 93.5928 110.443C94.1104 110.443 94.5075 110.276 94.7842 109.94C95.0641 109.605 95.2041 109.128 95.2041 108.51C95.2041 107.885 95.0641 107.403 94.7842 107.064C94.5075 106.726 94.1104 106.557 93.5928 106.557ZM101.571 110.6C101.571 112.436 100.692 113.354 98.9346 113.354C98.3161 113.354 97.7757 113.236 97.3135 113.002V112.201C97.8766 112.514 98.4137 112.67 98.9248 112.67C100.155 112.67 100.771 112.016 100.771 110.707V110.16H100.751C100.37 110.798 99.7972 111.117 99.0322 111.117C98.4105 111.117 97.9092 110.896 97.5283 110.453C97.1507 110.007 96.9619 109.41 96.9619 108.661C96.9619 107.812 97.1654 107.136 97.5723 106.635C97.9824 106.133 98.5423 105.883 99.252 105.883C99.9258 105.883 100.425 106.153 100.751 106.693H100.771V106H101.571V110.6ZM100.771 108.739V108.002C100.771 107.605 100.635 107.265 100.365 106.981C100.098 106.698 99.7646 106.557 99.3643 106.557C98.8695 106.557 98.4821 106.737 98.2021 107.099C97.9222 107.457 97.7822 107.96 97.7822 108.607C97.7822 109.164 97.9157 109.61 98.1826 109.945C98.4528 110.277 98.8092 110.443 99.252 110.443C99.7012 110.443 100.066 110.284 100.346 109.965C100.629 109.646 100.771 109.237 100.771 108.739ZM103.603 104.73C103.459 104.73 103.337 104.682 103.236 104.584C103.135 104.486 103.085 104.363 103.085 104.213C103.085 104.063 103.135 103.939 103.236 103.842C103.337 103.741 103.459 103.69 103.603 103.69C103.749 103.69 103.873 103.741 103.974 103.842C104.078 103.939 104.13 104.063 104.13 104.213C104.13 104.356 104.078 104.478 103.974 104.579C103.873 104.68 103.749 104.73 103.603 104.73ZM103.993 111H103.192V106H103.993V111ZM109.765 111H108.964V108.148C108.964 107.087 108.576 106.557 107.802 106.557C107.401 106.557 107.069 106.708 106.806 107.011C106.545 107.31 106.415 107.689 106.415 108.148V111H105.614V106H106.415V106.83H106.435C106.812 106.199 107.359 105.883 108.075 105.883C108.622 105.883 109.04 106.06 109.33 106.415C109.62 106.767 109.765 107.276 109.765 107.943V111Z" fill="white"/>
</svg>
