<svg width="209" height="200" viewBox="0 0 209 200" fill="none" xmlns="http://www.w3.org/2000/svg">
<path d="M26.6992 196.698H75.0302V41.452H26.6992V196.698Z" fill="#F5F5F5"/>
<path d="M50.8643 196.698H75.0293V41.452H50.8643V196.698Z" fill="#ECECEC"/>
<path d="M31.3765 41.45H48.5265V25.85H31.3765V41.45Z" fill="#F5F5F5"/>
<path d="M44.6284 41.45H48.5284V25.85H44.6284V41.45Z" fill="#ECECEC"/>
<path d="M22.0225 41.452V40.672H76.5895V41.452" fill="#E1E1E1"/>
<path d="M36.0532 57.055H39.9532V48.474H36.0532V57.055Z" fill="#FAFAFA"/>
<path d="M50.6372 60.204C50.6372 60.296 45.1662 60.37 38.4202 60.37C31.6742 60.37 26.2012 60.297 26.2012 60.204C26.2012 60.111 31.6712 60.038 38.4192 60.038C45.1672 60.038 50.6372 60.112 50.6372 60.204Z" fill="#E1E1E1"/>
<path d="M60.4961 56.784H64.6331V48.068H60.4961V56.784Z" fill="#E1E1E1"/>
<path d="M75.2851 60.204C75.2851 60.296 69.8141 60.37 63.0681 60.37C56.3221 60.37 50.8501 60.297 50.8501 60.204C50.8501 60.111 56.3191 60.038 63.0681 60.038C69.8171 60.038 75.2851 60.112 75.2851 60.204Z" fill="#E1E1E1"/>
<path d="M60.4961 74.0879H64.6331V65.3719H60.4961V74.0879Z" fill="#E1E1E1"/>
<path d="M75.2851 77.508C75.2851 77.6 69.8141 77.674 63.0681 77.674C56.3221 77.674 50.8501 77.6 50.8501 77.508C50.8501 77.416 56.3191 77.342 63.0681 77.342C69.8171 77.342 75.2851 77.417 75.2851 77.508Z" fill="#E1E1E1"/>
<path d="M60.4961 91.915H64.6331V83.199H60.4961V91.915Z" fill="#E1E1E1"/>
<path d="M75.2851 95.3349C75.2851 95.4269 69.8141 95.5009 63.0681 95.5009C56.3221 95.5009 50.8501 95.4269 50.8501 95.3349C50.8501 95.2429 56.3191 95.1689 63.0681 95.1689C69.8171 95.1689 75.2851 95.2429 75.2851 95.3349Z" fill="#E1E1E1"/>
<path d="M60.4961 109.741H64.6331V101.025H60.4961V109.741Z" fill="#E1E1E1"/>
<path d="M75.2851 113.161C75.2851 113.253 69.8141 113.327 63.0681 113.327C56.3221 113.327 50.8501 113.253 50.8501 113.161C50.8501 113.069 56.3191 112.995 63.0681 112.995C69.8171 112.995 75.2851 113.07 75.2851 113.161Z" fill="#E1E1E1"/>
<path d="M60.4961 127.058H64.6331V118.342H60.4961V127.058Z" fill="#E1E1E1"/>
<path d="M75.2851 130.478C75.2851 130.57 69.8141 130.644 63.0681 130.644C56.3221 130.644 50.8501 130.57 50.8501 130.478C50.8501 130.386 56.3191 130.312 63.0681 130.312C69.8171 130.312 75.2851 130.387 75.2851 130.478Z" fill="#E1E1E1"/>
<path d="M60.4961 144.444H64.6331V135.728H60.4961V144.444Z" fill="#E1E1E1"/>
<path d="M60.4961 162.059H64.6331V153.343H60.4961V162.059Z" fill="#E1E1E1"/>
<path d="M75.2851 147.864C75.2851 147.956 69.8141 148.03 63.0681 148.03C56.3221 148.03 50.8501 147.957 50.8501 147.864C50.8501 147.771 56.3191 147.698 63.0681 147.698C69.8171 147.698 75.2851 147.773 75.2851 147.864Z" fill="#E1E1E1"/>
<path d="M35.8481 74.352H39.9851V65.636H35.8481V74.352Z" fill="#FAFAFA"/>
<path d="M50.6372 77.772C50.6372 77.864 45.1662 77.938 38.4202 77.938C31.6742 77.938 26.2012 77.865 26.2012 77.772C26.2012 77.679 31.6712 77.606 38.4192 77.606C45.1672 77.606 50.6372 77.681 50.6372 77.772Z" fill="#E1E1E1"/>
<path d="M35.8481 91.921H39.9851V83.205H35.8481V91.921Z" fill="#FAFAFA"/>
<path d="M50.6372 95.341C50.6372 95.433 45.1662 95.507 38.4202 95.507C31.6742 95.507 26.2012 95.434 26.2012 95.341C26.2012 95.248 31.6712 95.175 38.4192 95.175C45.1672 95.175 50.6372 95.249 50.6372 95.341Z" fill="#E1E1E1"/>
<path d="M35.8481 109.489H39.9851V100.773H35.8481V109.489Z" fill="#FAFAFA"/>
<path d="M50.6372 112.909C50.6372 113.001 45.1662 113.075 38.4202 113.075C31.6742 113.075 26.2012 113.001 26.2012 112.909C26.2012 112.817 31.6712 112.743 38.4192 112.743C45.1672 112.743 50.6372 112.818 50.6372 112.909Z" fill="#E1E1E1"/>
<path d="M35.8481 127.058H39.9851V118.342H35.8481V127.058Z" fill="#FAFAFA"/>
<path d="M50.6372 130.478C50.6372 130.57 45.1662 130.644 38.4202 130.644C31.6742 130.644 26.2012 130.57 26.2012 130.478C26.2012 130.386 31.6712 130.312 38.4192 130.312C45.1672 130.312 50.6372 130.387 50.6372 130.478Z" fill="#E1E1E1"/>
<path d="M35.8481 144.626H39.9851V135.91H35.8481V144.626Z" fill="#FAFAFA"/>
<path d="M50.6372 148.047C50.6372 148.139 45.1662 148.213 38.4202 148.213C31.6742 148.213 26.2012 148.138 26.2012 148.047C26.2012 147.956 31.6712 147.88 38.4192 147.88C45.1672 147.88 50.6372 147.955 50.6372 148.047Z" fill="#E1E1E1"/>
<path d="M35.8481 162.195H39.9851V153.479H35.8481V162.195Z" fill="#FAFAFA"/>
<path d="M61.6263 195.82H5.14834L4.90234 106.629H61.3803L61.6263 195.82Z" fill="#ECECEC"/>
<path d="M33.1411 195.82H61.3801V106.629H33.1411V195.82Z" fill="#E1E1E1"/>
<path d="M11.3511 106.629H31.2951V89.0699H11.3511V106.629Z" fill="#ECECEC"/>
<path d="M26.5415 106.629H31.2945V89.0699H26.5415V106.629Z" fill="#E1E1E1"/>
<path d="M0.195312 106.629H63.0333V105.605H0.195312V106.629Z" fill="#E1E1E1"/>
<path d="M16.0503 124.361H20.8313V114.288H16.0503V124.361Z" fill="white"/>
<path d="M33.1413 128.313C33.1413 128.419 26.8193 128.505 19.0223 128.505C11.2253 128.505 4.90234 128.419 4.90234 128.313C4.90234 128.207 11.2223 128.121 19.0223 128.121C26.8223 128.121 33.1413 128.207 33.1413 128.313Z" fill="#E1E1E1"/>
<path d="M44.5352 124.361H49.3162V114.288H44.5352V124.361Z" fill="#F5F5F5"/>
<path d="M61.6262 128.313C61.6262 128.419 55.3042 128.505 47.5072 128.505C39.7102 128.505 33.3872 128.419 33.3872 128.313C33.3872 128.207 39.7082 128.121 47.5072 128.121C55.3062 128.121 61.6262 128.207 61.6262 128.313Z" fill="#ECECEC"/>
<path d="M44.5352 144.358H49.3162V134.285H44.5352V144.358Z" fill="#F5F5F5"/>
<path d="M61.6262 148.311C61.6262 148.417 55.3042 148.504 47.5072 148.504C39.7102 148.504 33.3872 148.417 33.3872 148.311C33.3872 148.205 39.7082 148.119 47.5072 148.119C55.3062 148.119 61.6262 148.205 61.6262 148.311Z" fill="#ECECEC"/>
<path d="M44.5352 164.96H49.3162V154.887H44.5352V164.96Z" fill="#F5F5F5"/>
<path d="M61.6262 168.913C61.6262 169.019 55.3042 169.105 47.5072 169.105C39.7102 169.105 33.3872 169.019 33.3872 168.913C33.3872 168.807 39.7082 168.721 47.5072 168.721C55.3062 168.721 61.6262 168.807 61.6262 168.913Z" fill="#ECECEC"/>
<path d="M44.5352 185.56H49.3162V175.488H44.5352V185.56Z" fill="#F5F5F5"/>
<path d="M61.6262 189.514C61.6262 189.62 55.3042 189.706 47.5072 189.706C39.7102 189.706 33.3872 189.62 33.3872 189.514C33.3872 189.408 39.7082 189.322 47.5072 189.322C55.3062 189.322 61.6262 189.408 61.6262 189.514Z" fill="#ECECEC"/>
<path d="M16.0503 144.663H20.8313V134.591H16.0503V144.663Z" fill="white"/>
<path d="M33.1413 148.616C33.1413 148.722 26.8193 148.809 19.0223 148.809C11.2253 148.809 4.90234 148.722 4.90234 148.616C4.90234 148.51 11.2223 148.424 19.0223 148.424C26.8223 148.424 33.1413 148.51 33.1413 148.616Z" fill="#E1E1E1"/>
<path d="M16.0503 164.966H20.8313V154.894H16.0503V164.966Z" fill="white"/>
<path d="M33.1413 168.92C33.1413 169.026 26.8193 169.112 19.0223 169.112C11.2253 169.112 4.90234 169.026 4.90234 168.92C4.90234 168.814 11.2223 168.728 19.0223 168.728C26.8223 168.728 33.1413 168.814 33.1413 168.92Z" fill="#E1E1E1"/>
<path d="M16.0503 185.269H20.8313V175.197H16.0503V185.269Z" fill="white"/>
<path d="M33.1413 189.223C33.1413 189.329 26.8193 189.415 19.0223 189.415C11.2253 189.415 4.90234 189.329 4.90234 189.223C4.90234 189.117 11.2223 189.031 19.0223 189.031C26.8223 189.031 33.1413 189.117 33.1413 189.223Z" fill="#E1E1E1"/>
<path d="M113.588 195.892H169.619V122.045H113.588V195.892Z" fill="#ECECEC"/>
<path d="M143.348 195.892H169.62V122.045H143.348V195.892Z" fill="#E1E1E1"/>
<path d="M125.337 144.275H130.375V132.044H125.337V144.275Z" fill="#F5F5F5"/>
<path d="M125.337 192.142H130.375V179.912H125.337V192.142Z" fill="#F5F5F5"/>
<path d="M143.348 149.074C143.348 149.212 136.689 149.326 128.469 149.326C120.249 149.326 113.589 149.212 113.589 149.074C113.589 148.936 120.25 148.826 128.469 148.826C136.688 148.826 143.348 148.937 143.348 149.074Z" fill="#F5F5F5"/>
<path d="M125.337 168.39H130.375V156.16H125.337V168.39Z" fill="#F5F5F5"/>
<path d="M143.348 173.19C143.348 173.327 136.689 173.441 128.469 173.441C120.249 173.441 113.589 173.327 113.589 173.19C113.589 173.053 120.25 172.941 128.469 172.941C136.688 172.941 143.348 173.053 143.348 173.19Z" fill="#F5F5F5"/>
<path d="M148.927 144.275H153.965V132.044H148.927V144.275Z" fill="#F5F5F5"/>
<path d="M159.857 144.275H164.895V132.044H159.857V144.275Z" fill="#F5F5F5"/>
<path d="M148.927 167.483H153.965V155.252H148.927V167.483Z" fill="#F5F5F5"/>
<path d="M159.857 167.483H164.895V155.252H159.857V167.483Z" fill="#F5F5F5"/>
<path d="M148.927 190.691H153.965V178.46H148.927V190.691Z" fill="#F5F5F5"/>
<path d="M159.857 190.691H164.895V178.46H159.857V190.691Z" fill="#F5F5F5"/>
<path d="M109.376 122.138H173.832V119.475H109.376V122.138Z" fill="#E1E1E1"/>
<path d="M170.011 122.389C170.011 122.526 157.488 122.64 142.042 122.64C126.596 122.64 114.071 122.526 114.071 122.389C114.071 122.252 126.592 122.14 142.042 122.14C157.492 122.14 170.011 122.252 170.011 122.389Z" fill="#ECECEC"/>
<path d="M169.134 14.6049C169.406 12.6339 166.621 11.0119 164.534 10.8439C163.535 10.8846 162.534 10.7982 161.555 10.5869C159.507 9.87395 158.689 7.23095 156.691 6.38695C155.193 5.75795 153.473 6.31495 152.024 7.04695C150.575 7.77895 149.145 8.69095 147.524 8.79495C146.117 8.88495 144.589 8.36395 143.357 9.05095C142.443 9.56295 141.963 10.6149 141.116 11.2419C140.236 11.7846 139.217 12.0607 138.183 12.0369C137.153 12.0117 136.128 12.1792 135.159 12.5309C134.68 12.7178 134.273 13.0548 134 13.4917C133.728 13.9285 133.604 14.4418 133.646 14.9549L169.134 14.6049Z" fill="#ECECEC"/>
<path d="M208.779 37.4469C209.188 34.4839 205.002 32.0469 201.858 31.7929C200.358 31.6729 198.8 31.9019 197.38 31.4069C194.301 30.3349 193.071 26.3609 190.068 25.0949C187.823 24.1479 185.237 24.9949 183.06 26.0859C180.883 27.1769 178.732 28.5579 176.3 28.7139C174.185 28.8489 171.887 28.0659 170.036 29.0979C168.657 29.8679 167.936 31.4559 166.663 32.3919C165.339 33.2065 163.808 33.6208 162.255 33.5849C160.707 33.5467 159.165 33.7984 157.71 34.3269C156.987 34.6075 156.375 35.1142 155.965 35.7713C155.554 36.4285 155.368 37.2009 155.433 37.9729L208.779 37.4469Z" fill="#F5F5F5"/>
<path d="M33.2451 9.22497C33.4531 7.71897 31.3251 6.47997 29.7271 6.35097C28.963 6.38049 28.1983 6.31329 27.4511 6.15097C25.8861 5.60997 25.2611 3.58997 23.7341 2.94597C23.1388 2.77198 22.5134 2.72658 21.8993 2.81278C21.2852 2.89899 20.6964 3.11482 20.1721 3.44597C19.1277 4.11753 17.9594 4.57315 16.7361 4.78597C15.6611 4.85497 14.4931 4.45597 13.5521 4.98597C12.8521 5.37697 12.4831 6.18597 11.8371 6.65997C11.1645 7.07474 10.3861 7.28558 9.59608 7.26696C8.80969 7.24569 8.02625 7.37152 7.28608 7.63797C6.9188 7.7808 6.60762 8.03868 6.39907 8.37304C6.19052 8.70741 6.0958 9.1003 6.12908 9.49297L33.2451 9.22497Z" fill="#F5F5F5"/>
<path d="M205.991 197.089C205.991 197.201 161.14 197.289 105.826 197.289C50.4933 197.292 5.65234 197.201 5.65234 197.089C5.65234 196.977 50.4933 196.886 105.827 196.886C161.141 196.886 205.992 196.976 205.992 197.086" fill="#1A2E35"/>
<path d="M61.8961 196.117C58.0549 196.116 54.3711 194.59 51.655 191.874C48.9388 189.158 47.4126 185.474 47.4121 181.633L47.4451 14.959C47.4462 13.056 47.8221 11.1719 48.5515 9.41427C49.2809 7.65664 50.3494 6.05993 51.696 4.71535C53.0427 3.37077 54.641 2.30468 56.3997 1.57796C58.1585 0.851243 60.0431 0.478148 61.9461 0.479987L128.48 0.518987C132.322 0.519783 136.005 2.04613 138.722 4.76242C141.438 7.47872 142.964 11.1626 142.965 15.004L142.932 181.68C142.931 183.583 142.555 185.467 141.826 187.224C141.096 188.982 140.028 190.579 138.682 191.923C137.335 193.268 135.737 194.334 133.978 195.061C132.22 195.787 130.335 196.161 128.432 196.159L61.8961 196.117Z" fill="#19201F"/>
<path d="M115.642 6.388C115.222 6.39683 114.807 6.48842 114.422 6.65751C114.037 6.82661 113.69 7.0699 113.399 7.37349C113.108 7.67708 112.88 8.03501 112.727 8.42682C112.575 8.81864 112.501 9.23666 112.51 9.657V11.997C112.519 12.4175 112.446 12.8357 112.293 13.2277C112.141 13.6197 111.913 13.9778 111.622 14.2815C111.331 14.5852 110.983 14.8286 110.597 14.9977C110.212 15.1668 109.798 15.2583 109.377 15.267L84.2311 15.252C83.3817 15.2329 82.5747 14.8772 81.9874 14.2633C81.4001 13.6494 81.0806 12.8274 81.0991 11.978V9.64C81.1174 8.79085 80.7979 7.96916 80.2109 7.35532C79.6239 6.74148 78.8172 6.38567 77.9681 6.366H73.4311L62.1411 6.357C60.8084 6.35569 59.4885 6.61695 58.2567 7.12587C57.025 7.63479 55.9056 8.3814 54.9625 9.32304C54.0194 10.2647 53.271 11.3829 52.7601 12.6138C52.2493 13.8448 51.9859 15.1643 51.9851 16.497L51.9531 179.183C51.9537 181.873 53.0225 184.453 54.9248 186.356C56.827 188.258 59.4068 189.327 62.0971 189.328L128.497 189.366C129.83 189.367 131.15 189.106 132.382 188.597C133.613 188.088 134.733 187.342 135.676 186.4C136.619 185.458 137.367 184.34 137.878 183.109C138.389 181.878 138.652 180.559 138.653 179.226L138.685 16.54C138.684 13.8501 137.615 11.2705 135.713 9.36834C133.812 7.46617 131.232 6.39706 128.542 6.396L115.642 6.388Z" fill="white"/>
<path d="M128.889 6.40596C129.234 6.40929 129.577 6.43602 129.918 6.48596C131.266 6.64861 132.565 7.09654 133.726 7.79996C134.59 8.30222 135.371 8.93464 136.042 9.67496C136.862 10.5611 137.516 11.5866 137.975 12.703C138.502 14.0107 138.761 15.4112 138.735 16.821C138.735 18.319 138.737 19.9126 138.74 21.602C138.749 35.117 138.76 54.669 138.775 78.828C138.79 102.987 138.784 131.758 138.789 163.701C138.789 167.694 138.789 171.736 138.789 175.826V178.902C138.809 179.947 138.678 180.989 138.4 181.996C138.116 183.01 137.678 183.974 137.1 184.854C136.512 185.734 135.8 186.524 134.985 187.199C133.317 188.551 131.268 189.346 129.124 189.473C126.995 189.535 124.882 189.488 122.744 189.502L109.817 189.496L83.2872 189.483L69.7182 189.476H62.8642C60.5203 189.608 58.1979 188.967 56.2532 187.652C54.3217 186.31 52.9029 184.352 52.2292 182.099C51.9114 180.982 51.7697 179.822 51.8092 178.662C51.8092 177.521 51.8092 176.381 51.8092 175.242C51.8092 170.69 51.8092 166.169 51.8092 161.68C51.8092 152.702 51.8115 143.863 51.8162 135.163C51.8272 117.778 51.8332 101.009 51.8392 85.034C51.8452 69.059 51.8542 53.88 51.8612 39.674C51.8652 32.5713 51.8692 25.719 51.8732 19.117C51.8732 18.293 51.8732 17.473 51.8732 16.657C51.8802 16.253 51.9092 15.835 51.9322 15.427C52.0032 15.027 52.0322 14.613 52.1402 14.218C52.5057 12.6373 53.2369 11.1645 54.2752 9.91796C55.3033 8.71089 56.5897 7.75052 58.0392 7.10796C59.4635 6.4983 61.0036 6.20652 62.5522 6.25296L71.4002 6.26296L75.6572 6.26796H77.7422C78.4519 6.23041 79.1544 6.4264 79.7422 6.82596C80.3159 7.22615 80.7502 7.79572 80.9842 8.45496C81.1767 9.103 81.2466 9.78128 81.1902 10.455C81.1902 10.7883 81.1902 11.1173 81.1902 11.442C81.1796 11.7646 81.1903 12.0877 81.2222 12.409C81.3008 13.0382 81.5647 13.6299 81.9802 14.109C82.3843 14.5836 82.9265 14.9203 83.5312 15.072C83.8308 15.1426 84.1386 15.1729 84.4462 15.162H85.3812L89.0452 15.167L102.43 15.186L108.33 15.196C108.796 15.188 109.27 15.218 109.713 15.179C110.153 15.1307 110.576 14.9851 110.952 14.753C111.314 14.5244 111.626 14.226 111.87 13.8751C112.114 13.5243 112.286 13.1281 112.375 12.71C112.447 12.3035 112.474 11.8903 112.455 11.478C112.455 11.068 112.455 10.6636 112.455 10.265C112.439 9.86847 112.457 9.47135 112.509 9.07796C112.575 8.69699 112.704 8.32983 112.892 7.99196C113.249 7.34202 113.821 6.83621 114.509 6.56096C115.161 6.35402 115.848 6.28089 116.529 6.34596L123.109 6.36396L127.158 6.38096C128.07 6.38596 128.538 6.39596 128.538 6.39596C128.538 6.39596 128.07 6.40596 127.158 6.40996L123.109 6.42096L116.529 6.43096C115.861 6.36926 115.187 6.44237 114.547 6.64596C113.879 6.91519 113.325 7.40785 112.979 8.03996C112.797 8.36831 112.672 8.72498 112.609 9.09496C112.56 9.48155 112.544 9.87163 112.561 10.261C112.561 10.661 112.561 11.0653 112.561 11.474C112.581 11.8939 112.554 12.3148 112.482 12.729C112.391 13.1624 112.214 13.5733 111.961 13.9373C111.709 14.3014 111.386 14.6113 111.012 14.849C110.621 15.0956 110.18 15.2518 109.721 15.306C109.251 15.347 108.796 15.318 108.321 15.327H102.421H89.0362H84.4362C84.1151 15.3385 83.7939 15.3069 83.4812 15.233C82.8424 15.0738 82.2691 14.7194 81.8412 14.219C81.4041 13.7153 81.1257 13.0935 81.0412 12.432C81.0093 12.1067 80.9986 11.7796 81.0092 11.453C81.0092 11.1256 81.0092 10.7966 81.0092 10.466C81.0641 9.81083 80.9963 9.15121 80.8092 8.52096C80.5884 7.89814 80.1787 7.35977 79.6372 6.98096C79.0801 6.60335 78.4142 6.41957 77.7422 6.45796H62.5522C61.032 6.41238 59.5202 6.69905 58.1222 7.29796C56.703 7.92859 55.4436 8.87013 54.4372 10.053C53.4218 11.2748 52.7074 12.7178 52.3512 14.266C52.2492 14.653 52.2192 15.053 52.1492 15.453C52.1282 15.853 52.0992 16.253 52.0942 16.653C52.0942 17.4683 52.0942 18.2883 52.0942 19.113C52.0942 25.7076 52.0942 32.56 52.0942 39.67C52.0942 53.876 52.0942 69.056 52.0942 85.03C52.0942 101.004 52.0942 117.773 52.0942 135.159C52.0942 143.851 52.0942 152.69 52.0942 161.676C52.0942 166.165 52.0942 170.685 52.0942 175.238C52.0942 176.376 52.0942 177.516 52.0942 178.658C52.0567 179.791 52.1967 180.923 52.5092 182.013C53.1643 184.204 54.5435 186.108 56.4212 187.413C58.318 188.695 60.5836 189.318 62.8692 189.186H69.7222L83.2912 189.195L109.821 189.213L122.748 189.222C124.879 189.21 127.016 189.256 129.111 189.196C131.197 189.073 133.192 188.3 134.816 186.985C135.609 186.327 136.302 185.559 136.875 184.703C137.437 183.846 137.863 182.908 138.139 181.921C138.411 180.938 138.539 179.92 138.519 178.9C138.519 177.871 138.519 176.846 138.519 175.824C138.519 171.735 138.519 167.693 138.519 163.699C138.537 131.756 138.553 102.987 138.567 78.826C138.581 54.665 138.611 35.115 138.624 21.6C138.624 19.9113 138.627 18.3176 138.632 16.819C138.662 15.421 138.41 14.0314 137.891 12.733C137.441 11.6247 136.797 10.6055 135.989 9.72296C135.325 8.98595 134.552 8.35527 133.696 7.85296C132.544 7.14603 131.255 6.68979 129.914 6.51396C129.575 6.46126 129.232 6.4302 128.889 6.42096C128.659 6.40696 128.542 6.39596 128.542 6.39596C128.542 6.39596 128.659 6.39596 128.889 6.40596Z" fill="#1A2E35"/>
<path d="M98.2572 39.363C98.2572 39.2 98.2512 38.981 98.2462 38.704C98.2402 38.118 98.2322 37.287 98.2222 36.245C98.2092 34.136 98.1962 31.173 98.1792 27.685L98.2682 27.774L90.2292 27.785C90.2092 27.802 90.4092 27.599 90.3252 27.685V28.52C90.3252 28.7973 90.3252 29.0733 90.3252 29.348C90.3252 29.8967 90.3252 30.439 90.3252 30.975C90.3252 32.045 90.3252 33.086 90.3252 34.089C90.3152 36.095 90.3092 37.951 90.3092 39.597L90.2312 39.519L96.0642 39.56L97.6882 39.58L98.1182 39.589C98.1693 39.5884 98.2204 39.591 98.2712 39.597C98.2259 39.6039 98.18 39.6069 98.1342 39.606L97.7192 39.615L96.1092 39.634L90.2282 39.675H90.1502V39.597C90.1502 37.951 90.1412 36.097 90.1362 34.09C90.1362 33.09 90.1362 32.046 90.1362 30.976C90.1362 30.4427 90.1362 29.9003 90.1362 29.349V27.685C90.0442 27.772 90.2492 27.565 90.2292 27.585L98.2682 27.595H98.3572V27.685C98.3392 31.197 98.3242 34.185 98.3092 36.303C98.2992 37.337 98.2912 38.161 98.2852 38.742C98.2852 39.012 98.2772 39.224 98.2742 39.383C98.2756 39.4541 98.2723 39.5253 98.2642 39.596C98.2576 39.5185 98.2553 39.4407 98.2572 39.363Z" fill="white"/>
<path d="M96.7793 27.684V27.772H96.6903L95.6273 27.781L95.5273 27.681V27.463C95.5273 27.39 95.5273 27.318 95.5273 27.246C95.5273 27.105 95.5273 26.967 95.5273 26.832C95.538 26.5773 95.5453 26.3336 95.5493 26.101V26.021H95.6273C95.9834 26.0155 96.3392 26.0423 96.6903 26.101C96.3381 26.1503 95.983 26.1764 95.6273 26.179L95.7083 26.101C95.7083 26.3336 95.712 26.5776 95.7193 26.833C95.7193 26.968 95.7193 27.106 95.7193 27.247C95.7193 27.319 95.7193 27.391 95.7193 27.464V27.681C95.8083 27.771 95.6083 27.566 95.6273 27.587L96.6903 27.595L96.6013 27.684C96.6001 27.155 96.6298 26.6264 96.6903 26.101C96.7589 26.6257 96.7887 27.1548 96.7793 27.684Z" fill="white"/>
<path d="M101.08 39.668H100.499L98.2704 39.655H98.2104V39.597C98.1864 36.917 98.1704 32.576 98.1704 27.687V27.587H98.2984H101.27H101.37V27.687C101.352 31.106 101.338 34.104 101.327 36.272C101.315 37.322 101.306 38.172 101.3 38.772C101.294 39.048 101.29 39.272 101.287 39.437C101.289 39.5112 101.285 39.5854 101.275 39.659C101.266 39.577 101.262 39.4945 101.263 39.412C101.263 39.238 101.256 39.012 101.251 38.726C101.245 38.114 101.235 37.259 101.224 36.199C101.208 34.051 101.193 31.076 101.176 27.687L101.276 27.787L98.2984 27.781H98.2704L98.3704 27.687C98.3704 32.576 98.3494 36.917 98.3264 39.597L98.2704 39.539L100.47 39.617L101.064 39.644C101.136 39.645 101.207 39.6503 101.277 39.66C101.212 39.6686 101.146 39.6713 101.08 39.668Z" fill="white"/>
<path d="M91.5103 30.423H92.7563V29.178H91.5103V30.423Z" fill="white"/>
<path d="M93.6255 30.423H94.8715V29.178H93.6255V30.423Z" fill="white"/>
<path d="M95.7402 30.423H96.9862V29.178H95.7402V30.423Z" fill="white"/>
<path d="M91.5103 32.565H92.7563V31.32H91.5103V32.565Z" fill="white"/>
<path d="M93.6255 32.565H94.8715V31.32H93.6255V32.565Z" fill="white"/>
<path d="M95.7402 32.565H96.9862V31.32H95.7402V32.565Z" fill="white"/>
<path d="M91.5103 34.706H92.7563V33.461H91.5103V34.706Z" fill="white"/>
<path d="M93.6255 34.706H94.8715V33.461H93.6255V34.706Z" fill="white"/>
<path d="M95.7402 34.706H96.9862V33.461H95.7402V34.706Z" fill="white"/>
<path d="M91.5103 36.847H92.7563V35.602H91.5103V36.847Z" fill="white"/>
<path d="M125.195 73H67.1953C62.777 73 59.1953 76.5817 59.1953 81C59.1953 85.4183 62.777 89 67.1953 89H125.195C129.614 89 133.195 85.4183 133.195 81C133.195 76.5817 129.614 73 125.195 73Z" fill="#CCCCCC"/>
<path d="M125.195 99H67.1953C62.777 99 59.1953 102.582 59.1953 107C59.1953 111.418 62.777 115 67.1953 115H125.195C129.614 115 133.195 111.418 133.195 107C133.195 102.582 129.614 99 125.195 99Z" fill="#8C3E79"/>
<path d="M125.195 123H69.1953C68.643 123 68.1953 123.448 68.1953 124C68.1953 124.552 68.643 125 69.1953 125H125.195C125.748 125 126.195 124.552 126.195 124C126.195 123.448 125.748 123 125.195 123Z" fill="#8C3E79"/>
<path d="M113.695 130H77.6953C76.8669 130 76.1953 130.672 76.1953 131.5C76.1953 132.328 76.8669 133 77.6953 133H113.695C114.524 133 115.195 132.328 115.195 131.5C115.195 130.672 114.524 130 113.695 130Z" fill="#8C3E79"/>
<path d="M93.6255 36.847H94.8715V35.602H93.6255V36.847Z" fill="white"/>
<path d="M95.7402 36.847H96.9862V35.602H95.7402V36.847Z" fill="white"/>
<path d="M99.0425 30.423H100.288V29.178H99.0425V30.423Z" fill="white"/>
<path d="M99.0425 32.565H100.288V31.32H99.0425V32.565Z" fill="white"/>
<path d="M99.0425 34.706H100.288V33.461H99.0425V34.706Z" fill="white"/>
<path d="M99.0425 36.847H100.288V35.602H99.0425V36.847Z" fill="white"/>
<path d="M93.7695 39.597H94.9905V37.669H93.7695V39.597Z" fill="white"/>
<path d="M103.939 39.5969C103.939 39.6509 100.071 39.6969 95.3002 39.6969C90.5292 39.6969 86.6602 39.6509 86.6602 39.5969C86.6602 39.5429 90.5272 39.4969 95.3002 39.4969C100.073 39.4969 103.939 39.5399 103.939 39.5969Z" fill="white"/>
<path d="M154.685 79.4989L135.002 79.8869L131.82 79.6089C131.82 79.6089 124.62 79.4089 123.928 79.2969C123.131 79.1709 122.879 79.5269 122.851 79.8249C122.811 80.2889 123.325 80.7019 124.005 80.8299C124.24 80.8739 127.978 81.4239 127.978 81.4239C127.592 81.5872 127.219 81.7773 126.859 81.9929C126.402 82.3596 126.028 82.8191 125.761 83.3411C125.495 83.863 125.342 84.4356 125.313 85.0209C125.15 86.3629 125.223 86.7539 125.739 86.8409C125.838 86.8527 125.938 86.8423 126.032 86.8105C126.126 86.7786 126.211 86.7262 126.282 86.6569C126.545 86.3855 126.721 86.0424 126.788 85.6709C127.225 83.1149 128.239 83.2809 128.239 83.2809L128.683 83.2709C128.683 83.2709 127.53 84.4709 127.761 85.5709C127.795 85.7318 127.859 85.8846 127.951 86.0209C127.907 86.3123 127.939 86.6102 128.046 86.885C128.152 87.1599 128.328 87.4022 128.557 87.5878C128.786 87.7734 129.059 87.896 129.35 87.9432C129.641 87.9904 129.939 87.9606 130.215 87.8569C130.482 87.7569 130.75 87.5349 130.737 87.2499C130.716 87.0998 130.658 86.9574 130.567 86.8359C130.523 86.7684 130.484 86.6972 130.451 86.6229L131.632 86.5609C131.632 86.5609 134.276 86.2799 135.44 86.2879L153.932 86.9009C156.565 87.1779 159.415 86.6219 159.645 83.9749C159.895 81.0949 157.556 79.3419 154.681 79.4989" fill="#CC8B6A"/>
<path d="M134.65 80.463C134.648 80.6692 134.581 80.8694 134.459 81.0355C134.336 81.2016 134.165 81.3252 133.969 81.389C133.59 81.547 133.169 81.572 132.779 81.702C131.615 82.092 130.893 83.36 129.71 83.694C129.546 83.74 129.328 83.746 129.248 83.594C129.168 83.442 129.275 83.288 129.372 83.161L131.862 79.935" fill="#CC8B6A"/>
<path d="M131.862 79.934C131.748 80.0271 131.648 80.135 131.562 80.255C131.377 80.471 131.117 80.788 130.798 81.184L129.685 82.58L129.367 82.985C129.213 83.1302 129.121 83.3301 129.112 83.542C129.124 83.6097 129.155 83.6725 129.203 83.7222C129.25 83.7719 129.311 83.8063 129.378 83.821C129.489 83.8453 129.603 83.8425 129.712 83.813C129.906 83.7589 130.092 83.6831 130.268 83.587C130.877 83.1804 131.456 82.7317 132.002 82.244C132.245 82.0553 132.515 81.9043 132.802 81.796C133.071 81.696 133.346 81.658 133.596 81.596C133.803 81.5621 133.999 81.4835 134.172 81.3655C134.345 81.2474 134.49 81.093 134.596 80.913C134.639 80.847 134.666 80.7722 134.675 80.6942C134.685 80.6162 134.676 80.5371 134.65 80.463C134.631 80.603 134.586 80.7384 134.519 80.863C134.407 81.0188 134.263 81.1496 134.098 81.2471C133.932 81.3445 133.748 81.4065 133.557 81.429C133.314 81.484 133.036 81.517 132.74 81.611C132.43 81.7179 132.139 81.8724 131.876 82.069C131.33 82.5404 130.757 82.9789 130.158 83.382C129.999 83.4679 129.832 83.5367 129.658 83.587C129.494 83.63 129.341 83.597 129.339 83.506C129.321 83.406 129.439 83.258 129.539 83.121L129.85 82.71L130.92 81.284C131.22 80.876 131.463 80.543 131.62 80.31C131.718 80.1965 131.799 80.0699 131.862 79.934" fill="#FF9A6C"/>
<path d="M128.683 83.2679C128.424 83.2543 128.164 83.3016 127.926 83.4059C127.679 83.5327 127.479 83.7352 127.355 83.9839C127.204 84.2963 127.103 84.6304 127.055 84.9739C127.006 85.3294 126.92 85.6788 126.8 86.0169C126.697 86.2998 126.52 86.5503 126.288 86.7429C126.207 86.8081 126.112 86.8535 126.011 86.8753C125.909 86.8972 125.804 86.895 125.703 86.8689C125.629 86.8523 125.561 86.8152 125.507 86.7619C125.513 86.7489 125.583 86.7849 125.714 86.8069C125.805 86.8203 125.897 86.8136 125.985 86.7874C126.072 86.7611 126.153 86.7159 126.221 86.6549C126.426 86.4645 126.581 86.2264 126.671 85.9619C126.78 85.63 126.859 85.289 126.907 84.9429C126.958 84.5837 127.068 84.2356 127.234 83.9129C127.377 83.6436 127.605 83.4298 127.883 83.3059C128.069 83.2257 128.272 83.1934 128.473 83.2119C128.614 83.2279 128.686 83.2599 128.684 83.2679" fill="#FF9A6C"/>
<path d="M123.745 80.772C123.996 80.7831 124.245 80.8166 124.489 80.872L126.273 81.172L128.061 81.442C128.311 81.4631 128.559 81.507 128.801 81.573C128.549 81.5952 128.296 81.5888 128.045 81.554C127.586 81.514 126.945 81.437 126.245 81.326C125.545 81.215 124.921 81.091 124.468 80.985C124.22 80.9413 123.977 80.8699 123.745 80.772" fill="#FF9A6C"/>
<path d="M129.395 84.243C129.404 84.25 129.355 84.32 129.277 84.443C129.217 84.5242 129.176 84.6173 129.156 84.7158C129.136 84.8144 129.138 84.9161 129.161 85.014C129.182 85.0754 129.219 85.13 129.269 85.1725C129.318 85.215 129.378 85.2437 129.442 85.256C129.602 85.2893 129.765 85.3028 129.929 85.296C130.135 85.2838 130.338 85.3479 130.5 85.476C130.58 85.5551 130.641 85.6522 130.677 85.7592C130.713 85.8662 130.724 85.9802 130.708 86.092C130.69 86.2018 130.651 86.3069 130.592 86.4009C130.533 86.495 130.455 86.576 130.364 86.639C130.2 86.7603 130.005 86.83 129.802 86.839C129.478 86.8316 129.157 86.7767 128.849 86.676C128.639 86.6143 128.441 86.5176 128.264 86.39C128.141 86.29 128.1 86.213 128.106 86.21C128.112 86.207 128.172 86.265 128.297 86.342C128.479 86.4456 128.675 86.5237 128.879 86.574C129.178 86.6568 129.486 86.6995 129.797 86.701C129.974 86.6956 130.146 86.6315 130.283 86.5186C130.421 86.4057 130.517 86.2504 130.558 86.077C130.571 85.9888 130.563 85.8988 130.536 85.814C130.508 85.7292 130.462 85.6519 130.4 85.588C130.263 85.4845 130.094 85.433 129.924 85.443C129.749 85.4452 129.574 85.424 129.405 85.38C129.324 85.3595 129.249 85.3184 129.189 85.2608C129.128 85.2032 129.084 85.1309 129.06 85.051C129.036 84.9391 129.039 84.8232 129.069 84.7128C129.099 84.6023 129.154 84.5004 129.23 84.415C129.33 84.294 129.388 84.238 129.396 84.243" fill="#FF9A6C"/>
<path d="M130.259 86.5649C130.259 86.5579 130.341 86.5489 130.466 86.6189C130.554 86.6712 130.628 86.743 130.683 86.8287C130.738 86.9145 130.772 87.0118 130.782 87.1129C130.793 87.2648 130.763 87.4167 130.697 87.5537C130.63 87.6906 130.529 87.8079 130.403 87.8939C130.098 88.0961 129.726 88.1724 129.365 88.1069C129.007 88.0521 128.676 87.8859 128.417 87.6319C128.21 87.4242 128.062 87.165 127.987 86.8809C127.936 86.6925 127.921 86.4961 127.941 86.3019C127.942 86.23 127.96 86.1593 127.994 86.0959C127.99 86.3508 128.022 86.6049 128.088 86.8509C128.171 87.1102 128.318 87.3446 128.514 87.5329C128.756 87.7598 129.061 87.9083 129.388 87.9589C129.712 88.0182 130.046 87.9547 130.325 87.7809C130.435 87.7096 130.525 87.6118 130.586 87.4966C130.648 87.3815 130.68 87.2526 130.678 87.1219C130.672 87.0331 130.647 86.9465 130.605 86.8682C130.562 86.7899 130.504 86.7216 130.432 86.6679C130.332 86.5959 130.256 86.5779 130.259 86.5649Z" fill="#FF9A6C"/>
<path d="M133.153 84.373C133.136 84.2506 133.157 84.1262 133.213 84.016C133.326 83.7212 133.534 83.4725 133.804 83.309L133.821 83.44C133.656 83.3967 133.494 83.3433 133.336 83.28C132.77 83.0818 132.271 82.7304 131.895 82.265C132.362 82.6096 132.865 82.9033 133.395 83.141C133.555 83.205 133.714 83.259 133.862 83.302L134.026 83.35L133.879 83.434C133.629 83.5798 133.428 83.7948 133.299 84.053C133.199 84.246 133.176 84.377 133.157 84.373" fill="#FF9A6C"/>
<path d="M126.787 83.454C126.81 83.425 127.056 83.611 127.142 83.962C127.228 84.313 127.112 84.595 127.076 84.578C127.04 84.561 127.083 84.305 127.001 84C126.919 83.695 126.757 83.488 126.787 83.454Z" fill="#FF9A6C"/>
<path d="M169.541 67.0259C169.241 67.4559 155.783 78.1439 154.119 78.5939C152.455 79.0439 137.079 79.2709 137.079 79.2709C137.079 79.2709 135.877 88.7619 136.273 89.4069C137.733 91.7769 155.297 98.0379 163.673 89.5539L169.541 68.0399" fill="#553791"/>
<path d="M152.658 84.388C152.551 84.1228 152.495 83.8399 152.492 83.554C152.377 82.1785 152.641 80.7977 153.256 79.562C153.364 79.2973 153.521 79.0554 153.719 78.849C153.35 79.7227 153.055 80.6259 152.836 81.549C152.698 82.4888 152.639 83.4384 152.658 84.388Z" fill="#1A2E35"/>
<path d="M154.117 84.758C154.011 84.4687 153.947 84.1656 153.927 83.858C153.829 83.1205 153.772 82.3779 153.758 81.634C153.742 80.8914 153.769 80.1485 153.837 79.409C153.844 79.0995 153.896 78.7926 153.991 78.498C154.061 78.505 153.96 79.904 153.998 81.629C154.036 83.354 154.187 84.748 154.117 84.758Z" fill="#1A2E35"/>
<path d="M169.639 68.729L169.994 66.456L167.134 68.986L165.711 73.938L169.639 68.729Z" fill="#1A2E35"/>
<path d="M172.727 64.106L170.717 65.24L164.252 76.126L164.277 81.826C163.412 84.1361 162.869 86.5545 162.663 89.013C162.568 92.213 162.663 103.93 162.663 103.93L154.5 158.238L161.477 160.5L175.29 97.261V63.248L172.727 64.106Z" fill="#8C3E79"/>
<path d="M161.478 160.499L155.957 158.709L163.857 99.795C163.857 99.795 162.537 91.16 163.857 87.377C165.177 83.594 167.201 78.033 167.201 78.033L164.896 88.581C165.077 97.757 164.73 106.936 163.857 116.072H165.971L161.478 160.499Z" fill="black"/>
<path d="M168.019 69.782C167.974 69.8838 167.919 69.9809 167.855 70.072C167.744 70.259 167.561 70.522 167.355 70.88C166.766 71.8828 166.248 72.9256 165.805 74.001C165.157 75.6002 164.636 77.2479 164.247 78.929C163.779 80.9912 163.432 83.0791 163.208 85.182C162.956 87.421 162.808 89.564 162.733 91.514C162.658 93.464 162.673 95.224 162.683 96.702C162.689 98.16 162.695 99.349 162.699 100.202C162.693 100.596 162.69 100.913 162.687 101.154C162.691 101.265 162.684 101.376 162.666 101.486C162.646 101.377 162.637 101.266 162.638 101.155C162.63 100.914 162.619 100.597 162.606 100.204C162.579 99.352 162.552 98.163 162.513 96.706C162.482 95.228 162.455 93.465 162.513 91.506C162.571 89.547 162.713 87.4 162.97 85.155C163.195 83.0441 163.549 80.9492 164.032 78.882C164.434 77.191 164.975 75.5364 165.65 73.935C166.11 72.8584 166.655 71.8202 167.279 70.83C167.496 70.482 167.692 70.224 167.816 70.044C167.875 69.9503 167.943 69.8626 168.019 69.782" fill="#1A2E35"/>
<path d="M188.595 48.111C189.111 46.8961 190.018 45.8879 191.171 45.246C191.748 44.9347 192.392 44.7682 193.047 44.7609C193.702 44.7536 194.35 44.9056 194.933 45.204C195.508 45.5219 195.968 46.0132 196.248 46.6079C196.527 47.2027 196.612 47.8704 196.489 48.516C197.482 49.0473 198.237 49.9356 198.601 51.0017C198.965 52.0677 198.911 53.2322 198.45 54.26C197.916 55.2498 197.025 55.9987 195.958 56.354C194.89 56.7093 193.728 56.6442 192.707 56.172C192.933 56.5471 193.073 56.9675 193.117 57.4031C193.162 57.8387 193.109 58.2788 192.964 58.6917C192.818 59.1046 192.583 59.4802 192.275 59.7916C191.967 60.103 191.594 60.3425 191.183 60.493C190.321 60.721 189.408 60.6476 188.594 60.2852C187.779 59.9227 187.113 59.2928 186.706 58.5C186.325 57.6918 186.132 56.8076 186.141 55.9141C186.151 55.0205 186.363 54.1407 186.762 53.341" fill="#1A2E35"/>
<path d="M187.841 49.019C187.963 48.7173 188.162 48.4526 188.417 48.2508C188.673 48.049 188.976 47.9171 189.298 47.868C189.622 47.83 189.949 47.897 190.231 48.0593C190.513 48.2216 190.736 48.4704 190.866 48.769C190.979 49.0743 190.972 49.4111 190.847 49.7115C190.721 50.0119 190.487 50.2537 190.19 50.388C190.555 50.5622 190.852 50.8513 191.037 51.211C191.221 51.5708 191.283 51.9811 191.211 52.379C191.122 52.7729 190.905 53.1264 190.594 53.3848C190.284 53.6431 189.897 53.7918 189.493 53.808C189.675 54.1436 189.739 54.5303 189.676 54.9068C189.613 55.2833 189.426 55.6279 189.145 55.886C188.851 56.1282 188.484 56.2647 188.104 56.2736C187.723 56.2825 187.35 56.1633 187.045 55.935C186.603 55.5475 186.331 55.0015 186.288 54.415C186.249 53.8343 186.286 53.251 186.398 52.68C186.531 51.8087 186.665 50.937 186.798 50.065C186.829 49.6779 186.939 49.3012 187.12 48.958C187.214 48.7892 187.356 48.6524 187.529 48.5651C187.701 48.4778 187.895 48.444 188.087 48.468" fill="#DA2C2C"/>
<path d="M166.79 41.871C166.516 41.2889 166.435 40.6343 166.559 40.0029C166.684 39.3716 167.007 38.7966 167.481 38.362C168.459 37.5146 169.733 37.0886 171.024 37.177C172.301 37.2712 173.56 37.5338 174.768 37.958C175.227 37.3571 175.845 36.896 176.551 36.6261C177.258 36.3563 178.025 36.2884 178.768 36.43C179.511 36.5717 180.2 36.9174 180.757 37.4283C181.315 37.9392 181.719 38.5953 181.925 39.323C182.365 39.151 182.844 39.1023 183.31 39.1819C183.775 39.2616 184.211 39.4667 184.569 39.7752C184.927 40.0837 185.194 40.4839 185.341 40.9328C185.489 41.3817 185.511 41.8623 185.406 42.323L179.99 45.05L175.195 56.786C174.363 57.6569 173.252 58.2088 172.055 58.346C170.858 58.4832 169.651 58.1969 168.643 57.537C167.674 56.8171 166.986 55.7825 166.696 54.6106C166.406 53.4387 166.533 52.2025 167.055 51.114C166.669 50.8485 166.328 50.5215 166.047 50.146C165.514 49.9158 165.031 49.582 164.628 49.1638C164.224 48.7456 163.908 48.2514 163.697 47.71C163.513 47.1236 163.446 46.5064 163.502 45.8942C163.558 45.282 163.735 44.687 164.023 44.1437C164.311 43.6005 164.703 43.1199 165.178 42.7297C165.653 42.3395 166.201 42.0476 166.79 41.871Z" fill="#1A2E35"/>
<path d="M173.464 64.189C173.588 62.363 173.678 61.112 173.676 61.126C173.674 61.14 170.164 60.25 169.793 55.531C169.733 52.4402 169.958 49.3504 170.465 46.301C170.861 43.523 172.977 40.24 175.729 40.755L184.222 43.641C185.058 43.798 185.296 44.536 185.212 45.386L185.251 45.786L183.795 59.101L183.221 65.041C183.068 66.3023 182.43 67.4544 181.443 68.2544C180.455 69.0544 179.196 69.4397 177.93 69.3289C176.664 69.2181 175.491 68.6199 174.658 67.6606C173.825 66.7013 173.397 65.4558 173.464 64.187" fill="#CC8B6A"/>
<path d="M171.347 49.9809C171.333 50.1364 171.381 50.2912 171.479 50.4123C171.577 50.5335 171.719 50.6116 171.874 50.6299C171.949 50.6418 172.026 50.6385 172.101 50.6201C172.175 50.6018 172.244 50.5688 172.305 50.5232C172.366 50.4775 172.418 50.4201 172.456 50.3543C172.495 50.2885 172.52 50.2156 172.53 50.1399C172.545 49.9844 172.499 49.8291 172.402 49.7069C172.304 49.5848 172.163 49.5055 172.008 49.4859C171.932 49.4735 171.854 49.4766 171.779 49.4949C171.704 49.5133 171.634 49.5466 171.572 49.5928C171.511 49.639 171.459 49.6972 171.42 49.7639C171.381 49.8306 171.357 49.9044 171.347 49.9809Z" fill="#1A2E35"/>
<path d="M171.244 48.819C171.311 48.903 171.789 48.604 172.429 48.656C173.069 48.708 173.514 49.068 173.59 48.994C173.627 48.963 173.562 48.816 173.369 48.65C173.108 48.4333 172.786 48.3033 172.448 48.278C172.114 48.2515 171.781 48.3325 171.497 48.509C171.288 48.646 171.21 48.778 171.244 48.819Z" fill="#1A2E35"/>
<path d="M177.165 50.449C177.152 50.6044 177.199 50.7592 177.297 50.8803C177.396 51.0015 177.537 51.0796 177.692 51.098C177.768 51.11 177.845 51.1067 177.919 51.0884C177.993 51.0702 178.063 51.0372 178.124 50.9915C178.185 50.9458 178.236 50.8884 178.275 50.8225C178.314 50.7566 178.339 50.6837 178.348 50.608C178.363 50.4524 178.317 50.2972 178.22 50.1753C178.122 50.0533 177.98 49.9743 177.825 49.955C177.749 49.9425 177.672 49.9456 177.597 49.9639C177.522 49.9822 177.452 50.0154 177.39 50.0615C177.329 50.1076 177.277 50.1657 177.238 50.2323C177.2 50.2989 177.175 50.3726 177.165 50.449Z" fill="#1A2E35"/>
<path d="M177.37 49.1819C177.438 49.2659 177.917 48.9669 178.556 49.0189C179.195 49.0709 179.642 49.4309 179.717 49.3569C179.754 49.3249 179.691 49.1789 179.497 49.0129C179.236 48.7962 178.914 48.6662 178.575 48.6409C178.242 48.6147 177.908 48.6957 177.624 48.8719C177.415 49.0089 177.337 49.1409 177.37 49.1819Z" fill="#1A2E35"/>
<path d="M174.722 53.55C174.392 53.4169 174.046 53.3258 173.694 53.279C173.532 53.249 173.38 53.204 173.361 53.089C173.361 52.9197 173.412 52.7545 173.508 52.615L174.091 51.4C174.623 50.3759 175.072 49.3108 175.435 48.215C174.82 49.1936 174.285 50.2199 173.835 51.284L173.275 52.505C173.156 52.695 173.109 52.9204 173.14 53.142C173.159 53.2018 173.191 53.2564 173.234 53.3018C173.278 53.3472 173.331 53.3822 173.39 53.404C173.478 53.4359 173.571 53.4564 173.665 53.465C174.012 53.5383 174.367 53.5669 174.722 53.55Z" fill="#1A2E35"/>
<path d="M173.676 61.125C175.86 61.3321 178.059 60.9266 180.025 59.954C180.025 59.954 178.197 63.118 173.585 62.314L173.676 61.125Z" fill="#CC8B6A"/>
<path d="M177.5 47.4369C177.569 47.6119 178.209 47.5239 178.964 47.6109C179.72 47.6819 180.33 47.8989 180.429 47.7449C180.473 47.6699 180.366 47.5059 180.119 47.3369C179.792 47.1263 179.419 46.9968 179.031 46.9589C178.645 46.9146 178.254 46.9633 177.89 47.1009C177.614 47.2149 177.475 47.3539 177.5 47.4369Z" fill="#1A2E35"/>
<path d="M171.363 47.559C171.485 47.715 172.02 47.605 172.648 47.648C173.278 47.672 173.8 47.838 173.934 47.69C173.993 47.62 173.921 47.467 173.7 47.31C173.394 47.1133 173.04 47.0028 172.676 46.99C172.314 46.9649 171.952 47.0393 171.629 47.205C171.395 47.338 171.31 47.483 171.363 47.559Z" fill="#1A2E35"/>
<path d="M181.87 40.878C181.837 41.3455 181.701 41.8001 181.473 42.2092C181.244 42.6183 180.928 42.972 180.547 43.245C180.166 43.518 179.729 43.7036 179.268 43.7887C178.808 43.8737 178.333 43.8561 177.88 43.737C177.18 43.552 176.43 43.137 175.787 43.464C175.11 43.813 175.009 44.788 174.398 45.243C173.525 45.893 172.274 45.124 171.211 45.353C170.423 45.6549 169.74 46.1817 169.248 46.868C168.999 47.2068 168.659 47.4676 168.267 47.6199C167.875 47.7722 167.448 47.8097 167.035 47.728C167.114 47.0041 167.276 46.2918 167.518 45.605C167.764 44.9136 168.241 44.3282 168.868 43.948C169.234 43.7925 169.593 43.6186 169.941 43.427C170.649 42.939 170.875 42.011 171.341 41.289C171.648 40.8246 172.062 40.4405 172.549 40.1688C173.035 39.897 173.579 39.7455 174.135 39.727C175.045 39.8487 175.962 39.9048 176.88 39.895C177.551 39.78 178.159 39.395 178.835 39.319C180.153 39.172 181.288 40.205 182.159 41.205" fill="#1A2E35"/>
<path d="M177.572 42.412C178.362 42.3176 179.111 42.0096 179.738 41.521C180.093 41.0005 180.578 40.5832 181.146 40.3115C181.714 40.0398 182.344 39.9233 182.971 39.974C183.601 40.0735 184.181 40.3742 184.626 40.8309C185.07 41.2877 185.355 41.876 185.437 42.508C186.195 42.5942 186.916 42.8836 187.524 43.3457C188.131 43.8077 188.602 44.4252 188.887 45.133C189.181 45.8754 189.291 46.678 189.207 47.4721C189.124 48.2662 188.849 49.0282 188.406 49.693C188.194 50.0425 188.007 50.4063 187.845 50.782C188.175 51.0995 188.474 51.4478 188.737 51.822C189.969 53.829 187.47 54.981 187.47 54.981C187.646 56.414 186.331 56.581 185.486 56.681C184.674 56.781 184.463 59.104 183.796 59.101L183.57 52.04C183.477 52.0913 183.376 52.1252 183.27 52.14C181.682 52.37 181.71 49.296 182.125 48.45C181.573 47.9213 181.09 47.3253 180.686 46.676C180.261 45.6573 180.097 44.5481 180.211 43.45C179.274 43.2734 178.379 42.9212 177.572 42.412Z" fill="#1A2E35"/>
<path d="M183.378 52.441C183.404 52.2126 183.487 51.9944 183.619 51.8069C183.752 51.6193 183.93 51.4685 184.137 51.3686C184.344 51.2687 184.573 51.2229 184.803 51.2356C185.032 51.2482 185.254 51.3189 185.449 51.441C185.732 51.6668 185.943 51.9697 186.058 52.3131C186.172 52.6565 186.184 53.0257 186.093 53.376C186.08 53.7291 185.978 54.0733 185.797 54.3768C185.616 54.6803 185.361 54.9334 185.057 55.113C184.752 55.2926 184.408 55.3928 184.055 55.4045C183.701 55.4162 183.351 55.339 183.035 55.18C183.035 55.13 183.235 53.598 183.378 52.441Z" fill="#CC8B6A"/>
<path d="M184.008 54.221C184.021 54.213 184.053 54.261 184.13 54.308C184.24 54.3711 184.369 54.3894 184.492 54.359C184.686 54.2654 184.851 54.122 184.971 53.9435C185.092 53.765 185.162 53.5577 185.176 53.343C185.212 53.1042 185.195 52.8604 185.126 52.629C185.111 52.5389 185.074 52.4538 185.018 52.381C184.963 52.3082 184.891 52.2499 184.808 52.211C184.754 52.1905 184.695 52.1893 184.64 52.2075C184.586 52.2257 184.539 52.2623 184.508 52.311C184.456 52.384 184.467 52.442 184.452 52.445C184.437 52.448 184.398 52.391 184.434 52.278C184.458 52.2107 184.504 52.1536 184.564 52.116C184.648 52.0671 184.747 52.0531 184.841 52.077C184.952 52.1131 185.053 52.1769 185.132 52.2625C185.212 52.348 185.269 52.4525 185.297 52.566C185.387 52.8225 185.413 53.0971 185.373 53.366C185.359 53.6172 185.27 53.8585 185.119 54.0595C184.967 54.2604 184.76 54.412 184.522 54.495C184.445 54.5075 184.365 54.5024 184.29 54.4801C184.215 54.4578 184.145 54.4188 184.087 54.366C184.008 54.289 184.002 54.224 184.008 54.221Z" fill="#FF9A6C"/>
<path d="M168.403 50.523C168.417 50.5 168.134 50.365 167.736 49.987C167.179 49.4424 166.792 48.7475 166.623 47.987C166.499 47.4689 166.482 46.9309 166.573 46.406C166.68 45.8079 166.945 45.2494 167.341 44.789C167.803 44.2692 168.394 43.8801 169.054 43.6605C169.714 43.441 170.42 43.3987 171.101 43.538C171.233 43.562 171.358 43.611 171.484 43.645C171.61 43.679 171.723 43.745 171.838 43.791L172.016 43.864L171.996 43.673C171.959 43.3463 172.039 43.017 172.222 42.744C172.404 42.4765 172.643 42.2525 172.922 42.088C173.463 41.777 174.091 41.6503 174.71 41.727C175.902 41.842 176.953 42.246 177.894 42.233C178.636 42.2647 179.363 42.0183 179.933 41.542C180.078 41.4056 180.199 41.2453 180.29 41.068C180.322 41.0065 180.345 40.9409 180.359 40.873C180.232 41.0996 180.07 41.3044 179.878 41.48C179.31 41.9113 178.607 42.1242 177.895 42.08C177.402 42.0549 176.912 41.9799 176.434 41.856C175.873 41.7087 175.303 41.5995 174.727 41.529C174.407 41.4957 174.084 41.5048 173.766 41.556C173.432 41.6176 173.111 41.7367 172.817 41.908C172.508 42.0871 172.242 42.3331 172.04 42.628C171.827 42.9442 171.734 43.3261 171.777 43.705L171.934 43.591C171.811 43.541 171.687 43.483 171.557 43.435C171.427 43.387 171.289 43.347 171.149 43.321C170.43 43.1729 169.684 43.2184 168.988 43.453C168.292 43.6875 167.67 44.1027 167.187 44.656C166.772 45.146 166.498 45.7394 166.393 46.373C166.304 46.9238 166.331 47.487 166.471 48.027C166.66 48.8078 167.081 49.5131 167.678 50.05C167.838 50.1947 168.014 50.3206 168.202 50.425C168.264 50.4671 168.331 50.5008 168.402 50.525" fill="#375A64"/>
<path d="M167.733 40.932C167.987 40.7524 168.268 40.6134 168.564 40.52C168.905 40.4269 169.263 40.4135 169.609 40.481C170.057 40.5594 170.466 40.7841 170.772 41.12L170.894 41.255L170.933 41.078C171.087 40.5334 171.382 40.0395 171.79 39.6469C172.197 39.2543 172.702 38.9772 173.251 38.844C174.123 38.6988 175.018 38.8391 175.803 39.244C176.469 39.5675 177.166 39.8225 177.883 40.005C178.377 40.1233 178.892 40.1178 179.383 39.989C179.515 39.9502 179.642 39.8969 179.761 39.83C179.842 39.782 179.881 39.754 179.878 39.747C179.875 39.74 179.698 39.827 179.362 39.905C178.882 39.9941 178.388 39.9733 177.917 39.844C177.216 39.6406 176.535 39.3728 175.882 39.044C175.481 38.8635 175.062 38.7228 174.633 38.624C174.162 38.5162 173.672 38.5162 173.2 38.624C172.612 38.7662 172.074 39.0655 171.643 39.4897C171.211 39.914 170.903 40.4474 170.751 41.033L170.914 40.992C170.575 40.6314 170.123 40.3969 169.633 40.327C169.265 40.2674 168.888 40.2969 168.533 40.413C168.306 40.4867 168.094 40.6008 167.907 40.75C167.783 40.858 167.727 40.926 167.734 40.932" fill="#375A64"/>
<path d="M175.12 54.91C175.209 54.8099 175.318 54.7303 175.44 54.6768C175.563 54.6232 175.696 54.597 175.829 54.6C175.981 54.6129 176.128 54.6577 176.262 54.7312C176.395 54.8048 176.511 54.9055 176.603 55.027L176.615 55.041C176.623 55.052 176.635 55.061 176.643 55.073L176.632 55.067C176.704 55.1539 176.746 55.262 176.752 55.375C176.747 55.5012 176.711 55.6243 176.648 55.7334C176.584 55.8426 176.495 55.9344 176.387 56.001C176.222 56.1141 176.025 56.1732 175.824 56.17C175.624 56.1667 175.429 56.1014 175.267 55.983C175.113 55.8551 175.012 55.6738 174.984 55.4751C174.957 55.2764 175.006 55.0747 175.12 54.91Z" fill="#FF4F5B"/>
<path d="M176.778 54.3849C176.741 54.3749 176.685 54.5229 176.546 54.7169C176.371 54.9671 176.128 55.1619 175.846 55.2779C175.558 55.3838 175.246 55.4047 174.946 55.3379C174.715 55.2849 174.575 55.2159 174.552 55.2479C174.529 55.2799 174.644 55.4029 174.894 55.5069C175.227 55.6387 175.598 55.6404 175.932 55.5119C176.265 55.382 176.538 55.1324 176.697 54.8119C176.814 54.5619 176.807 54.3909 176.778 54.3849Z" fill="#1A2E35"/>
<path d="M187.529 46.668C187.574 46.6427 187.616 46.6118 187.653 46.576C187.764 46.4794 187.869 46.3755 187.966 46.265C188.335 45.8574 188.595 45.3635 188.722 44.829C188.806 44.4553 188.806 44.0676 188.722 43.694C188.627 43.261 188.411 42.8642 188.098 42.55C187.924 42.3765 187.717 42.2395 187.489 42.1472C187.261 42.0548 187.017 42.0088 186.771 42.012C186.505 42.0069 186.242 42.0635 186.002 42.1773C185.762 42.2912 185.551 42.4591 185.387 42.668L185.516 42.736C185.516 42.727 185.523 42.716 185.526 42.706C185.887 41.7557 185.86 40.7013 185.45 39.771C185.279 39.3946 185.018 39.066 184.69 38.8141C184.362 38.5621 183.977 38.3945 183.569 38.326C183.294 38.2916 183.016 38.3128 182.749 38.3884C182.483 38.464 182.235 38.5924 182.019 38.766C181.905 38.8615 181.804 38.9722 181.719 39.095C181.688 39.1367 181.662 39.1824 181.643 39.231C181.763 39.0758 181.901 38.9352 182.054 38.812C182.485 38.4935 183.024 38.3571 183.554 38.432C183.941 38.5048 184.304 38.6702 184.612 38.914C184.921 39.1579 185.166 39.4728 185.326 39.832C185.712 40.7311 185.732 41.7449 185.384 42.659L185.374 42.689L185.232 43.123L185.502 42.757C185.653 42.5664 185.846 42.4131 186.066 42.3091C186.285 42.205 186.526 42.153 186.769 42.157C186.997 42.1533 187.223 42.1949 187.434 42.2794C187.645 42.3639 187.838 42.4895 188 42.649C188.297 42.9433 188.505 43.3156 188.6 43.723C188.687 44.0801 188.694 44.4519 188.62 44.812C188.503 45.3343 188.263 45.8212 187.92 46.232C187.68 46.526 187.52 46.663 187.526 46.673" fill="#1A2E35"/>
<path d="M192.156 55.8449C192.18 55.8587 192.206 55.8697 192.232 55.8779L192.459 55.9609C192.659 56.0309 192.959 56.1339 193.34 56.2529C193.808 56.4001 194.284 56.52 194.766 56.6119C195.408 56.7375 196.064 56.7682 196.714 56.7029C197.509 56.6231 198.268 56.3336 198.914 55.8639C199.28 55.5821 199.585 55.2304 199.814 54.8294C200.042 54.4284 200.188 53.986 200.244 53.5279C200.37 52.5171 200.209 51.4912 199.781 50.5669C199.566 50.0721 199.245 49.6302 198.841 49.2719C198.415 48.9006 197.869 48.6945 197.303 48.6909C196.897 48.6842 196.5 48.8137 196.175 49.0589L196.275 49.1679C196.628 48.7791 196.881 48.3103 197.012 47.8019C197.133 47.311 197.153 46.801 197.073 46.3019C197.003 45.8295 196.833 45.3774 196.575 44.9757C196.317 44.574 195.976 44.2318 195.575 43.9719C194.849 43.5173 193.995 43.3109 193.141 43.3839C192.401 43.4421 191.695 43.716 191.109 44.1719C190.635 44.5476 190.243 45.0183 189.961 45.5539C189.75 45.9566 189.601 46.3883 189.516 46.8349C189.463 47.1154 189.438 47.4005 189.441 47.6859C189.447 47.7769 189.451 47.8499 189.455 47.9069C189.456 47.9322 189.459 47.9574 189.464 47.9819C189.461 47.6003 189.497 47.2194 189.57 46.8449C189.663 46.4074 189.819 45.9854 190.031 45.5919C190.315 45.071 190.702 44.6142 191.17 44.2499C191.743 43.8137 192.431 43.5541 193.149 43.5029C193.977 43.4387 194.802 43.6439 195.503 44.0879C195.886 44.3377 196.212 44.6657 196.458 45.0505C196.705 45.4352 196.868 45.8679 196.935 46.3199C197.011 46.7999 196.991 47.2902 196.874 47.7619C196.749 48.2453 196.509 48.6913 196.174 49.0619L196.274 49.1709C196.573 48.9467 196.938 48.8284 197.311 48.8349C197.842 48.8387 198.354 49.0324 198.754 49.3809C199.141 49.726 199.448 50.1507 199.654 50.6259C200.073 51.5247 200.232 52.5225 200.114 53.5069C200.062 53.949 199.923 54.3764 199.704 54.7642C199.486 55.152 199.193 55.4925 198.841 55.7659C198.213 56.2278 197.474 56.5152 196.699 56.5989C196.059 56.6691 195.412 56.6462 194.778 56.5309C194.298 56.4455 193.823 56.3343 193.354 56.1979L192.466 55.9319L192.241 55.8639C192.215 55.8546 192.188 55.8486 192.16 55.8459" fill="#1A2E35"/>
<path d="M187.906 60.314C188.008 60.3956 188.119 60.4653 188.237 60.522C188.548 60.6962 188.872 60.8457 189.206 60.969C189.705 61.16 190.237 61.253 190.771 61.243C191.437 61.2288 192.076 60.981 192.577 60.543C192.83 60.306 193.023 60.0123 193.14 59.686C193.249 59.3837 193.305 59.0651 193.306 58.744C193.301 58.2079 193.189 57.6781 192.979 57.185C192.842 56.8547 192.684 56.5333 192.506 56.223C192.451 56.1054 192.384 55.9938 192.306 55.89C192.345 56.014 192.395 56.1342 192.456 56.249C192.561 56.477 192.722 56.803 192.877 57.222C193.068 57.7061 193.165 58.2217 193.165 58.742C193.171 59.0555 193.112 59.3668 192.994 59.6571C192.876 59.9474 192.699 60.2107 192.476 60.431C192.001 60.8468 191.396 61.0856 190.764 61.107C190.246 61.1223 189.73 61.0423 189.24 60.871C188.399 60.579 187.919 60.29 187.906 60.314Z" fill="#1A2E35"/>
<path d="M186.414 62.13C186.287 62.1079 186.165 62.0595 186.057 61.988C185.919 61.8808 185.811 61.7397 185.744 61.5786C185.676 61.4174 185.652 61.2415 185.672 61.068C185.679 60.9508 185.712 60.8365 185.767 60.733C185.823 60.6295 185.9 60.5391 185.993 60.468C186.095 60.3886 186.221 60.3455 186.351 60.3455C186.48 60.3455 186.606 60.3886 186.708 60.468C186.758 60.5147 186.798 60.5708 186.826 60.6331C186.854 60.6954 186.869 60.7627 186.871 60.831C186.873 60.8997 186.855 60.9676 186.821 61.0274C186.787 61.0873 186.738 61.1368 186.678 61.171C186.543 61.2417 186.388 61.2653 186.238 61.238C186.077 61.2116 185.924 61.1524 185.787 61.064C185.527 60.8798 185.314 60.6375 185.164 60.3565C185.014 60.0754 184.932 59.7633 184.924 59.445C184.915 58.9143 185.015 58.3874 185.218 57.897C185.326 57.5558 185.488 57.2344 185.698 56.945C185.741 56.8969 185.793 56.8586 185.851 56.8325C185.91 56.8065 185.973 56.7933 186.037 56.794C186.005 56.7769 185.969 56.7703 185.933 56.775C185.829 56.7846 185.732 56.8302 185.658 56.904C185.545 57.0164 185.453 57.1485 185.387 57.294C185.301 57.457 185.21 57.645 185.121 57.859C184.898 58.3597 184.784 58.9025 184.787 59.451C184.8 59.779 184.879 60.1009 185.021 60.397C185.171 60.7205 185.409 60.9953 185.708 61.19C185.857 61.2985 186.031 61.3656 186.214 61.3842C186.397 61.4028 186.582 61.3724 186.749 61.296C186.83 61.2486 186.897 61.1804 186.943 61.0985C186.989 61.0165 187.012 60.9238 187.01 60.83C187.007 60.7426 186.987 60.6567 186.95 60.5774C186.914 60.498 186.862 60.4268 186.797 60.368C186.735 60.3136 186.662 60.2722 186.584 60.2461C186.505 60.22 186.423 60.2098 186.34 60.216C186.188 60.226 186.043 60.2791 185.92 60.369C185.815 60.4514 185.728 60.5559 185.667 60.675C185.606 60.7942 185.572 60.9252 185.566 61.059C185.548 61.2477 185.581 61.4378 185.661 61.6096C185.741 61.7814 185.866 61.9286 186.022 62.036C186.108 62.0915 186.206 62.1258 186.307 62.136C186.341 62.1419 186.375 62.1399 186.407 62.13" fill="#1A2E35"/>
<path d="M196.05 56.049C196.091 56.0623 196.133 56.0693 196.175 56.07C196.298 56.0739 196.421 56.057 196.538 56.02C196.754 55.9446 196.95 55.8202 197.11 55.6566C197.269 55.493 197.389 55.2946 197.459 55.077C197.543 54.7476 197.54 54.402 197.45 54.0744C197.359 53.7468 197.185 53.4484 196.943 53.209C196.59 52.8394 196.143 52.5718 195.651 52.434C195.158 52.2963 194.637 52.2935 194.143 52.426L194.232 52.526C194.351 52.1612 194.374 51.7724 194.301 51.396C194.228 51.0196 194.061 50.6679 193.814 50.374C193.602 50.1199 193.33 49.9223 193.022 49.799C192.758 49.6965 192.476 49.6456 192.192 49.649C191.786 49.6519 191.388 49.7693 191.045 49.988C190.953 50.0449 190.867 50.112 190.789 50.188C190.737 50.241 190.714 50.27 190.714 50.274C190.714 50.278 190.833 50.172 191.073 50.034C191.415 49.8417 191.801 49.7434 192.192 49.749C192.462 49.7525 192.728 49.8065 192.977 49.908C193.264 50.0285 193.518 50.2177 193.714 50.459C193.941 50.7362 194.094 51.0658 194.161 51.4176C194.227 51.7694 194.204 52.1322 194.094 52.473L194.049 52.604L194.183 52.568C194.652 52.4436 195.146 52.4459 195.613 52.5746C196.081 52.7034 196.506 52.9541 196.845 53.301C197.074 53.5234 197.242 53.8011 197.332 54.1074C197.423 54.4136 197.432 54.7379 197.36 55.049C197.298 55.255 197.19 55.4445 197.044 55.6035C196.899 55.7625 196.72 55.887 196.52 55.968C196.369 56.0183 196.211 56.0466 196.051 56.052" fill="#375A64"/>
<path d="M196.388 47.42C196.331 47.3838 196.268 47.3587 196.203 47.346C196.017 47.3001 195.825 47.2882 195.636 47.311C195.347 47.3436 195.069 47.4428 194.826 47.601C194.511 47.7989 194.266 48.0906 194.126 48.435L194.245 48.413C194.013 48.1612 193.701 47.9993 193.362 47.956C192.873 47.8923 192.378 48.0069 191.967 48.279C191.641 48.4995 191.359 48.7782 191.135 49.101C190.982 49.3132 190.844 49.5357 190.722 49.767C190.67 49.8481 190.63 49.9359 190.603 50.028C190.626 50.042 190.82 49.68 191.217 49.163C191.445 48.8612 191.723 48.6008 192.04 48.393C192.426 48.146 192.886 48.0426 193.341 48.101C193.646 48.1375 193.928 48.2789 194.141 48.501L194.218 48.586L194.26 48.48C194.386 48.1619 194.607 47.8902 194.893 47.701C195.119 47.5467 195.377 47.4443 195.648 47.401C195.894 47.3717 196.142 47.3781 196.387 47.42" fill="#375A64"/>
<path d="M183.727 61.491L173.304 62.972L172.839 66.281C172.839 66.281 167.658 75.372 167.201 78.033C166.744 80.694 164.434 87.291 164.895 92.262C165.356 97.233 163.858 116.072 163.858 116.072H166.509L176.768 90.991L183.727 61.491Z" fill="#F1F1F1"/>
<path d="M190.924 182.565L193.54 192.065C193.54 192.065 184.644 197.222 184.958 199.028L203.644 195.298L200.173 180.328L190.924 182.565Z" fill="#DA2C2C"/>
<path d="M199.08 189.887C199.271 189.899 199.452 189.981 199.587 190.117C199.722 190.254 199.802 190.436 199.812 190.628C199.807 190.82 199.729 191.002 199.594 191.138C199.459 191.275 199.277 191.354 199.086 191.36C198.882 191.348 198.689 191.261 198.546 191.115C198.403 190.969 198.32 190.775 198.312 190.571C198.336 190.371 198.438 190.188 198.595 190.062C198.753 189.935 198.953 189.875 199.154 189.894" fill="white"/>
<path d="M203.643 195.295L203.293 193.786L185.375 198.019C185.203 198.156 185.069 198.335 184.983 198.537C184.897 198.74 184.864 198.961 184.885 199.18L203.643 195.295Z" fill="white"/>
<path d="M193.215 192.04C193.242 192.13 193.704 192.063 194.215 192.251C194.726 192.439 195.057 192.762 195.132 192.706C195.215 192.666 194.951 192.151 194.324 191.941C193.697 191.731 193.178 191.961 193.215 192.04Z" fill="#1A2E35"/>
<path d="M191.464 193.312C191.464 193.405 191.893 193.466 192.292 193.776C192.691 194.086 192.876 194.476 192.965 194.446C193.053 194.44 192.99 193.893 192.487 193.516C191.984 193.139 191.446 193.225 191.464 193.312Z" fill="#1A2E35"/>
<path d="M190.914 195.91C191.001 195.91 191.019 195.426 190.668 194.984C190.317 194.542 189.849 194.445 189.826 194.53C189.803 194.615 190.126 194.818 190.413 195.186C190.7 195.554 190.82 195.922 190.913 195.91" fill="#1A2E35"/>
<path d="M192.86 189.809C192.917 189.883 193.303 189.658 193.823 189.571C194.343 189.484 194.78 189.55 194.808 189.461C194.836 189.372 194.377 189.139 193.766 189.251C193.155 189.363 192.798 189.751 192.86 189.809Z" fill="#1A2E35"/>
<path d="M191.444 184.445L191.908 186.137L200.996 183.878L200.644 182.337L191.444 184.445Z" fill="black"/>
<path d="M192.367 187.884C192.691 187.894 193.012 187.816 193.294 187.657C193.615 187.517 193.917 187.338 194.194 187.125C194.359 186.998 194.515 186.86 194.66 186.711C194.75 186.629 194.827 186.534 194.888 186.429C194.932 186.35 194.949 186.259 194.936 186.17C194.923 186.08 194.88 185.998 194.815 185.935C194.755 185.882 194.683 185.844 194.605 185.825C194.527 185.806 194.445 185.805 194.367 185.823C194.249 185.85 194.136 185.894 194.03 185.954C193.844 186.05 193.666 186.163 193.5 186.291C193.221 186.508 192.977 186.767 192.778 187.059C192.568 187.31 192.441 187.62 192.412 187.946C192.46 187.966 192.602 187.632 192.961 187.198C193.171 186.946 193.413 186.721 193.68 186.531C193.837 186.421 194.002 186.323 194.174 186.239C194.358 186.139 194.525 186.099 194.596 186.175C194.622 186.204 194.627 186.217 194.596 186.284C194.55 186.361 194.493 186.432 194.427 186.493C194.294 186.634 194.153 186.768 194.004 186.893C193.75 187.104 193.478 187.291 193.189 187.452C192.905 187.577 192.631 187.721 192.367 187.884" fill="#1A2E35"/>
<path d="M192.516 187.986C192.629 187.678 192.64 187.342 192.547 187.028C192.482 186.679 192.357 186.345 192.179 186.038C192.073 185.856 191.949 185.686 191.808 185.529C191.73 185.418 191.624 185.33 191.502 185.272C191.379 185.215 191.243 185.19 191.108 185.2C191.025 185.221 190.95 185.265 190.892 185.328C190.833 185.391 190.794 185.469 190.779 185.553C190.757 185.673 190.752 185.796 190.764 185.917C190.782 186.133 190.832 186.344 190.913 186.545C191.047 186.881 191.262 187.179 191.538 187.412C192.014 187.812 192.418 187.826 192.418 187.793C192.437 187.74 192.081 187.64 191.693 187.243C191.47 187.014 191.3 186.739 191.193 186.438C191.131 186.263 191.093 186.08 191.081 185.895C191.058 185.695 191.099 185.514 191.178 185.517C191.269 185.495 191.458 185.605 191.574 185.744C191.704 185.883 191.821 186.034 191.924 186.194C192.099 186.469 192.234 186.768 192.324 187.081C192.479 187.621 192.463 187.981 192.516 187.986Z" fill="#1A2E35"/>
<path d="M163.621 181.99L162.46 191.775C162.46 191.775 152.281 193.171 151.891 194.959L170.591 198.605L173.026 183.433L163.621 181.99Z" fill="#DA2C2C"/>
<path d="M168.408 191.866C168.581 191.95 168.717 192.095 168.789 192.272C168.862 192.45 168.867 192.648 168.803 192.829C168.727 193.004 168.586 193.144 168.409 193.218C168.233 193.293 168.035 193.296 167.855 193.229C167.673 193.14 167.529 192.986 167.453 192.798C167.377 192.609 167.373 192.399 167.441 192.208C167.54 192.033 167.703 191.903 167.896 191.846C168.089 191.788 168.296 191.808 168.474 191.901" fill="white"/>
<path d="M170.594 198.605L170.839 197.076L152.658 194.186C152.447 194.249 152.256 194.363 152.101 194.519C151.946 194.674 151.832 194.866 151.771 195.077L170.594 198.605Z" fill="white"/>
<path d="M162.17 191.631C162.159 191.724 162.612 191.837 163.018 192.205C163.424 192.573 163.605 192.997 163.696 192.974C163.784 192.974 163.732 192.396 163.232 191.96C162.732 191.524 162.163 191.544 162.17 191.631Z" fill="#1A2E35"/>
<path d="M160.066 192.143C160.033 192.229 160.407 192.448 160.658 192.887C160.909 193.326 160.936 193.752 161.028 193.763C161.112 193.791 161.26 193.263 160.936 192.721C160.612 192.179 160.083 192.055 160.066 192.143Z" fill="#1A2E35"/>
<path d="M158.584 194.338C158.665 194.37 158.864 193.929 158.707 193.387C158.55 192.845 158.146 192.578 158.095 192.649C158.044 192.72 158.269 193.031 158.395 193.478C158.521 193.925 158.495 194.315 158.584 194.338Z" fill="#1A2E35"/>
<path d="M162.679 189.432C162.706 189.518 163.148 189.46 163.662 189.576C164.176 189.692 164.555 189.921 164.616 189.849C164.677 189.777 164.338 189.388 163.73 189.259C163.122 189.13 162.647 189.352 162.679 189.432Z" fill="#1A2E35"/>
<path d="M163.393 183.929L163.184 185.672L172.448 187.029L172.702 185.468L163.393 183.929Z" fill="black"/>
<path d="M162.951 187.461C163.247 187.593 163.573 187.642 163.895 187.603C164.244 187.595 164.591 187.545 164.928 187.453C165.128 187.4 165.324 187.333 165.514 187.253C165.629 187.211 165.737 187.151 165.834 187.075C165.905 187.018 165.955 186.94 165.977 186.851C165.998 186.763 165.989 186.67 165.951 186.587C165.915 186.516 165.863 186.454 165.799 186.406C165.734 186.359 165.66 186.327 165.581 186.314C165.462 186.294 165.341 186.292 165.221 186.307C165.013 186.325 164.806 186.361 164.604 186.417C164.263 186.511 163.94 186.659 163.645 186.855C163.145 187.192 162.945 187.514 162.971 187.536C162.997 187.558 163.266 187.317 163.762 187.052C164.051 186.898 164.359 186.783 164.677 186.708C164.864 186.665 165.053 186.637 165.244 186.625C165.451 186.604 165.621 186.625 165.659 186.725C165.672 186.762 165.672 186.776 165.622 186.825C165.551 186.879 165.472 186.923 165.388 186.955C165.211 187.035 165.03 187.104 164.845 187.163C164.531 187.262 164.208 187.332 163.88 187.371C163.569 187.379 163.258 187.409 162.951 187.461" fill="#1A2E35"/>
<path d="M163.051 187.613C163.081 187.632 163.315 187.331 163.442 186.738C163.512 186.39 163.523 186.033 163.473 185.682C163.444 185.473 163.393 185.268 163.322 185.07C163.291 184.937 163.226 184.815 163.134 184.715C163.042 184.615 162.925 184.54 162.795 184.498C162.712 184.487 162.626 184.5 162.549 184.535C162.473 184.57 162.407 184.627 162.361 184.698C162.296 184.802 162.245 184.914 162.21 185.032C162.145 185.238 162.111 185.453 162.11 185.669C162.107 186.031 162.193 186.388 162.361 186.709C162.653 187.255 163.02 187.426 163.032 187.396C162.863 187.144 162.708 186.882 162.568 186.612C162.449 186.315 162.395 185.996 162.41 185.677C162.418 185.492 162.452 185.309 162.51 185.134C162.571 184.937 162.671 184.787 162.743 184.819C162.836 184.832 162.972 185.008 163.024 185.18C163.092 185.358 163.144 185.542 163.178 185.73C163.235 186.051 163.246 186.378 163.21 186.702C163.15 187.261 162.998 187.591 163.046 187.613" fill="#1A2E35"/>
<path d="M177.738 153.021C177.738 153.37 173.46 186.931 173.46 186.931L161.038 184.56L166.038 149.921L177.738 153.021Z" fill="#19201F"/>
<path d="M192.887 149.431C193.003 149.76 201.644 183.64 201.644 183.64L189.826 186.375L179.699 149.921L192.887 149.431Z" fill="#19201F"/>
<path d="M181.752 62.5609L184.183 61.7289L188.431 67.5549L189.573 86.2679L186.638 95.9079C186.638 95.9079 194.909 114.251 195.038 118.808C195.167 123.365 198.889 165.752 198.889 165.752L160.624 168.878L167.694 99.5229C167.694 99.5229 168.628 82.5229 169.694 79.9749C170.76 77.4269 181.752 62.5609 181.752 62.5609Z" fill="#8C3E79"/>
<path d="M185.037 122.83C185.037 122.838 184.989 122.864 184.887 122.906C184.736 122.963 184.58 123.005 184.42 123.031C183.825 123.108 183.22 123.02 182.672 122.775C181.862 122.401 181.176 121.803 180.697 121.05C180.122 120.141 179.667 119.162 179.341 118.137C178.715 116.29 178.383 114.357 178.357 112.407C178.352 111.819 178.378 111.231 178.434 110.646C178.445 110.43 178.479 110.216 178.534 110.007C178.551 110.222 178.549 110.438 178.527 110.652C178.516 111.067 178.499 111.666 178.527 112.407C178.603 114.331 178.953 116.235 179.568 118.06C179.888 119.065 180.329 120.028 180.881 120.927C181.331 121.654 181.975 122.24 182.741 122.62C183.26 122.868 183.835 122.977 184.409 122.938C184.814 122.897 185.029 122.809 185.037 122.83Z" fill="#1A2E35"/>
<path d="M198.892 165.749C198.892 165.749 198.828 165.761 198.703 165.775L198.145 165.831L195.985 166.031L187.947 166.724L160.632 168.995L160.492 169.007L160.506 168.866C160.812 165.854 161.13 162.73 161.455 159.533C162.811 146.374 164.038 134.46 164.927 125.826C165.382 121.526 165.75 118.036 166.006 115.615L166.312 112.839C166.349 112.529 166.377 112.289 166.397 112.119C166.418 111.956 166.435 111.874 166.435 111.874C166.435 111.874 166.435 111.958 166.422 112.121C166.409 112.284 166.387 112.534 166.36 112.845C166.299 113.49 166.212 114.425 166.099 115.624C165.861 118.047 165.519 121.536 165.099 125.844C164.227 134.479 163.026 146.394 161.699 159.557L160.74 168.889L160.613 168.76L187.936 166.567L195.98 165.945L198.143 165.788L198.704 165.753C198.83 165.746 198.895 165.753 198.895 165.753" fill="#1A2E35"/>
<path d="M186.362 64.718C186.332 64.7462 186.299 64.7704 186.262 64.79L185.957 64.98L184.777 65.699C184.265 66.012 183.639 66.399 182.924 66.858C182.569 67.091 182.185 67.34 181.81 67.635C181.725 67.6973 181.649 67.7714 181.584 67.855C181.567 67.955 181.555 68.098 181.541 68.221C181.512 68.476 181.478 68.737 181.441 69.004C181.271 70.169 181.035 71.3235 180.734 72.462C180.409 73.7788 179.928 75.0523 179.302 76.256C178.471 77.5053 177.427 78.5994 176.218 79.489C175.619 79.9806 175.096 80.5594 174.668 81.206C174.242 81.8723 174.065 82.6678 174.168 83.452C174.313 84.2412 174.537 85.0141 174.835 85.759C175.102 86.5127 175.258 87.3013 175.298 88.1C175.338 89.6082 175.072 91.109 174.517 92.512C174.034 93.7757 173.432 94.9902 172.717 96.139C172.058 97.222 171.408 98.205 170.817 99.103C169.621 100.897 168.678 102.357 168.067 103.392C167.76 103.908 167.53 104.314 167.377 104.592C167.306 104.72 167.248 104.823 167.201 104.906C167.183 104.942 167.161 104.976 167.134 105.006C167.144 104.966 167.159 104.927 167.179 104.891L167.334 104.568C167.474 104.283 167.691 103.868 167.986 103.344C168.574 102.293 169.498 100.818 170.664 99.01C171.245 98.11 171.887 97.118 172.534 96.036C173.236 94.8946 173.828 93.6892 174.302 92.436C174.841 91.06 175.097 89.5899 175.056 88.113C175.016 87.3363 174.863 86.5696 174.602 85.837C174.297 85.0769 174.069 84.2879 173.922 83.482C173.814 82.6433 174.006 81.7935 174.462 81.082C174.904 80.4152 175.443 79.8189 176.062 79.313C177.254 78.4423 178.285 77.3714 179.11 76.148C179.732 74.9624 180.212 73.7082 180.542 72.411C180.848 71.2815 181.092 70.1361 181.273 68.98C181.315 68.716 181.35 68.456 181.383 68.203C181.401 68.072 181.407 67.962 181.434 67.818C181.504 67.6974 181.601 67.5947 181.717 67.518C182.107 67.218 182.493 66.977 182.854 66.748C183.575 66.292 184.209 65.918 184.728 65.618L185.928 64.938L186.245 64.768C186.282 64.7459 186.321 64.7291 186.362 64.718" fill="#1A2E35"/>
<path d="M185.797 95.439C185.402 95.4594 185.007 95.4158 184.625 95.31C183.692 95.1005 182.8 94.739 181.983 94.24C181.166 93.7406 180.436 93.1106 179.822 92.375C179.553 92.0827 179.332 91.7492 179.168 91.387C180.007 92.4146 180.998 93.3074 182.107 94.034C183.258 94.6872 184.503 95.1594 185.797 95.434" fill="#1A2E35"/>
<path d="M186.545 96.249C186.259 96.3719 185.955 96.4491 185.645 96.478C184.911 96.5993 184.167 96.6568 183.422 96.65C182.676 96.6451 181.932 96.5758 181.198 96.443C180.889 96.409 180.588 96.327 180.304 96.2C180.318 96.127 181.699 96.4 183.423 96.41C185.147 96.42 186.532 96.176 186.545 96.249Z" fill="#1A2E35"/>
<path d="M200.882 91.022C200.772 88.155 195.33 76.822 195.33 76.822C195.33 76.822 192.809 71.195 192.214 70.056C190.921 67.581 187.31 67.321 186.008 68.072L187.017 82.051L190.006 92.235L184.182 103.262L191.434 110.429C201.104 109.216 200.993 93.889 200.883 91.022" fill="#553791"/>
<path d="M198.517 92.577C198.069 92.5944 197.62 92.5287 197.195 92.383C196.389 92.183 195.342 91.712 194.141 91.427C193.582 91.2885 193.003 91.2453 192.428 91.299C191.963 91.3512 191.512 91.4979 191.105 91.73C190.736 91.9622 190.413 92.2601 190.151 92.609C190.175 92.4882 190.227 92.3748 190.303 92.278C190.491 92.0005 190.734 91.7646 191.016 91.585C191.435 91.3172 191.908 91.1444 192.4 91.079C193 91.009 193.608 91.0469 194.194 91.191C195.435 91.491 196.463 91.982 197.242 92.22C198.017 92.477 198.521 92.539 198.517 92.577Z" fill="#1A2E35"/>
<path d="M195.127 88.237C194.78 88.3336 194.424 88.3976 194.064 88.428C193.214 88.5287 192.389 88.7832 191.63 89.179C190.891 89.5998 190.344 90.2914 190.104 91.108C190.036 91.4545 190.014 91.8087 190.041 92.161C190.028 92.161 189.98 92.07 189.941 91.883C189.887 91.6151 189.887 91.3389 189.941 91.071C190.043 90.6312 190.234 90.2173 190.505 89.8558C190.775 89.4942 191.117 89.1929 191.51 88.971C192.294 88.5563 193.158 88.3139 194.043 88.26C194.402 88.205 194.766 88.1973 195.127 88.237Z" fill="#1A2E35"/>
<path d="M192.34 110.547C192.157 110.498 191.979 110.428 191.811 110.34C191.34 110.128 190.883 109.889 190.44 109.622C189.778 109.232 189.144 108.798 188.54 108.322C187.806 107.733 187.115 107.092 186.474 106.402C185.843 105.703 185.263 104.959 184.74 104.176C184.317 103.533 183.937 102.863 183.603 102.17C183.376 101.705 183.176 101.227 183.005 100.738C182.93 100.563 182.875 100.379 182.84 100.192C182.884 100.176 183.158 100.939 183.755 102.092C184.107 102.767 184.497 103.421 184.924 104.051C185.452 104.818 186.03 105.548 186.654 106.238C187.288 106.919 187.966 107.557 188.683 108.148C189.273 108.626 189.89 109.07 190.53 109.477C191.63 110.17 192.363 110.505 192.344 110.546" fill="#1A2E35"/>
<path d="M190.006 92.2329C189.775 91.7562 189.583 91.2616 189.432 90.7539C189.112 89.8279 188.694 88.5389 188.277 87.1019C187.86 85.6649 187.526 84.3509 187.312 83.3939C187.17 82.8829 187.071 82.3607 187.017 81.8329C187.204 82.3286 187.356 82.8364 187.473 83.3529C187.732 84.2969 188.092 85.5999 188.512 87.0329L189.593 90.7019C189.768 91.2016 189.906 91.7133 190.006 92.2329Z" fill="#1A2E35"/>
<path d="M184.182 103.261C184.125 103.234 185.382 100.734 186.99 97.692C188.598 94.65 189.949 92.203 190.007 92.234C190.065 92.265 188.81 94.759 187.202 97.804C185.594 100.849 184.242 103.292 184.182 103.261Z" fill="#1A2E35"/>
<path d="M180.31 160.31C180.244 160.304 180.596 155.85 181.096 150.362C181.596 144.874 182.055 140.429 182.122 140.435C182.189 140.441 181.836 144.894 181.336 150.383C180.836 155.872 180.376 160.316 180.31 160.31Z" fill="#1A2E35"/>
<path d="M184.607 162.121C184.196 160.707 183.863 159.271 183.607 157.821C183.274 156.384 183.02 154.93 182.846 153.465C183.257 154.879 183.591 156.315 183.846 157.765C184.179 159.201 184.433 160.654 184.609 162.117" fill="#1A2E35"/>
<path d="M180.985 150.597C180.982 150.664 176.937 150.561 171.957 150.368C166.977 150.175 162.937 149.964 162.937 149.897C162.937 149.83 166.981 149.934 171.966 150.127C176.951 150.32 180.987 150.527 180.985 150.598" fill="#FAFAFA"/>
<path d="M197.699 152.545C197.698 152.611 193.977 152.571 189.384 152.454C184.791 152.337 181.084 152.191 181.084 152.123C181.084 152.055 184.806 152.097 189.395 152.213C193.984 152.329 197.701 152.478 197.695 152.544" fill="#FAFAFA"/>
<path d="M181.369 145.743C181.369 145.81 177.302 145.674 172.293 145.443C167.284 145.212 163.228 144.964 163.228 144.898C163.228 144.832 167.294 144.967 172.304 145.198C177.314 145.429 181.372 145.674 181.369 145.741" fill="#FAFAFA"/>
<path d="M197.316 147.884C197.314 147.947 193.743 147.89 189.34 147.747C184.937 147.604 181.372 147.441 181.372 147.374C181.372 147.307 184.945 147.368 189.348 147.509C193.751 147.65 197.318 147.818 197.316 147.884Z" fill="#FAFAFA"/>
<path d="M31.4142 174.05C31.5417 173.503 31.7866 172.991 32.132 172.548C32.4773 172.105 32.9148 171.743 33.4142 171.486C34.5324 171.123 35.7461 171.195 36.8142 171.686C37.8721 172.177 38.9948 172.513 40.1482 172.686C40.7279 172.76 41.3159 172.644 41.8247 172.357C42.3336 172.07 42.736 171.626 42.9722 171.091C43.0709 170.55 43.0215 169.993 42.8293 169.478C42.637 168.963 42.3091 168.51 41.8802 168.166C41.041 167.374 40.0194 166.802 38.9059 166.499C37.7925 166.197 36.6217 166.174 35.4972 166.432C34.3772 166.714 33.3442 167.269 32.4896 168.046C31.6349 168.822 30.9849 169.798 30.5972 170.886" fill="#FF4F5B"/>
<path d="M31.4142 174.05C31.5417 173.503 31.7866 172.991 32.132 172.548C32.4773 172.105 32.9148 171.743 33.4142 171.486C34.5324 171.123 35.7461 171.195 36.8142 171.686C37.8721 172.177 38.9948 172.513 40.1482 172.686C40.7279 172.76 41.3159 172.644 41.8247 172.357C42.3336 172.07 42.736 171.626 42.9722 171.091C43.0709 170.55 43.0215 169.993 42.8293 169.478C42.637 168.963 42.3091 168.51 41.8802 168.166C41.041 167.374 40.0194 166.802 38.9059 166.499C37.7925 166.197 36.6217 166.174 35.4972 166.432C34.3772 166.714 33.3442 167.269 32.4896 168.046C31.6349 168.822 30.9849 169.798 30.5972 170.886" fill="#CCCCCC"/>
<path d="M19.6902 188.095C19.6805 188.007 19.6782 187.919 19.6832 187.831C19.6832 187.657 19.6832 187.401 19.6972 187.072C19.7232 186.412 19.7832 185.459 19.9332 184.288C20.1072 182.917 20.3576 181.557 20.6832 180.214C21.0867 178.565 21.7121 176.978 22.5422 175.497C23.3759 174.016 24.3981 172.649 25.5832 171.431C26.5479 170.438 27.6163 169.551 28.7702 168.786C29.2562 168.45 29.7272 168.195 30.1322 167.958C30.5482 167.74 30.9102 167.558 31.2072 167.418L31.9072 167.124C31.9872 167.086 32.0702 167.055 32.1552 167.031C32.0799 167.078 32.001 167.119 31.9192 167.153L31.2332 167.475C30.9412 167.627 30.5842 167.813 30.1752 168.037C29.7752 168.28 29.3122 168.537 28.8322 168.881C26.2965 170.612 24.1927 172.903 22.6832 175.576C21.2633 178.294 20.3687 181.255 20.0462 184.304C19.8832 185.468 19.8042 186.418 19.7602 187.074C19.7416 187.391 19.7266 187.644 19.7152 187.831C19.714 187.92 19.7056 188.008 19.6902 188.095Z" fill="#1A2E35"/>
<path d="M3.44708 160.009C-0.113917 162.159 -0.104917 164.115 0.495083 165.962C0.792736 166.885 1.43844 167.656 2.29519 168.112C3.15194 168.567 4.15232 168.67 5.08408 168.4C6.08043 167.926 6.91512 167.168 7.48408 166.223C8.04852 165.28 8.76365 164.435 9.60108 163.723C10.0266 163.375 10.5477 163.165 11.0954 163.12C11.6431 163.075 12.1915 163.197 12.6681 163.471" fill="#FF4F5B"/>
<path d="M3.44708 160.009C-0.113917 162.159 -0.104917 164.115 0.495083 165.962C0.792736 166.885 1.43844 167.656 2.29519 168.112C3.15194 168.567 4.15232 168.67 5.08408 168.4C6.08043 167.926 6.91512 167.168 7.48408 166.223C8.04852 165.28 8.76365 164.435 9.60108 163.723C10.0266 163.375 10.5477 163.165 11.0954 163.12C11.6431 163.075 12.1915 163.197 12.6681 163.471" fill="#CCCCCC"/>
<path d="M17.3342 184.974C17.3272 184.949 17.3239 184.923 17.3242 184.897C17.3242 184.837 17.3172 184.762 17.3122 184.67C17.3042 184.457 17.2939 184.166 17.2812 183.796C17.2582 183.024 17.2262 181.929 17.1812 180.582C17.1362 179.235 17.0812 177.61 16.9812 175.819C16.8812 174.028 16.7412 172.059 16.4612 170.01C16.3429 169.012 16.1422 168.025 15.8612 167.06C15.5724 166.167 15.2008 165.302 14.7512 164.478C14.3468 163.727 13.8784 163.012 13.3512 162.342C12.8844 161.758 12.3718 161.212 11.8182 160.71C11.0053 159.983 10.0911 159.378 9.10423 158.913C8.92723 158.835 8.77323 158.757 8.63423 158.703L8.27923 158.569L8.06223 158.484C8.03678 158.476 8.01256 158.464 7.99023 158.449C8.01702 158.452 8.04325 158.459 8.06823 158.469L8.29023 158.539L8.65223 158.659C8.79423 158.71 8.95223 158.783 9.13123 158.859C10.1365 159.305 11.0684 159.901 11.8952 160.627C12.4587 161.128 12.9805 161.675 13.4552 162.261C13.9935 162.934 14.4717 163.653 14.8842 164.41C15.3422 165.239 15.7209 166.11 16.0152 167.01C16.3012 167.983 16.5053 168.978 16.6252 169.985C16.9062 172.042 17.0382 174.015 17.1332 175.808C17.2282 177.601 17.2712 179.218 17.3002 180.576C17.3292 181.934 17.3392 183.032 17.3432 183.791C17.3432 184.161 17.3432 184.453 17.3432 184.665C17.3432 184.757 17.3432 184.832 17.3432 184.892C17.3448 184.918 17.3424 184.944 17.3362 184.97" fill="#1A2E35"/>
<path d="M18.7102 186.534C18.5512 186.038 18.4289 185.53 18.3442 185.016C18.1123 183.607 18.0609 182.173 18.1912 180.751C18.3952 178.649 18.8223 176.575 19.4652 174.563C20.1512 172.289 21.0832 169.856 21.8782 167.242C22.2713 165.97 22.5918 164.677 22.8382 163.369C23.0595 162.145 23.2177 160.91 23.3122 159.669C23.4647 157.566 23.5004 155.456 23.4192 153.349C23.3612 151.549 23.2712 150.093 23.2192 149.087C23.1912 148.587 23.1702 148.203 23.1542 147.928C23.1442 147.806 23.1392 147.707 23.1362 147.627C23.133 147.594 23.133 147.56 23.1362 147.527C23.1443 147.56 23.1493 147.593 23.1512 147.627C23.1582 147.703 23.1672 147.802 23.1792 147.927L23.2722 149.084C23.3462 150.089 23.4532 151.544 23.5242 153.346C23.6207 155.458 23.5956 157.573 23.4492 159.682C23.3578 160.927 23.2016 162.166 22.9812 163.395C22.7371 164.711 22.4176 166.011 22.0242 167.29C21.2242 169.913 20.2912 172.342 19.5992 174.607C18.9528 176.607 18.5171 178.67 18.2992 180.761C18.1608 182.175 18.1961 183.6 18.4042 185.005C18.4862 185.505 18.5612 185.884 18.6272 186.139L18.6952 186.432C18.7045 186.465 18.7105 186.498 18.7132 186.532" fill="#1A2E35"/>
<path d="M27.4791 188.095H10.7121L10.3291 184.974H27.4791V188.095Z" fill="#DA2C2C"/>
<path d="M12.667 188.094L14.777 197.456H23.945L25.919 188.094H12.667Z" fill="#DA2C2C"/>
<path d="M27.4779 188.117C27.4779 188.161 23.8129 188.186 19.2929 188.174C14.7729 188.162 11.1079 188.115 11.1079 188.071C11.1079 188.027 14.7719 188.002 19.2939 188.015C23.8159 188.028 27.4779 188.073 27.4779 188.115" fill="#375A64"/>
<path d="M104.195 24H90.1953C86.8816 24 84.1953 26.6863 84.1953 30V43C84.1953 46.3137 86.8816 49 90.1953 49H104.195C107.509 49 110.195 46.3137 110.195 43V30C110.195 26.6863 107.509 24 104.195 24Z" fill="#8C3E79"/>
<path d="M102.695 43H91.6953C91.5627 43 91.4355 42.9473 91.3418 42.8536C91.248 42.7598 91.1953 42.6326 91.1953 42.5V37.5C91.1953 37.3674 91.248 37.2402 91.3418 37.1465C91.4355 37.0527 91.5627 37 91.6953 37H92.1953V42H93.1953V35.5C93.1953 35.3674 93.248 35.2402 93.3418 35.1465C93.4355 35.0527 93.5627 35 93.6953 35H98.6953C98.8279 35 98.9551 35.0527 99.0489 35.1465C99.1426 35.2402 99.1953 35.3674 99.1953 35.5V42H102.195V33.372L98.1953 32.172V34H97.1953V31.5C97.1953 31.4221 97.2135 31.3453 97.2485 31.2757C97.2834 31.2061 97.3342 31.1457 97.3966 31.0992C97.4591 31.0526 97.5315 31.0213 97.6082 31.0078C97.6849 30.9942 97.7637 30.9987 97.8383 31.021L102.838 32.521C102.941 32.5518 103.032 32.615 103.096 32.7013C103.161 32.7876 103.195 32.8924 103.195 33V42.5C103.195 42.6326 103.143 42.7598 103.049 42.8536C102.955 42.9473 102.828 43 102.695 43ZM95.1953 40.5V41.5H97.1953V40.5H95.1953ZM95.1953 38.5V39.5H97.1953V38.5H95.1953ZM95.1953 36.5V37.5H97.1953V36.5H95.1953Z" fill="white"/>
<path d="M101.588 35.161H100.549V41.402H101.588V35.161Z" fill="white"/>
<path d="M71.1953 84C72.8522 84 74.1953 82.6569 74.1953 81C74.1953 79.3431 72.8522 78 71.1953 78C69.5385 78 68.1953 79.3431 68.1953 81C68.1953 82.6569 69.5385 84 71.1953 84Z" fill="white"/>
<path d="M81.1953 84C82.8522 84 84.1953 82.6569 84.1953 81C84.1953 79.3431 82.8522 78 81.1953 78C79.5385 78 78.1953 79.3431 78.1953 81C78.1953 82.6569 79.5385 84 81.1953 84Z" fill="white"/>
<path d="M91.1953 84C92.8522 84 94.1953 82.6569 94.1953 81C94.1953 79.3431 92.8522 78 91.1953 78C89.5385 78 88.1953 79.3431 88.1953 81C88.1953 82.6569 89.5385 84 91.1953 84Z" fill="white"/>
<path d="M101.195 84C102.852 84 104.195 82.6569 104.195 81C104.195 79.3431 102.852 78 101.195 78C99.5385 78 98.1953 79.3431 98.1953 81C98.1953 82.6569 99.5385 84 101.195 84Z" fill="white"/>
<path d="M111.695 84C113.628 84 115.195 82.6569 115.195 81C115.195 79.3431 113.628 78 111.695 78C109.762 78 108.195 79.3431 108.195 81C108.195 82.6569 109.762 84 111.695 84Z" fill="white"/>
<path d="M86.3496 111H85.373L84.2012 109.037C84.0938 108.855 83.9896 108.7 83.8887 108.573C83.7878 108.443 83.6836 108.337 83.5762 108.256C83.472 108.174 83.3581 108.116 83.2344 108.08C83.1139 108.041 82.9772 108.021 82.8242 108.021H82.1504V111H81.3301V103.998H83.4199C83.7259 103.998 84.0075 104.037 84.2646 104.115C84.5251 104.19 84.7497 104.306 84.9385 104.462C85.1305 104.618 85.2803 104.813 85.3877 105.048C85.4951 105.279 85.5488 105.551 85.5488 105.863C85.5488 106.107 85.5114 106.332 85.4365 106.537C85.3649 106.739 85.2607 106.92 85.124 107.079C84.9906 107.239 84.8278 107.375 84.6357 107.489C84.4469 107.6 84.2337 107.686 83.9961 107.748V107.768C84.1133 107.82 84.2142 107.88 84.2988 107.948C84.3867 108.013 84.4697 108.091 84.5479 108.183C84.626 108.274 84.7025 108.378 84.7773 108.495C84.8555 108.609 84.9417 108.743 85.0361 108.896L86.3496 111ZM82.1504 104.74V107.279H83.2637C83.4688 107.279 83.6576 107.248 83.8301 107.187C84.0059 107.125 84.1572 107.037 84.2842 106.923C84.4111 106.806 84.5104 106.664 84.582 106.498C84.6536 106.329 84.6895 106.14 84.6895 105.932C84.6895 105.557 84.5674 105.266 84.3232 105.058C84.0824 104.846 83.7324 104.74 83.2734 104.74H82.1504ZM90.9346 108.7H87.4043C87.4173 109.257 87.5671 109.687 87.8535 109.989C88.14 110.292 88.5339 110.443 89.0352 110.443C89.5983 110.443 90.1159 110.258 90.5879 109.887V110.639C90.1484 110.958 89.5674 111.117 88.8447 111.117C88.1383 111.117 87.5833 110.891 87.1797 110.438C86.776 109.983 86.5742 109.343 86.5742 108.52C86.5742 107.742 86.7939 107.108 87.2334 106.62C87.6761 106.129 88.2246 105.883 88.8789 105.883C89.5332 105.883 90.0394 106.094 90.3975 106.518C90.7555 106.941 90.9346 107.528 90.9346 108.28V108.7ZM90.1143 108.021C90.111 107.559 89.9987 107.2 89.7773 106.942C89.5592 106.685 89.2549 106.557 88.8643 106.557C88.4867 106.557 88.166 106.692 87.9023 106.962C87.6387 107.232 87.4759 107.585 87.4141 108.021H90.1143ZM96.418 110.6C96.418 112.436 95.5391 113.354 93.7812 113.354C93.1628 113.354 92.6224 113.236 92.1602 113.002V112.201C92.7233 112.514 93.2604 112.67 93.7715 112.67C95.002 112.67 95.6172 112.016 95.6172 110.707V110.16H95.5977C95.2168 110.798 94.6439 111.117 93.8789 111.117C93.2572 111.117 92.7559 110.896 92.375 110.453C91.9974 110.007 91.8086 109.41 91.8086 108.661C91.8086 107.812 92.012 107.136 92.4189 106.635C92.8291 106.133 93.389 105.883 94.0986 105.883C94.7725 105.883 95.2721 106.153 95.5977 106.693H95.6172V106H96.418V110.6ZM95.6172 108.739V108.002C95.6172 107.605 95.4821 107.265 95.2119 106.981C94.945 106.698 94.6113 106.557 94.2109 106.557C93.7161 106.557 93.3288 106.737 93.0488 107.099C92.7689 107.457 92.6289 107.96 92.6289 108.607C92.6289 109.164 92.7624 109.61 93.0293 109.945C93.2995 110.277 93.6559 110.443 94.0986 110.443C94.5479 110.443 94.9124 110.284 95.1924 109.965C95.4756 109.646 95.6172 109.237 95.6172 108.739ZM98.4492 104.73C98.306 104.73 98.1839 104.682 98.083 104.584C97.9821 104.486 97.9316 104.363 97.9316 104.213C97.9316 104.063 97.9821 103.939 98.083 103.842C98.1839 103.741 98.306 103.69 98.4492 103.69C98.5957 103.69 98.7194 103.741 98.8203 103.842C98.9245 103.939 98.9766 104.063 98.9766 104.213C98.9766 104.356 98.9245 104.478 98.8203 104.579C98.7194 104.68 98.5957 104.73 98.4492 104.73ZM98.8398 111H98.0391V106H98.8398V111ZM100.158 110.819V109.96C100.594 110.282 101.075 110.443 101.599 110.443C102.302 110.443 102.653 110.209 102.653 109.74C102.653 109.607 102.622 109.494 102.561 109.403C102.502 109.309 102.421 109.226 102.316 109.154C102.215 109.083 102.095 109.019 101.955 108.964C101.818 108.905 101.67 108.845 101.511 108.783C101.289 108.695 101.094 108.607 100.925 108.52C100.759 108.428 100.619 108.327 100.505 108.217C100.394 108.103 100.31 107.974 100.251 107.831C100.196 107.688 100.168 107.52 100.168 107.328C100.168 107.094 100.222 106.887 100.329 106.708C100.437 106.526 100.58 106.374 100.759 106.254C100.938 106.13 101.141 106.037 101.369 105.976C101.6 105.914 101.838 105.883 102.082 105.883C102.515 105.883 102.902 105.958 103.244 106.107V106.918C102.876 106.677 102.453 106.557 101.975 106.557C101.825 106.557 101.69 106.575 101.569 106.61C101.449 106.643 101.345 106.69 101.257 106.752C101.172 106.814 101.105 106.889 101.057 106.977C101.011 107.061 100.988 107.156 100.988 107.26C100.988 107.39 101.011 107.499 101.057 107.587C101.105 107.675 101.175 107.753 101.267 107.821C101.358 107.89 101.468 107.951 101.599 108.007C101.729 108.062 101.877 108.122 102.043 108.188C102.264 108.272 102.463 108.36 102.639 108.451C102.814 108.539 102.964 108.64 103.088 108.754C103.212 108.865 103.306 108.993 103.371 109.14C103.439 109.286 103.474 109.46 103.474 109.662C103.474 109.91 103.418 110.124 103.308 110.307C103.2 110.489 103.055 110.64 102.873 110.761C102.691 110.881 102.481 110.971 102.243 111.029C102.006 111.088 101.757 111.117 101.496 111.117C100.982 111.117 100.536 111.018 100.158 110.819ZM107.028 110.951C106.84 111.055 106.59 111.107 106.281 111.107C105.406 111.107 104.968 110.619 104.968 109.643V106.684H104.108V106H104.968V104.779L105.769 104.521V106H107.028V106.684H105.769V109.501C105.769 109.836 105.826 110.076 105.939 110.219C106.053 110.362 106.242 110.434 106.506 110.434C106.708 110.434 106.882 110.378 107.028 110.268V110.951ZM112.116 108.7H108.586C108.599 109.257 108.749 109.687 109.035 109.989C109.322 110.292 109.715 110.443 110.217 110.443C110.78 110.443 111.298 110.258 111.77 109.887V110.639C111.33 110.958 110.749 111.117 110.026 111.117C109.32 111.117 108.765 110.891 108.361 110.438C107.958 109.983 107.756 109.343 107.756 108.52C107.756 107.742 107.976 107.108 108.415 106.62C108.858 106.129 109.406 105.883 110.061 105.883C110.715 105.883 111.221 106.094 111.579 106.518C111.937 106.941 112.116 107.528 112.116 108.28V108.7ZM111.296 108.021C111.293 107.559 111.18 107.2 110.959 106.942C110.741 106.685 110.437 106.557 110.046 106.557C109.668 106.557 109.348 106.692 109.084 106.962C108.82 107.232 108.658 107.585 108.596 108.021H111.296ZM115.939 106.811C115.799 106.703 115.598 106.649 115.334 106.649C114.992 106.649 114.706 106.811 114.475 107.133C114.247 107.455 114.133 107.895 114.133 108.451V111H113.332V106H114.133V107.03H114.152C114.266 106.679 114.44 106.405 114.675 106.21C114.909 106.011 115.171 105.912 115.461 105.912C115.669 105.912 115.829 105.935 115.939 105.98V106.811Z" fill="white"/>
</svg>
