<svg width="210" height="200" viewBox="0 0 210 200" fill="none" xmlns="http://www.w3.org/2000/svg">
    <path d="M27.1986 196.551H75.5296V41.3047H27.1986V196.551Z" fill="#F5F5F5" />
    <path d="M51.3635 196.551H75.5285V41.3047H51.3635V196.551Z" fill="#ECECEC" />
    <path d="M31.8756 41.3031H49.0256V25.7031H31.8756V41.3031Z" fill="#F5F5F5" />
    <path d="M45.1276 41.3031H49.0276V25.7031H45.1276V41.3031Z" fill="#ECECEC" />
    <path d="M22.5216 41.3054V40.5254H77.0886V41.3054" fill="#E1E1E1" />
    <path d="M36.5526 56.9081H40.4526V48.3271H36.5526V56.9081Z" fill="#FAFAFA" />
    <path
        d="M51.1366 60.0566C51.1366 60.1486 45.6656 60.2226 38.9196 60.2226C32.1736 60.2226 26.7006 60.1496 26.7006 60.0566C26.7006 59.9636 32.1706 59.8906 38.9186 59.8906C45.6666 59.8906 51.1366 59.9646 51.1366 60.0566Z"
        fill="#E1E1E1" />
    <path d="M60.9956 56.6369H65.1326V47.9209H60.9956V56.6369Z" fill="#E1E1E1" />
    <path
        d="M75.7846 60.0566C75.7846 60.1486 70.3136 60.2226 63.5676 60.2226C56.8216 60.2226 51.3496 60.1496 51.3496 60.0566C51.3496 59.9636 56.8186 59.8906 63.5676 59.8906C70.3166 59.8906 75.7846 59.9646 75.7846 60.0566Z"
        fill="#E1E1E1" />
    <path d="M60.9956 73.9406H65.1326V65.2246H60.9956V73.9406Z" fill="#E1E1E1" />
    <path
        d="M75.7846 77.3603C75.7846 77.4523 70.3136 77.5263 63.5676 77.5263C56.8216 77.5263 51.3496 77.4523 51.3496 77.3603C51.3496 77.2683 56.8186 77.1943 63.5676 77.1943C70.3166 77.1943 75.7846 77.2693 75.7846 77.3603Z"
        fill="#E1E1E1" />
    <path d="M60.9956 91.7678H65.1326V83.0518H60.9956V91.7678Z" fill="#E1E1E1" />
    <path
        d="M75.7846 95.1875C75.7846 95.2795 70.3136 95.3535 63.5676 95.3535C56.8216 95.3535 51.3496 95.2795 51.3496 95.1875C51.3496 95.0955 56.8186 95.0215 63.5676 95.0215C70.3166 95.0215 75.7846 95.0955 75.7846 95.1875Z"
        fill="#E1E1E1" />
    <path d="M60.9956 109.594H65.1326V100.878H60.9956V109.594Z" fill="#E1E1E1" />
    <path
        d="M75.7846 113.014C75.7846 113.106 70.3136 113.18 63.5676 113.18C56.8216 113.18 51.3496 113.106 51.3496 113.014C51.3496 112.922 56.8186 112.848 63.5676 112.848C70.3166 112.848 75.7846 112.923 75.7846 113.014Z"
        fill="#E1E1E1" />
    <path d="M60.9956 126.91H65.1326V118.194H60.9956V126.91Z" fill="#E1E1E1" />
    <path
        d="M75.7846 130.331C75.7846 130.423 70.3136 130.497 63.5676 130.497C56.8216 130.497 51.3496 130.423 51.3496 130.331C51.3496 130.239 56.8186 130.165 63.5676 130.165C70.3166 130.165 75.7846 130.24 75.7846 130.331Z"
        fill="#E1E1E1" />
    <path d="M60.9956 144.297H65.1326V135.581H60.9956V144.297Z" fill="#E1E1E1" />
    <path d="M60.9956 161.911H65.1326V153.195H60.9956V161.911Z" fill="#E1E1E1" />
    <path
        d="M75.7846 147.717C75.7846 147.809 70.3136 147.883 63.5676 147.883C56.8216 147.883 51.3496 147.81 51.3496 147.717C51.3496 147.624 56.8186 147.551 63.5676 147.551C70.3166 147.551 75.7846 147.626 75.7846 147.717Z"
        fill="#E1E1E1" />
    <path d="M36.3475 74.2043H40.4845V65.4883H36.3475V74.2043Z" fill="#FAFAFA" />
    <path
        d="M51.1366 77.625C51.1366 77.717 45.6656 77.791 38.9196 77.791C32.1736 77.791 26.7006 77.718 26.7006 77.625C26.7006 77.532 32.1706 77.459 38.9186 77.459C45.6666 77.459 51.1366 77.534 51.1366 77.625Z"
        fill="#E1E1E1" />
    <path d="M36.3475 91.7736H40.4845V83.0576H36.3475V91.7736Z" fill="#FAFAFA" />
    <path
        d="M51.1366 95.1933C51.1366 95.2853 45.6656 95.3593 38.9196 95.3593C32.1736 95.3593 26.7006 95.2863 26.7006 95.1933C26.7006 95.1003 32.1706 95.0273 38.9186 95.0273C45.6666 95.0273 51.1366 95.1013 51.1366 95.1933Z"
        fill="#E1E1E1" />
    <path d="M36.3475 109.342H40.4845V100.626H36.3475V109.342Z" fill="#FAFAFA" />
    <path
        d="M51.1366 112.762C51.1366 112.854 45.6656 112.928 38.9196 112.928C32.1736 112.928 26.7006 112.854 26.7006 112.762C26.7006 112.67 32.1706 112.596 38.9186 112.596C45.6666 112.596 51.1366 112.671 51.1366 112.762Z"
        fill="#E1E1E1" />
    <path d="M36.3475 126.91H40.4845V118.194H36.3475V126.91Z" fill="#FAFAFA" />
    <path
        d="M51.1366 130.331C51.1366 130.423 45.6656 130.497 38.9196 130.497C32.1736 130.497 26.7006 130.423 26.7006 130.331C26.7006 130.239 32.1706 130.165 38.9186 130.165C45.6666 130.165 51.1366 130.24 51.1366 130.331Z"
        fill="#E1E1E1" />
    <path d="M36.3475 144.479H40.4845V135.763H36.3475V144.479Z" fill="#FAFAFA" />
    <path
        d="M51.1366 147.899C51.1366 147.991 45.6656 148.065 38.9196 148.065C32.1736 148.065 26.7006 147.99 26.7006 147.899C26.7006 147.808 32.1706 147.732 38.9186 147.732C45.6666 147.732 51.1366 147.807 51.1366 147.899Z"
        fill="#E1E1E1" />
    <path d="M36.3475 162.048H40.4845V153.332H36.3475V162.048Z" fill="#FAFAFA" />
    <path d="M62.1255 195.672H5.64755L5.40155 106.481H61.8796L62.1255 195.672Z" fill="#ECECEC" />
    <path d="M33.6406 195.672H61.8796V106.481H33.6406V195.672Z" fill="#E1E1E1" />
    <path d="M11.8506 106.482H31.7946V88.9229H11.8506V106.482Z" fill="#ECECEC" />
    <path d="M27.0405 106.482H31.7935V88.9229H27.0405V106.482Z" fill="#E1E1E1" />
    <path d="M0.69458 106.482H63.5326V105.458H0.69458V106.482Z" fill="#E1E1E1" />
    <path d="M16.5496 124.214H21.3306V114.141H16.5496V124.214Z" fill="white" />
    <path
        d="M33.6406 128.166C33.6406 128.272 27.3186 128.358 19.5216 128.358C11.7246 128.358 5.40155 128.272 5.40155 128.166C5.40155 128.06 11.7215 127.974 19.5216 127.974C27.3216 127.974 33.6406 128.06 33.6406 128.166Z"
        fill="#E1E1E1" />
    <path d="M45.0345 124.214H49.8155V114.141H45.0345V124.214Z" fill="#F5F5F5" />
    <path
        d="M62.1256 128.166C62.1256 128.272 55.8036 128.358 48.0066 128.358C40.2096 128.358 33.8866 128.272 33.8866 128.166C33.8866 128.06 40.2076 127.974 48.0066 127.974C55.8056 127.974 62.1256 128.06 62.1256 128.166Z"
        fill="#ECECEC" />
    <path d="M45.0345 144.211H49.8155V134.138H45.0345V144.211Z" fill="#F5F5F5" />
    <path
        d="M62.1256 148.164C62.1256 148.27 55.8036 148.357 48.0066 148.357C40.2096 148.357 33.8866 148.27 33.8866 148.164C33.8866 148.058 40.2076 147.972 48.0066 147.972C55.8056 147.972 62.1256 148.058 62.1256 148.164Z"
        fill="#ECECEC" />
    <path d="M45.0345 164.812H49.8155V154.739H45.0345V164.812Z" fill="#F5F5F5" />
    <path
        d="M62.1256 168.765C62.1256 168.871 55.8036 168.957 48.0066 168.957C40.2096 168.957 33.8866 168.871 33.8866 168.765C33.8866 168.659 40.2076 168.573 48.0066 168.573C55.8056 168.573 62.1256 168.659 62.1256 168.765Z"
        fill="#ECECEC" />
    <path d="M45.0345 185.413H49.8155V175.341H45.0345V185.413Z" fill="#F5F5F5" />
    <path
        d="M62.1256 189.367C62.1256 189.473 55.8036 189.559 48.0066 189.559C40.2096 189.559 33.8866 189.473 33.8866 189.367C33.8866 189.261 40.2076 189.175 48.0066 189.175C55.8056 189.175 62.1256 189.261 62.1256 189.367Z"
        fill="#ECECEC" />
    <path d="M16.5496 144.515H21.3306V134.443H16.5496V144.515Z" fill="white" />
    <path
        d="M33.6406 148.468C33.6406 148.574 27.3186 148.661 19.5216 148.661C11.7246 148.661 5.40155 148.574 5.40155 148.468C5.40155 148.362 11.7215 148.276 19.5216 148.276C27.3216 148.276 33.6406 148.362 33.6406 148.468Z"
        fill="#E1E1E1" />
    <path d="M16.5496 164.819H21.3306V154.747H16.5496V164.819Z" fill="white" />
    <path
        d="M33.6406 168.773C33.6406 168.879 27.3186 168.965 19.5216 168.965C11.7246 168.965 5.40155 168.879 5.40155 168.773C5.40155 168.667 11.7215 168.581 19.5216 168.581C27.3216 168.581 33.6406 168.667 33.6406 168.773Z"
        fill="#E1E1E1" />
    <path d="M16.5496 185.122H21.3306V175.05H16.5496V185.122Z" fill="white" />
    <path
        d="M33.6406 189.076C33.6406 189.182 27.3186 189.268 19.5216 189.268C11.7246 189.268 5.40155 189.182 5.40155 189.076C5.40155 188.97 11.7215 188.884 19.5216 188.884C27.3216 188.884 33.6406 188.97 33.6406 189.076Z"
        fill="#E1E1E1" />
    <path d="M114.088 195.744H170.119V121.897H114.088V195.744Z" fill="#ECECEC" />
    <path d="M143.848 195.744H170.12V121.897H143.848V195.744Z" fill="#E1E1E1" />
    <path d="M125.837 144.127H130.875V131.896H125.837V144.127Z" fill="#F5F5F5" />
    <path d="M125.837 191.995H130.875V179.765H125.837V191.995Z" fill="#F5F5F5" />
    <path
        d="M143.848 148.927C143.848 149.065 137.189 149.179 128.969 149.179C120.749 149.179 114.089 149.065 114.089 148.927C114.089 148.789 120.75 148.679 128.969 148.679C137.188 148.679 143.848 148.79 143.848 148.927Z"
        fill="#F5F5F5" />
    <path d="M125.837 168.243H130.875V156.013H125.837V168.243Z" fill="#F5F5F5" />
    <path
        d="M143.848 173.043C143.848 173.18 137.189 173.294 128.969 173.294C120.749 173.294 114.089 173.18 114.089 173.043C114.089 172.906 120.75 172.794 128.969 172.794C137.188 172.794 143.848 172.906 143.848 173.043Z"
        fill="#F5F5F5" />
    <path d="M149.427 144.127H154.465V131.896H149.427V144.127Z" fill="#F5F5F5" />
    <path d="M160.357 144.127H165.395V131.896H160.357V144.127Z" fill="#F5F5F5" />
    <path d="M149.427 167.335H154.465V155.104H149.427V167.335Z" fill="#F5F5F5" />
    <path d="M160.357 167.335H165.395V155.104H160.357V167.335Z" fill="#F5F5F5" />
    <path d="M149.427 190.543H154.465V178.312H149.427V190.543Z" fill="#F5F5F5" />
    <path d="M160.357 190.543H165.395V178.312H160.357V190.543Z" fill="#F5F5F5" />
    <path d="M109.876 121.991H174.332V119.328H109.876V121.991Z" fill="#E1E1E1" />
    <path
        d="M170.511 122.242C170.511 122.379 157.988 122.493 142.542 122.493C127.096 122.493 114.571 122.379 114.571 122.242C114.571 122.105 127.092 121.993 142.542 121.993C157.992 121.993 170.511 122.105 170.511 122.242Z"
        fill="#ECECEC" />
    <path
        d="M169.634 14.458C169.906 12.487 167.121 10.865 165.034 10.697C164.034 10.7377 163.033 10.6513 162.055 10.44C160.007 9.72703 159.189 7.08403 157.191 6.24003C155.693 5.61103 153.973 6.16803 152.524 6.90003C151.075 7.63203 149.645 8.54403 148.024 8.64803C146.617 8.73803 145.089 8.21703 143.857 8.90403C142.943 9.41603 142.463 10.468 141.616 11.095C140.735 11.6376 139.717 11.9138 138.683 11.89C137.653 11.8648 136.627 12.0323 135.659 12.384C135.179 12.5709 134.772 12.9079 134.5 13.3448C134.227 13.7816 134.103 14.2949 134.146 14.808L169.634 14.458Z"
        fill="#ECECEC" />
    <path
        d="M209.278 37.2999C209.687 34.3369 205.501 31.8999 202.357 31.6459C200.857 31.5259 199.299 31.7549 197.879 31.2599C194.8 30.1879 193.57 26.2139 190.567 24.9479C188.322 24.0009 185.736 24.8479 183.559 25.9389C181.382 27.0299 179.231 28.4109 176.799 28.5669C174.684 28.7019 172.386 27.9189 170.535 28.9509C169.156 29.7209 168.435 31.3089 167.162 32.2449C165.838 33.0594 164.307 33.4737 162.754 33.4379C161.206 33.3997 159.664 33.6513 158.209 34.1799C157.486 34.4604 156.874 34.9671 156.464 35.6243C156.053 36.2815 155.867 37.0538 155.932 37.8259L209.278 37.2999Z"
        fill="#F5F5F5" />
    <path
        d="M33.7446 9.07769C33.9526 7.57169 31.8246 6.33269 30.2266 6.20369C29.4625 6.23321 28.6978 6.16601 27.9506 6.00369C26.3856 5.46269 25.7606 3.44269 24.2336 2.79869C23.6384 2.6247 23.0129 2.5793 22.3988 2.6655C21.7847 2.75171 21.1959 2.96754 20.6716 3.29869C19.6272 3.97025 18.4589 4.42588 17.2356 4.63869C16.1606 4.70769 14.9926 4.30869 14.0516 4.83869C13.3516 5.22969 12.9826 6.03869 12.3366 6.51269C11.664 6.92746 10.8856 7.13831 10.0956 7.11969C9.3092 7.09842 8.52577 7.22424 7.78559 7.49069C7.41831 7.63352 7.10714 7.8914 6.89858 8.22577C6.69003 8.56013 6.59531 8.95302 6.62859 9.34569L33.7446 9.07769Z"
        fill="#F5F5F5" />
    <path
        d="M206.491 196.942C206.491 197.054 161.64 197.142 106.326 197.142C50.9926 197.145 6.15155 197.054 6.15155 196.942C6.15155 196.83 50.9926 196.739 106.327 196.739C161.641 196.739 206.492 196.829 206.492 196.939"
        fill="#1A2E35" />
    <path
        d="M62.3956 195.97C58.5544 195.969 54.8706 194.443 52.1545 191.727C49.4383 189.011 47.9122 185.327 47.9116 181.486L47.9446 14.812C47.9457 12.909 48.3216 11.0249 49.051 9.2673C49.7804 7.50967 50.8489 5.91296 52.1955 4.56838C53.5422 3.2238 55.1405 2.1577 56.8992 1.43099C58.658 0.70427 60.5427 0.331175 62.4456 0.333015L128.98 0.372015C132.821 0.37281 136.505 1.89916 139.221 4.61545C141.937 7.33174 143.464 11.0156 143.465 14.857L143.432 181.533C143.431 183.436 143.055 185.32 142.325 187.077C141.596 188.835 140.528 190.432 139.181 191.776C137.835 193.121 136.236 194.187 134.478 194.914C132.719 195.641 130.834 196.014 128.932 196.012L62.3956 195.97Z"
        fill="#19201F" />
    <path
        d="M116.142 6.24097C115.721 6.2498 115.307 6.34138 114.922 6.51048C114.537 6.67957 114.189 6.92287 113.898 7.22645C113.607 7.53004 113.379 7.88797 113.227 8.27979C113.074 8.67161 113 9.08963 113.01 9.50997V11.85C113.019 12.2705 112.945 12.6887 112.793 13.0807C112.64 13.4727 112.412 13.8308 112.121 14.1345C111.83 14.4382 111.482 14.6815 111.097 14.8506C110.712 15.0197 110.297 15.1113 109.877 15.12L84.7306 15.105C83.8813 15.0858 83.0742 14.7302 82.4869 14.1163C81.8996 13.5024 81.5801 12.6804 81.5986 11.831V9.49297C81.6169 8.64381 81.2974 7.82212 80.7104 7.20829C80.1234 6.59445 79.3168 6.23864 78.4676 6.21897H73.9306L62.6406 6.20997C61.3079 6.20865 59.988 6.46992 58.7562 6.97884C57.5245 7.48776 56.4051 8.23436 55.462 9.176C54.5189 10.1176 53.7705 11.2359 53.2596 12.4668C52.7488 13.6977 52.4854 15.0172 52.4846 16.35L52.4526 179.036C52.4532 181.726 53.522 184.306 55.4243 186.209C57.3265 188.111 59.9064 189.18 62.5966 189.181L128.997 189.219C130.329 189.22 131.649 188.959 132.881 188.45C134.113 187.941 135.232 187.195 136.175 186.253C137.118 185.311 137.867 184.193 138.378 182.962C138.889 181.731 139.152 180.412 139.153 179.079L139.185 16.393C139.184 13.703 138.115 11.1235 136.213 9.22131C134.311 7.31914 131.732 6.25003 129.042 6.24897L116.142 6.24097Z"
        fill="white" />
    <path
        d="M129.389 6.25935C129.733 6.26269 130.077 6.28942 130.418 6.33935C131.766 6.502 133.064 6.94994 134.226 7.65335C135.089 8.15561 135.871 8.78804 136.542 9.52835C137.361 10.4145 138.016 11.4399 138.475 12.5564C139.002 13.8641 139.26 15.2646 139.235 16.6743C139.235 18.1723 139.236 19.766 139.24 21.4553C139.249 34.9704 139.26 54.5224 139.275 78.6814C139.29 102.84 139.284 131.611 139.289 163.554C139.289 167.548 139.289 171.589 139.289 175.679V178.755C139.308 179.8 139.177 180.842 138.9 181.849C138.616 182.863 138.177 183.827 137.6 184.707C137.012 185.587 136.299 186.377 135.485 187.052C133.817 188.404 131.767 189.2 129.624 189.326C127.495 189.388 125.382 189.341 123.244 189.355L110.317 189.349L83.7866 189.336L70.2176 189.329H63.3636C61.0197 189.461 58.6973 188.82 56.7526 187.505C54.8211 186.164 53.4023 184.206 52.7286 181.952C52.4108 180.835 52.2691 179.676 52.3086 178.515C52.3086 177.374 52.3086 176.234 52.3086 175.095C52.3086 170.543 52.3086 166.023 52.3086 161.533C52.3086 152.555 52.3109 143.716 52.3156 135.016C52.3266 117.631 52.3326 100.862 52.3386 84.8874C52.3446 68.9124 52.3536 53.7334 52.3606 39.5274C52.3646 32.4247 52.3686 25.5724 52.3726 18.9704C52.3726 18.1464 52.3726 17.3264 52.3726 16.5104C52.3796 16.1064 52.4086 15.6883 52.4316 15.2803C52.5026 14.8803 52.5316 14.4664 52.6396 14.0714C53.0051 12.4907 53.7363 11.0179 54.7746 9.77135C55.8027 8.56428 57.0891 7.60391 58.5386 6.96135C59.9629 6.35169 61.503 6.05992 63.0516 6.10635L71.8996 6.11635L76.1566 6.12135H78.2416C78.9513 6.0838 79.6538 6.2798 80.2416 6.67935C80.8153 7.07954 81.2496 7.64912 81.4836 8.30835C81.6761 8.95639 81.746 9.63467 81.6896 10.3084C81.6896 10.6417 81.6896 10.9707 81.6896 11.2954C81.679 11.618 81.6897 11.9411 81.7216 12.2624C81.8002 12.8916 82.0641 13.4833 82.4796 13.9624C82.8837 14.437 83.4259 14.7737 84.0306 14.9254C84.3302 14.996 84.6379 15.0262 84.9456 15.0154H85.8806L89.5446 15.0203L102.93 15.0393L108.83 15.0493C109.296 15.0413 109.77 15.0713 110.213 15.0323C110.652 14.9841 111.075 14.8385 111.452 14.6063C111.813 14.3778 112.125 14.0794 112.369 13.7285C112.614 13.3777 112.786 12.9815 112.875 12.5634C112.946 12.1569 112.973 11.7437 112.955 11.3314C112.955 10.9214 112.955 10.517 112.955 10.1184C112.939 9.72187 112.957 9.32474 113.009 8.93135C113.074 8.55038 113.204 8.18323 113.392 7.84535C113.749 7.19541 114.32 6.6896 115.009 6.41435C115.661 6.20741 116.348 6.13429 117.029 6.19935L123.609 6.21735L127.658 6.23435C128.57 6.23935 129.038 6.24935 129.038 6.24935C129.038 6.24935 128.57 6.25935 127.658 6.26335L123.609 6.27435L117.029 6.28435C116.36 6.22265 115.686 6.29576 115.047 6.49935C114.378 6.76858 113.824 7.26125 113.479 7.89335C113.297 8.2217 113.172 8.57837 113.109 8.94835C113.059 9.33494 113.043 9.72503 113.061 10.1144C113.061 10.5144 113.061 10.9187 113.061 11.3274C113.08 11.7473 113.054 12.1682 112.982 12.5824C112.89 13.0158 112.713 13.4267 112.461 13.7907C112.208 14.1548 111.885 14.4647 111.512 14.7023C111.121 14.949 110.68 15.1052 110.221 15.1594C109.751 15.2004 109.296 15.1714 108.821 15.1804H102.921H89.5356H84.9356C84.6145 15.1919 84.2933 15.1603 83.9806 15.0863C83.3417 14.9272 82.7684 14.5727 82.3406 14.0724C81.9035 13.5687 81.6251 12.9469 81.5406 12.2854C81.5087 11.9601 81.498 11.633 81.5086 11.3064C81.5086 10.979 81.5086 10.65 81.5086 10.3194C81.5635 9.66422 81.4956 9.0046 81.3086 8.37435C81.0878 7.75153 80.678 7.21317 80.1366 6.83435C79.5794 6.45675 78.9135 6.27296 78.2416 6.31135H63.0516C61.5314 6.26577 60.0196 6.55244 58.6216 7.15135C57.2024 7.78199 55.943 8.72352 54.9366 9.90635C53.9212 11.1281 53.2067 12.5712 52.8506 14.1193C52.7486 14.5063 52.7186 14.9063 52.6486 15.3063C52.6276 15.7063 52.5986 16.1063 52.5936 16.5063C52.5936 17.3217 52.5936 18.1417 52.5936 18.9663C52.5936 25.561 52.5936 32.4133 52.5936 39.5233C52.5936 53.7294 52.5936 68.9094 52.5936 84.8834C52.5936 100.857 52.5936 117.626 52.5936 135.012C52.5936 143.704 52.5936 152.543 52.5936 161.529C52.5936 166.018 52.5936 170.539 52.5936 175.091C52.5936 176.229 52.5936 177.369 52.5936 178.511C52.5561 179.644 52.6961 180.777 53.0086 181.866C53.6637 184.057 55.0429 185.961 56.9206 187.266C58.8174 188.548 61.083 189.171 63.3686 189.039H70.2216L83.7906 189.048L110.321 189.066L123.248 189.075C125.379 189.063 127.516 189.109 129.611 189.049C131.697 188.927 133.692 188.153 135.316 186.838C136.108 186.181 136.802 185.412 137.375 184.556C137.936 183.699 138.362 182.761 138.639 181.774C138.91 180.791 139.038 179.773 139.019 178.753C139.019 177.725 139.019 176.699 139.019 175.677C139.019 171.588 139.019 167.546 139.019 163.552C139.037 131.609 139.053 102.84 139.067 78.6794C139.081 54.5184 139.111 34.9684 139.124 21.4534C139.124 19.7647 139.126 18.171 139.132 16.6723C139.161 15.2744 138.909 13.8848 138.391 12.5864C137.94 11.4781 137.296 10.4589 136.489 9.57635C135.824 8.83934 135.051 8.20866 134.196 7.70635C133.043 6.99942 131.754 6.54318 130.414 6.36735C130.074 6.31465 129.732 6.28359 129.389 6.27435C129.159 6.26035 129.042 6.24935 129.042 6.24935C129.042 6.24935 129.159 6.24935 129.389 6.25935Z"
        fill="#1A2E35" />
    <path
        d="M98.7566 39.2159C98.7566 39.0529 98.7506 38.8339 98.7456 38.5569C98.7396 37.9709 98.7316 37.1399 98.7216 36.0979C98.7086 33.9889 98.6956 31.0259 98.6786 27.5379L98.7676 27.6269L90.7286 27.6379C90.7086 27.6549 90.9086 27.4519 90.8246 27.5379V28.3729C90.8246 28.6502 90.8246 28.9262 90.8246 29.2009C90.8246 29.7496 90.8246 30.2919 90.8246 30.8279C90.8246 31.8979 90.8246 32.9389 90.8246 33.9419C90.8146 35.9479 90.8086 37.8039 90.8086 39.4499L90.7306 39.3719L96.5636 39.4129L98.1876 39.4329L98.6176 39.4419C98.6687 39.4413 98.7198 39.4439 98.7706 39.4499C98.7252 39.4568 98.6794 39.4598 98.6336 39.4589L98.2186 39.4679L96.6086 39.4869L90.7276 39.5279H90.6496V39.4499C90.6496 37.8039 90.6406 35.9499 90.6356 33.9429C90.6356 32.9429 90.6356 31.8989 90.6356 30.8289C90.6356 30.2956 90.6356 29.7532 90.6356 29.2019V27.5379C90.5436 27.6249 90.7486 27.4179 90.7286 27.4379L98.7676 27.4479H98.8566V27.5379C98.8386 31.0499 98.8236 34.0379 98.8086 36.1559C98.7986 37.1899 98.7906 38.0139 98.7846 38.5949C98.7846 38.8649 98.7766 39.0769 98.7736 39.2359C98.775 39.307 98.7717 39.3782 98.7636 39.4489C98.757 39.3714 98.7547 39.2936 98.7566 39.2159V39.2159Z"
        fill="white" />
    <path
        d="M97.2786 27.5367V27.6247H97.1896L96.1266 27.6337L96.0266 27.5337V27.3157C96.0266 27.2427 96.0266 27.1707 96.0266 27.0987C96.0266 26.9577 96.0266 26.8197 96.0266 26.6847C96.0373 26.4301 96.0446 26.1864 96.0486 25.9537V25.8737H96.1266C96.4826 25.8683 96.8384 25.8951 97.1896 25.9537C96.8374 26.0031 96.4823 26.0292 96.1266 26.0317L96.2076 25.9537C96.2076 26.1864 96.2113 26.4304 96.2186 26.6857C96.2186 26.8207 96.2186 26.9587 96.2186 27.0997C96.2186 27.1717 96.2186 27.2437 96.2186 27.3167V27.5337C96.3076 27.6237 96.1076 27.4187 96.1266 27.4397L97.1896 27.4477L97.1006 27.5367C97.0994 27.0078 97.1291 26.4792 97.1896 25.9537C97.2582 26.4785 97.288 27.0076 97.2786 27.5367V27.5367Z"
        fill="white" />
    <path
        d="M101.58 39.5214H100.999L98.7696 39.5084H98.7096V39.4504C98.6856 36.7704 98.6696 32.4294 98.6696 27.5404V27.4404H98.7976H101.77H101.87V27.5404C101.852 30.9594 101.838 33.9574 101.827 36.1254C101.815 37.1754 101.806 38.0254 101.8 38.6254C101.794 38.9014 101.79 39.1254 101.787 39.2904C101.789 39.3646 101.785 39.4389 101.775 39.5124C101.766 39.4304 101.762 39.3479 101.763 39.2654C101.763 39.0914 101.756 38.8654 101.751 38.5794C101.745 37.9674 101.735 37.1124 101.724 36.0524C101.708 33.9044 101.693 30.9294 101.676 27.5404L101.776 27.6404L98.7976 27.6344H98.7696L98.8696 27.5404C98.8696 32.4294 98.8486 36.7704 98.8256 39.4504L98.7696 39.3924L100.97 39.4704L101.564 39.4974C101.635 39.4984 101.706 39.5038 101.777 39.5134C101.711 39.5221 101.645 39.5248 101.58 39.5214V39.5214Z"
        fill="white" />
    <path d="M92.0095 30.2763H93.2555V29.0312H92.0095V30.2763Z" fill="white" />
    <path d="M94.1246 30.2763H95.3706V29.0312H94.1246V30.2763Z" fill="white" />
    <path d="M96.2396 30.2763H97.4856V29.0312H96.2396V30.2763Z" fill="white" />
    <path d="M92.0095 32.4179H93.2555V31.1729H92.0095V32.4179Z" fill="white" />
    <path d="M94.1246 32.4179H95.3706V31.1729H94.1246V32.4179Z" fill="white" />
    <path d="M96.2396 32.4179H97.4856V31.1729H96.2396V32.4179Z" fill="white" />
    <path d="M92.0095 34.5595H93.2555V33.3145H92.0095V34.5595Z" fill="white" />
    <path d="M94.1246 34.5595H95.3706V33.3145H94.1246V34.5595Z" fill="white" />
    <path d="M96.2396 34.5595H97.4856V33.3145H96.2396V34.5595Z" fill="white" />
    <path d="M92.0095 36.7001H93.2555V35.4551H92.0095V36.7001Z" fill="white" />
    <path
        d="M125.695 72.8535H67.6946C63.2763 72.8535 59.6946 76.4352 59.6946 80.8535C59.6946 85.2718 63.2763 88.8535 67.6946 88.8535H125.695C130.113 88.8535 133.695 85.2718 133.695 80.8535C133.695 76.4352 130.113 72.8535 125.695 72.8535Z"
        fill="#CCCCCC" />
    <path
        d="M125.695 98.8535H67.6946C63.2763 98.8535 59.6946 102.435 59.6946 106.854C59.6946 111.272 63.2763 114.854 67.6946 114.854H125.695C130.113 114.854 133.695 111.272 133.695 106.854C133.695 102.435 130.113 98.8535 125.695 98.8535Z"
        fill="#8C3E79" />
    <path
        d="M125.695 122.854H69.6946C69.1423 122.854 68.6946 123.301 68.6946 123.854C68.6946 124.406 69.1423 124.854 69.6946 124.854H125.695C126.247 124.854 126.695 124.406 126.695 123.854C126.695 123.301 126.247 122.854 125.695 122.854Z"
        fill="#8C3E79" />
    <path
        d="M114.195 129.854H78.1946C77.3662 129.854 76.6946 130.525 76.6946 131.354C76.6946 132.182 77.3662 132.854 78.1946 132.854H114.195C115.023 132.854 115.695 132.182 115.695 131.354C115.695 130.525 115.023 129.854 114.195 129.854Z"
        fill="#8C3E79" />
    <path d="M94.1246 36.7001H95.3706V35.4551H94.1246V36.7001Z" fill="white" />
    <path d="M96.2396 36.7001H97.4856V35.4551H96.2396V36.7001Z" fill="white" />
    <path d="M99.5416 30.2763H100.788V29.0312H99.5416V30.2763Z" fill="white" />
    <path d="M99.5416 32.4179H100.788V31.1729H99.5416V32.4179Z" fill="white" />
    <path d="M99.5416 34.5595H100.788V33.3145H99.5416V34.5595Z" fill="white" />
    <path d="M99.5416 36.7001H100.788V35.4551H99.5416V36.7001Z" fill="white" />
    <path d="M94.2686 39.4505H95.4896V37.5225H94.2686V39.4505Z" fill="white" />
    <path
        d="M104.439 39.4506C104.439 39.5046 100.571 39.5506 95.7995 39.5506C91.0285 39.5506 87.1595 39.5046 87.1595 39.4506C87.1595 39.3966 91.0265 39.3506 95.7995 39.3506C100.573 39.3506 104.439 39.3936 104.439 39.4506Z"
        fill="white" />
    <path
        d="M155.185 79.3521L135.502 79.7401L132.32 79.4621C132.32 79.4621 125.12 79.2621 124.428 79.1501C123.631 79.0241 123.379 79.3801 123.351 79.6781C123.311 80.1421 123.825 80.5551 124.505 80.6831C124.74 80.7271 128.478 81.2771 128.478 81.2771C128.092 81.4404 127.718 81.6305 127.359 81.8461C126.901 82.2127 126.527 82.6722 126.261 83.1942C125.994 83.7162 125.841 84.2887 125.813 84.8741C125.65 86.2161 125.723 86.6071 126.239 86.6941C126.337 86.7059 126.437 86.6954 126.531 86.6636C126.625 86.6318 126.711 86.5793 126.782 86.5101C127.044 86.2387 127.22 85.8956 127.288 85.5241C127.725 82.9681 128.739 83.1341 128.739 83.1341L129.183 83.1241C129.183 83.1241 128.03 84.3241 128.261 85.4241C128.294 85.585 128.359 85.7378 128.451 85.8741C128.406 86.1654 128.439 86.4633 128.545 86.7382C128.651 87.0131 128.827 87.2553 129.056 87.441C129.285 87.6266 129.559 87.7491 129.85 87.7963C130.141 87.8435 130.439 87.8138 130.715 87.7101C130.982 87.6101 131.25 87.3881 131.237 87.1031C131.216 86.953 131.157 86.8106 131.067 86.6891C131.022 86.6216 130.983 86.5503 130.951 86.4761L132.132 86.4141C132.132 86.4141 134.776 86.1331 135.94 86.1411L154.432 86.7541C157.065 87.0311 159.915 86.4751 160.145 83.8281C160.395 80.9481 158.056 79.1951 155.181 79.3521"
        fill="#CC8B6A" />
    <path
        d="M135.15 80.3161C135.147 80.5223 135.08 80.7225 134.958 80.8886C134.836 81.0547 134.665 81.1783 134.469 81.2421C134.09 81.4001 133.669 81.4251 133.279 81.5551C132.115 81.9451 131.393 83.2131 130.21 83.5471C130.046 83.5931 129.828 83.5991 129.748 83.4471C129.668 83.2951 129.775 83.1411 129.872 83.0141L132.362 79.7881"
        fill="#CC8B6A" />
    <path
        d="M132.362 79.7871C132.248 79.8802 132.147 79.9882 132.062 80.1081C131.877 80.3241 131.617 80.6411 131.298 81.0371L130.185 82.4331L129.867 82.8381C129.712 82.9834 129.621 83.1833 129.612 83.3951C129.623 83.4629 129.654 83.5256 129.702 83.5754C129.749 83.6251 129.81 83.6595 129.878 83.6741C129.988 83.6984 130.103 83.6957 130.212 83.6661C130.405 83.612 130.591 83.5362 130.768 83.4401C131.376 83.0336 131.956 82.5848 132.502 82.0971C132.744 81.9085 133.014 81.7574 133.302 81.6491C133.571 81.5491 133.846 81.5111 134.096 81.4491C134.302 81.4153 134.499 81.3366 134.671 81.2186C134.844 81.1006 134.989 80.9461 135.096 80.7661C135.138 80.7002 135.165 80.6254 135.175 80.5474C135.184 80.4694 135.175 80.3903 135.15 80.3161C135.13 80.4561 135.085 80.5915 135.019 80.7161C134.906 80.872 134.763 81.0028 134.597 81.1002C134.431 81.1977 134.247 81.2596 134.057 81.2821C133.814 81.3371 133.536 81.3701 133.24 81.4641C132.93 81.571 132.638 81.7256 132.376 81.9221C131.83 82.3936 131.256 82.832 130.658 83.2351C130.499 83.3211 130.331 83.3898 130.158 83.4401C129.994 83.4831 129.841 83.4501 129.839 83.3591C129.821 83.2591 129.939 83.1111 130.039 82.9741L130.35 82.5631L131.42 81.1371C131.72 80.7291 131.963 80.3961 132.12 80.1631C132.217 80.0496 132.299 79.9231 132.362 79.7871"
        fill="#FF9A6C" />
    <path
        d="M129.183 83.1207C128.923 83.107 128.664 83.1543 128.426 83.2587C128.178 83.3854 127.978 83.5879 127.855 83.8367C127.704 84.1491 127.603 84.4831 127.555 84.8267C127.505 85.1821 127.42 85.5315 127.3 85.8697C127.196 86.1526 127.019 86.403 126.788 86.5957C126.707 86.6608 126.612 86.7062 126.51 86.7281C126.408 86.7499 126.303 86.7478 126.203 86.7217C126.129 86.705 126.061 86.668 126.007 86.6147C126.013 86.6017 126.083 86.6377 126.214 86.6597C126.304 86.673 126.396 86.6664 126.484 86.6401C126.572 86.6138 126.652 86.5686 126.721 86.5077C126.925 86.3172 127.08 86.0792 127.171 85.8147C127.279 85.4827 127.358 85.1417 127.407 84.7957C127.457 84.4365 127.568 84.0883 127.734 83.7657C127.876 83.4963 128.104 83.2826 128.383 83.1587C128.568 83.0784 128.771 83.0461 128.973 83.0647C129.114 83.0807 129.186 83.1127 129.184 83.1207"
        fill="#FF9A6C" />
    <path
        d="M124.245 80.625C124.495 80.6362 124.744 80.6696 124.989 80.725L126.773 81.025L128.561 81.295C128.811 81.3162 129.058 81.36 129.301 81.426C129.049 81.4482 128.795 81.4418 128.545 81.407C128.086 81.367 127.445 81.29 126.745 81.179C126.045 81.068 125.421 80.944 124.968 80.838C124.719 80.7943 124.477 80.7229 124.245 80.625"
        fill="#FF9A6C" />
    <path
        d="M129.894 84.096C129.903 84.103 129.854 84.173 129.776 84.296C129.716 84.3773 129.675 84.4703 129.655 84.5689C129.635 84.6674 129.637 84.7691 129.66 84.867C129.681 84.9284 129.718 84.9831 129.768 85.0255C129.817 85.068 129.877 85.0968 129.941 85.109C130.101 85.1424 130.264 85.1558 130.428 85.149C130.634 85.1368 130.837 85.2009 130.999 85.329C131.079 85.4082 131.14 85.5052 131.176 85.6122C131.212 85.7192 131.223 85.8332 131.207 85.945C131.189 86.0548 131.15 86.1599 131.091 86.254C131.032 86.348 130.954 86.429 130.863 86.492C130.699 86.6134 130.504 86.683 130.301 86.692C129.977 86.6847 129.656 86.6297 129.348 86.529C129.138 86.4673 128.94 86.3706 128.763 86.243C128.64 86.143 128.599 86.066 128.605 86.063C128.611 86.06 128.671 86.118 128.796 86.195C128.978 86.2987 129.174 86.3767 129.378 86.427C129.677 86.5098 129.985 86.5526 130.296 86.554C130.474 86.5486 130.645 86.4845 130.782 86.3716C130.92 86.2588 131.016 86.1035 131.057 85.93C131.07 85.8418 131.062 85.7519 131.035 85.6671C131.007 85.5823 130.961 85.5049 130.899 85.441C130.762 85.3375 130.593 85.2861 130.423 85.296C130.248 85.2982 130.073 85.277 129.904 85.233C129.823 85.2125 129.748 85.1715 129.688 85.1138C129.627 85.0562 129.583 84.9839 129.559 84.904C129.535 84.7921 129.539 84.6763 129.568 84.5658C129.598 84.4554 129.653 84.3534 129.729 84.268C129.829 84.147 129.887 84.091 129.895 84.096"
        fill="#FF9A6C" />
    <path
        d="M130.759 86.4182C130.759 86.4112 130.841 86.4022 130.966 86.4722C131.053 86.5245 131.127 86.5963 131.182 86.682C131.237 86.7677 131.271 86.865 131.282 86.9662C131.292 87.1181 131.262 87.27 131.196 87.407C131.129 87.5439 131.028 87.6612 130.903 87.7472C130.597 87.9494 130.225 88.0257 129.865 87.9602C129.506 87.9054 129.175 87.7392 128.917 87.4852C128.709 87.2774 128.561 87.0182 128.487 86.7342C128.435 86.5457 128.42 86.3494 128.441 86.1552C128.441 86.0833 128.46 86.0126 128.494 85.9492C128.489 86.204 128.521 86.4582 128.588 86.7042C128.67 86.9635 128.817 87.1979 129.014 87.3862C129.255 87.613 129.56 87.7615 129.888 87.8122C130.211 87.8714 130.545 87.808 130.825 87.6342C130.934 87.5629 131.024 87.4651 131.085 87.3499C131.147 87.2347 131.179 87.1059 131.178 86.9752C131.171 86.8863 131.146 86.7998 131.104 86.7215C131.061 86.6432 131.003 86.5749 130.932 86.5212C130.832 86.4492 130.756 86.4312 130.759 86.4182Z"
        fill="#FF9A6C" />
    <path
        d="M133.652 84.2262C133.635 84.1038 133.656 83.9794 133.712 83.8692C133.825 83.5744 134.033 83.3257 134.303 83.1622L134.32 83.2932C134.155 83.2499 133.993 83.1965 133.835 83.1332C133.269 82.935 132.77 82.5836 132.394 82.1182C132.861 82.4628 133.364 82.7565 133.894 82.9942C134.054 83.0582 134.213 83.1122 134.361 83.1552L134.525 83.2032L134.378 83.2872C134.128 83.433 133.927 83.648 133.798 83.9062C133.698 84.0992 133.675 84.2302 133.656 84.2262"
        fill="#FF9A6C" />
    <path
        d="M127.287 83.3067C127.31 83.2777 127.556 83.4637 127.642 83.8147C127.728 84.1657 127.612 84.4477 127.576 84.4307C127.54 84.4137 127.583 84.1577 127.501 83.8527C127.419 83.5477 127.257 83.3407 127.287 83.3067Z"
        fill="#FF9A6C" />
    <path
        d="M170.041 66.8789C169.741 67.3089 156.283 77.9969 154.619 78.4469C152.955 78.8969 137.579 79.1239 137.579 79.1239C137.579 79.1239 136.377 88.6149 136.773 89.2599C138.233 91.6299 155.797 97.8909 164.173 89.4069L170.041 67.8929"
        fill="#553791" />
    <path
        d="M153.158 84.2411C153.051 83.976 152.994 83.6931 152.992 83.4071C152.876 82.0316 153.14 80.6508 153.756 79.4151C153.864 79.1505 154.021 78.9086 154.219 78.7021C153.849 79.5759 153.554 80.479 153.336 81.4021C153.198 82.3419 153.138 83.2915 153.158 84.2411"
        fill="#1A2E35" />
    <path
        d="M154.617 84.6106C154.51 84.3213 154.446 84.0182 154.427 83.7106C154.328 82.9731 154.271 82.2305 154.258 81.4866C154.242 80.744 154.268 80.0011 154.337 79.2616C154.343 78.9521 154.395 78.6452 154.491 78.3506C154.561 78.3576 154.46 79.7566 154.498 81.4816C154.536 83.2066 154.687 84.6006 154.617 84.6106Z"
        fill="#1A2E35" />
    <path d="M170.139 68.5816L170.494 66.3086L167.634 68.8386L166.211 73.7906L170.139 68.5816Z" fill="#1A2E35" />
    <path
        d="M173.227 63.9586L171.217 65.0926L164.752 75.9786L164.777 81.6786C163.911 83.9887 163.368 86.4071 163.163 88.8656C163.068 92.0656 163.163 103.783 163.163 103.783L155 158.091L161.977 160.353L175.79 97.1136V63.1006L173.227 63.9586Z"
        fill="#8C3E79" />
    <path
        d="M161.977 160.352L156.456 158.562L164.356 99.6477C164.356 99.6477 163.036 91.0127 164.356 87.2297C165.676 83.4467 167.7 77.8857 167.7 77.8857L165.395 88.4337C165.576 97.6098 165.229 106.789 164.356 115.925H166.47L161.977 160.352Z"
        fill="black" />
    <path
        d="M168.519 69.6348C168.474 69.7365 168.419 69.8337 168.355 69.9248C168.244 70.1118 168.061 70.3748 167.855 70.7328C167.266 71.7355 166.748 72.7784 166.305 73.8538C165.657 75.4529 165.136 77.1007 164.747 78.7818C164.278 80.844 163.931 82.9319 163.708 85.0348C163.456 87.2738 163.308 89.4168 163.233 91.3668C163.158 93.3168 163.173 95.0768 163.183 96.5548C163.189 98.0128 163.195 99.2018 163.199 100.055C163.193 100.449 163.19 100.766 163.187 101.007C163.191 101.118 163.184 101.229 163.166 101.339C163.146 101.23 163.136 101.119 163.138 101.008C163.13 100.767 163.119 100.45 163.106 100.057C163.079 99.2048 163.052 98.0158 163.013 96.5588C162.982 95.0808 162.955 93.3178 163.013 91.3588C163.071 89.3998 163.213 87.2528 163.47 85.0078C163.694 82.8969 164.049 80.8019 164.532 78.7348C164.933 77.0438 165.474 75.3891 166.15 73.7878C166.609 72.7112 167.154 71.673 167.779 70.6828C167.996 70.3348 168.192 70.0768 168.316 69.8968C168.375 69.8031 168.443 69.7154 168.519 69.6348"
        fill="#1A2E35" />
    <path
        d="M189.095 47.9637C189.611 46.7487 190.517 45.7406 191.671 45.0987C192.247 44.7873 192.891 44.6208 193.546 44.6135C194.202 44.6062 194.849 44.7583 195.433 45.0567C196.008 45.3745 196.468 45.8659 196.747 46.4606C197.026 47.0553 197.111 47.7231 196.989 48.3687C197.982 48.8999 198.737 49.7883 199.101 50.8543C199.465 51.9204 199.411 53.0848 198.95 54.1127C198.415 55.1025 197.524 55.8514 196.457 56.2067C195.39 56.5619 194.227 56.4968 193.207 56.0247C193.432 56.3998 193.572 56.8202 193.617 57.2558C193.661 57.6914 193.609 58.1314 193.463 58.5443C193.317 58.9573 193.082 59.3329 192.774 59.6443C192.467 59.9557 192.094 60.1952 191.683 60.3457C190.821 60.5736 189.907 60.5003 189.093 60.1378C188.279 59.7753 187.613 59.1455 187.206 58.3527C186.824 57.5445 186.631 56.6603 186.641 55.7667C186.651 54.8731 186.863 53.9934 187.262 53.1937"
        fill="#1A2E35" />
    <path
        d="M188.341 48.8723C188.463 48.5706 188.661 48.3059 188.917 48.1042C189.172 47.9024 189.476 47.7704 189.798 47.7213C190.121 47.6833 190.448 47.7504 190.731 47.9126C191.013 48.0749 191.236 48.3237 191.366 48.6223C191.479 48.9276 191.472 49.2644 191.346 49.5649C191.221 49.8653 190.986 50.107 190.69 50.2413C191.054 50.4155 191.352 50.7047 191.536 51.0644C191.721 51.4241 191.782 51.8344 191.711 52.2323C191.621 52.6263 191.404 52.9798 191.094 53.2381C190.783 53.4964 190.396 53.6452 189.993 53.6613C190.174 53.9969 190.239 54.3837 190.176 54.7601C190.113 55.1366 189.926 55.4812 189.645 55.7393C189.351 55.9816 188.984 56.1181 188.603 56.127C188.222 56.1359 187.85 56.0166 187.545 55.7883C187.102 55.4008 186.83 54.8548 186.788 54.2683C186.748 53.6877 186.785 53.1044 186.898 52.5333C187.031 51.662 187.164 50.7903 187.298 49.9183C187.328 49.5312 187.438 49.1545 187.62 48.8113C187.714 48.6426 187.856 48.5057 188.028 48.4184C188.2 48.3311 188.395 48.2973 188.587 48.3213"
        fill="#DA2C2C" />
    <path
        d="M167.29 41.724C167.015 41.1419 166.934 40.4873 167.059 39.856C167.183 39.2246 167.506 38.6496 167.981 38.215C168.959 37.3676 170.232 36.9416 171.524 37.03C172.8 37.1242 174.059 37.3868 175.268 37.811C175.727 37.2101 176.344 36.749 177.051 36.4791C177.757 36.2093 178.525 36.1414 179.268 36.2831C180.01 36.4248 180.699 36.7704 181.257 37.2813C181.814 37.7923 182.219 38.4483 182.425 39.176C182.865 39.004 183.343 38.9553 183.809 39.035C184.275 39.1147 184.71 39.3198 185.068 39.6282C185.426 39.9367 185.693 40.3369 185.841 40.7858C185.988 41.2347 186.011 41.7153 185.906 42.176L180.49 44.903L175.695 56.639C174.862 57.5099 173.751 58.0618 172.554 58.199C171.357 58.3362 170.15 58.05 169.143 57.39C168.173 56.6702 167.485 55.6356 167.195 54.4636C166.905 53.2917 167.033 52.0555 167.555 50.967C167.168 50.7016 166.827 50.3746 166.547 49.999C166.013 49.7689 165.531 49.435 165.127 49.0168C164.724 48.5986 164.407 48.1045 164.197 47.563C164.012 46.9766 163.946 46.3594 164.002 45.7472C164.057 45.135 164.234 44.54 164.522 43.9968C164.81 43.4535 165.203 42.9729 165.678 42.5827C166.153 42.1926 166.701 41.9007 167.29 41.724"
        fill="#1A2E35" />
    <path
        d="M173.964 64.0415C174.088 62.2155 174.178 60.9645 174.176 60.9785C174.174 60.9925 170.664 60.1025 170.293 55.3835C170.232 52.2927 170.457 49.2029 170.965 46.1535C171.361 43.3755 173.477 40.0925 176.229 40.6075L184.722 43.4935C185.558 43.6505 185.796 44.3885 185.712 45.2385L185.751 45.6385L184.295 58.9535L183.721 64.8935C183.567 66.1548 182.929 67.307 181.942 68.107C180.955 68.907 179.695 69.2922 178.429 69.1814C177.164 69.0706 175.99 68.4725 175.157 67.5131C174.324 66.5538 173.896 65.3083 173.964 64.0395"
        fill="#CC8B6A" />
    <path
        d="M171.847 49.8335C171.833 49.989 171.88 50.1438 171.978 50.2649C172.077 50.3861 172.219 50.4642 172.374 50.4825C172.449 50.4944 172.526 50.4911 172.6 50.4727C172.674 50.4544 172.744 50.4214 172.805 50.3758C172.866 50.3301 172.917 50.2727 172.956 50.2069C172.995 50.1411 173.02 50.0682 173.03 49.9925C173.045 49.837 172.999 49.6817 172.901 49.5595C172.804 49.4374 172.663 49.3581 172.508 49.3385C172.432 49.3261 172.354 49.3292 172.279 49.3475C172.204 49.3659 172.133 49.3992 172.072 49.4454C172.01 49.4916 171.958 49.5498 171.92 49.6165C171.881 49.6832 171.856 49.757 171.847 49.8335"
        fill="#1A2E35" />
    <path
        d="M171.743 48.6719C171.81 48.7559 172.288 48.4569 172.928 48.5089C173.568 48.5609 174.013 48.9209 174.089 48.8469C174.126 48.8159 174.061 48.6689 173.868 48.5029C173.607 48.2863 173.285 48.1562 172.947 48.1309C172.613 48.1044 172.28 48.1854 171.996 48.3619C171.787 48.4989 171.709 48.6309 171.743 48.6719Z"
        fill="#1A2E35" />
    <path
        d="M177.665 50.3023C177.651 50.4578 177.698 50.6125 177.796 50.7337C177.895 50.8549 178.037 50.9329 178.192 50.9513C178.267 50.9633 178.344 50.9601 178.418 50.9418C178.492 50.9235 178.562 50.8905 178.623 50.8449C178.684 50.7992 178.736 50.7417 178.774 50.6758C178.813 50.6099 178.838 50.537 178.848 50.4613C178.863 50.3058 178.816 50.1505 178.719 50.0286C178.621 49.9067 178.48 49.8276 178.325 49.8083C178.249 49.7959 178.171 49.7989 178.096 49.8172C178.021 49.8355 177.951 49.8687 177.889 49.9148C177.828 49.961 177.776 50.0191 177.738 50.0856C177.699 50.1522 177.674 50.2259 177.665 50.3023"
        fill="#1A2E35" />
    <path
        d="M177.87 49.0351C177.938 49.1191 178.417 48.8201 179.056 48.8721C179.695 48.9241 180.142 49.2841 180.217 49.2101C180.254 49.1781 180.191 49.0321 179.997 48.8661C179.735 48.6494 179.413 48.5194 179.075 48.4941C178.741 48.4679 178.408 48.5488 178.124 48.7251C177.915 48.8621 177.837 48.9941 177.87 49.0351Z"
        fill="#1A2E35" />
    <path
        d="M175.221 53.4034C174.891 53.2703 174.545 53.1792 174.193 53.1324C174.031 53.1024 173.879 53.0574 173.86 52.9424C173.86 52.7731 173.911 52.6079 174.007 52.4684L174.59 51.2534C175.122 50.2293 175.571 49.1642 175.934 48.0684C175.319 49.047 174.784 50.0733 174.334 51.1374L173.774 52.3584C173.655 52.5484 173.608 52.7738 173.639 52.9954C173.658 53.0552 173.69 53.1098 173.733 53.1552C173.777 53.2006 173.83 53.2355 173.889 53.2574C173.977 53.2893 174.07 53.3098 174.164 53.3184C174.511 53.3917 174.866 53.4203 175.221 53.4034"
        fill="#1A2E35" />
    <path
        d="M174.176 60.9776C176.36 61.1847 178.558 60.7792 180.525 59.8066C180.525 59.8066 178.697 62.9706 174.085 62.1666L174.176 60.9776Z"
        fill="#CC8B6A" />
    <path
        d="M178 47.2898C178.069 47.4648 178.709 47.3768 179.464 47.4638C180.22 47.5348 180.83 47.7518 180.929 47.5978C180.973 47.5228 180.866 47.3588 180.619 47.1898C180.291 46.9792 179.918 46.8496 179.531 46.8118C179.144 46.7675 178.753 46.8162 178.39 46.9538C178.114 47.0678 177.975 47.2068 178 47.2898Z"
        fill="#1A2E35" />
    <path
        d="M171.863 47.4116C171.985 47.5676 172.52 47.4576 173.148 47.5006C173.778 47.5246 174.3 47.6906 174.434 47.5426C174.493 47.4726 174.421 47.3196 174.2 47.1626C173.893 46.966 173.539 46.8555 173.176 46.8426C172.814 46.8176 172.451 46.8919 172.129 47.0576C171.895 47.1906 171.81 47.3356 171.863 47.4116Z"
        fill="#1A2E35" />
    <path
        d="M182.37 40.7312C182.337 41.1988 182.201 41.6533 181.972 42.0625C181.743 42.4716 181.427 42.8252 181.046 43.0983C180.665 43.3713 180.229 43.5569 179.768 43.6419C179.307 43.727 178.833 43.7093 178.38 43.5902C177.68 43.4052 176.93 42.9902 176.287 43.3172C175.61 43.6662 175.509 44.6412 174.898 45.0962C174.025 45.7462 172.774 44.9772 171.711 45.2062C170.922 45.5082 170.239 46.0349 169.748 46.7212C169.498 47.06 169.158 47.3208 168.766 47.4731C168.374 47.6254 167.947 47.6629 167.535 47.5812C167.614 46.8574 167.776 46.145 168.018 45.4582C168.263 44.7668 168.74 44.1815 169.368 43.8012C169.734 43.6458 170.092 43.4719 170.441 43.2802C171.149 42.7922 171.375 41.8642 171.841 41.1422C172.148 40.6779 172.562 40.2938 173.048 40.022C173.534 39.7503 174.078 39.5988 174.635 39.5802C175.544 39.7019 176.462 39.7581 177.38 39.7482C178.051 39.6332 178.659 39.2482 179.335 39.1722C180.653 39.0252 181.788 40.0582 182.659 41.0582"
        fill="#1A2E35" />
    <path
        d="M178.072 42.265C178.861 42.1707 179.61 41.8626 180.238 41.374C180.592 40.8536 181.078 40.4363 181.645 40.1645C182.213 39.8928 182.843 39.7763 183.471 39.827C184.1 39.9266 184.68 40.2272 185.125 40.6839C185.569 41.1407 185.854 41.729 185.937 42.361C186.695 42.4472 187.416 42.7367 188.023 43.1987C188.63 43.6608 189.101 44.2783 189.387 44.986C189.681 45.7284 189.79 46.531 189.707 47.3251C189.623 48.1192 189.348 48.8813 188.906 49.546C188.693 49.8955 188.506 50.2594 188.345 50.635C188.674 50.9526 188.973 51.3008 189.237 51.675C190.469 53.682 187.97 54.834 187.97 54.834C188.146 56.267 186.831 56.434 185.986 56.534C185.174 56.634 184.963 58.957 184.296 58.954L184.07 51.893C183.976 51.9443 183.875 51.9782 183.77 51.993C182.182 52.223 182.21 49.149 182.625 48.303C182.072 47.7744 181.589 47.1784 181.186 46.529C180.76 45.5103 180.597 44.4011 180.711 43.303C179.773 43.1264 178.878 42.7742 178.072 42.265"
        fill="#1A2E35" />
    <path
        d="M183.878 52.2944C183.903 52.066 183.986 51.8478 184.119 51.6603C184.252 51.4727 184.43 51.3219 184.637 51.222C184.844 51.1221 185.073 51.0763 185.302 51.089C185.531 51.1016 185.754 51.1723 185.949 51.2944C186.231 51.5202 186.443 51.8231 186.557 52.1665C186.671 52.5099 186.684 52.8791 186.593 53.2294C186.579 53.5825 186.477 53.9267 186.296 54.2302C186.115 54.5337 185.861 54.7868 185.556 54.9664C185.252 55.146 184.907 55.2462 184.554 55.2579C184.201 55.2696 183.85 55.1924 183.535 55.0334C183.535 54.9834 183.735 53.4514 183.878 52.2944"
        fill="#CC8B6A" />
    <path
        d="M184.508 54.0743C184.521 54.0663 184.553 54.1143 184.63 54.1613C184.739 54.2245 184.869 54.2428 184.992 54.2123C185.185 54.1187 185.351 53.9753 185.471 53.7968C185.591 53.6183 185.662 53.4111 185.676 53.1963C185.712 52.9575 185.695 52.7137 185.626 52.4823C185.61 52.3922 185.573 52.3071 185.518 52.2344C185.462 52.1616 185.39 52.1032 185.308 52.0643C185.254 52.0439 185.194 52.0426 185.14 52.0609C185.085 52.0791 185.038 52.1156 185.008 52.1643C184.956 52.2373 184.967 52.2953 184.952 52.2983C184.937 52.3013 184.898 52.2443 184.934 52.1313C184.957 52.0641 185.003 52.0069 185.064 51.9693C185.147 51.9205 185.247 51.9065 185.341 51.9303C185.452 51.9664 185.552 52.0302 185.632 52.1158C185.712 52.2013 185.768 52.3058 185.797 52.4193C185.887 52.6758 185.913 52.9504 185.873 53.2193C185.858 53.4705 185.77 53.7119 185.618 53.9128C185.467 54.1138 185.259 54.2653 185.022 54.3483C184.944 54.3609 184.865 54.3558 184.789 54.3334C184.714 54.3111 184.645 54.2721 184.587 54.2193C184.508 54.1423 184.502 54.0773 184.508 54.0743Z"
        fill="#FF9A6C" />
    <path
        d="M168.903 50.3756C168.917 50.3526 168.634 50.2176 168.236 49.8396C167.678 49.295 167.292 48.6001 167.123 47.8396C166.998 47.3215 166.981 46.7835 167.073 46.2586C167.179 45.6605 167.444 45.102 167.841 44.6416C168.303 44.1218 168.893 43.7327 169.553 43.5131C170.213 43.2936 170.919 43.2513 171.601 43.3906C171.733 43.4146 171.858 43.4636 171.984 43.4976C172.11 43.5316 172.223 43.5976 172.338 43.6436L172.516 43.7166L172.496 43.5256C172.458 43.1989 172.538 42.8696 172.722 42.5966C172.904 42.3291 173.143 42.1051 173.422 41.9406C173.963 41.6296 174.59 41.5029 175.21 41.5796C176.402 41.6946 177.453 42.0986 178.394 42.0856C179.136 42.1173 179.863 41.8709 180.433 41.3946C180.578 41.2582 180.699 41.0979 180.79 40.9206C180.822 40.8591 180.845 40.7935 180.859 40.7256C180.731 40.9522 180.569 41.157 180.378 41.3326C179.81 41.7639 179.106 41.9768 178.395 41.9326C177.901 41.9075 177.412 41.8325 176.934 41.7086C176.373 41.5613 175.802 41.4521 175.227 41.3816C174.906 41.3483 174.583 41.3574 174.266 41.4086C173.931 41.4702 173.61 41.5893 173.317 41.7606C173.007 41.9397 172.742 42.1857 172.54 42.4806C172.326 42.7968 172.233 43.1787 172.277 43.5576L172.434 43.4436C172.311 43.3936 172.187 43.3356 172.057 43.2876C171.927 43.2396 171.789 43.1996 171.649 43.1736C170.929 43.0255 170.183 43.071 169.487 43.3056C168.791 43.5401 168.17 43.9553 167.687 44.5086C167.271 44.9986 166.997 45.592 166.893 46.2256C166.804 46.7764 166.83 47.3396 166.971 47.8796C167.159 48.6604 167.58 49.3657 168.178 49.9026C168.337 50.0473 168.513 50.1732 168.702 50.2776C168.763 50.3197 168.831 50.3534 168.902 50.3776"
        fill="#375A64" />
    <path
        d="M168.233 40.7853C168.487 40.6057 168.767 40.4667 169.064 40.3733C169.404 40.2802 169.762 40.2669 170.109 40.3343C170.556 40.4127 170.965 40.6375 171.272 40.9733L171.394 41.1083L171.433 40.9313C171.586 40.3867 171.881 39.8928 172.289 39.5002C172.696 39.1076 173.201 38.8305 173.751 38.6973C174.622 38.5522 175.517 38.6925 176.303 39.0973C176.968 39.4208 177.665 39.6758 178.383 39.8583C178.876 39.9767 179.392 39.9712 179.883 39.8423C180.014 39.8036 180.141 39.7502 180.261 39.6833C180.342 39.6353 180.381 39.6073 180.378 39.6003C180.375 39.5933 180.198 39.6803 179.862 39.7583C179.381 39.8475 178.887 39.8266 178.417 39.6973C177.715 39.4939 177.034 39.2261 176.382 38.8973C175.98 38.7168 175.562 38.5761 175.133 38.4773C174.661 38.3695 174.171 38.3695 173.7 38.4773C173.112 38.6196 172.573 38.9188 172.142 39.343C171.711 39.7673 171.402 40.3007 171.251 40.8863L171.414 40.8453C171.074 40.4847 170.623 40.2502 170.133 40.1803C169.764 40.1207 169.387 40.1502 169.033 40.2663C168.805 40.34 168.593 40.4542 168.407 40.6033C168.283 40.7113 168.227 40.7793 168.234 40.7853"
        fill="#375A64" />
    <path
        d="M175.62 54.7633C175.708 54.6633 175.817 54.5837 175.94 54.5302C176.062 54.4766 176.195 54.4504 176.329 54.4533C176.48 54.4663 176.628 54.5111 176.761 54.5846C176.894 54.6582 177.011 54.7589 177.103 54.8803L177.115 54.8943C177.123 54.9053 177.135 54.9143 177.143 54.9263L177.132 54.9203C177.204 55.0073 177.246 55.1154 177.252 55.2283C177.247 55.3546 177.211 55.4777 177.147 55.5868C177.083 55.696 176.994 55.7878 176.887 55.8543C176.721 55.9675 176.524 56.0266 176.324 56.0234C176.123 56.0201 175.928 55.9548 175.767 55.8363C175.612 55.7085 175.511 55.5272 175.484 55.3285C175.457 55.1298 175.505 54.9281 175.62 54.7633"
        fill="#FF4F5B" />
    <path
        d="M177.278 54.2378C177.241 54.2278 177.185 54.3758 177.046 54.5698C176.871 54.82 176.628 55.0147 176.346 55.1308C176.058 55.2367 175.745 55.2575 175.446 55.1908C175.215 55.1378 175.075 55.0688 175.052 55.1008C175.029 55.1328 175.144 55.2558 175.394 55.3598C175.727 55.4915 176.097 55.4933 176.432 55.3648C176.765 55.2349 177.038 54.9853 177.197 54.6648C177.314 54.4148 177.307 54.2438 177.278 54.2378Z"
        fill="#1A2E35" />
    <path
        d="M188.029 46.5211C188.074 46.4958 188.115 46.4649 188.153 46.4291C188.264 46.3325 188.368 46.2286 188.466 46.1181C188.834 45.7105 189.094 45.2166 189.222 44.6821C189.306 44.3084 189.306 43.9207 189.222 43.5471C189.127 43.1141 188.91 42.7173 188.598 42.4031C188.423 42.2296 188.216 42.0926 187.988 42.0002C187.76 41.9079 187.516 41.8619 187.271 41.8651C187.005 41.86 186.742 41.9166 186.501 42.0304C186.261 42.1442 186.051 42.3122 185.887 42.5211L186.016 42.5891C186.016 42.5801 186.023 42.5691 186.026 42.5591C186.387 41.6088 186.36 40.5544 185.95 39.6241C185.778 39.2477 185.517 38.9191 185.189 38.6672C184.861 38.4152 184.476 38.2476 184.069 38.1791C183.794 38.1447 183.515 38.1659 183.249 38.2415C182.983 38.3171 182.734 38.4455 182.519 38.6191C182.404 38.7146 182.303 38.8253 182.219 38.9481C182.187 38.9898 182.162 39.0355 182.143 39.0841C182.263 38.9289 182.401 38.7883 182.554 38.6651C182.984 38.3466 183.523 38.2102 184.054 38.2851C184.44 38.3579 184.803 38.5233 185.112 38.7671C185.42 39.0109 185.665 39.3259 185.826 39.6851C186.211 40.5842 186.232 41.5979 185.884 42.5121L185.874 42.5421L185.732 42.9761L186.002 42.6101C186.153 42.4195 186.345 42.2662 186.565 42.1622C186.785 42.0581 187.025 42.0061 187.269 42.0101C187.496 42.0064 187.722 42.048 187.933 42.1325C188.145 42.2169 188.337 42.3426 188.5 42.5021C188.797 42.7963 189.005 43.1687 189.1 43.5761C189.186 43.9332 189.193 44.305 189.12 44.6651C189.003 45.1874 188.763 45.6743 188.42 46.0851C188.18 46.3791 188.02 46.5161 188.026 46.5261"
        fill="#1A2E35" />
    <path
        d="M192.656 55.698C192.68 55.7118 192.705 55.7228 192.732 55.731L192.959 55.814C193.159 55.884 193.459 55.987 193.84 56.106C194.308 56.2532 194.784 56.3731 195.266 56.465C195.907 56.5906 196.563 56.6212 197.214 56.556C198.008 56.4762 198.767 56.1867 199.414 55.717C199.779 55.4351 200.085 55.0835 200.313 54.6825C200.541 54.2815 200.688 53.8391 200.744 53.381C200.869 52.3702 200.709 51.3443 200.281 50.42C200.065 49.9252 199.744 49.4833 199.341 49.125C198.914 48.7537 198.368 48.5475 197.803 48.544C197.396 48.5373 196.999 48.6668 196.675 48.912L196.775 49.021C197.127 48.6322 197.38 48.1634 197.512 47.655C197.632 47.1641 197.653 46.6541 197.573 46.155C197.502 45.6826 197.333 45.2305 197.074 44.8288C196.816 44.4271 196.475 44.0849 196.075 43.825C195.348 43.3704 194.494 43.164 193.641 43.237C192.901 43.2951 192.194 43.5691 191.609 44.025C191.134 44.4007 190.743 44.8714 190.461 45.407C190.25 45.8097 190.1 46.2414 190.016 46.688C189.962 46.9685 189.937 47.2536 189.941 47.539C189.947 47.63 189.951 47.703 189.955 47.76C189.955 47.7853 189.958 47.8104 189.964 47.835C189.96 47.4534 189.996 47.0725 190.07 46.698C190.163 46.2605 190.318 45.8385 190.531 45.445C190.814 44.9241 191.202 44.4673 191.67 44.103C192.242 43.6668 192.93 43.4071 193.649 43.356C194.476 43.2918 195.302 43.497 196.003 43.941C196.385 44.1908 196.711 44.5188 196.958 44.9036C197.205 45.2883 197.367 45.7209 197.435 46.173C197.511 46.653 197.49 47.1432 197.374 47.615C197.248 48.0984 197.008 48.5444 196.674 48.915L196.774 49.024C197.072 48.7998 197.437 48.6815 197.811 48.688C198.341 48.6918 198.853 48.8854 199.254 49.234C199.64 49.579 199.947 50.0038 200.154 50.479C200.572 51.3777 200.732 52.3756 200.614 53.36C200.562 53.8021 200.422 54.2295 200.204 54.6173C199.985 55.0051 199.692 55.3456 199.341 55.619C198.713 56.0809 197.974 56.3683 197.199 56.452C196.558 56.5222 195.911 56.4993 195.278 56.384C194.797 56.2986 194.322 56.1874 193.854 56.051L192.966 55.785L192.741 55.717C192.714 55.7077 192.687 55.7016 192.66 55.699"
        fill="#1A2E35" />
    <path
        d="M188.406 60.1672C188.508 60.2488 188.619 60.3185 188.737 60.3752C189.047 60.5494 189.371 60.6989 189.706 60.8222C190.205 61.0132 190.736 61.1062 191.271 61.0962C191.936 61.082 192.575 60.8342 193.077 60.3962C193.33 60.1592 193.523 59.8655 193.64 59.5392C193.748 59.2369 193.804 58.9183 193.806 58.5972C193.8 58.0611 193.689 57.5313 193.479 57.0382C193.341 56.7079 193.183 56.3866 193.006 56.0762C192.95 55.9586 192.883 55.847 192.806 55.7432C192.844 55.8672 192.895 55.9874 192.956 56.1022C193.061 56.3302 193.222 56.6562 193.377 57.0752C193.567 57.5593 193.664 58.0749 193.665 58.5952C193.67 58.9087 193.612 59.22 193.493 59.5103C193.375 59.8006 193.199 60.0639 192.976 60.2842C192.5 60.7 191.895 60.9388 191.264 60.9602C190.745 60.9755 190.229 60.8955 189.74 60.7242C188.899 60.4322 188.419 60.1432 188.406 60.1672Z"
        fill="#1A2E35" />
    <path
        d="M186.914 61.9834C186.786 61.9614 186.664 61.913 186.557 61.8414C186.419 61.7342 186.311 61.5932 186.243 61.432C186.176 61.2708 186.151 61.0949 186.172 60.9214C186.179 60.8042 186.211 60.69 186.267 60.5864C186.322 60.4829 186.399 60.3925 186.493 60.3214C186.595 60.242 186.721 60.1989 186.85 60.1989C186.98 60.1989 187.105 60.242 187.208 60.3214C187.257 60.3681 187.297 60.4243 187.325 60.4866C187.353 60.5489 187.369 60.6161 187.371 60.6844C187.372 60.7532 187.355 60.8211 187.321 60.8809C187.287 60.9407 187.237 60.9903 187.178 61.0244C187.042 61.0952 186.888 61.1188 186.738 61.0914C186.577 61.0651 186.423 61.0059 186.287 60.9174C186.027 60.7332 185.813 60.491 185.664 60.21C185.514 59.9289 185.432 59.6168 185.424 59.2984C185.414 58.7677 185.515 58.2408 185.718 57.7504C185.825 57.4093 185.987 57.0878 186.198 56.7984C186.24 56.7504 186.292 56.712 186.351 56.686C186.409 56.6599 186.473 56.6468 186.537 56.6474C186.505 56.6304 186.468 56.6237 186.433 56.6284C186.329 56.6381 186.231 56.6837 186.158 56.7574C186.044 56.8698 185.952 57.002 185.887 57.1474C185.801 57.3104 185.71 57.4984 185.621 57.7124C185.397 58.2132 185.283 58.756 185.287 59.3044C185.299 59.6324 185.379 59.9544 185.521 60.2504C185.671 60.574 185.909 60.8488 186.208 61.0434C186.356 61.152 186.531 61.219 186.714 61.2377C186.897 61.2563 187.081 61.2258 187.249 61.1494C187.33 61.102 187.397 61.0339 187.442 60.9519C187.488 60.87 187.512 60.7773 187.51 60.6834C187.507 60.5961 187.486 60.5102 187.45 60.4308C187.413 60.3515 187.361 60.2803 187.297 60.2214C187.234 60.1671 187.162 60.1256 187.083 60.0995C187.005 60.0734 186.922 60.0632 186.84 60.0694C186.688 60.0795 186.542 60.1325 186.42 60.2224C186.314 60.3049 186.228 60.4093 186.167 60.5285C186.106 60.6476 186.071 60.7786 186.066 60.9124C186.047 61.1011 186.08 61.2913 186.16 61.4631C186.241 61.6349 186.365 61.7821 186.522 61.8894C186.607 61.945 186.705 61.9793 186.807 61.9894C186.84 61.9954 186.874 61.9933 186.907 61.9834"
        fill="#1A2E35" />
    <path
        d="M196.55 55.9021C196.59 55.9154 196.632 55.9225 196.675 55.9231C196.798 55.9271 196.92 55.9102 197.038 55.8731C197.254 55.7977 197.449 55.6733 197.609 55.5097C197.769 55.3461 197.888 55.1477 197.959 54.9301C198.043 54.6008 198.039 54.2552 197.949 53.9276C197.858 53.5999 197.684 53.3016 197.443 53.0621C197.089 52.6926 196.642 52.4249 196.15 52.2872C195.657 52.1494 195.137 52.1466 194.643 52.2791L194.732 52.3791C194.85 52.0144 194.874 51.6255 194.8 51.2491C194.727 50.8727 194.56 50.5211 194.314 50.2271C194.101 49.973 193.829 49.7755 193.522 49.6521C193.257 49.5497 192.975 49.4988 192.692 49.5021C192.285 49.505 191.887 49.6225 191.545 49.8411C191.452 49.8981 191.366 49.9651 191.289 50.0411C191.237 50.0941 191.214 50.1231 191.214 50.1271C191.214 50.1311 191.333 50.0251 191.573 49.8871C191.914 49.6949 192.3 49.5965 192.692 49.6021C192.961 49.6057 193.227 49.6596 193.477 49.7611C193.764 49.8816 194.017 50.0708 194.214 50.3121C194.44 50.5894 194.593 50.919 194.66 51.2708C194.726 51.6226 194.703 51.9854 194.594 52.3261L194.549 52.4571L194.683 52.4211C195.152 52.2967 195.645 52.299 196.113 52.4278C196.58 52.5566 197.006 52.8072 197.345 53.1541C197.574 53.3765 197.741 53.6543 197.832 53.9605C197.922 54.2667 197.931 54.5911 197.86 54.9021C197.797 55.1082 197.689 55.2976 197.544 55.4566C197.398 55.6156 197.219 55.7402 197.02 55.8211C196.868 55.8714 196.71 55.8997 196.551 55.9051"
        fill="#375A64" />
    <path
        d="M196.887 47.2726C196.83 47.2364 196.767 47.2113 196.702 47.1986C196.516 47.1527 196.324 47.1408 196.135 47.1636C195.846 47.1962 195.568 47.2954 195.325 47.4536C195.01 47.6515 194.765 47.9432 194.625 48.2876L194.744 48.2656C194.512 48.0138 194.2 47.8519 193.861 47.8086C193.372 47.7449 192.877 47.8595 192.466 48.1316C192.14 48.3521 191.858 48.6308 191.634 48.9536C191.481 49.1658 191.343 49.3883 191.221 49.6196C191.169 49.7007 191.129 49.7885 191.102 49.8806C191.125 49.8946 191.319 49.5326 191.716 49.0156C191.944 48.7138 192.222 48.4534 192.539 48.2456C192.925 47.9986 193.385 47.8952 193.84 47.9536C194.145 47.9901 194.427 48.1315 194.64 48.3536L194.717 48.4386L194.759 48.3326C194.885 48.0145 195.106 47.7428 195.392 47.5536C195.618 47.3993 195.876 47.2969 196.147 47.2536C196.393 47.2243 196.641 47.2307 196.886 47.2726"
        fill="#375A64" />
    <path
        d="M184.227 61.3438L173.804 62.8247L173.339 66.1337C173.339 66.1337 168.158 75.2247 167.701 77.8857C167.244 80.5467 164.934 87.1437 165.395 92.1147C165.856 97.0858 164.358 115.925 164.358 115.925H167.009L177.268 90.8438L184.227 61.3438Z"
        fill="#F1F1F1" />
    <path
        d="M191.424 182.418L194.04 191.918C194.04 191.918 185.144 197.075 185.458 198.881L204.144 195.151L200.673 180.181L191.424 182.418Z"
        fill="#DA2C2C" />
    <path
        d="M199.579 189.74C199.77 189.752 199.951 189.834 200.086 189.971C200.221 190.107 200.301 190.289 200.311 190.481C200.306 190.673 200.228 190.856 200.093 190.992C199.958 191.128 199.776 191.207 199.585 191.213C199.381 191.201 199.188 191.114 199.045 190.968C198.902 190.822 198.819 190.628 198.811 190.424C198.835 190.224 198.937 190.042 199.094 189.915C199.252 189.789 199.452 189.729 199.653 189.747"
        fill="white" />
    <path
        d="M204.143 195.148L203.793 193.639L185.875 197.872C185.703 198.009 185.568 198.187 185.482 198.39C185.397 198.593 185.363 198.814 185.385 199.033L204.143 195.148Z"
        fill="white" />
    <path
        d="M193.715 191.893C193.742 191.983 194.204 191.916 194.715 192.104C195.226 192.292 195.557 192.615 195.632 192.559C195.715 192.519 195.451 192.004 194.824 191.794C194.197 191.584 193.678 191.814 193.715 191.893Z"
        fill="#1A2E35" />
    <path
        d="M191.964 193.165C191.964 193.258 192.393 193.319 192.792 193.629C193.191 193.939 193.376 194.329 193.465 194.299C193.553 194.293 193.49 193.746 192.987 193.369C192.484 192.992 191.946 193.078 191.964 193.165Z"
        fill="#1A2E35" />
    <path
        d="M191.414 195.763C191.501 195.763 191.519 195.279 191.168 194.837C190.817 194.395 190.349 194.298 190.326 194.383C190.303 194.468 190.626 194.671 190.913 195.039C191.2 195.407 191.32 195.775 191.413 195.763"
        fill="#1A2E35" />
    <path
        d="M193.36 189.662C193.417 189.736 193.803 189.511 194.323 189.424C194.843 189.337 195.28 189.403 195.308 189.314C195.336 189.225 194.877 188.992 194.266 189.104C193.655 189.216 193.298 189.604 193.36 189.662"
        fill="#1A2E35" />
    <path d="M191.944 184.298L192.408 185.99L201.496 183.731L201.144 182.19L191.944 184.298Z" fill="black" />
    <path
        d="M192.867 187.737C193.19 187.747 193.511 187.669 193.794 187.51C194.114 187.37 194.416 187.192 194.694 186.978C194.858 186.851 195.014 186.713 195.16 186.564C195.25 186.482 195.326 186.387 195.388 186.282C195.432 186.203 195.448 186.112 195.435 186.023C195.422 185.933 195.38 185.851 195.315 185.788C195.254 185.735 195.182 185.698 195.104 185.678C195.026 185.659 194.945 185.658 194.867 185.676C194.748 185.703 194.635 185.747 194.53 185.807C194.343 185.903 194.166 186.016 194 186.144C193.72 186.361 193.477 186.62 193.278 186.912C193.068 187.163 192.94 187.473 192.912 187.799C192.96 187.819 193.102 187.485 193.461 187.051C193.671 186.799 193.912 186.575 194.18 186.384C194.336 186.274 194.501 186.176 194.674 186.092C194.858 185.992 195.025 185.952 195.096 186.028C195.122 186.057 195.127 186.07 195.096 186.137C195.049 186.214 194.992 186.285 194.927 186.346C194.794 186.488 194.652 186.621 194.504 186.746C194.25 186.957 193.977 187.145 193.689 187.305C193.405 187.43 193.13 187.574 192.867 187.737"
        fill="#1A2E35" />
    <path
        d="M193.016 187.839C193.128 187.531 193.139 187.195 193.047 186.881C192.981 186.532 192.857 186.198 192.679 185.891C192.572 185.709 192.448 185.539 192.308 185.382C192.229 185.271 192.123 185.183 192.001 185.125C191.878 185.068 191.743 185.043 191.608 185.053C191.525 185.074 191.449 185.118 191.391 185.181C191.333 185.244 191.294 185.322 191.279 185.406C191.256 185.526 191.251 185.649 191.264 185.77C191.281 185.986 191.331 186.197 191.413 186.398C191.546 186.734 191.761 187.032 192.038 187.265C192.514 187.665 192.918 187.679 192.918 187.646C192.937 187.593 192.581 187.493 192.193 187.096C191.969 186.867 191.799 186.592 191.693 186.291C191.63 186.116 191.592 185.933 191.581 185.748C191.558 185.548 191.599 185.367 191.678 185.37C191.769 185.348 191.958 185.458 192.074 185.597C192.203 185.736 192.321 185.887 192.424 186.047C192.598 186.322 192.733 186.621 192.824 186.934C192.979 187.474 192.963 187.834 193.016 187.839"
        fill="#1A2E35" />
    <path
        d="M164.121 181.843L162.96 191.628C162.96 191.628 152.781 193.024 152.391 194.812L171.091 198.458L173.526 183.286L164.121 181.843Z"
        fill="#DA2C2C" />
    <path
        d="M168.908 191.719C169.08 191.803 169.216 191.947 169.289 192.125C169.361 192.302 169.366 192.501 169.303 192.682C169.226 192.857 169.085 192.996 168.908 193.071C168.732 193.145 168.534 193.149 168.355 193.082C168.172 192.992 168.029 192.839 167.952 192.65C167.876 192.462 167.872 192.252 167.941 192.061C168.039 191.885 168.202 191.755 168.395 191.698C168.588 191.641 168.795 191.661 168.974 191.754"
        fill="white" />
    <path
        d="M171.093 198.458L171.338 196.929L153.157 194.039C152.946 194.102 152.755 194.216 152.6 194.372C152.445 194.528 152.331 194.719 152.27 194.93L171.093 198.458Z"
        fill="white" />
    <path
        d="M162.67 191.484C162.659 191.577 163.112 191.69 163.518 192.058C163.924 192.426 164.105 192.85 164.196 192.827C164.284 192.827 164.232 192.249 163.732 191.813C163.232 191.377 162.663 191.397 162.67 191.484Z"
        fill="#1A2E35" />
    <path
        d="M160.566 191.996C160.533 192.082 160.907 192.301 161.158 192.74C161.409 193.179 161.436 193.605 161.528 193.616C161.612 193.644 161.76 193.116 161.436 192.574C161.112 192.032 160.583 191.908 160.566 191.996Z"
        fill="#1A2E35" />
    <path
        d="M159.084 194.191C159.165 194.223 159.364 193.782 159.207 193.24C159.05 192.698 158.646 192.431 158.595 192.502C158.544 192.573 158.769 192.884 158.895 193.331C159.021 193.778 158.995 194.168 159.084 194.191Z"
        fill="#1A2E35" />
    <path
        d="M163.179 189.285C163.206 189.371 163.648 189.313 164.162 189.429C164.676 189.545 165.055 189.774 165.116 189.702C165.177 189.63 164.838 189.241 164.23 189.112C163.622 188.983 163.147 189.205 163.179 189.285Z"
        fill="#1A2E35" />
    <path d="M163.893 183.782L163.684 185.525L172.948 186.882L173.202 185.321L163.893 183.782Z" fill="black" />
    <path
        d="M163.451 187.314C163.747 187.447 164.073 187.496 164.395 187.456C164.744 187.449 165.091 187.398 165.428 187.306C165.627 187.253 165.823 187.187 166.014 187.106C166.129 187.064 166.237 187.004 166.334 186.928C166.405 186.872 166.455 186.793 166.476 186.705C166.497 186.616 166.488 186.523 166.451 186.44C166.415 186.369 166.362 186.307 166.298 186.26C166.234 186.212 166.159 186.181 166.081 186.167C165.962 186.147 165.84 186.145 165.721 186.16C165.512 186.178 165.305 186.215 165.104 186.27C164.763 186.365 164.439 186.513 164.145 186.708C163.645 187.045 163.445 187.367 163.471 187.389C163.497 187.411 163.766 187.17 164.262 186.905C164.55 186.752 164.858 186.636 165.177 186.561C165.363 186.519 165.553 186.491 165.744 186.478C165.951 186.457 166.121 186.478 166.159 186.578C166.172 186.615 166.172 186.629 166.122 186.678C166.05 186.732 165.971 186.776 165.888 186.808C165.711 186.888 165.529 186.958 165.345 187.016C165.03 187.116 164.707 187.185 164.38 187.224C164.068 187.232 163.758 187.262 163.451 187.314"
        fill="#1A2E35" />
    <path
        d="M163.551 187.466C163.581 187.485 163.815 187.184 163.942 186.591C164.012 186.243 164.022 185.886 163.973 185.535C163.943 185.326 163.892 185.121 163.822 184.923C163.79 184.79 163.725 184.668 163.633 184.568C163.541 184.467 163.424 184.393 163.295 184.351C163.211 184.339 163.125 184.352 163.049 184.388C162.972 184.423 162.906 184.48 162.861 184.551C162.795 184.654 162.744 184.767 162.71 184.885C162.644 185.091 162.611 185.305 162.61 185.522C162.606 185.884 162.693 186.241 162.861 186.562C163.153 187.108 163.52 187.279 163.532 187.249C163.362 186.997 163.207 186.735 163.068 186.465C162.948 186.168 162.894 185.849 162.91 185.53C162.917 185.345 162.951 185.162 163.01 184.987C163.071 184.79 163.171 184.64 163.243 184.672C163.336 184.685 163.472 184.861 163.524 185.033C163.591 185.211 163.643 185.395 163.678 185.583C163.734 185.904 163.745 186.231 163.71 186.555C163.65 187.114 163.498 187.444 163.546 187.466"
        fill="#1A2E35" />
    <path
        d="M178.238 152.874C178.238 153.223 173.96 186.784 173.96 186.784L161.538 184.413L166.538 149.774L178.238 152.874Z"
        fill="#19201F" />
    <path
        d="M193.387 149.284C193.503 149.613 202.144 183.493 202.144 183.493L190.326 186.228L180.199 149.774L193.387 149.284Z"
        fill="#19201F" />
    <path
        d="M182.251 62.414L184.682 61.582L188.93 67.408L190.072 86.121L187.137 95.761C187.137 95.761 195.408 114.104 195.537 118.661C195.666 123.218 199.388 165.605 199.388 165.605L161.123 168.731L168.193 99.376C168.193 99.376 169.127 82.376 170.193 79.828C171.259 77.28 182.251 62.414 182.251 62.414Z"
        fill="#8C3E79" />
    <path
        d="M185.537 122.683C185.537 122.691 185.489 122.717 185.387 122.759C185.236 122.817 185.079 122.858 184.92 122.884C184.325 122.961 183.72 122.873 183.172 122.628C182.361 122.255 181.676 121.656 181.197 120.903C180.622 119.994 180.166 119.015 179.841 117.99C179.215 116.144 178.883 114.21 178.857 112.26C178.851 111.672 178.877 111.085 178.934 110.499C178.945 110.283 178.979 110.069 179.034 109.86C179.051 110.075 179.049 110.291 179.027 110.505C179.016 110.92 178.999 111.519 179.027 112.26C179.102 114.185 179.453 116.088 180.068 117.913C180.387 118.919 180.828 119.882 181.381 120.78C181.83 121.507 182.475 122.094 183.241 122.473C183.76 122.721 184.335 122.831 184.909 122.791C185.314 122.75 185.529 122.662 185.537 122.683"
        fill="#1A2E35" />
    <path
        d="M199.392 165.602C199.392 165.602 199.328 165.614 199.203 165.628L198.645 165.684L196.485 165.884L188.447 166.577L161.132 168.848L160.992 168.86L161.006 168.719C161.312 165.707 161.63 162.583 161.955 159.386C163.311 146.227 164.538 134.313 165.427 125.679C165.882 121.379 166.25 117.889 166.506 115.468L166.812 112.692C166.848 112.382 166.877 112.142 166.897 111.972C166.918 111.809 166.935 111.727 166.935 111.727C166.935 111.727 166.935 111.811 166.922 111.974C166.909 112.137 166.887 112.387 166.86 112.698C166.799 113.343 166.712 114.278 166.599 115.477C166.361 117.9 166.019 121.389 165.599 125.697C164.727 134.332 163.526 146.247 162.199 159.41L161.24 168.742L161.113 168.613L188.436 166.42L196.48 165.798L198.643 165.641L199.204 165.606C199.33 165.599 199.395 165.606 199.395 165.606"
        fill="#1A2E35" />
    <path
        d="M186.862 64.5713C186.832 64.5996 186.798 64.6238 186.762 64.6433L186.457 64.8333L185.277 65.5523C184.765 65.8653 184.139 66.2523 183.424 66.7113C183.069 66.9443 182.685 67.1933 182.31 67.4883C182.224 67.5506 182.148 67.6247 182.084 67.7083C182.067 67.8083 182.055 67.9513 182.041 68.0743C182.012 68.3293 181.978 68.5903 181.941 68.8573C181.77 70.0223 181.534 71.1768 181.234 72.3153C180.908 73.6321 180.427 74.9057 179.802 76.1093C178.97 77.3586 177.926 78.4528 176.718 79.3423C176.118 79.834 175.596 80.4127 175.168 81.0593C174.741 81.7256 174.564 82.5211 174.668 83.3053C174.813 84.0946 175.036 84.8674 175.335 85.6123C175.602 86.366 175.758 87.1546 175.798 87.9533C175.837 89.4616 175.572 90.9623 175.017 92.3653C174.534 93.629 173.931 94.8435 173.217 95.9923C172.558 97.0753 171.908 98.0583 171.317 98.9563C170.121 100.75 169.178 102.21 168.567 103.245C168.26 103.761 168.03 104.167 167.877 104.445C167.806 104.573 167.748 104.676 167.701 104.759C167.683 104.795 167.66 104.829 167.634 104.859C167.643 104.819 167.658 104.78 167.679 104.744L167.834 104.421C167.974 104.136 168.191 103.721 168.486 103.197C169.074 102.146 169.998 100.671 171.164 98.8633C171.745 97.9633 172.387 96.9713 173.034 95.8893C173.735 94.7479 174.327 93.5425 174.802 92.2893C175.34 90.9133 175.596 89.4432 175.556 87.9663C175.515 87.1896 175.362 86.4229 175.102 85.6903C174.796 84.9302 174.568 84.1412 174.422 83.3353C174.314 82.4967 174.505 81.6469 174.962 80.9353C175.403 80.2686 175.942 79.6722 176.562 79.1663C177.753 78.2957 178.784 77.2248 179.61 76.0013C180.231 74.8157 180.712 73.5615 181.042 72.2643C181.348 71.1348 181.592 69.9894 181.773 68.8333C181.815 68.5693 181.85 68.3093 181.883 68.0563C181.901 67.9253 181.907 67.8153 181.934 67.6713C182.003 67.5507 182.1 67.448 182.217 67.3713C182.607 67.0713 182.993 66.8303 183.354 66.6013C184.075 66.1453 184.709 65.7713 185.228 65.4713L186.428 64.7913L186.745 64.6213C186.781 64.5992 186.82 64.5824 186.862 64.5713"
        fill="#1A2E35" />
    <path
        d="M186.297 95.2922C185.902 95.3126 185.506 95.2691 185.125 95.1632C184.191 94.9538 183.299 94.5923 182.483 94.0932C181.665 93.5939 180.935 92.9638 180.322 92.2282C180.052 91.936 179.831 91.6024 179.668 91.2402C180.506 92.2679 181.497 93.1606 182.607 93.8872C183.757 94.5405 185.002 95.0127 186.297 95.2872"
        fill="#1A2E35" />
    <path
        d="M187.045 96.1024C186.758 96.2253 186.455 96.3026 186.145 96.3314C185.41 96.4528 184.666 96.5103 183.922 96.5034C183.176 96.4985 182.432 96.4293 181.698 96.2964C181.389 96.2624 181.087 96.1805 180.804 96.0534C180.818 95.9804 182.199 96.2534 183.923 96.2634C185.647 96.2734 187.032 96.0294 187.045 96.1024Z"
        fill="#1A2E35" />
    <path
        d="M201.382 90.8748C201.272 88.0078 195.83 76.6748 195.83 76.6748C195.83 76.6748 193.309 71.0478 192.714 69.9088C191.421 67.4338 187.81 67.1738 186.508 67.9248L187.517 81.9038L190.506 92.0878L184.682 103.115L191.934 110.282C201.604 109.069 201.493 93.7418 201.383 90.8748"
        fill="#553791" />
    <path
        d="M199.017 92.4296C198.568 92.447 198.12 92.3813 197.695 92.2356C196.889 92.0356 195.842 91.5646 194.641 91.2796C194.081 91.1411 193.502 91.0979 192.928 91.1516C192.462 91.2038 192.012 91.3505 191.605 91.5826C191.236 91.8148 190.912 92.1127 190.651 92.4616C190.675 92.3408 190.727 92.2274 190.803 92.1306C190.99 91.8531 191.233 91.6172 191.516 91.4376C191.934 91.1698 192.407 90.997 192.9 90.9316C193.5 90.8616 194.107 90.8995 194.694 91.0436C195.935 91.3436 196.963 91.8346 197.742 92.0726C198.517 92.3296 199.021 92.3916 199.017 92.4296Z"
        fill="#1A2E35" />
    <path
        d="M195.627 88.0904C195.279 88.187 194.923 88.2509 194.564 88.2814C193.713 88.3821 192.889 88.6366 192.13 89.0324C191.39 89.4532 190.843 90.1448 190.604 90.9614C190.535 91.3079 190.514 91.6621 190.541 92.0144C190.528 92.0144 190.48 91.9234 190.441 91.7364C190.386 91.4684 190.386 91.1923 190.441 90.9244C190.542 90.4846 190.734 90.0707 191.004 89.7092C191.274 89.3476 191.617 89.0463 192.01 88.8244C192.794 88.4097 193.657 88.1673 194.543 88.1134C194.901 88.0584 195.266 88.0507 195.627 88.0904"
        fill="#1A2E35" />
    <path
        d="M192.84 110.4C192.656 110.351 192.479 110.281 192.311 110.193C191.84 109.981 191.382 109.742 190.94 109.475C190.278 109.085 189.643 108.651 189.04 108.175C188.305 107.587 187.614 106.945 186.974 106.255C186.342 105.557 185.762 104.813 185.24 104.029C184.816 103.387 184.436 102.717 184.103 102.023C183.875 101.558 183.675 101.08 183.505 100.591C183.43 100.416 183.374 100.233 183.34 100.045C183.384 100.029 183.658 100.792 184.255 101.945C184.606 102.62 184.996 103.274 185.424 103.904C185.951 104.671 186.529 105.402 187.154 106.091C187.787 106.772 188.465 107.41 189.183 108.001C189.772 108.479 190.389 108.923 191.03 109.33C192.13 110.023 192.863 110.358 192.844 110.399"
        fill="#1A2E35" />
    <path
        d="M190.506 92.0855C190.275 91.6088 190.083 91.1142 189.932 90.6065C189.612 89.6805 189.194 88.3915 188.777 86.9545C188.36 85.5175 188.026 84.2035 187.812 83.2465C187.669 82.7355 187.571 82.2133 187.517 81.6855C187.703 82.1812 187.856 82.689 187.973 83.2055C188.232 84.1495 188.592 85.4525 189.012 86.8855L190.093 90.5545C190.267 91.0542 190.405 91.5659 190.506 92.0855"
        fill="#1A2E35" />
    <path
        d="M184.681 103.114C184.624 103.087 185.881 100.587 187.489 97.5452C189.097 94.5032 190.448 92.0562 190.506 92.0872C190.564 92.1182 189.309 94.6122 187.701 97.6572C186.093 100.702 184.741 103.145 184.681 103.114Z"
        fill="#1A2E35" />
    <path
        d="M180.81 160.163C180.744 160.157 181.096 155.703 181.596 150.215C182.096 144.727 182.555 140.282 182.622 140.288C182.689 140.294 182.336 144.747 181.836 150.236C181.336 155.725 180.876 160.169 180.81 160.163Z"
        fill="#1A2E35" />
    <path
        d="M185.107 161.974C184.696 160.56 184.362 159.125 184.107 157.674C183.774 156.237 183.52 154.783 183.346 153.318C183.756 154.733 184.09 156.168 184.346 157.618C184.678 159.054 184.933 160.507 185.109 161.97"
        fill="#1A2E35" />
    <path
        d="M181.484 150.45C181.481 150.517 177.436 150.414 172.456 150.221C167.476 150.028 163.436 149.817 163.436 149.75C163.436 149.683 167.48 149.787 172.465 149.98C177.45 150.173 181.486 150.38 181.484 150.451"
        fill="#FAFAFA" />
    <path
        d="M198.199 152.398C198.198 152.464 194.477 152.424 189.884 152.307C185.291 152.19 181.584 152.044 181.584 151.976C181.584 151.908 185.306 151.95 189.895 152.066C194.484 152.182 198.201 152.331 198.195 152.397"
        fill="#FAFAFA" />
    <path
        d="M181.868 145.596C181.868 145.663 177.801 145.527 172.792 145.296C167.783 145.065 163.727 144.817 163.727 144.751C163.727 144.685 167.793 144.82 172.803 145.051C177.813 145.282 181.871 145.527 181.868 145.594"
        fill="#FAFAFA" />
    <path
        d="M197.816 147.737C197.814 147.8 194.243 147.743 189.84 147.6C185.437 147.457 181.872 147.294 181.872 147.227C181.872 147.16 185.445 147.221 189.848 147.362C194.251 147.503 197.818 147.671 197.816 147.737"
        fill="#FAFAFA" />
    <path
        d="M31.9136 173.903C32.0411 173.356 32.286 172.843 32.6314 172.4C32.9767 171.958 33.4142 171.595 33.9136 171.339C35.0318 170.976 36.2455 171.047 37.3136 171.539C38.3715 172.029 39.4942 172.366 40.6476 172.539C41.2273 172.612 41.8153 172.497 42.3241 172.209C42.833 171.922 43.2354 171.478 43.4716 170.944C43.5703 170.403 43.5209 169.845 43.3287 169.331C43.1364 168.816 42.8085 168.362 42.3796 168.019C41.5403 167.227 40.5187 166.654 39.4053 166.352C38.2919 166.049 37.121 166.026 35.9966 166.285C34.8766 166.567 33.8436 167.121 32.9889 167.898C32.1343 168.675 31.4843 169.651 31.0966 170.739"
        fill="#FF4F5B" />
    <path
        d="M31.9136 173.903C32.0411 173.356 32.286 172.843 32.6314 172.4C32.9767 171.958 33.4142 171.595 33.9136 171.339C35.0318 170.976 36.2455 171.047 37.3136 171.539C38.3715 172.029 39.4942 172.366 40.6476 172.539C41.2273 172.612 41.8153 172.497 42.3241 172.209C42.833 171.922 43.2354 171.478 43.4716 170.944C43.5703 170.403 43.5209 169.845 43.3287 169.331C43.1364 168.816 42.8085 168.362 42.3796 168.019C41.5403 167.227 40.5187 166.654 39.4053 166.352C38.2919 166.049 37.121 166.026 35.9966 166.285C34.8766 166.567 33.8436 167.121 32.9889 167.898C32.1343 168.675 31.4843 169.651 31.0966 170.739"
        fill="#CCCCCC" />
    <path
        d="M20.1896 187.948C20.1799 187.86 20.1776 187.772 20.1826 187.684C20.1826 187.51 20.1826 187.254 20.1966 186.925C20.2226 186.265 20.2826 185.312 20.4326 184.141C20.6066 182.77 20.857 181.41 21.1826 180.067C21.5861 178.418 22.2114 176.831 23.0416 175.35C23.8753 173.869 24.8974 172.502 26.0826 171.284C27.0473 170.291 28.1157 169.404 29.2696 168.639C29.7556 168.303 30.2266 168.048 30.6316 167.811C31.0476 167.593 31.4096 167.411 31.7066 167.271L32.4066 166.977C32.4866 166.939 32.5696 166.908 32.6546 166.884C32.5793 166.931 32.5004 166.971 32.4186 167.006L31.7326 167.328C31.4406 167.48 31.0836 167.666 30.6746 167.89C30.2746 168.133 29.8116 168.39 29.3316 168.734C26.7959 170.465 24.6921 172.755 23.1826 175.429C21.7627 178.146 20.8681 181.108 20.5456 184.157C20.3826 185.321 20.3036 186.271 20.2596 186.927C20.241 187.244 20.226 187.496 20.2146 187.684C20.2134 187.772 20.205 187.861 20.1896 187.948"
        fill="#1A2E35" />
    <path
        d="M3.94659 159.862C0.385595 162.012 0.394595 163.968 0.994595 165.815C1.29225 166.739 1.93795 167.51 2.7947 167.965C3.65145 168.42 4.65183 168.524 5.58359 168.253C6.57994 167.779 7.41463 167.022 7.98359 166.076C8.54803 165.133 9.26316 164.288 10.1006 163.576C10.5261 163.229 11.0472 163.018 11.5949 162.973C12.1426 162.928 12.691 163.051 13.1676 163.324"
        fill="#FF4F5B" />
    <path
        d="M3.94659 159.862C0.385595 162.012 0.394595 163.968 0.994595 165.815C1.29225 166.739 1.93795 167.51 2.7947 167.965C3.65145 168.42 4.65183 168.524 5.58359 168.253C6.57994 167.779 7.41463 167.022 7.98359 166.076C8.54803 165.133 9.26316 164.288 10.1006 163.576C10.5261 163.229 11.0472 163.018 11.5949 162.973C12.1426 162.928 12.691 163.051 13.1676 163.324"
        fill="#CCCCCC" />
    <path
        d="M17.8336 184.827C17.8266 184.802 17.8233 184.776 17.8236 184.75C17.8236 184.69 17.8166 184.615 17.8116 184.523C17.8036 184.31 17.7933 184.019 17.7806 183.649C17.7576 182.877 17.7256 181.782 17.6806 180.435C17.6356 179.088 17.5806 177.463 17.4806 175.672C17.3806 173.881 17.2406 171.912 16.9606 169.863C16.8423 168.865 16.6416 167.878 16.3606 166.913C16.0718 166.019 15.7002 165.155 15.2506 164.331C14.8461 163.58 14.3777 162.865 13.8506 162.195C13.3838 161.611 12.8711 161.065 12.3176 160.563C11.5046 159.836 10.5905 159.23 9.60362 158.766C9.42662 158.688 9.27262 158.61 9.13362 158.556L8.77862 158.422L8.56162 158.337C8.53617 158.328 8.51195 158.317 8.48962 158.302C8.5164 158.305 8.54264 158.312 8.56762 158.322L8.78962 158.392L9.15162 158.512C9.29362 158.563 9.45162 158.636 9.63062 158.712C10.6359 159.158 11.5678 159.754 12.3946 160.48C12.9581 160.981 13.4799 161.528 13.9546 162.114C14.4929 162.787 14.971 163.506 15.3836 164.263C15.8416 165.092 16.2203 165.962 16.5146 166.863C16.8006 167.836 17.0047 168.831 17.1246 169.838C17.4056 171.895 17.5376 173.868 17.6326 175.661C17.7276 177.454 17.7706 179.071 17.7996 180.429C17.8286 181.787 17.8386 182.885 17.8426 183.644C17.8426 184.014 17.8426 184.306 17.8426 184.518C17.8426 184.61 17.8426 184.685 17.8426 184.745C17.8442 184.771 17.8418 184.797 17.8356 184.823"
        fill="#1A2E35" />
    <path
        d="M19.2096 186.387C19.0506 185.891 18.9283 185.383 18.8436 184.869C18.6117 183.459 18.5603 182.026 18.6906 180.604C18.8946 178.502 19.3217 176.428 19.9646 174.416C20.6506 172.142 21.5826 169.709 22.3776 167.095C22.7707 165.823 23.0912 164.53 23.3376 163.222C23.5589 161.997 23.7171 160.763 23.8116 159.522C23.9641 157.419 23.9998 155.309 23.9186 153.202C23.8606 151.402 23.7706 149.946 23.7186 148.94C23.6906 148.44 23.6696 148.056 23.6536 147.781C23.6436 147.659 23.6386 147.56 23.6356 147.48C23.6324 147.447 23.6324 147.413 23.6356 147.38C23.6437 147.413 23.6487 147.446 23.6506 147.48C23.6576 147.556 23.6666 147.655 23.6786 147.78L23.7716 148.937C23.8456 149.942 23.9526 151.397 24.0236 153.199C24.12 155.311 24.095 157.426 23.9486 159.535C23.8572 160.78 23.701 162.019 23.4806 163.248C23.2365 164.563 22.917 165.864 22.5236 167.143C21.7236 169.766 20.7906 172.195 20.0986 174.46C19.4522 176.46 19.0165 178.523 18.7986 180.614C18.6602 182.028 18.6955 183.453 18.9036 184.858C18.9856 185.358 19.0606 185.737 19.1266 185.992L19.1946 186.285C19.2039 186.318 19.2099 186.351 19.2126 186.385"
        fill="#1A2E35" />
    <path d="M27.9786 187.948H11.2116L10.8286 184.827H27.9786V187.948Z" fill="#DA2C2C" />
    <path d="M13.1666 187.947L15.2766 197.309H24.4446L26.4186 187.947H13.1666Z" fill="#DA2C2C" />
    <path
        d="M27.9776 187.97C27.9776 188.014 24.3126 188.039 19.7926 188.027C15.2726 188.015 11.6076 187.968 11.6076 187.924C11.6076 187.88 15.2716 187.855 19.7936 187.868C24.3156 187.881 27.9776 187.926 27.9776 187.968"
        fill="#375A64" />
    <path
        d="M104.695 23.8525H90.6946C87.3809 23.8525 84.6946 26.5388 84.6946 29.8525V42.8525C84.6946 46.1662 87.3809 48.8525 90.6946 48.8525H104.695C108.008 48.8525 110.695 46.1662 110.695 42.8525V29.8525C110.695 26.5388 108.008 23.8525 104.695 23.8525Z"
        fill="#8C3E79" />
    <path
        d="M103.195 42.8524H92.1946C92.062 42.8524 91.9348 42.7997 91.841 42.706C91.7473 42.6122 91.6946 42.485 91.6946 42.3524V37.3524C91.6946 37.2198 91.7473 37.0926 91.841 36.9989C91.9348 36.9051 92.062 36.8524 92.1946 36.8524H92.6946V41.8524H93.6946V35.3524C93.6946 35.2198 93.7473 35.0926 93.841 34.9989C93.9348 34.9051 94.062 34.8524 94.1946 34.8524H99.1946C99.3272 34.8524 99.4544 34.9051 99.5481 34.9989C99.6419 35.0926 99.6946 35.2198 99.6946 35.3524V41.8524H102.695V33.2244L98.6946 32.0244V33.8524H97.6946V31.3524C97.6946 31.2745 97.7128 31.1978 97.7478 31.1282C97.7827 31.0586 97.8334 30.9981 97.8959 30.9516C97.9583 30.905 98.0308 30.8738 98.1075 30.8602C98.1842 30.8466 98.263 30.8512 98.3376 30.8734L103.338 32.3734C103.441 32.4042 103.531 32.4674 103.595 32.5537C103.66 32.64 103.695 32.7448 103.695 32.8524V42.3524C103.695 42.485 103.642 42.6122 103.548 42.706C103.454 42.7997 103.327 42.8524 103.195 42.8524ZM95.6946 40.3524V41.3524H97.6946V40.3524H95.6946ZM95.6946 38.3524V39.3524H97.6946V38.3524H95.6946ZM95.6946 36.3524V37.3524H97.6946V36.3524H95.6946Z"
        fill="white" />
    <path d="M102.088 35.0137H101.049V41.2547H102.088V35.0137Z" fill="white" />
    <path
        d="M71.6946 83.8525C73.3514 83.8525 74.6946 82.5094 74.6946 80.8525C74.6946 79.1957 73.3514 77.8525 71.6946 77.8525C70.0377 77.8525 68.6946 79.1957 68.6946 80.8525C68.6946 82.5094 70.0377 83.8525 71.6946 83.8525Z"
        fill="white" />
    <path
        d="M81.6946 83.8525C83.3514 83.8525 84.6946 82.5094 84.6946 80.8525C84.6946 79.1957 83.3514 77.8525 81.6946 77.8525C80.0377 77.8525 78.6946 79.1957 78.6946 80.8525C78.6946 82.5094 80.0377 83.8525 81.6946 83.8525Z"
        fill="white" />
    <path
        d="M91.6946 83.8525C93.3514 83.8525 94.6946 82.5094 94.6946 80.8525C94.6946 79.1957 93.3514 77.8525 91.6946 77.8525C90.0377 77.8525 88.6946 79.1957 88.6946 80.8525C88.6946 82.5094 90.0377 83.8525 91.6946 83.8525Z"
        fill="white" />
    <path
        d="M101.695 83.8525C103.351 83.8525 104.695 82.5094 104.695 80.8525C104.695 79.1957 103.351 77.8525 101.695 77.8525C100.038 77.8525 98.6946 79.1957 98.6946 80.8525C98.6946 82.5094 100.038 83.8525 101.695 83.8525Z"
        fill="white" />
    <path
        d="M112.195 83.8525C114.128 83.8525 115.695 82.5094 115.695 80.8525C115.695 79.1957 114.128 77.8525 112.195 77.8525C110.262 77.8525 108.695 79.1957 108.695 80.8525C108.695 82.5094 110.262 83.8525 112.195 83.8525Z"
        fill="white" />
    <path
        d="M86.9 106.305C87.18 106.305 87.4267 106.272 87.64 106.205C87.8567 106.135 88.0367 106.038 88.18 105.915C88.3267 105.788 88.4367 105.638 88.51 105.465C88.5833 105.292 88.62 105.1 88.62 104.89C88.62 104.463 88.48 104.142 88.2 103.925C87.92 103.708 87.5 103.6 86.94 103.6H85.88V106.305H86.9ZM90.21 110H89.35C89.1733 110 89.0433 109.932 88.96 109.795L87.1 107.235C87.0433 107.155 86.9817 107.098 86.915 107.065C86.8517 107.028 86.7517 107.01 86.615 107.01H85.88V110H84.915V102.835H86.94C87.3933 102.835 87.785 102.882 88.115 102.975C88.445 103.065 88.7167 103.197 88.93 103.37C89.1467 103.543 89.3067 103.753 89.41 104C89.5133 104.243 89.565 104.517 89.565 104.82C89.565 105.073 89.525 105.31 89.445 105.53C89.365 105.75 89.2483 105.948 89.095 106.125C88.945 106.298 88.76 106.447 88.54 106.57C88.3233 106.693 88.0767 106.787 87.8 106.85C87.9233 106.92 88.03 107.022 88.12 107.155L90.21 110ZM94.0423 106.915C94.0423 106.708 94.0123 106.52 93.9523 106.35C93.8956 106.177 93.8106 106.028 93.6973 105.905C93.5873 105.778 93.4523 105.682 93.2923 105.615C93.1323 105.545 92.9506 105.51 92.7473 105.51C92.3206 105.51 91.9823 105.635 91.7323 105.885C91.4856 106.132 91.3323 106.475 91.2723 106.915H94.0423ZM94.7623 109.29C94.6523 109.423 94.5206 109.54 94.3673 109.64C94.2139 109.737 94.0489 109.817 93.8723 109.88C93.6989 109.943 93.5189 109.99 93.3323 110.02C93.1456 110.053 92.9606 110.07 92.7773 110.07C92.4273 110.07 92.1039 110.012 91.8073 109.895C91.5139 109.775 91.2589 109.602 91.0423 109.375C90.8289 109.145 90.6623 108.862 90.5423 108.525C90.4223 108.188 90.3623 107.802 90.3623 107.365C90.3623 107.012 90.4156 106.682 90.5223 106.375C90.6323 106.068 90.7889 105.803 90.9923 105.58C91.1956 105.353 91.4439 105.177 91.7373 105.05C92.0306 104.92 92.3606 104.855 92.7273 104.855C93.0306 104.855 93.3106 104.907 93.5673 105.01C93.8273 105.11 94.0506 105.257 94.2373 105.45C94.4273 105.64 94.5756 105.877 94.6823 106.16C94.7889 106.44 94.8423 106.76 94.8423 107.12C94.8423 107.26 94.8273 107.353 94.7973 107.4C94.7673 107.447 94.7106 107.47 94.6273 107.47H91.2423C91.2523 107.79 91.2956 108.068 91.3723 108.305C91.4523 108.542 91.5623 108.74 91.7023 108.9C91.8423 109.057 92.0089 109.175 92.2023 109.255C92.3956 109.332 92.6123 109.37 92.8523 109.37C93.0756 109.37 93.2673 109.345 93.4273 109.295C93.5906 109.242 93.7306 109.185 93.8473 109.125C93.9639 109.065 94.0606 109.01 94.1373 108.96C94.2173 108.907 94.2856 108.88 94.3423 108.88C94.4156 108.88 94.4723 108.908 94.5123 108.965L94.7623 109.29ZM98.8855 105.77C98.8455 105.843 98.7838 105.88 98.7005 105.88C98.6505 105.88 98.5938 105.862 98.5305 105.825C98.4671 105.788 98.3888 105.748 98.2955 105.705C98.2055 105.658 98.0971 105.617 97.9705 105.58C97.8438 105.54 97.6938 105.52 97.5205 105.52C97.3705 105.52 97.2355 105.54 97.1155 105.58C96.9955 105.617 96.8921 105.668 96.8055 105.735C96.7221 105.802 96.6571 105.88 96.6105 105.97C96.5671 106.057 96.5455 106.152 96.5455 106.255C96.5455 106.385 96.5821 106.493 96.6555 106.58C96.7321 106.667 96.8321 106.742 96.9555 106.805C97.0788 106.868 97.2188 106.925 97.3755 106.975C97.5321 107.022 97.6921 107.073 97.8555 107.13C98.0221 107.183 98.1838 107.243 98.3405 107.31C98.4971 107.377 98.6371 107.46 98.7605 107.56C98.8838 107.66 98.9821 107.783 99.0555 107.93C99.1321 108.073 99.1705 108.247 99.1705 108.45C99.1705 108.683 99.1288 108.9 99.0455 109.1C98.9621 109.297 98.8388 109.468 98.6755 109.615C98.5121 109.758 98.3121 109.872 98.0755 109.955C97.8388 110.038 97.5655 110.08 97.2555 110.08C96.9021 110.08 96.5821 110.023 96.2955 109.91C96.0088 109.793 95.7655 109.645 95.5655 109.465L95.7755 109.125C95.8021 109.082 95.8338 109.048 95.8705 109.025C95.9071 109.002 95.9538 108.99 96.0105 108.99C96.0705 108.99 96.1338 109.013 96.2005 109.06C96.2671 109.107 96.3471 109.158 96.4405 109.215C96.5371 109.272 96.6538 109.323 96.7905 109.37C96.9271 109.417 97.0971 109.44 97.3005 109.44C97.4738 109.44 97.6255 109.418 97.7555 109.375C97.8855 109.328 97.9938 109.267 98.0805 109.19C98.1671 109.113 98.2305 109.025 98.2705 108.925C98.3138 108.825 98.3355 108.718 98.3355 108.605C98.3355 108.465 98.2971 108.35 98.2205 108.26C98.1471 108.167 98.0488 108.088 97.9255 108.025C97.8021 107.958 97.6605 107.902 97.5005 107.855C97.3438 107.805 97.1821 107.753 97.0155 107.7C96.8521 107.647 96.6905 107.587 96.5305 107.52C96.3738 107.45 96.2338 107.363 96.1105 107.26C95.9871 107.157 95.8871 107.03 95.8105 106.88C95.7371 106.727 95.7005 106.542 95.7005 106.325C95.7005 106.132 95.7405 105.947 95.8205 105.77C95.9005 105.59 96.0171 105.433 96.1705 105.3C96.3238 105.163 96.5121 105.055 96.7355 104.975C96.9588 104.895 97.2138 104.855 97.5005 104.855C97.8338 104.855 98.1321 104.908 98.3955 105.015C98.6621 105.118 98.8921 105.262 99.0855 105.445L98.8855 105.77ZM103.652 106.915C103.652 106.708 103.622 106.52 103.562 106.35C103.505 106.177 103.42 106.028 103.307 105.905C103.197 105.778 103.062 105.682 102.902 105.615C102.742 105.545 102.56 105.51 102.357 105.51C101.93 105.51 101.592 105.635 101.342 105.885C101.095 106.132 100.942 106.475 100.882 106.915H103.652ZM104.372 109.29C104.262 109.423 104.13 109.54 103.977 109.64C103.823 109.737 103.658 109.817 103.482 109.88C103.308 109.943 103.128 109.99 102.942 110.02C102.755 110.053 102.57 110.07 102.387 110.07C102.037 110.07 101.713 110.012 101.417 109.895C101.123 109.775 100.868 109.602 100.652 109.375C100.438 109.145 100.272 108.862 100.152 108.525C100.032 108.188 99.9716 107.802 99.9716 107.365C99.9716 107.012 100.025 106.682 100.132 106.375C100.242 106.068 100.398 105.803 100.602 105.58C100.805 105.353 101.053 105.177 101.347 105.05C101.64 104.92 101.97 104.855 102.337 104.855C102.64 104.855 102.92 104.907 103.177 105.01C103.437 105.11 103.66 105.257 103.847 105.45C104.037 105.64 104.185 105.877 104.292 106.16C104.398 106.44 104.452 106.76 104.452 107.12C104.452 107.26 104.437 107.353 104.407 107.4C104.377 107.447 104.32 107.47 104.237 107.47H100.852C100.862 107.79 100.905 108.068 100.982 108.305C101.062 108.542 101.172 108.74 101.312 108.9C101.452 109.057 101.618 109.175 101.812 109.255C102.005 109.332 102.222 109.37 102.462 109.37C102.685 109.37 102.877 109.345 103.037 109.295C103.2 109.242 103.34 109.185 103.457 109.125C103.573 109.065 103.67 109.01 103.747 108.96C103.827 108.907 103.895 108.88 103.952 108.88C104.025 108.88 104.082 108.908 104.122 108.965L104.372 109.29ZM107.061 110.08C106.661 110.08 106.352 109.968 106.136 109.745C105.922 109.522 105.816 109.2 105.816 108.78V105.68H105.206C105.152 105.68 105.107 105.665 105.071 105.635C105.034 105.602 105.016 105.552 105.016 105.485V105.13L105.846 105.025L106.051 103.46C106.061 103.41 106.082 103.37 106.116 103.34C106.152 103.307 106.199 103.29 106.256 103.29H106.706V105.035H108.171V105.68H106.706V108.72C106.706 108.933 106.757 109.092 106.861 109.195C106.964 109.298 107.097 109.35 107.261 109.35C107.354 109.35 107.434 109.338 107.501 109.315C107.571 109.288 107.631 109.26 107.681 109.23C107.731 109.2 107.772 109.173 107.806 109.15C107.842 109.123 107.874 109.11 107.901 109.11C107.947 109.11 107.989 109.138 108.026 109.195L108.286 109.62C108.132 109.763 107.947 109.877 107.731 109.96C107.514 110.04 107.291 110.08 107.061 110.08Z"
        fill="white" />
</svg>