<svg width="24" height="24" viewBox="0 0 24 24" fill="none" xmlns="http://www.w3.org/2000/svg">
<path d="M21.7464 11.6836L17.9859 10.5922C17.8291 9.97382 17.584 9.38115 17.2582 8.83232C17.8839 7.68872 18.5105 6.54512 19.137 5.40183C19.3083 5.089 18.9667 4.74664 18.6525 4.91876L15.2273 6.79513C14.6719 6.4612 14.0699 6.2112 13.441 6.05325C13.0686 4.78747 12.6964 3.52169 12.3239 2.25276C12.2253 1.91637 11.7404 1.91512 11.6412 2.25276C11.2719 3.52169 10.9016 4.78747 10.5316 6.0564C9.91449 6.21373 9.32321 6.45871 8.77593 6.78383C7.62161 6.15565 6.46698 5.52433 5.31267 4.89615C4.99969 4.7256 4.65617 5.0667 4.82872 5.38016L6.72738 8.82824C6.39875 9.37959 6.15225 9.97569 5.99562 10.5978L2.25339 11.6921C1.91648 11.7907 1.91459 12.2751 2.25339 12.3731L5.99688 13.4595C6.15797 14.0928 6.41142 14.6991 6.74911 15.2589C6.1263 16.3953 5.50348 17.5314 4.8813 18.6681C4.70938 18.9809 5.05101 19.3236 5.36525 19.1518C6.50288 18.5283 7.64082 17.9048 8.77876 17.282C9.33153 17.6107 9.92934 17.8575 10.5534 18.0144C10.9183 19.2595 11.2845 20.5033 11.6501 21.7468C11.7492 22.0841 12.2345 22.0847 12.3327 21.7468C12.6951 20.5045 13.0585 19.262 13.4203 18.0195C14.0512 17.862 14.6556 17.613 15.2141 17.2804L18.6065 19.1298C18.6385 19.1564 18.6757 19.176 18.7158 19.1874C18.7559 19.1988 18.7979 19.2018 18.8392 19.196C18.9248 19.191 19.001 19.1518 19.0602 19.094C19.1257 19.0337 19.1704 18.9523 19.1758 18.86C19.1812 18.8184 19.1778 18.7763 19.166 18.7361C19.1542 18.6959 19.1342 18.6586 19.1071 18.6266C18.4881 17.5012 17.8675 16.3749 17.2481 15.2489C17.5786 14.6929 17.8266 14.0921 17.9843 13.4652C19.2375 13.0983 20.4926 12.7314 21.7461 12.3652C22.0839 12.2666 22.0852 11.7819 21.7467 11.6836" fill="#FBB041"/>
<path d="M12 18C15.3137 18 18 15.3137 18 12C18 8.68629 15.3137 6 12 6C8.68629 6 6 8.68629 6 12C6 15.3137 8.68629 18 12 18Z" fill="#F9EC21"/>
</svg>
