<svg width="31" height="26" viewBox="0 0 31 26" fill="none" xmlns="http://www.w3.org/2000/svg">
<path d="M2.97217 19.6563C3.08041 19.3356 3.15657 18.9988 3.3049 18.6982C4.01045 17.275 5.73424 16.6938 7.16539 17.3873C7.32975 17.4675 7.40993 17.4514 7.51816 17.2991C8.0353 16.5775 8.56046 15.8599 9.08962 15.1383C8.57248 14.6212 8.24777 14.0199 8.18764 13.3023C8.09543 12.1879 8.4883 11.2739 9.38627 10.6164C10.2802 9.96297 11.2624 9.86676 12.2806 10.2997C13.1345 10.6605 13.6837 11.3059 13.9443 12.1999C13.9643 12.2761 14.0525 12.3843 14.1127 12.3843C14.73 12.3963 15.3514 12.3923 15.9888 12.3923C16.1331 11.2578 16.6703 10.3959 17.7166 9.91887C18.7549 9.44182 19.7491 9.60618 20.6991 10.2516C21.4007 9.46988 22.0982 8.69618 22.8078 7.90645C22.1824 7.10068 21.9058 6.21473 22.1704 5.20451C22.3548 4.49895 22.7517 3.93371 23.353 3.51679C24.5356 2.69098 26.1551 2.86336 27.1694 3.92569C28.2157 5.01208 28.3119 6.56349 27.4099 7.74209C26.5881 8.81645 24.9044 9.33359 23.3891 8.35944C23.0403 8.7483 22.6835 9.13715 22.3307 9.53002C21.978 9.92288 21.6212 10.3198 21.2965 10.6805C21.4728 11.0854 21.6813 11.4502 21.7936 11.8431C22.1543 13.0698 21.6332 14.4007 20.5588 15.0822C19.4524 15.7838 18.0373 15.6916 17.0551 14.8377C16.5981 14.4368 16.2614 13.9477 16.1291 13.3464C16.081 13.1299 15.9888 13.0658 15.7683 13.0738C15.2151 13.0939 14.6619 13.0818 14.0886 13.0818C13.9884 14.1722 13.5033 15.0221 12.5452 15.5513C11.5951 16.0804 10.625 16.0403 9.63883 15.5392C9.07759 16.3089 8.51235 17.0826 7.95513 17.8403C8.16358 18.149 8.4001 18.4256 8.55244 18.7423C9.09363 19.8607 8.98539 20.9431 8.20367 21.9012C7.41394 22.8714 6.35962 23.2001 5.15296 22.8834C3.97437 22.5707 3.27684 21.7649 3.01226 20.5783C3.00825 20.5142 2.9882 20.45 2.97217 20.3899C2.97217 20.1454 2.97217 19.9008 2.97217 19.6563ZM8.83706 12.9335C8.809 14.1762 9.79918 15.2225 11.07 15.2306C12.3408 15.2426 13.3309 14.2243 13.355 13.0017C13.3791 11.7629 12.3768 10.7287 11.1181 10.7006C9.8994 10.6765 8.86513 11.6868 8.83706 12.9335ZM25.0367 8.19508C26.3596 8.15098 27.2816 7.14477 27.2896 5.90204C27.2977 4.66332 26.2353 3.64107 25.0166 3.6571C23.7779 3.67314 22.7637 4.69138 22.7597 5.92208C22.7517 7.1568 23.806 8.2031 25.0367 8.19508ZM21.1962 12.5767C21.2043 11.346 20.198 10.3278 18.9513 10.3077C17.7166 10.2877 16.6783 11.322 16.6743 12.5727C16.6703 13.8194 17.7086 14.8577 18.9433 14.8457C20.17 14.8337 21.1882 13.8114 21.1962 12.5767ZM5.75829 17.7361C4.47547 17.7882 3.5334 18.9026 3.61759 20.1133C3.70578 21.4001 4.78816 22.3342 6.0349 22.246C7.25759 22.1578 8.26781 21.0594 8.11949 19.6964C8.00323 18.602 6.88878 17.6479 5.75829 17.7361Z" fill="white"/>
<path d="M11.1024 11.3701C11.9643 11.3741 12.71 12.1237 12.706 12.9856C12.706 13.8515 11.9643 14.5811 11.0864 14.5731C10.2085 14.5651 9.47886 13.8315 9.48688 12.9656C9.49891 12.0836 10.2245 11.3661 11.1024 11.3701ZM11.1064 13.8876C11.6075 13.8836 12.0285 13.4587 12.0245 12.9656C12.0205 12.4685 11.5955 12.0516 11.0944 12.0556C10.5933 12.0596 10.1724 12.4845 10.1764 12.9776C10.1804 13.4747 10.6053 13.8876 11.1064 13.8876Z" fill="white"/>
<path d="M23.4253 5.95016C23.4253 5.07223 24.1509 4.34262 25.0248 4.34262C25.8867 4.34262 26.6243 5.08425 26.6283 5.95817C26.6323 6.82809 25.8947 7.56571 25.0248 7.5617C24.1469 7.55769 23.4253 6.8321 23.4253 5.95016ZM25.0368 5.00808C24.5317 5.00408 24.1188 5.41297 24.1148 5.91809C24.1108 6.4232 24.5157 6.8361 25.0208 6.84412C25.5219 6.84813 25.9348 6.44324 25.9468 5.93412C25.9549 5.43302 25.5379 5.01209 25.0368 5.00808Z" fill="white"/>
<path d="M20.5428 12.6048C20.5508 13.4627 19.7972 14.2123 18.9313 14.2083C18.0614 14.2043 17.3237 13.4667 17.3237 12.6008C17.3277 11.7309 18.0614 10.9933 18.9313 10.9933C19.7932 10.9933 20.5348 11.7349 20.5428 12.6048ZM18.9313 13.4907C19.4324 13.4948 19.8453 13.0818 19.8573 12.5767C19.8693 12.0917 19.4364 11.6587 18.9353 11.6587C18.4382 11.6587 18.0092 12.0756 18.0092 12.5727C18.0052 13.0658 18.4302 13.4907 18.9313 13.4907Z" fill="white"/>
<path d="M5.87062 21.6166C4.99669 21.6166 4.26709 20.887 4.26709 20.0131C4.26709 19.1392 4.98868 18.4136 5.86661 18.4056C6.76057 18.3975 7.48216 19.1231 7.47815 20.0171C7.47414 20.903 6.75256 21.6206 5.87062 21.6166ZM6.79264 19.993C6.79264 19.4919 6.37974 19.071 5.88264 19.067C5.37753 19.063 4.94458 19.496 4.9526 20.0011C4.96061 20.4982 5.38956 20.9151 5.88264 20.9151C6.39577 20.9111 6.79264 20.5062 6.79264 19.993Z" fill="white"/>
</svg>
