<svg width="24" height="24" viewBox="0 0 24 24" fill="none" xmlns="http://www.w3.org/2000/svg">
<g clip-path="url(#clip0_129_333)">
<path d="M13.2188 10.8191C11.5594 10.0342 9.85317 10.071 8.10042 11.0104C6.42604 11.9085 5.69029 13.3732 6.05667 15.3034C5.37867 15.7099 4.74492 15.9949 4.22367 16.422C3.36679 17.1229 3.12454 18.174 3.45904 19.1182C3.62592 19.5926 3.86742 19.8431 4.42279 19.8416C8.25154 19.8292 12.0803 19.8292 15.9079 19.8247C10.206 15.0754 11.7792 12.1429 13.2188 10.821" fill="#BBBBBC"/>
<path d="M16.821 10.4831L13.6414 9.55762C13.5089 9.03325 13.3015 8.53072 13.0256 8.06549L14.6145 5.15699C14.76 4.89187 14.4705 4.60162 14.2046 4.74787C13.239 5.27791 12.2735 5.80816 11.3081 6.33862C10.8383 6.05524 10.329 5.84318 9.79689 5.70937C9.48151 4.63574 9.16689 3.56137 8.85189 2.48812C8.76789 2.20274 8.35839 2.20199 8.27477 2.48812C7.96239 3.56249 7.64889 4.63762 7.33614 5.71237C6.81416 5.84547 6.31413 6.05324 5.85152 6.32924C4.87502 5.79562 3.89852 5.26199 2.92314 4.72799C2.65802 4.58399 2.36702 4.87274 2.51364 5.13862C3.04877 6.11324 3.58352 7.08749 4.11939 8.06174C3.84134 8.52906 3.63278 9.03435 3.50027 9.56174C2.44539 9.87074 1.38939 10.1797 0.335266 10.4895C0.0506412 10.5731 0.0487662 10.9834 0.335266 11.0666C1.39089 11.3737 2.44539 11.6809 3.50177 11.9876C3.63746 12.5245 3.85151 13.0386 4.13702 13.5131C3.61014 14.4761 3.08402 15.4402 2.55789 16.4036C2.41202 16.6687 2.70114 16.959 2.96664 16.8135L5.85339 15.2291C6.32079 15.5073 6.82604 15.7162 7.35339 15.8494C7.66126 16.9057 7.97177 17.9595 8.28039 19.0136C8.36439 19.2997 8.77502 19.3012 8.85752 19.0136C9.16427 17.9602 9.47177 16.9076 9.77814 15.8539C10.3112 15.7209 10.8217 15.5098 11.2931 15.2276C12.2494 15.7496 13.2064 16.272 14.163 16.7951C14.1898 16.8178 14.2211 16.8346 14.2548 16.8443C14.2886 16.854 14.324 16.8564 14.3588 16.8514C14.4295 16.8461 14.4959 16.8154 14.5459 16.7651C14.603 16.7142 14.6383 16.6431 14.6441 16.5667C14.6489 16.5315 14.6462 16.4957 14.6361 16.4616C14.6261 16.4274 14.609 16.3958 14.586 16.3687C14.0618 15.4147 13.5375 14.46 13.0136 13.5045C13.2931 13.0335 13.5028 12.5244 13.6361 11.9932L16.8176 11.061C17.103 10.9774 17.1041 10.5667 16.8176 10.4831" fill="#FBB041"/>
<path d="M8.52384 15.519C11.1566 15.519 13.2908 13.3847 13.2908 10.752C13.2908 8.11924 11.1566 5.98499 8.52384 5.98499C5.89109 5.98499 3.75684 8.11924 3.75684 10.752C3.75684 13.3847 5.89109 15.519 8.52384 15.519Z" fill="#F9EC21"/>
<path d="M6.05619 15.3049C5.68982 13.3747 6.42557 11.9074 8.09994 11.0111C10.3387 9.81112 12.5039 10.0785 14.5908 11.6587C15.7154 10.3894 17.0789 9.83099 18.6817 10.6672C20.0681 11.3891 20.4978 12.6622 20.3126 14.2219C20.6651 14.2545 20.9846 14.2691 21.3003 14.3175C23.5578 14.6599 24.7919 17.4191 23.5282 19.3594C23.3703 19.6016 22.9653 19.8097 22.6766 19.8105C16.5922 19.836 10.5078 19.8229 4.42269 19.8424C3.86732 19.8439 3.62619 19.5941 3.45894 19.119C3.12407 18.174 3.36819 17.1236 4.22357 16.4227C4.74444 15.9952 5.37894 15.7106 6.05619 15.3049Z" fill="#D0D2D3"/>
</g>
<defs>
<clipPath id="clip0_129_333">
<rect width="24" height="24" fill="white"/>
</clipPath>
</defs>
</svg>
