<svg width="24" height="24" viewBox="0 0 24 24" fill="none" xmlns="http://www.w3.org/2000/svg">
<path d="M23.5451 14.4799C23.4253 14.9432 23.1058 15.2626 22.7784 15.5901C20.4462 17.9143 18.122 20.2385 15.8058 22.5626C15.6141 22.7543 15.4065 22.8581 15.1509 22.9141C14.1526 23.1057 13.1542 23.3054 12.1479 23.5051C12.1159 23.5131 12.076 23.529 12.044 23.545C11.9562 23.545 11.8603 23.545 11.7725 23.545C11.429 23.3453 11.3731 23.2335 11.453 22.8262C11.6607 21.756 11.8763 20.6937 12.0919 19.6315C12.1159 19.5037 12.1878 19.3759 12.2756 19.288C14.7436 16.8121 17.2195 14.3362 19.6954 11.8602C20.2865 11.2692 21.149 11.2692 21.756 11.8523C22.2113 12.2995 22.6825 12.7388 23.1058 13.21C23.2975 13.4257 23.3933 13.7212 23.5371 13.9847C23.5451 14.1445 23.5451 14.3122 23.5451 14.4799ZM12.5232 22.4269C12.5951 22.4269 12.6271 22.4269 12.659 22.4189C13.4337 22.2671 14.2085 22.1154 14.9752 21.9556C15.0471 21.9397 15.119 21.8758 15.1749 21.8199C17.5709 19.4238 19.967 17.0277 22.363 14.6317C22.6586 14.3362 22.6586 14.0886 22.363 13.801C21.9637 13.3937 21.5564 12.9944 21.149 12.587C20.8535 12.2995 20.6059 12.2995 20.3184 12.595C17.9303 14.9831 15.5343 17.3712 13.1542 19.7672C13.0743 19.8471 13.0184 19.9669 12.9945 20.0707C12.8986 20.486 12.8187 20.9094 12.7309 21.3247C12.659 21.6921 12.5951 22.0435 12.5232 22.4269Z" fill="white"/>
<path d="M4.29676 4.28078C3.68177 4.30474 3.09074 4.27279 2.5077 4.36064C1.88473 4.45649 1.46941 5.02355 1.42149 5.68646C1.4135 5.74237 1.4135 5.80627 1.4135 5.86217C1.4135 9.95144 1.4135 14.0407 1.4135 18.13C1.4135 18.8887 1.79687 19.4478 2.46777 19.6315C2.64348 19.6794 2.83516 19.6954 3.02685 19.6954C5.1833 19.7034 7.33975 19.6954 9.4962 19.6954C9.85561 19.6954 10.0473 19.8472 10.0713 20.1267C10.0872 20.3903 9.91152 20.6139 9.64795 20.6458C9.60003 20.6538 9.54412 20.6538 9.48821 20.6538C7.29183 20.6538 5.09544 20.6538 2.90704 20.6538C1.74895 20.6538 0.8065 19.919 0.534947 18.8169C0.479039 18.6092 0.455078 18.3856 0.455078 18.1699C0.455078 14.0567 0.455078 9.93547 0.455078 5.81425C0.455078 4.38461 1.50136 3.34631 2.931 3.33833C3.37827 3.33833 3.82553 3.33833 4.29676 3.33833C4.29676 3.18658 4.29676 3.06677 4.29676 2.93898C4.30474 2.5636 4.48045 2.38789 4.84785 2.3799C5.31109 2.3799 5.78231 2.3799 6.25354 2.3799C6.28548 2.31601 6.30146 2.2601 6.31743 2.20419C6.62093 1.17389 7.54741 0.463059 8.60167 0.455072C9.67191 0.447086 10.6064 1.11798 10.9179 2.15627C10.9738 2.35594 11.0696 2.39588 11.2453 2.38789C11.6287 2.3799 12.0121 2.3799 12.3954 2.38789C12.7788 2.38789 12.9465 2.55562 12.9545 2.93898C12.9545 3.06677 12.9545 3.19456 12.9545 3.34631C13.3938 3.34631 13.8091 3.33833 14.2244 3.34631C14.472 3.3543 14.7196 3.36229 14.9592 3.4182C16.0534 3.68176 16.7882 4.60025 16.8042 5.76633C16.8201 7.65922 16.8122 9.5521 16.8042 11.445C16.8042 11.7884 16.6045 12.0041 16.317 12.0041C16.0294 12.0041 15.8378 11.7884 15.8378 11.437C15.8378 9.56808 15.8378 7.69116 15.8378 5.82224C15.8378 5.09544 15.4384 4.55233 14.7915 4.36863C14.6877 4.33668 14.5838 4.31272 14.48 4.31272C13.9848 4.30474 13.4896 4.31272 12.9545 4.31272C12.9545 4.44051 12.9545 4.5683 12.9545 4.68811C12.9465 5.63854 12.3555 6.22957 11.4051 6.22957C9.56009 6.22957 7.70714 6.22957 5.86218 6.22957C4.90376 6.22957 4.30474 5.62257 4.30474 4.66415C4.29676 4.55233 4.29676 4.44051 4.29676 4.28078ZM11.9961 3.33833C11.5169 3.33833 11.0696 3.33833 10.6144 3.33833C10.2789 3.33833 10.1032 3.1706 10.0713 2.83516C10.0633 2.73931 10.0633 2.64347 10.0393 2.54763C9.87957 1.86076 9.25659 1.38155 8.57771 1.4135C7.84292 1.45343 7.28384 1.98855 7.19598 2.73931C7.13209 3.2345 7.02027 3.33833 6.5171 3.33833C6.10977 3.33833 5.69446 3.33833 5.27115 3.33833C5.27115 3.7776 5.27115 4.18493 5.27115 4.60025C5.27115 5.1194 5.41492 5.26316 5.94205 5.26316C7.73909 5.26316 9.52815 5.26316 11.3252 5.26316C11.421 5.26316 11.5249 5.26316 11.6127 5.2392C11.8363 5.19128 11.9801 5.03953 11.9881 4.8159C12.0041 4.33668 11.9961 3.84949 11.9961 3.33833Z" fill="white"/>
<path d="M8.64174 8.15434C10.1752 8.15434 11.7087 8.15434 13.2422 8.15434C13.322 8.15434 13.4099 8.15434 13.4898 8.16233C13.7373 8.18629 13.921 8.38596 13.929 8.62557C13.937 8.85719 13.7613 9.06484 13.5297 9.10478C13.4658 9.11276 13.3939 9.11277 13.33 9.11277C10.2072 9.11277 7.07631 9.11277 3.95345 9.11277C3.85761 9.11277 3.75378 9.10478 3.66592 9.08082C3.45827 9.00894 3.33048 8.80128 3.35444 8.58563C3.3784 8.362 3.55411 8.18629 3.78573 8.16233C3.8656 8.15434 3.95345 8.15434 4.03332 8.15434C5.55881 8.15434 7.10027 8.15434 8.64174 8.15434Z" fill="white"/>
<path d="M8.64157 11.0376C10.175 11.0376 11.7085 11.0376 13.242 11.0376C13.3139 11.0376 13.3938 11.0376 13.4656 11.0376C13.7292 11.0536 13.9209 11.2532 13.9209 11.5008C13.9289 11.7484 13.7372 11.9561 13.4816 11.988C13.4257 11.996 13.3618 11.988 13.2979 11.988C10.191 11.988 7.07615 11.988 3.96926 11.988C3.86543 11.988 3.75362 11.98 3.65777 11.9481C3.44213 11.8762 3.32232 11.6686 3.34629 11.4529C3.37025 11.2293 3.54596 11.0536 3.77758 11.0296C3.85744 11.0216 3.9453 11.0216 4.02517 11.0216C5.55864 11.0376 7.10011 11.0376 8.64157 11.0376Z" fill="white"/>
<path d="M8.64157 13.9288C10.175 13.9288 11.7085 13.9288 13.242 13.9288C13.3139 13.9288 13.3938 13.9288 13.4656 13.9288C13.7292 13.9448 13.9209 14.1445 13.9209 14.3921C13.9289 14.6397 13.7372 14.8473 13.4816 14.8793C13.4257 14.8873 13.3618 14.8793 13.2979 14.8793C10.191 14.8793 7.07615 14.8793 3.96926 14.8793C3.86543 14.8793 3.75362 14.8713 3.65777 14.8393C3.44213 14.7675 3.32232 14.5598 3.34629 14.3441C3.37025 14.1205 3.54596 13.9448 3.77758 13.9208C3.85744 13.9129 3.9453 13.9129 4.02517 13.9129C5.55864 13.9288 7.10011 13.9288 8.64157 13.9288Z" fill="white"/>
</svg>
