<svg width="312" height="303" viewBox="0 0 312 303" fill="none" xmlns="http://www.w3.org/2000/svg">
<path d="M126.659 237.668C130.236 266.574 169.096 271.087 228.392 240.122C287.689 209.156 340.768 153.303 276.887 142.75C213.006 132.196 123.081 208.762 126.659 237.668Z" fill="#553791"/>
<path d="M177.507 251.685C198.439 231.432 178.658 197.681 118.241 168.96C57.8253 140.239 -18.7239 131.461 11.2921 188.83C41.308 246.199 156.574 271.938 177.507 251.685Z" fill="#553791"/>
<path d="M214.962 188.91C220.93 199.387 248.362 177.843 239.872 164.242C231.382 150.641 208.746 177.997 214.962 188.91Z" fill="#553791"/>
<g style="mix-blend-mode:multiply">
<path d="M214.962 188.91C220.93 199.387 248.362 177.843 239.872 164.242C231.382 150.641 208.746 177.997 214.962 188.91Z" fill="#553791"/>
</g>
<path d="M96.0371 188.91C90.0691 199.387 62.6371 177.843 71.1271 164.242C79.6171 150.641 102.253 177.997 96.0371 188.91Z" fill="#553791"/>
<g style="mix-blend-mode:multiply">
<path d="M96.0371 188.91C90.0691 199.387 62.6371 177.843 71.1271 164.242C79.6171 150.641 102.253 177.997 96.0371 188.91Z" fill="#553791"/>
</g>
<path d="M238.168 165.346C238.168 165.346 227.735 150.51 220.308 138.115C212.881 125.72 195.73 124.144 182.968 122.701L155.501 124.266L128.034 122.701C115.271 124.144 98.1161 125.719 90.6891 138.115C83.2621 150.511 72.8291 165.346 72.8291 165.346C100.89 175.246 96.0391 188.91 96.0391 188.91C96.0391 188.91 104.069 177.81 107.639 173.393C109.413 185.393 103.339 230.674 103.339 230.674H206.512C206.512 230.674 201.592 185.391 203.366 173.393C206.933 177.813 214.966 188.91 214.966 188.91C214.966 188.91 210.111 175.249 238.168 165.346Z" fill="#553791"/>
<path style="mix-blend-mode:multiply" opacity="0.3" d="M238.172 165.346C238.172 165.346 227.739 150.51 220.312 138.115C216.201 131.253 209.106 127.715 201.428 125.667C203.366 173.393 136.616 172.017 168.96 203.556C189.637 223.718 103.33 230.674 103.33 230.674H206.511C206.511 230.674 201.591 185.391 203.365 173.393C206.932 177.813 214.965 188.91 214.965 188.91C214.965 188.91 210.111 175.249 238.172 165.346Z" fill="url(#paint0_linear_13_1644)"/>
<path style="mix-blend-mode:multiply" opacity="0.3" d="M108.368 149.255C108.722 157.212 99.612 161.863 94.838 163.455C87.638 165.455 81.138 163.455 77.912 157.945C74.926 162.356 72.824 165.345 72.824 165.345C100.885 175.245 96.034 188.909 96.034 188.909C96.034 188.909 104.064 177.809 107.634 173.392C108.286 165.364 108.531 157.308 108.368 149.255Z" fill="url(#paint1_linear_13_1644)"/>
<path d="M94.838 180.62C94.838 180.62 88.989 187.447 83.708 189.52C78.427 191.593 91.657 177.766 91.657 177.766C92.3951 177.911 93.0803 178.253 93.6403 178.755C94.2002 179.258 94.614 179.902 94.838 180.62Z" fill="url(#paint2_linear_13_1644)"/>
<path style="mix-blend-mode:multiply" opacity="0.3" d="M94.838 180.62C94.838 180.62 88.989 187.447 83.708 189.52C78.427 191.593 91.657 177.766 91.657 177.766C92.3951 177.911 93.0803 178.253 93.6403 178.755C94.2002 179.258 94.614 179.902 94.838 180.62Z" fill="url(#paint3_linear_13_1644)"/>
<path d="M168.575 114.88C167.342 109.686 170.832 99.016 170.832 99.016H139.29C139.29 99.016 142.78 109.686 141.547 114.88C140.411 119.664 128.033 122.701 128.033 122.701C132.761 131.86 146.721 137.318 155.061 137.318C163.401 137.318 177.361 131.86 182.09 122.701C182.09 122.701 169.711 119.664 168.575 114.88Z" fill="#D1985E"/>
<path style="mix-blend-mode:multiply" opacity="0.8" d="M168.462 109.667C168.934 106.053 169.727 102.489 170.832 99.016H139.29C139.29 99.016 142.78 109.686 141.547 114.88C141.147 116.545 139.394 117.997 137.27 119.185C148.347 122.308 161.812 118.979 168.462 109.667Z" fill="url(#paint4_linear_13_1644)"/>
<path d="M128.878 72.029C128.878 72.029 123.915 66.335 119.105 70.281C114.881 73.746 119.885 89.55 131.08 87.991L128.878 72.029Z" fill="#D1985E"/>
<path style="mix-blend-mode:multiply" opacity="0.4" d="M128.05 74.045C128.05 74.045 124.899 70.431 121.85 72.936C119.168 75.136 122.35 85.17 129.45 84.179L128.05 74.045Z" fill="url(#paint5_linear_13_1644)"/>
<path d="M181.244 72.029C181.244 72.029 186.206 66.335 191.017 70.281C195.241 73.746 190.237 89.55 179.042 87.991L181.244 72.029Z" fill="#D1985E"/>
<path style="mix-blend-mode:multiply" opacity="0.4" d="M182.072 74.045C182.072 74.045 185.223 70.431 188.272 72.936C190.954 75.136 187.772 85.17 180.672 84.179L182.072 74.045Z" fill="url(#paint6_linear_13_1644)"/>
<path d="M155.061 30.762C127.461 30.762 123.281 57.362 123.281 57.362C123.281 57.362 128.466 87.546 130.306 94.537C132.146 101.528 140.654 107.153 142.851 109.203C145.463 111.64 149.876 115.124 155.061 115.124C160.246 115.124 165.102 111.282 167.272 109.203C169.213 107.342 177.972 101.53 179.817 94.537C181.662 87.544 186.842 57.362 186.842 57.362C186.842 57.362 182.659 30.762 155.061 30.762Z" fill="#D1985E"/>
<g style="mix-blend-mode:multiply" opacity="0.4">
<path d="M165.595 32.264C181.735 54.148 185.981 90.95 163.101 109.672C157.852 114.172 149.484 114.153 144.825 110.913C147.442 113.005 151.014 115.126 155.061 115.126C160.247 115.126 165.102 111.284 167.272 109.205C169.213 107.344 177.972 101.532 179.817 94.539C181.662 87.546 186.842 57.364 186.842 57.364C186.842 57.364 183.776 37.884 165.595 32.264Z" fill="#FFA175"/>
</g>
<path d="M171.711 52.217C167.692 54.3545 163.272 55.6294 158.732 55.9602C154.192 56.291 149.633 55.6704 145.347 54.138C139.447 52.171 130.393 56.01 131.566 65.024C131.814 66.93 132.05 68.844 130.993 70.449C128.682 74.3956 127.647 78.9596 128.028 83.517C128.028 83.517 123.276 74.898 122.712 67.367C122.412 63.316 119.612 51.251 122.799 43.948C125.761 37.157 133.813 30.148 140.342 30.019C145.383 29.919 166.957 21.561 174.304 33.806L171.711 52.217Z" fill="url(#paint7_linear_13_1644)"/>
<path style="mix-blend-mode:multiply" opacity="0.4" d="M167.966 28.503C162.889 45.113 140.677 51.779 124.675 50.78C123.567 50.6617 122.471 50.4435 121.402 50.128C120.861 56.789 122.488 64.328 122.716 67.365C123.281 74.896 128.032 83.514 128.032 83.514C127.651 78.9569 128.686 74.3933 130.997 70.447C132.054 68.847 131.763 66.934 131.57 65.022C130.662 56.008 139.45 52.17 145.351 54.136C149.637 55.6679 154.195 56.2884 158.734 55.9578C163.273 55.6272 167.693 54.3527 171.711 52.216L174.305 33.803C172.849 31.3732 170.615 29.5059 167.966 28.503Z" fill="url(#paint8_linear_13_1644)"/>
<path d="M171.715 52.216C173.643 53.8935 175.168 55.9837 176.177 58.3315C177.186 60.6792 177.653 63.224 177.543 65.777C177.499 67.8782 178.152 69.9349 179.401 71.625C181.578 74.8689 182.535 78.7795 182.101 82.662C183.296 80.2968 184.251 77.8178 184.952 75.262C186.391 70.473 188.366 66.887 188.799 59.396C189.232 51.905 189.974 36.151 174.313 33.796L171.715 52.216Z" fill="url(#paint9_linear_13_1644)"/>
<path style="mix-blend-mode:multiply" opacity="0.4" d="M177.771 34.629C176.643 34.2542 175.485 33.9778 174.309 33.803L171.715 52.216C173.643 53.8935 175.168 55.9837 176.177 58.3315C177.186 60.6792 177.653 63.224 177.543 65.777C177.499 67.8782 178.152 69.9349 179.401 71.625C181.578 74.8689 182.535 78.7795 182.101 82.662C183.296 80.2968 184.251 77.8178 184.952 75.262C186.197 71.117 187.843 67.869 188.544 62.214C179.137 58.103 176.306 44.339 177.771 34.629Z" fill="url(#paint10_linear_13_1644)"/>
<path d="M107.633 97.908C107.633 97.908 115.569 96.908 118.738 89.308C121.907 81.708 121.503 78.543 123.261 75.895C125.019 73.247 128.124 69.039 125.789 67.375C123.454 65.711 120.98 68.141 119.189 71.07C117.398 73.999 113.196 77.665 113.196 77.665L107.633 97.908Z" fill="#D1985E"/>
<path d="M139.132 48.797C139.415 46.133 136.606 47.537 133.726 48.224C130.846 48.911 121.664 51.909 119.31 53.218C118.533 53.6352 117.794 54.1197 117.102 54.666C118.647 53.2776 120.356 52.0846 122.192 51.114C125.951 49.102 134.145 42.883 135.142 40.437C136.139 37.991 135.413 36.497 133.79 36.467C132.167 36.437 127.629 41.626 124.762 43.591C123.442 44.4289 122.203 45.3892 121.062 46.459C121.062 46.459 124.611 40.604 126.192 37.08C127.31 34.588 126.1 30.975 123.659 31.708C121.218 32.441 118.38 42.489 114.119 47.849C109.858 53.209 101.932 68.529 101.378 73.763C100.824 78.997 101.085 88.933 99.2401 93.948C97.2631 99.32 91.905 110.73 91.905 110.73C86.586 121.768 52.805 174.984 66.066 187.185C78.585 198.703 89.8061 186.124 95.2441 176.442C104.05 160.763 108.134 112.448 108.134 112.448C108.134 112.448 109.076 99.966 110.368 98.623C116.721 92.023 117.014 86.087 115.268 77.496C113.522 68.905 119.221 66.674 120.276 65.085C121.331 63.496 133.042 63.127 134.716 61.273C136.39 59.419 131.841 57.804 129.762 57.867C127.683 57.93 118.498 59.555 118.498 59.555C118.498 59.555 124.646 55.908 127.848 54.971C131.05 54.034 138.85 51.461 139.132 48.797Z" fill="#D1985E"/>
<path style="mix-blend-mode:multiply" opacity="0.4" d="M121.06 46.458C119.473 47.8692 117.8 49.1804 116.051 50.384C116.051 50.384 120.295 45.278 121.687 42.956C123.079 40.634 126.187 35.607 126.256 33.181C126.577 33.8417 126.728 34.5726 126.693 35.3065C126.658 36.0404 126.439 36.7538 126.056 37.381C124.793 39.899 121.06 46.458 121.06 46.458Z" fill="url(#paint11_linear_13_1644)"/>
<path d="M203.366 97.908C203.366 97.908 195.43 96.908 192.261 89.308C189.092 81.708 189.496 78.543 187.739 75.895C185.982 73.247 182.875 69.039 185.211 67.375C187.547 65.711 190.02 68.141 191.811 71.07C193.602 73.999 197.804 77.665 197.804 77.665L203.366 97.908Z" fill="#D1985E"/>
<path d="M171.868 48.797C171.585 46.133 174.394 47.537 177.274 48.224C180.154 48.911 189.335 51.909 191.69 53.218C192.467 53.6354 193.206 54.1199 193.898 54.666C192.354 53.2777 190.644 52.0848 188.808 51.114C185.049 49.102 176.855 42.883 175.858 40.437C174.861 37.991 175.588 36.497 177.211 36.467C178.834 36.437 183.371 41.626 186.239 43.591C187.559 44.4292 188.798 45.3894 189.939 46.459C189.939 46.459 186.39 40.604 184.809 37.08C183.69 34.588 184.901 30.975 187.342 31.708C189.783 32.441 192.621 42.489 196.882 47.849C201.143 53.209 209.07 68.529 209.623 73.763C210.176 78.997 209.916 88.933 211.761 93.948C213.738 99.32 219.096 110.73 219.096 110.73C224.415 121.768 258.196 174.984 244.935 187.185C232.416 198.703 221.196 186.124 215.758 176.442C206.952 160.763 202.868 112.448 202.868 112.448C202.868 112.448 201.926 99.966 200.635 98.623C194.282 92.023 193.988 86.087 195.735 77.496C197.482 68.905 191.782 66.674 190.728 65.085C189.674 63.496 177.962 63.127 176.288 61.273C174.614 59.419 179.163 57.804 181.242 57.867C183.321 57.93 192.506 59.555 192.506 59.555C192.506 59.555 186.358 55.908 183.155 54.971C179.952 54.034 172.15 51.461 171.868 48.797Z" fill="#D1985E"/>
<path style="mix-blend-mode:multiply" opacity="0.4" d="M189.94 46.458C191.527 47.8694 193.2 49.1806 194.949 50.384C194.949 50.384 190.705 45.278 189.313 42.956C187.921 40.634 184.813 35.607 184.744 33.181C184.423 33.8417 184.273 34.5726 184.307 35.3065C184.342 36.0404 184.561 36.7538 184.944 37.381C186.21 39.899 189.94 46.458 189.94 46.458Z" fill="url(#paint12_linear_13_1644)"/>
<path style="mix-blend-mode:multiply" opacity="0.4" d="M152.097 71.201L147.871 80.267C147.871 80.267 142.993 78.267 139.634 79.022C138.311 79.2281 137.017 79.5934 135.781 80.11L132.959 75.642C132.959 75.642 138.082 71.226 141.826 72.296C145.267 73.2146 148.927 72.8244 152.097 71.201Z" fill="url(#paint13_linear_13_1644)"/>
<path d="M147.871 80.27C147.871 80.27 145.771 77.582 143.512 77.413C141.794 77.2344 140.06 77.5258 138.495 78.256C137.586 78.8272 136.707 79.4468 135.864 80.112C136.93 80.1139 137.99 80.2633 139.015 80.556C143.001 81.842 147.871 80.27 147.871 80.27Z" fill="white"/>
<path d="M132.959 75.642C141.214 68.958 145.467 76.142 152.097 71.201" stroke="#333333" stroke-width="4.244" stroke-miterlimit="10"/>
<path d="M140.152 79.219C140.163 79.6486 140.301 80.0655 140.547 80.4174C140.794 80.7693 141.139 81.0406 141.539 81.1974C141.939 81.3542 142.377 81.3895 142.797 81.2989C143.217 81.2083 143.601 80.9958 143.901 80.688C144.201 80.3802 144.404 79.9908 144.483 79.5685C144.563 79.1461 144.517 78.7097 144.35 78.3137C144.182 77.9177 143.902 77.5798 143.544 77.3422C143.186 77.1046 142.766 76.9779 142.336 76.978C141.749 76.9856 141.19 77.226 140.78 77.6462C140.37 78.0665 140.145 78.6322 140.152 79.219Z" fill="url(#paint14_linear_13_1644)"/>
<path style="mix-blend-mode:multiply" opacity="0.8" d="M141.25 79.219C141.257 79.4925 141.345 79.7578 141.502 79.9817C141.659 80.2057 141.879 80.3784 142.133 80.4781C142.388 80.5779 142.666 80.6004 142.934 80.5427C143.201 80.4851 143.446 80.3498 143.637 80.1539C143.828 79.958 143.957 79.7102 144.007 79.4414C144.058 79.1726 144.029 78.8948 143.922 78.6427C143.816 78.3906 143.638 78.1755 143.41 78.0242C143.182 77.8728 142.915 77.7921 142.641 77.792C142.267 77.797 141.911 77.9501 141.65 78.2177C141.39 78.4852 141.246 78.8454 141.25 79.219Z" fill="url(#paint15_linear_13_1644)"/>
<path d="M141.007 78.6329C141.01 78.7247 141.039 78.8137 141.092 78.8888C141.145 78.9638 141.219 79.0217 141.304 79.055C141.39 79.0884 141.483 79.0958 141.573 79.0763C141.663 79.0569 141.745 79.0114 141.809 78.9456C141.873 78.8798 141.916 78.7966 141.933 78.7064C141.95 78.6162 141.94 78.5229 141.904 78.4384C141.869 78.3538 141.809 78.2816 141.732 78.2308C141.656 78.1801 141.566 78.153 141.474 78.153C141.412 78.1537 141.351 78.1668 141.293 78.1913C141.236 78.2159 141.184 78.2515 141.141 78.2961C141.098 78.3407 141.064 78.3934 141.041 78.4512C141.018 78.509 141.006 78.5707 141.007 78.6329Z" fill="white"/>
<path opacity="0.5" d="M144.146 79.8959C144.146 80.0959 143.777 80.2669 143.323 80.2669C142.869 80.2669 142.499 80.0999 142.499 79.8959C142.499 79.6919 142.868 79.5259 143.323 79.5259C143.778 79.5259 144.146 79.6919 144.146 79.8959Z" fill="white"/>
<path d="M147.871 80.267C142.801 74.667 135.865 80.047 135.865 80.047" stroke="#333333" stroke-width="1.981" stroke-miterlimit="10"/>
<path style="mix-blend-mode:multiply" opacity="0.4" d="M158.024 71.201L162.25 80.267C162.25 80.267 167.128 78.267 170.487 79.022C171.81 79.2283 173.104 79.5936 174.34 80.11L177.163 75.642C177.163 75.642 172.04 71.226 168.295 72.296C164.854 73.2145 161.194 72.8243 158.024 71.201Z" fill="url(#paint16_linear_13_1644)"/>
<path d="M162.25 80.27C162.25 80.27 164.35 77.582 166.609 77.413C168.327 77.2343 170.061 77.5256 171.626 78.256C172.536 78.8272 173.414 79.4468 174.257 80.112C173.191 80.1139 172.131 80.2633 171.106 80.556C167.121 81.842 162.25 80.27 162.25 80.27Z" fill="white"/>
<path d="M177.162 75.642C168.906 68.958 164.653 76.142 158.023 71.201" stroke="#333333" stroke-width="4.244" stroke-miterlimit="10"/>
<path d="M169.969 79.219C169.958 79.6487 169.82 80.0655 169.574 80.4175C169.327 80.7694 168.982 81.0407 168.582 81.1975C168.181 81.3542 167.744 81.3895 167.324 81.2988C166.903 81.2081 166.519 80.9955 166.219 80.6876C165.92 80.3797 165.717 79.9902 165.637 79.5678C165.558 79.1455 165.604 78.709 165.772 78.313C165.939 77.917 166.219 77.5792 166.577 77.3417C166.936 77.1042 167.356 76.9777 167.786 76.978C168.372 76.9859 168.932 77.2264 169.341 77.6466C169.751 78.0668 169.976 78.6324 169.969 79.219Z" fill="url(#paint17_linear_13_1644)"/>
<path style="mix-blend-mode:multiply" opacity="0.8" d="M168.872 79.219C168.865 79.4925 168.777 79.7579 168.62 79.9818C168.463 80.2058 168.243 80.3785 167.988 80.4782C167.734 80.578 167.455 80.6004 167.188 80.5426C166.92 80.4849 166.676 80.3496 166.485 80.1536C166.294 79.9576 166.165 79.7096 166.114 79.4408C166.064 79.1719 166.093 78.8941 166.2 78.642C166.306 78.3899 166.485 78.1749 166.713 78.0237C166.941 77.8725 167.208 77.7919 167.482 77.792C167.855 77.7973 168.211 77.9505 168.472 78.218C168.733 78.4855 168.876 78.8455 168.872 79.219Z" fill="url(#paint18_linear_13_1644)"/>
<path d="M169.115 78.6329C169.112 78.7247 169.083 78.8137 169.03 78.8888C168.977 78.9638 168.903 79.0217 168.818 79.055C168.732 79.0884 168.639 79.0958 168.549 79.0763C168.459 79.0569 168.377 79.0114 168.313 78.9456C168.249 78.8798 168.206 78.7966 168.189 78.7064C168.172 78.6162 168.182 78.5229 168.218 78.4384C168.254 78.3538 168.313 78.2816 168.39 78.2308C168.466 78.1801 168.556 78.153 168.648 78.153C168.71 78.1537 168.772 78.1668 168.829 78.1913C168.886 78.2159 168.938 78.2515 168.981 78.2961C169.024 78.3407 169.059 78.3934 169.082 78.4512C169.105 78.509 169.116 78.5707 169.115 78.6329Z" fill="white"/>
<path opacity="0.5" d="M165.975 79.896C165.975 80.096 166.344 80.267 166.799 80.267C167.254 80.267 167.622 80.1 167.622 79.896C167.622 79.692 167.253 79.526 166.799 79.526C166.345 79.526 165.975 79.692 165.975 79.896Z" fill="white"/>
<path d="M162.25 80.267C167.32 74.667 174.256 80.047 174.256 80.047" stroke="#333333" stroke-width="1.981" stroke-miterlimit="10"/>
<g style="mix-blend-mode:multiply" opacity="0.8">
<path d="M154.954 93.741C157.245 93.741 157.422 91.573 158.267 92.354C158.998 93.03 160.874 92.789 160.612 90.694C160.706 91.4615 160.626 92.2402 160.378 92.9726C160.131 93.7051 159.722 94.3726 159.182 94.9261C158.642 95.4796 157.985 95.9048 157.259 96.1704C156.533 96.4361 155.757 96.5354 154.987 96.461C151.122 96.461 149.502 93.306 149.487 90.739C149.704 93.008 150.729 93.056 151.643 92.354C152.557 91.652 152.601 93.741 154.957 93.741" fill="#FFA175"/>
</g>
<g style="mix-blend-mode:multiply" opacity="0.8">
<path d="M158.902 99.564C157.889 99.21 156.558 100.05 155.502 100.05C154.446 100.05 153.112 99.211 152.102 99.564C151.092 99.917 145.864 102.482 145.864 102.482C147.919 102.038 150.004 101.743 152.102 101.598C153.565 101.686 153.822 102.405 155.502 102.405C157.182 102.405 157.441 101.686 158.902 101.598C161 101.743 163.085 102.038 165.14 102.482C165.14 102.482 159.915 99.919 158.902 99.564Z" fill="#FFA175"/>
</g>
<g style="mix-blend-mode:multiply" opacity="0.8">
<path d="M151.871 104.959C154.656 106.476 159.471 104.737 159.471 104.737C155.85 108.981 151.871 104.959 151.871 104.959Z" fill="#FFA175"/>
</g>
<path d="M148.291 16.916C149.136 17.008 149.981 17.088 150.827 17.166C151.673 17.244 152.521 17.312 153.367 17.383L156.367 17.636L154.255 15.536C151.917 13.218 149.541 10.9377 147.128 8.69501C145.915 7.57901 144.698 6.46702 143.455 5.38102C142.84 4.83235 142.217 4.29035 141.586 3.75502C140.955 3.21969 140.32 2.69002 139.681 2.16602C140.188 2.82268 140.702 3.47035 141.225 4.10902C141.743 4.75302 142.271 5.38602 142.805 6.01602C143.861 7.28502 144.943 8.52802 146.03 9.76702C147.556 11.498 149.114 13.2 150.682 14.89C149.961 14.814 149.239 14.738 148.516 14.673C147.671 14.591 146.824 14.52 145.978 14.452C145.132 14.384 144.278 14.327 143.435 14.265L140.952 14.081L142.534 15.936C144.349 18.0694 146.197 20.1737 148.077 22.249C149.017 23.289 149.977 24.312 150.94 25.333C151.416 25.848 151.913 26.346 152.399 26.851C152.885 27.356 153.386 27.851 153.889 28.345C153.513 27.745 153.133 27.158 152.74 26.575C152.347 25.992 151.965 25.403 151.561 24.83C150.761 23.674 149.961 22.521 149.145 21.386C147.992 19.779 146.812 18.191 145.622 16.613L145.761 16.629C146.604 16.733 147.446 16.83 148.291 16.916Z" fill="#CE2955"/>
<path d="M194.426 16.394C193.233 16.273 192.041 16.157 190.846 16.058C189.826 15.964 188.804 15.887 187.784 15.81C190.39 13.861 192.984 11.893 195.539 9.87502C197.35 8.41402 199.182 6.98202 200.967 5.48502C201.866 4.74568 202.757 3.99602 203.642 3.23602C204.527 2.47602 205.405 1.70702 206.277 0.929016C205.252 1.49035 204.236 2.06535 203.23 2.65401C202.224 3.24268 201.222 3.83701 200.224 4.43701C198.224 5.62501 196.264 6.88202 194.287 8.10902C190.363 10.603 186.488 13.167 182.661 15.801L179.197 18.175L183.424 18.584C184.617 18.699 185.81 18.827 187.004 18.925C188.198 19.023 189.392 19.135 190.588 19.225C191.784 19.315 192.979 19.4 194.176 19.474L194.376 19.486C192.324 21.374 190.284 23.277 188.282 25.225L186.152 27.29L184.052 29.39C183.352 30.084 182.667 30.806 181.974 31.514C181.281 32.222 180.605 32.95 179.932 33.682C180.755 33.125 181.574 32.563 182.38 31.982C183.186 31.401 184 30.836 184.79 30.243L187.18 28.479L189.539 26.679C192.691 24.287 195.777 21.818 198.839 19.324L201.51 17.149L198.01 16.775C196.81 16.645 195.62 16.505 194.426 16.394Z" fill="#CE2955"/>
<path d="M115.165 21.865C114.96 23.047 114.758 24.228 114.573 25.412C114.407 26.422 114.256 27.435 114.105 28.448C112.348 25.709 110.571 22.983 108.743 20.287C107.417 18.375 106.121 16.445 104.754 14.558C104.083 13.6073 103.399 12.664 102.704 11.728C102.009 10.792 101.305 9.86032 100.593 8.93298C101.079 9.99965 101.579 11.0547 102.093 12.098C102.607 13.1413 103.128 14.1833 103.655 15.224C104.696 17.309 105.809 19.35 106.89 21.411C109.096 25.5043 111.375 29.554 113.727 33.56L115.845 37.185L116.557 32.998C116.757 31.816 116.972 30.636 117.157 29.451C117.342 28.266 117.536 27.084 117.709 25.899C117.882 24.714 118.055 23.527 118.216 22.338C118.225 22.274 118.232 22.208 118.241 22.143C119.977 24.326 121.729 26.498 123.528 28.634L125.434 30.908L127.376 33.154C128.018 33.908 128.69 34.638 129.346 35.38C130.002 36.122 130.68 36.849 131.361 37.573C130.861 36.711 130.361 35.854 129.845 35.01C129.329 34.166 128.82 33.31 128.284 32.479L126.696 29.969L125.072 27.486C122.913 24.171 120.672 20.916 118.404 17.686L116.434 14.865L115.809 18.327C115.592 19.505 115.362 20.683 115.165 21.865Z" fill="#CE2955"/>
<g opacity="0.7">
<path d="M168.959 53.315C168.959 55.9771 168.17 58.5795 166.691 60.793C165.212 63.0064 163.109 64.7316 160.65 65.7504C158.19 66.7692 155.484 67.0357 152.873 66.5163C150.262 65.997 147.864 64.715 145.981 62.8326C144.099 60.9502 142.817 58.5519 142.298 55.9409C141.778 53.3299 142.045 50.6235 143.064 48.164C144.082 45.7046 145.808 43.6024 148.021 42.1234C150.235 40.6444 152.837 39.855 155.499 39.855C159.069 39.855 162.492 41.2731 165.017 43.7973C167.541 46.3216 168.959 49.7452 168.959 53.315V53.315Z" stroke="#CE2955" stroke-width="1.478" stroke-miterlimit="10"/>
<path d="M170.658 53.315C170.658 56.3131 169.768 59.2437 168.102 61.7363C166.436 64.229 164.069 66.1716 161.299 67.3186C158.529 68.4657 155.481 68.7656 152.541 68.1805C149.6 67.5953 146.899 66.1514 144.779 64.0313C142.66 61.9112 141.216 59.2101 140.631 56.2696C140.046 53.3291 140.347 50.2813 141.494 47.5114C142.642 44.7416 144.585 42.3742 147.077 40.7086C149.57 39.043 152.501 38.154 155.499 38.154C157.49 38.154 159.461 38.5462 161.301 39.3081C163.14 40.07 164.811 41.1868 166.219 42.5947C167.626 44.0025 168.743 45.6739 169.505 47.5133C170.266 49.3527 170.658 51.3241 170.658 53.315Z" stroke="#CE2955" stroke-width="1.478" stroke-miterlimit="10"/>
<path d="M166.998 53.315C166.998 55.5895 166.324 57.8129 165.06 59.7041C163.796 61.5952 162 63.0692 159.899 63.9396C157.798 64.81 155.485 65.0378 153.255 64.594C151.024 64.1503 148.975 63.055 147.366 61.4467C145.758 59.8384 144.663 57.7893 144.219 55.5585C143.775 53.3278 144.003 51.0155 144.873 48.9141C145.744 46.8128 147.218 45.0167 149.109 43.7531C151 42.4895 153.224 41.815 155.498 41.815C158.548 41.815 161.473 43.0266 163.63 45.1833C165.786 47.3399 166.998 50.265 166.998 53.315Z" stroke="#CE2955" stroke-width="1.478" stroke-miterlimit="10"/>
<path d="M165.426 53.314C165.426 55.2773 164.844 57.1966 163.753 58.8291C162.662 60.4616 161.112 61.734 159.298 62.4853C157.484 63.2367 155.488 63.4333 153.562 63.0502C151.637 62.6672 149.868 61.7217 148.48 60.3334C147.091 58.9451 146.146 57.1763 145.763 55.2506C145.38 53.325 145.576 51.329 146.328 49.5151C147.079 47.7011 148.351 46.1508 149.984 45.06C151.616 43.9692 153.536 43.387 155.499 43.387C158.132 43.3872 160.657 44.4332 162.518 46.2948C164.38 48.1564 165.426 50.6812 165.426 53.314Z" fill="#CE2955"/>
</g>
<defs>
<linearGradient id="paint0_linear_13_1644" x1="168.054" y1="272.047" x2="170.672" y2="152.092" gradientUnits="userSpaceOnUse">
<stop stop-color="#FCCB4F"/>
<stop offset="1" stop-color="#F7931E"/>
</linearGradient>
<linearGradient id="paint1_linear_13_1644" x1="89.0898" y1="203.065" x2="91.1212" y2="158.79" gradientUnits="userSpaceOnUse">
<stop stop-color="#FCCB4F"/>
<stop offset="1" stop-color="#F7931E"/>
</linearGradient>
<linearGradient id="paint2_linear_13_1644" x1="72.3281" y1="200.764" x2="83.9282" y2="188.002" gradientUnits="userSpaceOnUse">
<stop stop-color="#FCD0BE"/>
<stop offset="1" stop-color="#FFA175"/>
</linearGradient>
<linearGradient id="paint3_linear_13_1644" x1="72.3281" y1="200.764" x2="83.9282" y2="188.002" gradientUnits="userSpaceOnUse">
<stop stop-color="#FCD0BE"/>
<stop offset="1" stop-color="#FFA175"/>
</linearGradient>
<linearGradient id="paint4_linear_13_1644" x1="148.345" y1="125.291" x2="150.904" y2="101.245" gradientUnits="userSpaceOnUse">
<stop stop-color="#FCD0BE"/>
<stop offset="1" stop-color="#FFA175"/>
</linearGradient>
<linearGradient id="paint5_linear_13_1644" x1="122.725" y1="74.8203" x2="134.348" y2="80.7729" gradientUnits="userSpaceOnUse">
<stop stop-color="#FCD0BE"/>
<stop offset="1" stop-color="#FFA175"/>
</linearGradient>
<linearGradient id="paint6_linear_13_1644" x1="170.683" y1="74.8203" x2="182.298" y2="80.7744" gradientUnits="userSpaceOnUse">
<stop stop-color="#FCD0BE"/>
<stop offset="1" stop-color="#FFA175"/>
</linearGradient>
<linearGradient id="paint7_linear_13_1644" x1="121.289" y1="55.3296" x2="174.304" y2="55.3296" gradientUnits="userSpaceOnUse">
<stop stop-color="#4D4D4D"/>
<stop offset="1" stop-color="#333333"/>
</linearGradient>
<linearGradient id="paint8_linear_13_1644" x1="121.292" y1="56.0085" x2="174.305" y2="56.0085" gradientUnits="userSpaceOnUse">
<stop stop-color="#4D4D4D"/>
<stop offset="1" stop-color="#333333"/>
</linearGradient>
<linearGradient id="paint9_linear_13_1644" x1="187.637" y1="75.4299" x2="169.128" y2="67.629" gradientUnits="userSpaceOnUse">
<stop stop-color="#4D4D4D"/>
<stop offset="1" stop-color="#333333"/>
</linearGradient>
<linearGradient id="paint10_linear_13_1644" x1="185.683" y1="76.0172" x2="167.44" y2="68.6982" gradientUnits="userSpaceOnUse">
<stop stop-color="#4D4D4D"/>
<stop offset="1" stop-color="#333333"/>
</linearGradient>
<linearGradient id="paint11_linear_13_1644" x1="123.727" y1="35.1249" x2="114.837" y2="46.5384" gradientUnits="userSpaceOnUse">
<stop stop-color="#FCD0BE"/>
<stop offset="1" stop-color="#FFA175"/>
</linearGradient>
<linearGradient id="paint12_linear_13_1644" x1="-436.353" y1="35.1249" x2="-445.23" y2="46.5488" gradientUnits="userSpaceOnUse">
<stop stop-color="#FCD0BE"/>
<stop offset="1" stop-color="#FFA175"/>
</linearGradient>
<linearGradient id="paint13_linear_13_1644" x1="132.959" y1="75.734" x2="152.097" y2="75.734" gradientUnits="userSpaceOnUse">
<stop stop-color="#FCD0BE"/>
<stop offset="1" stop-color="#FFA175"/>
</linearGradient>
<linearGradient id="paint14_linear_13_1644" x1="140.152" y1="79.163" x2="144.521" y2="79.163" gradientUnits="userSpaceOnUse">
<stop stop-color="#4D4D4D"/>
<stop offset="1" stop-color="#333333"/>
</linearGradient>
<linearGradient id="paint15_linear_13_1644" x1="141.25" y1="79.183" x2="144.032" y2="79.183" gradientUnits="userSpaceOnUse">
<stop stop-color="#4D4D4D"/>
<stop offset="1" stop-color="#333333"/>
</linearGradient>
<linearGradient id="paint16_linear_13_1644" x1="-335.168" y1="75.734" x2="-316.029" y2="75.734" gradientUnits="userSpaceOnUse">
<stop stop-color="#FCD0BE"/>
<stop offset="1" stop-color="#FFA175"/>
</linearGradient>
<linearGradient id="paint17_linear_13_1644" x1="-328.173" y1="79.163" x2="-323.803" y2="79.163" gradientUnits="userSpaceOnUse">
<stop stop-color="#4D4D4D"/>
<stop offset="1" stop-color="#333333"/>
</linearGradient>
<linearGradient id="paint18_linear_13_1644" x1="166.09" y1="79.183" x2="168.872" y2="79.183" gradientUnits="userSpaceOnUse">
<stop stop-color="#4D4D4D"/>
<stop offset="1" stop-color="#333333"/>
</linearGradient>
</defs>
</svg>
